<svg width="67" height="59" viewBox="0 0 67 59" fill="none" xmlns="http://www.w3.org/2000/svg">
<g filter="url(#filter0_ddd)">
<path d="M11.7814 38.1665L7.84761 33.988H4.03149C3.2918 33.988 2.70341 33.363 2.70341 32.5774C2.70341 31.7917 3.2918 31.1667 4.03149 31.1667H8.38557C8.7386 31.1667 9.07482 31.3095 9.32699 31.5774L23.6837 46.809C23.9358 47.0769 24.0703 47.434 24.0703 47.809V52.4696C24.0703 53.2553 23.4819 53.8802 22.7422 53.8802C22.0026 53.8802 21.4142 53.2553 21.4142 52.4696V48.3983L17.4972 44.2555C16.4381 44.9162 15.2109 45.7376 14.0005 46.6126C14.0005 46.6126 13.3112 47.1305 12.8405 46.2376C12.5211 45.5948 12.1008 45.0055 11.5965 44.4698C11.0753 43.9163 10.487 43.4699 9.84813 43.1127C9.09163 42.6842 9.69683 41.7735 9.69683 41.7735C10.487 40.5235 11.193 39.2557 11.7814 38.1665Z" fill="white"/>
<path d="M6.56997 45.077C5.37638 45.077 4.25004 45.577 3.40949 46.4698C2.56893 47.3627 2.09822 48.5591 2.09822 49.8269C2.09822 51.0947 2.56893 52.2911 3.40949 53.1839C4.25004 54.0767 5.37638 54.5767 6.56997 54.5767C7.76356 54.5767 8.8899 54.0767 9.73045 53.1839C10.571 52.2911 11.0417 51.0947 11.0417 49.8269C11.0417 48.5591 10.571 47.3627 9.73045 46.4698C8.8899 45.577 7.78037 45.077 6.56997 45.077Z" fill="white"/>
<path d="M26.0541 27.8991L19.0775 35.2917C18.4891 35.9166 17.5308 35.9166 16.9424 35.2917L15.4631 33.7203C14.8747 33.0953 14.8747 32.0775 15.4631 31.4525L22.3388 24.1671L26.0541 27.8991Z" fill="white"/>
<path d="M27.214 29.0596L30.9461 32.7917L23.835 40.3274C23.2466 40.9524 22.2884 40.9524 21.7 40.3274L20.2206 38.756C19.6322 38.131 19.6322 37.1131 20.2206 36.4881L27.214 29.0596Z" fill="white"/>
<path d="M50.884 4.20326L50.3293 10.7746C50.2452 11.6496 49.7072 12.8817 49.1189 13.5067L42.697 20.3102L39.0658 16.471L41.3689 14.0246C41.6884 13.7031 41.6884 13.1674 41.3689 12.8282C41.0663 12.4889 40.5452 12.4889 40.2426 12.8282L37.9395 15.2746L34.3083 11.4353L40.7301 4.61397C41.3185 3.98898 42.4785 3.41756 43.3022 3.32827L49.5223 2.73899C50.3461 2.66756 50.9681 3.32827 50.884 4.20326Z" fill="white"/>
<path d="M50.4638 46.613C49.2534 45.7201 48.0262 44.9166 46.9671 44.2559L43.0501 48.3987V52.47C43.0501 53.2557 42.4617 53.8807 41.722 53.8807C40.9823 53.8807 40.3939 53.2557 40.3939 52.47V47.8094C40.3939 47.4344 40.5284 47.0773 40.7806 46.8094L55.1373 31.5776C55.3894 31.3097 55.7257 31.1669 56.0787 31.1669H60.4328C61.1724 31.1669 61.7608 31.7919 61.7608 32.5776C61.7608 33.3633 61.1724 33.9882 60.4328 33.9882H56.6166L52.6828 38.1489C53.2712 39.2381 53.9773 40.506 54.7506 41.7559C54.7506 41.7559 55.3558 42.6666 54.5993 43.0952C53.9605 43.4523 53.3721 43.8988 52.851 44.4523C52.3466 44.988 51.9432 45.5773 51.6069 46.2201C51.1698 47.1308 50.4638 46.613 50.4638 46.613Z" fill="white"/>
<path d="M54.7338 46.4702C53.8933 47.3631 53.4226 48.5594 53.4226 49.8272C53.4226 51.095 53.8933 52.2914 54.7338 53.1842C55.5744 54.077 56.7007 54.577 57.8943 54.577C59.0879 54.577 60.2143 54.077 61.0548 53.1842C61.8954 52.2914 62.3661 51.095 62.3661 49.8272C62.3661 48.5594 61.8954 47.3631 61.0548 46.4702C60.2143 45.5774 59.0879 45.0775 57.8943 45.0775C56.7176 45.0775 55.5912 45.5774 54.7338 46.4702Z" fill="white"/>
<path d="M24.2385 12.8282C23.9191 12.4889 23.4147 12.4889 23.1121 12.8282C22.7927 13.1496 22.7927 13.7031 23.1121 14.0246L44.2773 36.4883C44.8657 37.1133 44.8657 38.1311 44.2773 38.7561L42.7979 40.3275C42.2096 40.9525 41.2513 40.9525 40.6629 40.3275L15.3622 13.5067C14.7738 12.8817 14.2359 11.6496 14.1518 10.7746L13.597 4.20338C13.5298 3.3284 14.135 2.66771 14.9587 2.75699L21.162 3.36412C21.9858 3.43554 23.1458 4.02482 23.7341 4.6498L49.0181 31.4706C49.6065 32.0955 49.6065 33.1134 49.0181 33.7384L47.5387 35.3097C46.9503 35.9347 45.9921 35.9347 45.4037 35.3097L24.2385 12.8282Z" fill="white"/>
</g>
<defs>
<filter id="filter0_ddd" x="0.0982208" y="0.733704" width="66.2679" height="57.8433" filterUnits="userSpaceOnUse" color-interpolation-filters="sRGB">
<feFlood flood-opacity="0" result="BackgroundImageFix"/>
<feColorMatrix in="SourceAlpha" type="matrix" values="0 0 0 0 0 0 0 0 0 0 0 0 0 0 0 0 0 0 127 0"/>
<feOffset dx="1" dy="1"/>
<feGaussianBlur stdDeviation="1.5"/>
<feColorMatrix type="matrix" values="0 0 0 0 0.61276 0 0 0 0 0.367656 0 0 0 0 0 0 0 0 0.26 0"/>
<feBlend mode="normal" in2="BackgroundImageFix" result="effect1_dropShadow"/>
<feColorMatrix in="SourceAlpha" type="matrix" values="0 0 0 0 0 0 0 0 0 0 0 0 0 0 0 0 0 0 127 0"/>
<feOffset dx="0.5" dy="0.5"/>
<feGaussianBlur stdDeviation="0.5"/>
<feColorMatrix type="matrix" values="0 0 0 0 0.167747 0 0 0 0 0.271597 0 0 0 0 0.304391 0 0 0 0.24 0"/>
<feBlend mode="normal" in2="effect1_dropShadow" result="effect2_dropShadow"/>
<feColorMatrix in="SourceAlpha" type="matrix" values="0 0 0 0 0 0 0 0 0 0 0 0 0 0 0 0 0 0 127 0"/>
<feOffset dx="-0.5" dy="-0.5"/>
<feGaussianBlur stdDeviation="0.5"/>
<feColorMatrix type="matrix" values="0 0 0 0 1 0 0 0 0 0.987614 0 0 0 0 0.876136 0 0 0 0.72 0"/>
<feBlend mode="normal" in2="effect2_dropShadow" result="effect3_dropShadow"/>
<feBlend mode="normal" in="SourceGraphic" in2="effect3_dropShadow" result="shape"/>
</filter>
</defs>
</svg>
