<svg xmlns="http://www.w3.org/2000/svg" xmlns:xlink="http://www.w3.org/1999/xlink" width="414" height="736" viewBox="0 0 414 736"><defs><style>.a{clip-path:url(#b);}.b{fill:#fff;}.c{fill:#185d7a;}.ac,.ax,.az,.d,.h,.t{fill:none;}.d{stroke:#378ec1;stroke-width:0.681px;}.aa,.ab,.ac,.ad,.ae,.af,.ag,.ah,.ai,.aj,.al,.am,.an,.ao,.ap,.aq,.ar,.as,.at,.au,.av,.ax,.ay,.az,.d,.f,.i,.j,.k,.l,.m,.n,.o,.p,.q,.t,.v,.w,.y,.z{stroke-miterlimit:10;}.e{fill:#08536d;}.f{fill:#39b2e2;}.aa,.ab,.ac,.ad,.ae,.af,.ag,.ah,.ai,.aj,.al,.am,.an,.ao,.ap,.aq,.ar,.as,.at,.au,.av,.ax,.ay,.f,.i,.j,.k,.l,.m,.n,.o,.p,.q,.t,.v,.w,.y,.z{stroke:#040303;}.f,.i{stroke-width:0.166px;}.g{fill:#288ac1;}.au,.i,.j{fill:#fcd87e;}.aa,.ab,.ad,.ae,.af,.ag,.ah,.ai,.aj,.al,.am,.j,.k,.l,.m,.n,.o,.p,.q,.t,.v,.w,.y,.z{stroke-width:0.15px;}.k{fill:#ff9772;}.ao,.l,.r{fill:#040303;}.ap,.m{fill:#aae5e4;}.n{fill:#ffb287;}.o,.x{fill:#299bcb;}.p{fill:#7dcea0;}.q{fill:#006890;}.s{fill:#e6975f;}.u{fill:#fdb47a;}.v{fill:#ff8470;}.at,.w{fill:#f4e1df;}.y{fill:#ff956c;}.z{fill:#ff808b;}.aa,.as{fill:#ff9974;}.ab{fill:#005f8b;}.ac{stroke-width:0.602px;}.ad{fill:#743030;}.ae{fill:#7d2b15;}.af{fill:#007199;}.ag{fill:#e37b58;}.ah,.ak{fill:#ffbbc2;}.ai,.aq{fill:#f1f1f1;}.aj{fill:#250300;}.al{fill:#131313;}.am{fill:#303030;}.an,.aw{fill:#ff5353;}.an,.ao,.ap,.aq,.ar,.as,.at,.au,.av,.ax,.ay{stroke-width:0.154px;}.ar{fill:#009dc8;}.av{fill:#0086a7;}.ay{fill:#ff7676;}.az{stroke:#fff;}.ba{fill:#38d2b7;font-size:21px;font-family:Montserrat-Bold, Montserrat;font-weight:700;}</style><clipPath id="b"><rect width="414" height="736"/></clipPath></defs><g id="a" class="a"><rect class="b" width="414" height="736"/><g transform="translate(-32.589 -60.462)"><rect class="b" width="482.052" height="871.174" transform="translate(0 -4.392)"/><rect class="c" width="512.492" height="563.484" transform="translate(-14.515 -10.538)"/><path class="d" d="M160.872,123.921c-4.077,3.288-8.307,6.773-10.363,11.591s-1.1,11.358,3.481,13.905c2.307,1.285,5.074,1.356,7.715,1.344,26.09-.12,52.856-5.206,77.852,2.268,2.9.868,5.859,1.963,8.008,4.1,6.45,6.412,2.3,17.119-.689,25.709-2.482,7.14-3.781,15.349-.24,22.028,5.854,11.045,20.871,12.157,33.356,12.778,21.351,1.062,42.891,4.958,61.944,14.65s35.484,25.66,42.725,45.773,4.12,44.38-10.34,60.123c-10.97,11.943-26.9,17.965-42.565,22.143C280.62,373.966,224.7,372.7,178.234,398.04c-11.786,6.428-23.089,14.929-29.081,26.943s-5.284,28.127,4.532,37.286"/><path class="e" d="M199.988,561.73c-.582-13.915,7.028-25.231,14.235-34.01,8.755-10.664,17.989-20.826,28.5-26.946,11.11-6.469,23.184-8.151,35.093-8.725,28.208-1.36,56.758,3.1,84.474-4.9s55.652-31.818,65.479-71.586c7.061-28.576,4.237-62.672,15.992-87.513,10.8-22.833,33.422-30.767,49.834-17.48V562.459Z"/><path class="e" d="M1.217,194.753c-.511,6.193,4.016,11.935,9.571,14.721s11.962,3.208,18.173,3.416c22.112.738,44.247-.608,66.267-2.742,12.755-1.237,25.965-2.691,38.113,1.387s22.9,15.493,21.657,28.246c-.672,6.862-4.574,12.9-7.542,19.125s-5.029,13.682-1.989,19.87c3.808,7.754,13.515,9.972,21.687,12.772s17.156,9.613,15.177,18.022c-1.184,5.03-5.981,8.318-10.675,10.479-21.481,9.888-46.41,6.176-69.888,3.352-19.93-2.4-40.251-3.995-59.979-.286S2.75,336.414-9.017,352.678s-14.44,39.767-3.348,56.5"/><circle class="e" cx="28.271" cy="28.271" r="28.271" transform="translate(57.502 110.976)"/><path class="f" d="M126.565,181.186l1.751,3.549,3.916.569-2.834,2.762.669,3.9-3.5-1.842-3.5,1.842.669-3.9L120.9,185.3l3.916-.569Z"/><path class="f" d="M107.9,431.195l1.751,3.549,3.916.569-2.834,2.762.669,3.9-3.5-1.842-3.5,1.842.669-3.9-2.834-2.762,3.916-.569Z"/><path class="f" d="M396.087,244.213l1.751,3.549,3.916.569-2.834,2.762.669,3.9-3.5-1.842-3.5,1.842.669-3.9-2.834-2.762,3.916-.569Z"/><path class="f" d="M234.445,340.947l.949,1.924,2.123.309-1.536,1.5.363,2.115-1.9-1-1.9,1,.363-2.115-1.536-1.5,2.123-.309Z"/><path class="g" d="M299.191,172.938a2.384,2.384,0,1,1-2.384-2.385A2.384,2.384,0,0,1,299.191,172.938Z"/><path class="g" d="M301.327,186.208a1.139,1.139,0,1,1-1.139-1.139A1.139,1.139,0,0,1,301.327,186.208Z"/><path class="g" d="M291.071,190.577a.95.95,0,1,1-.95-.95A.949.949,0,0,1,291.071,190.577Z"/><path class="g" d="M254.224,348.98a1.71,1.71,0,1,1-1.709-1.709A1.71,1.71,0,0,1,254.224,348.98Z"/><circle class="g" cx="0.76" cy="0.76" r="0.76" transform="translate(259.922 355.628)"/><circle class="g" cx="0.57" cy="0.57" r="0.57" transform="translate(252.325 360.946)"/><rect class="h" width="340.404" height="340.404" transform="translate(67.917 123.53)"/><rect class="i" width="2.73" height="2.73" transform="translate(219.371 292.264) rotate(45)"/><rect class="i" width="4.393" height="4.393" transform="translate(224.362 286.672) rotate(45)"/><rect class="i" width="2.73" height="2.73" transform="translate(126.37 415.195) rotate(135.001)"/><rect class="i" width="4.393" height="4.393" transform="translate(122.557 410.779) rotate(135.001)"/><rect class="i" width="2.73" height="2.73" transform="translate(397.708 191.524) rotate(135)"/><rect class="i" width="6.146" height="6.146" transform="translate(395.134 185.868) rotate(135)"/><rect class="i" width="3.139" height="3.139" transform="translate(398.556 153.113) rotate(135)"/><rect class="i" width="2.73" height="2.73" transform="matrix(0.707, 0.707, -0.707, 0.707, 92.066, 161.971)"/><rect class="i" width="4.219" height="4.219" transform="translate(106.147 158.72) rotate(44.999)"/><rect class="i" width="4.393" height="4.393" transform="translate(98.281 169.194) rotate(44.999)"/><rect class="i" width="2.73" height="2.73" transform="translate(396.669 433.29) rotate(135)"/><rect class="i" width="4.219" height="4.219" transform="matrix(-0.707, 0.707, -0.707, -0.707, 383.641, 431.093)"/><rect class="i" width="4.393" height="4.393" transform="translate(391.63 441.69) rotate(135)"/><rect class="i" width="2.73" height="2.73" transform="translate(158.826 382.463) rotate(45)"/><rect class="i" width="4.393" height="4.393" transform="translate(163.816 376.871) rotate(45)"/><rect class="i" width="2.73" height="2.73" transform="translate(36.534 401.808) rotate(135.001)"/><rect class="i" width="4.393" height="4.393" transform="translate(32.72 397.392) rotate(135.001)"/><rect class="i" width="2.73" height="2.73" transform="translate(439.281 253.717) rotate(135)"/><rect class="i" width="6.146" height="6.146" transform="translate(436.706 248.062) rotate(135)"/><rect class="i" width="3.139" height="3.139" transform="translate(440.129 215.306) rotate(135)"/><rect class="i" width="2.73" height="2.73" transform="matrix(0.707, 0.707, -0.707, 0.707, 31.52, 252.17)"/><rect class="i" width="4.219" height="4.219" transform="translate(45.601 248.919) rotate(44.999)"/><rect class="i" width="4.393" height="4.393" transform="translate(37.735 259.393) rotate(44.999)"/><rect class="i" width="2.73" height="2.73" transform="translate(437.909 361.775) rotate(135)"/><rect class="i" width="4.219" height="4.219" transform="matrix(-0.707, 0.707, -0.707, -0.707, 424.882, 359.578)"/><rect class="i" width="4.393" height="4.393" transform="translate(432.871 370.175) rotate(135)"/><path class="j" d="M262.338,294.806a11.334,11.334,0,0,0-8.33,1.959c.978-6.255,4.4-10.135,9.6-10.386,6.513-.314,14.5,6.007,21.317,2.363s10.483-8.038,17.527-6.24,9.168,10.248,9.168,10.248,10.855,14.206,11.072,24.822-11.793,8.719-16.1,6.986-8.847-7.184-14.832-3.033-12.982,8.24-23.562,5.365-14.32-21.469-14.461-24.978c-.021-.517-.025-1.02-.02-1.516A12.227,12.227,0,0,1,262.338,294.806Z"/><path class="k" d="M267.9,255.026c-2.681-1.558-6.245-4.07-8.927-5.628a12.366,12.366,0,0,0-3.084-1.432,1.075,1.075,0,0,0-1.053.14,1.175,1.175,0,0,0-.188.314c-.107.234-.215.467-.323.7a.34.34,0,0,0,.123.492,26.257,26.257,0,0,0,5.524,3.886Z"/><path class="l" d="M322.813,280.969c5.341,1.9.033,5.675-3.222,7.573a76.391,76.391,0,0,1-.436-8.788C320.46,280.168,321.7,280.572,322.813,280.969Z"/><path class="m" d="M290.078,263.977a26.92,26.92,0,0,1,8.115,6.25c3.646,3.963,11.481,6.539,18.262,8.675.927.292,1.826.574,2.7.852a76.391,76.391,0,0,0,.436,8.788c-1.2.7-2.128,1.148-2.128,1.148a2.841,2.841,0,0,0,.434-1.533,2.029,2.029,0,0,0-.149-.8,1.357,1.357,0,0,0-.452-.577c-1.036-.751-20.845-10.561-24.012-11.836a54.879,54.879,0,0,1-6.47-4.159C287.878,268.506,288.869,266.2,290.078,263.977Z"/><path class="n" d="M252.958,251.651a11.945,11.945,0,0,1,3.082,1.037c2.585,1.053,12.38,4.672,12.38,4.672a95.166,95.166,0,0,1,12.628,8.718,58.556,58.556,0,0,0,5.837,4.669c1.331-2.149,2.847-4.151,4.3-6.2-8.333-3.949-21.087-9.463-21.087-9.463a11.8,11.8,0,0,0-1.662-3.1c-1.122-1.461-2.648-3.67-2.705-4.855s-1.463.407-1.409.877,1.73,5.365,1.73,5.365-.887.579-1.481.25S255.893,250.5,253.6,250.3C252.8,250.239,252.958,251.651,252.958,251.651Z"/><path class="n" d="M321.231,288.667c.674.761.325,2.222-.272,3.854a2.152,2.152,0,0,0-.2-.489,20.181,20.181,0,0,0-7.018,4.946l-2.726-4.867s6.974-3.136,7.468-4.08a2.224,2.224,0,0,0,.123-.318A2.456,2.456,0,0,1,321.231,288.667Z"/><path class="o" d="M335.338,216.314c.312-.631,8.242-7.677,15.951-14.443,1.764,1.919,3.53,3.837,5.208,5.832a2.714,2.714,0,0,0-.238.346c-.573,1.141-6.341,11.5-7.882,14.2l7.595,27.879c-6.172-9.689-13.73-18.439-20.669-27.662A31.582,31.582,0,0,1,335.338,216.314Z"/><path class="l" d="M335.3,222.463c6.939,9.223,14.5,17.973,20.669,27.662l.2.738s.449,2.5,1.023,5.744c-6.719-5.49-13.6-10.578-20.5-15.619C335.994,234.171,335.505,227.244,335.3,222.463Z"/><path class="o" d="M357.2,256.607c1.059,5.994,2.541,14.55,2.4,14.716-.217.255,1.7,7.424-6.108,12.625-1.372.914-2.654,1.708-3.854,2.408-2.975-5.893-6.615-11.88-11.657-16.137,1.233-3.55,1.827-8.4.609-15.119-.73-4.02-1.369-9.035-1.891-14.112C343.6,246.029,350.478,251.117,357.2,256.607Z"/><path class="p" d="M365.943,189.093l3.617-7.572.747.986-3.415,14.166s-1.757,1.788-3.844,3.952c-1.383-1.768-2.824-3.531-4.282-5.292C362.915,191.715,365.943,189.093,365.943,189.093Z"/><path class="n" d="M363.048,200.625c-2.573,2.669-5.648,5.91-6.551,7.078-1.678-2-3.444-3.913-5.208-5.832,2.621-2.3,5.215-4.566,7.477-6.538C360.224,197.094,361.665,198.857,363.048,200.625Z"/><path class="m" d="M320.959,292.521c.6-1.632.946-3.093.272-3.854a2.456,2.456,0,0,0-2.627-.954c.512-1.549,1.387-6.794,3.477-8.06,2.266-1.374,8.817.8,11.52-2.221a23.491,23.491,0,0,0,2.52-3.321,101.5,101.5,0,0,1,9.964,14.163,33.744,33.744,0,0,1-7.472,2.829c-2.009.449-6.323,1.8-8.078,3.606a31.342,31.342,0,0,0-5.27,7.135c-1.739,3.185-9.125,15.3-10.349,16.632-.258.283-1.32,1.234-2.827,2.552a37.971,37.971,0,0,1-4.995-3.111l3.205-3.584s9.975-17.125,10.57-19.171A4.653,4.653,0,0,0,320.959,292.521Z"/><path class="q" d="M349.635,286.356c-1.285.749-2.465,1.379-3.55,1.918q-.84-1.405-1.713-2.788c1.22-.833,2.409-1.589,3.585-2.313C348.54,284.23,349.1,285.294,349.635,286.356Z"/><path class="o" d="M347.957,283.173c-1.176.724-2.365,1.48-3.585,2.313q-.555-.887-1.127-1.76c1.217-.765,2.339-1.83,3.53-2.612C347.179,281.8,347.575,282.481,347.957,283.173Z"/><path class="o" d="M337.978,270.219c.515.435,1.011.893,1.5,1.362l-2.409,3.678c-.315-.383-.623-.772-.946-1.148A19.426,19.426,0,0,0,337.978,270.219Z"/><path class="q" d="M346.775,281.114c-1.191.782-2.313,1.847-3.53,2.612a93.472,93.472,0,0,0-6.178-8.467l2.409-3.678A45.287,45.287,0,0,1,346.775,281.114Z"/><path class="n" d="M288.238,335.006a6.194,6.194,0,0,1,4.4-.925l14.453-16.164a37.971,37.971,0,0,0,4.995,3.111c-5.618,4.915-17.483,14.986-17.483,14.986s-2.216,3.878-3.291,5.519-2.836,6.532-3.373,7.353-.895.677-1.019.212,2.7-7.729,2.7-7.729c-1.683,2.122-4.34,8.726-4.34,8.726s-1.643-.039-1.8-1.45,4.428-8.173,4.428-8.173a74.174,74.174,0,0,0-5.676,6.634s-1.609.908-1.107-.342c1.8-4.484,7.9-9.577,7.9-9.577s-4.2,1.421-4.789,1.08a1.682,1.682,0,0,1-.731-1.019A21.164,21.164,0,0,0,288.238,335.006Z"/><path class="r" d="M313.739,296.978l-2.726-4.867s3.535-1.591,5.749-2.848a18.986,18.986,0,0,1,.463,4.672A22.493,22.493,0,0,0,313.739,296.978Z"/><path class="s" d="M301.945,287.871s-2.8-2.784-3.962-1.855a2.436,2.436,0,0,0-.4,3.589Z"/><path class="s" d="M310.322,307.274s.155,3.388-1.5,4.03-2.784-1.906-2.784-1.906A46.866,46.866,0,0,0,310.322,307.274Z"/><path class="t" d="M301.945,287.871s-2.8-2.784-3.962-1.855a2.436,2.436,0,0,0-.4,3.589Z"/><path class="t" d="M310.337,307.029s.14,3.633-1.514,4.275-2.741-1.8-2.741-1.8S309.269,307.733,310.337,307.029Z"/><circle class="u" cx="11.004" cy="11.004" r="11.004" transform="matrix(0.923, -0.384, 0.384, 0.923, 289.428, 292.786)"/><circle class="t" cx="11.004" cy="11.004" r="11.004" transform="matrix(0.923, -0.384, 0.384, 0.923, 289.428, 292.786)"/><path class="t" d="M299.374,302.276s-1.8-.6-2-1.06.753-2.187.753-2.187"/><path class="r" d="M297.213,304.806a.563.563,0,1,0,.732-.311A.562.562,0,0,0,297.213,304.806Z"/><path class="r" d="M294.214,298.9a.563.563,0,1,0,.732-.312A.563.563,0,0,0,294.214,298.9Z"/><path class="r" d="M302.353,305.291s.588-6.849-3.138-10.848c0,0,9.128-4.663,11.486,1.286S302.353,305.291,302.353,305.291Z"/><path class="v" d="M310.6,295.789a4.372,4.372,0,0,1-.082,3.563,6.582,6.582,0,0,1-3.441-6.458A4.479,4.479,0,0,1,310.6,295.789Z"/><path class="w" d="M300.037,295.287c4.394.908,4.769,5.393,2.452,9.043C302.5,302.507,302.257,298.358,300.037,295.287Z"/><path class="t" d="M293.8,303.046c-2.427.508-4.167,2.741-4.953,5.094s-.827,4.877-1.147,7.337A17.018,17.018,0,0,1,285.136,323c-1.517,2.2-3.731,4.38-6.4,4.5"/><path class="t" d="M310.56,290.019a14.8,14.8,0,0,0-6.9-7.251,13.512,13.512,0,0,0-10.436-.6c-3.275,1.225-5.85,3.765-8.737,5.736s-6.6,3.413-9.838,2.085"/><path class="t" d="M295.367,291.7c-2.148,2.191-5.349,2.629-8.4,2.928-5.433.533-11.539,2.129-14.039,6.982-1.442,2.8-1.345,6.107-1.264,9.254s.063,6.481-1.556,9.182-5.432,4.335-8.029,2.555"/><path class="t" d="M284.385,349.814a59.792,59.792,0,0,1,3.592-7.8,4.01,4.01,0,0,1,.864-1.184"/><path class="x" d="M327.464,222.068s35.151,31.722,36.93,40.06-6.924,18.371-8.536,20.056l-12.444-8.9s1.021-.989-1.114-5.737-27.582-37.388-28.035-38.97c-.23-.807-1.517-13.563-2.722-25.874a100.1,100.1,0,0,0,10.413.056Z"/><path class="n" d="M321.956,202.763a100.1,100.1,0,0,1-10.413-.056c-.421-4.3-.832-8.537-1.185-12.2,2.779.277,5.571.724,8.335.819Z"/><path class="p" d="M305.287,175.5l.538-1.339,9.956,6.962,2.912,10.206c-2.764-.1-5.556-.542-8.335-.819-.619-6.424-1.059-11.062-1.059-11.062Z"/><path class="t" d="M355.758,282.147c1.611-1.685,10.415-11.681,8.636-20.019s-36.93-40.06-36.93-40.06l-11.683-40.946-9.956-6.962-.538,1.339,4.012,3.948s4.514,47.552,4.966,49.134c.446,1.559,24.655,33.57,27.928,38.745.412.653,1.958,3.7.941,4.935"/><path class="t" d="M346.441,279.979c2.86-3.213,5.865-6.749,6.217-11.036.288-3.5-1.274-6.891-3.156-9.856-5.1-8.03-12.632-14.147-19.107-21.113-3.036-3.267-10.211-11.24-10.695-12.374-.724-1.693-1.979-17.288-2.531-22.658"/><path class="t" d="M327.105,222.065,324.663,222"/><path class="t" d="M347.752,222.087a1.9,1.9,0,0,0-.894-.49"/><path class="y" d="M334.694,354.667l3.229-24.384c.067-.192,2.372-2.128,2.946-2.739a58.116,58.116,0,0,0,3.385-5.372c.449-.846-.468-.728-.468-.728-.791.352-1.716,2.133-2.785,3.088-.441.394-.15.17-.6.263.2-1.017,2.932-9.636,1.874-9.627-.284,0-3.284,6.519-3.284,6.519l2.363-7.166a4.662,4.662,0,0,0-1.75.888c-.879.7-2.781,6.076-2.781,6.076s1.181-4.7.976-4.758-.272-.082-.531.287-1.3,3.62-1.3,3.62-.741,2.23-1.624,4.936a4.551,4.551,0,0,0,.5,4.307l.007.008-9.42,25.755s4.947,7.327,8.886,12.475c1.672-3.362,3.534-6.611,5.417-9.718C336.953,356.322,334.694,354.667,334.694,354.667Z"/><path class="z" d="M339.724,358.4c-1.883,3.107-3.745,6.356-5.417,9.718.36.472.709.919,1.048,1.347,2.4-3,5.345-5.472,7.451-8.74C341.766,359.931,340.713,359.137,339.724,358.4Z"/><path class="l" d="M349.55,366.169c-.866-.9-3.747-3.165-6.744-5.447-2.106,3.268-5.055,5.744-7.451,8.74a23.58,23.58,0,0,0,2.982,3.319c2.837,2.213,9.9.527,11.482-1.049S351.559,368.263,349.55,366.169Z"/><path class="w" d="M341.11,350.054l.714,1.322a5.077,5.077,0,0,0,4.129-2.4Z"/><path class="aa" d="M287.733,394.982c-.7,5.879-1.378,12.1-1.872,17.7,2.162.7,5.486,1.961,7.748,2.411l3.125-7.012C293.413,403.966,290.073,399.81,287.733,394.982Z"/><path class="l" d="M296.734,408.081l4.062-9.116c-4.136-4.219-8.162-8.556-11.913-13.186-.374,2.86-.765,5.982-1.15,9.2C290.073,399.81,293.413,403.966,296.734,408.081Z"/><path class="aa" d="M300.8,398.965l2.912-6.534,9.355.339a110.4,110.4,0,0,1,2.544-13.112c-6.332-5.442-13.861-11.535-16.217-11.887-4.3-.644-7.647.668-8.41,3.651-.234.915-1.1,6.709-2.1,14.357C292.634,390.409,296.66,394.746,300.8,398.965Z"/><path class="l" d="M307.4,383.709s-.226-3.986.827-5.641a4.729,4.729,0,0,0,.978-2.557l-4.78,4.461Z"/><path class="m" d="M285.861,412.682c-.87,9.882-4.538,23.385-4.538,23.385s-.4,1.443-.417,1.437l1.005.984,8.279-10.856-1.162-2.051,4.581-10.488C291.347,414.643,288.023,413.384,285.861,412.682Z"/><path class="ab" d="M325.257,388.211s-4.416-4.054-9.65-8.553a110.4,110.4,0,0,0-2.544,13.112l10.208.369Z"/><path class="l" d="M352.883,357.171l-5.783.074a17.759,17.759,0,0,1-2.126,3.794C347.883,360.833,350.613,358.8,352.883,357.171Z"/><path class="aa" d="M352.043,360.863c.415-2.286,2.96-3.719,2.96-3.719l-2.12.027c-2.27,1.634-5,3.662-7.909,3.868-2.379,3.162-5.2,4.03-8.654,6.433a.6.6,0,0,0,.306.257c5.383,2.156,10.538-2.925,15.9-1.351A13.513,13.513,0,0,1,352.043,360.863Z"/><path class="z" d="M328.463,385.736a108.85,108.85,0,0,0,20,8.893c.2-4.726-.253-9.078.4-11.023,1.188-3.527,6.7-10.315,5.1-13.47a19.738,19.738,0,0,1-1.428-3.758c-5.365-1.574-10.52,3.507-15.9,1.351a.6.6,0,0,1-.306-.257c-.631.439-1.283.929-1.958,1.5-5.536,4.638-.654,8.907-2.516,12.9A11.914,11.914,0,0,1,328.463,385.736Z"/><path class="p" d="M348.461,394.629a108.85,108.85,0,0,1-20-8.893,34.932,34.932,0,0,1-5.835,3.686s-3.968-1.8-13.132-7.071c.353,9,.135,18.109.934,27.139,1.254.705,2.535,1.4,3.845,2.067,17.074,8.715,26.992,1.505,31.431-5.736C347.7,402.572,348.3,398.477,348.461,394.629Z"/><path class="m" d="M247.782,405.614l-8.8-1.022-.061.651,13.213,5.956,11.873-7.618a64.967,64.967,0,0,1-5.729-8.047C252.463,401.1,247.782,405.614,247.782,405.614Z"/><path class="aa" d="M310.43,409.49c-.8-9.03-.581-18.137-.934-27.139-2.114-1.216-4.505-2.615-7.188-4.22-14.309-8.558-19.281-5.358-22.055-3.242-1.673,1.276-13.134,12.184-21.972,20.645a64.967,64.967,0,0,0,5.729,8.047L284.6,390.375A135.082,135.082,0,0,0,310.43,409.49Z"/><path class="aa" d="M360.675,342.17c-1.464-5.283-7.716-6.441-11.614-5.464s-6.353,6.554-6.353,6.554a22.808,22.808,0,0,0-3.246,1.058c-1.178.55.7,2.575.7,2.575l.448,3.4a18.325,18.325,0,0,0,5.923-1.366s-.872,4.453-4.056,5.3c0,0,1.2,4.191,6.6,4.472s10.579-3.919,11.487-8.269A22.96,22.96,0,0,0,360.675,342.17Z"/><path class="l" d="M346.91,343.591a.695.695,0,1,1-.467-.864A.7.7,0,0,1,346.91,343.591Z"/><path class="l" d="M355.313,337.9l-5.449-1.434s3.038-1.056,8.547.946,6.484,5.722,6.484,5.722,1.606,1.369-1.766,6.7a19.607,19.607,0,0,1-8.126,7.3,11.548,11.548,0,0,1,.306-2.934,2.759,2.759,0,0,0,2.552-.608,3.9,3.9,0,0,0,1.056-.948,3.139,3.139,0,0,0,.352-2.415,2.347,2.347,0,0,0-1.06-1.683,2.121,2.121,0,0,0-1.8.067,3.643,3.643,0,0,0-1.754,1.683,4.869,4.869,0,0,1-2.282-3.045,8.922,8.922,0,0,1-.166-5.109,6.851,6.851,0,0,1,3.032-4.05Z"/><path class="l" d="M349.746,336.434a4,4,0,0,1-.442-.374c-.016,0-.03-.009-.046-.012a6.422,6.422,0,0,1-2.545-.924,3.119,3.119,0,0,1-1.4-2.41c0-.134.028-.3.154-.341a1.441,1.441,0,0,0-1.109.268,2.356,2.356,0,0,0-.681,2.779,3.558,3.558,0,0,0,2.3,1.913,2.66,2.66,0,0,0,1.253.111,12.09,12.09,0,0,0,1.9-.726c.244-.092.489-.183.737-.261.1-.031.2-.054.3-.08l-.033-.015Z"/><path class="l" d="M351.134,334.673a2.891,2.891,0,0,1,.576-2.494,5.107,5.107,0,0,1,2.206-1.3,2.95,2.95,0,0,0-2.512-.618,4.139,4.139,0,0,0-2.25,1.372,3.464,3.464,0,0,0-.926,2.9,4.618,4.618,0,0,0,1.019,1.841,14.388,14.388,0,0,0,2.133.3l1.415-.053A2.888,2.888,0,0,1,351.134,334.673Z"/><path class="l" d="M365.018,344.136a6.573,6.573,0,0,0,1.364-5.241,19.553,19.553,0,0,0-1.09-3.251c-1.333-3.63-1.495-7.844.326-11.255a12.628,12.628,0,0,1,2.193-2.921,6.687,6.687,0,0,1,4.531-2.309c-.581.359-.468,1.238-.184,1.859,1.306,2.861,4.389,4.371,6.819,6.369a13.223,13.223,0,0,1,3.91,5.044,8.7,8.7,0,0,1,.252,6.292,6.514,6.514,0,0,1-4.6,4.128,9.641,9.641,0,0,0,3.575.061,5.174,5.174,0,0,0,3.055-1.755,7.378,7.378,0,0,1-1.435,3.924,6.858,6.858,0,0,1-2.68,1.831,12.819,12.819,0,0,1-7.665.691c-2.844-.628-5.509-2.234-8.421-2.175"/><path class="t" d="M357.677,349.522a2.28,2.28,0,0,0-2,2.033.5.5,0,1,1,.226.919"/><path class="t" d="M352.217,336.376a2.771,2.771,0,0,1,1.088-4.634"/><path class="t" d="M364.667,345.5c2.069.013,3.924,1.177,5.826,1.993a18.186,18.186,0,0,0,5.584,1.4A9.916,9.916,0,0,0,381,348.26a5.253,5.253,0,0,0,3.114-3.682"/><path class="j" d="M367.137,342.2a1.528,1.528,0,1,1-2.07-.619A1.528,1.528,0,0,1,367.137,342.2Z"/><path class="j" d="M366.741,345.662a1.239,1.239,0,1,1-.832-1.542A1.239,1.239,0,0,1,366.741,345.662Z"/><path class="l" d="M305.139,384.775s-2.2,5.354-1.293,7.548.434,3.376-.655,5.815a20.593,20.593,0,0,0-1.351,5.728l8.2,5.937S314.861,386.839,305.139,384.775Z"/><path class="p" d="M327.307,386.552c-1.93,1.01-3.719.092-5-1.456-4.2-5.067-5.791-12.536-11.578-15.664l-2.211,6.047a16.1,16.1,0,0,1-1.6,3.481c-.547.818-1.241,1.531-1.776,2.357a7.53,7.53,0,0,0-1.054,5.5c.378,1.9,1.494,3.64,1.582,5.576.1,2.213-1.147,4.24-1.658,6.4a19.01,19.01,0,0,0-.04,6.491c.492,4.375,1.382,9.268,5.013,11.758,2.928,2.009,7.053,1.955,9.6,4.43a28.187,28.187,0,0,1,2.2,2.816,11.428,11.428,0,0,0,16.373,1.559,12.984,12.984,0,0,1,2.376-1.9c1.636-.838,3.6-.505,5.4-.152-2.267-4.123-3.96-9.2-1.9-13.434.809-1.659,4.184-4.594,4.776-9.938"/><path class="t" d="M347.966,339.524a2.309,2.309,0,0,1,1.7,1.972"/><path class="t" d="M344.324,361.8q-4.776.942-9.542,1.937a5.482,5.482,0,0,0-2.642,1.063,1.9,1.9,0,0,0-.349,2.566,2.409,2.409,0,0,0,1.651.6c2.882.189,5.669-.984,8.258-2.266,1.6-.792,3.316-1.661,5.084-1.4,1.05.155,2.022.7,3.081.774s2.319-.671,2.185-1.724"/><path class="ac" d="M331.36,366.353a3.48,3.48,0,0,0-1.117,1.408"/><path class="ac" d="M331.94,367.453l-.362.821"/><path class="ac" d="M331.719,365.167a1.384,1.384,0,0,0-1.1-.186"/><path class="p" d="M340.776,391.867a10.085,10.085,0,0,1-2.69-11.679c2.917-7.284,3.855-10.835,6.292-11.961s8.151-1.849,8.151-1.849l-.306-1.245s-7.712.168-9.1,1.485-2.876,3.837-5.633,3.137-3.573-.45-3.573-.45-2.923,2.34-1.967,5.344.826,8.4-5.906,12.324"/><path class="y" d="M308.458,352.679l-2.1-1.3.188,1,4.851,5.3-2.552-4.652A1.4,1.4,0,0,0,308.458,352.679Z"/><path class="y" d="M342.688,369.558c-5.36,1.659-12.31,4.024-12.31,4.024l-18.9-16.116.006,0-6.977-6.791-7.553.637a5.3,5.3,0,0,0,2.848,1,37.347,37.347,0,0,1,4.818.4c.209.147.661,3.02,1.892,4.833a10.76,10.76,0,0,0,1.982,1.767l17.365,22.425s11.293.189,17.7-.257C344.846,377.565,345.41,373.234,342.688,369.558Z"/><path class="z" d="M353.032,370.975c-.385-2.2-1.844-3.415-4.712-2.97a57.524,57.524,0,0,0-5.632,1.553c2.722,3.676,2.158,8.007.872,11.922a20.089,20.089,0,0,0,3.747-.5C350.748,379.928,353.417,373.173,353.032,370.975Z"/><path class="l" d="M331.232,381.964l-1.056,1.624s12.458.2,17.131-2.605Z"/><path class="t" d="M340.26,324.837a8.848,8.848,0,0,0-3.31,2.16,1.811,1.811,0,0,0-.6,1.086"/><path class="t" d="M340.243,315.152A41.175,41.175,0,0,0,338,321.366"/><path class="t" d="M334.875,330.1c-.043-.107-.2-.085-.307-.041a8.066,8.066,0,0,0-1.868,1.084c-.075.057-.155.131-.151.225a.278.278,0,0,0,.156.2,2.556,2.556,0,0,0,1.48.251,14.947,14.947,0,0,0,4.557-.95.964.964,0,0,0,.617-.47c.123-.325-.118-.668-.365-.912"/><path class="ad" d="M133.33,300.9a25.284,25.284,0,0,1,11.174,3.724,6.525,6.525,0,0,1,3.051,3.3l-1.4-1.175a4.054,4.054,0,0,1,.661,4.647,5.811,5.811,0,0,1-3.92,2.886,10.5,10.5,0,0,1-4.975-.226c-3.383-.873-6.744-3.1-7.57-6.493"/><path class="l" d="M136.763,389.736l-2.776-12.843a8.583,8.583,0,0,1-4.335.462C129.45,382.491,132.6,386.438,136.763,389.736Z"/><path class="ae" d="M129.652,377.355c-6.671-.566-16.874-4.712-16.874-4.712l-.584,16.234c10.011,6.7,25.788,6.495,25.788,6.495l-1.219-5.636C132.6,386.438,129.45,382.491,129.652,377.355Z"/><path class="l" d="M201.418,434.187l1.169,2.988,19.294-1.061-.074-1.045-6.484-.929-9.325-5.3Z"/><path class="l" d="M218.192,411.4l2.532,1.971,16.04-10.775-.6-.86-6.048,2.516-7.655.571Z"/><path class="af" d="M168.714,389.709c-10.544-1.557-21.085-3.148-31.584-5.179l30.538,22.6s31.68,28.7,32.194,28.656,12.455-4.057,12.455-4.057Z"/><path class="l" d="M150.834,372.476,134.7,355.513l-1.01,26.468,3.443,2.549c10.5,2.031,21.04,3.622,31.584,5.179Z"/><path class="ag" d="M179.947,300.384l6.214-1.14.994-1.242-4.264-.48s7.468-4.946,7.757-5.612a1.3,1.3,0,0,0-.04-1.173l-14.934,7.855-3.338,3.624c1.558,1.1,3.076,2.238,4.57,3.393Z"/><path class="ah" d="M164.954,326.132c.323-.547,7.664-13.157,11.952-20.523-1.494-1.155-3.012-2.291-4.57-3.393l-16.027,17.4s-16.9,10.719-20.212,11.9c-.254.091-.97.191-2.37-1.025-2.541-2.205-4.128,6.388-4.128,6.388s8.117,8.649,8.346,8.262S164.5,326.907,164.954,326.132Z"/><path class="l" d="M133.593,329.2a30.385,30.385,0,0,1-.731-3.941s-.557-3.5-1.653-4.843a8.23,8.23,0,0,0-2.2,2.58A5.394,5.394,0,0,0,133.593,329.2Z"/><path class="ag" d="M133.888,330.3c-.107-.377-.208-.747-.295-1.1a5.394,5.394,0,0,1-4.583-6.2,8.23,8.23,0,0,1,2.2-2.58c-.875-1.075-2.092-.78-3.646,3.765a38.86,38.86,0,0,1-1.137,5.225A20.229,20.229,0,0,0,133.888,330.3Z"/><path class="ah" d="M142.157,362.919c-.017-1.036-2.794-21.411-5.756-26.519a26.936,26.936,0,0,1-2.513-6.1,20.229,20.229,0,0,1-7.462-.892,15.793,15.793,0,0,1-1.551,3.714,22.022,22.022,0,0,0-2.854,14.324c.972,5.494,4.735,22.745,4.475,25.478-.016.178-.033.377-.047.593A144.953,144.953,0,0,0,142.325,363.3.771.771,0,0,1,142.157,362.919Z"/><path class="af" d="M223.7,404.151s-37.464-33.9-39.986-35.171-29.543-.668-33.041-1.345c-3.138-.607-7.473-3.081-8.348-4.333a144.953,144.953,0,0,1-15.876,10.215c-.206,3.106.114,9.913,8.528,12.969,9,3.268,41.284-3.159,41.284-3.159l41.562,29.46Z"/><path class="ai" d="M141.092,319.329s-1.083,1.793-1.718,1.718-3.211-.784-3.472-2.838S141.092,319.329,141.092,319.329Z"/><path class="ag" d="M136.179,318.087a38.154,38.154,0,0,0,5.062,2.038l1.975-3.155s4.968-.273,5.3-.728-6.5-11.517-9.823-13.39-11-5.132-18.416,3.312,4.009,17.607,5.865,18.562,6.573,3.153,12.891-1.891C139.037,322.835,135.592,320.172,136.179,318.087Z"/><path class="ad" d="M128.682,320.132c-2.21-1.661-2.481-6.039-1.13-6.6s2.4,2.061,2.4,2.061a16.683,16.683,0,0,0,10.31-11.475,8,8,0,0,0-1.565-1.268c-3.326-1.873-11-5.132-18.416,3.312s4.009,17.607,5.865,18.562Z"/><path class="l" d="M140.9,312.3a.663.663,0,1,1,.089-.934A.663.663,0,0,1,140.9,312.3Z"/><path class="l" d="M142,361.818l-.724-5.118s-12.264-10.867-12.594-11.178a1.284,1.284,0,0,0-.7-.177C130.106,347.587,142,361.818,142,361.818Z"/><path class="t" d="M132.326,370.289c.691,3.677,3.985,6.434,7.557,7.548s7.409.882,11.137.561q12.186-1.052,24.245-3.2a8.762,8.762,0,0,1,3.308-.169,8.477,8.477,0,0,1,3.1,1.619c13.521,9.718,26.043,20.742,38.54,31.746"/><path class="aj" d="M143.75,364.358l-1.65-2.243-15.724,9.05-.089,3.68Z"/><rect class="af" width="3.564" height="1.057" transform="translate(140.09 362.794) rotate(55.567)"/><rect class="af" width="3.564" height="1.057" transform="translate(130.33 368.667) rotate(60.078)"/><path class="t" d="M179.618,409.544c9.018,7.853,17.889,15.933,25.4,23.158"/><path class="t" d="M154.484,388.644c7.239,5.686,15.267,12.355,23.246,19.26"/><path class="t" d="M176.361,383.374a5.66,5.66,0,0,1,.876-1.671"/><path class="t" d="M202.313,360.312a67.185,67.185,0,0,1-8.23.789"/><path class="ae" d="M140.89,340.988a12.529,12.529,0,0,1-3.414,13.434c-3.678,3.217-8.873,3.942-13.189,6.233a18.945,18.945,0,0,0-9.813,12.528c-.433-.137-1.2-.424-1.637-.562.086-2.574,1.1-4.383,2.591-6.463a25.8,25.8,0,0,1,9.484-8.045c2.841-1.4,5.931-2.275,8.7-3.82s5.289-3.986,5.821-7.109c.408-2.395-.4-4.819-1.316-7.072q-1.032-2.553-2.254-5.024c-.382-.774-1.947-3.318-1.433-4.2.626-1.071,1.447.654,1.767,1.289C137.672,335.109,139.749,337.907,140.89,340.988Z"/><path class="ak" d="M151.625,351.547s-17.076-15.8-18.764-17.025-6.5,1.1-6.5,1.1c-5.843,2.809-.346,9.835-.346,9.835a5.805,5.805,0,0,1,2.866.2c1.072.517,16.856,15.786,19.9,16.661,2.179.626,22.224.9,33.425,1-.287-2.533-.3-5.107-.522-7.708Z"/><path class="t" d="M126.317,345.417a5.215,5.215,0,0,1,2.563.24c1.072.517,16.856,15.786,19.9,16.661,2.179.626,22.224.9,33.425,1-.287-2.533-.3-5.107-.522-7.708l-30.055-4.06s-17.076-15.8-18.764-17.025a3.088,3.088,0,0,0-2.17-.3"/><path class="ag" d="M199.793,363.07a2.273,2.273,0,0,0,.6-.734l-6.1-.308s7.705-.468,7.957-.893a3.608,3.608,0,0,0,0-1.662l-7.983.114s5.786-.328,6.83-.86c.149-.076-.174-.5-.174-.5-.513-.59-9.706-1.144-9.706-1.144l3.006-2.046s.384-.749-.262-1.016-7.111,2.286-7.111,2.286l-2.186-.3a61.023,61.023,0,0,1,.9,7.333c2.536.019,4.119.026,4.119.026S199.321,363.48,199.793,363.07Z"/><path class="al" d="M181.7,355.217c.235,2.806.253,5.58.563,8.312l3.633.03a65.529,65.529,0,0,0-.972-7.907Z"/><path class="am" d="M182.23,357.791l2.711.083.387,4.108-2.877-.019Z"/><path class="t" d="M180.25,355.507q-.243,3.879-.39,7.762"/><path class="t" d="M171.594,303.325c.073-.013-.049-.121-.081-.054s.034.137.093.183a35.359,35.359,0,0,1,4.309,3.795"/><path class="t" d="M134.474,300.986a45.548,45.548,0,0,1,6.633,1.327,15.209,15.209,0,0,1,5.906,3.194"/><path class="t" d="M140.328,304.155a9.245,9.245,0,0,1-1.776,5.408,13.628,13.628,0,0,1-4.3,3.805"/><path class="an" d="M226.129,245.714c6.252-2.927,12.672-6.443,16.216-12.367a7.532,7.532,0,0,0,1.239-3.522c.076-2.155-1.328-4.15-1.281-6.306.068-3.139,3.017-5.3,4.939-7.779a5.8,5.8,0,0,0,1.247-2.514,2.761,2.761,0,0,0-.823-2.578c-1.109-.916-2.972-.61-3.884-1.722.278-.213,1.457-3.476,1.736-3.69-2.911.03-6.844-.917-9.725-.5a90.552,90.552,0,0,0-9.208,2.713c-6.012,2.072-11.8,8.934-15.967,13.74-.448.517,4.5,1.9,4.429,2.579-.187,1.719,2.052,2.62,2.809,4.175a6.1,6.1,0,0,1,.335,2.794,22.924,22.924,0,0,0,1.079,7.322,10.379,10.379,0,0,0,2.9,4.883,5.039,5.039,0,0,0,5.355.919"/><path class="ao" d="M226.412,247.352a13.311,13.311,0,0,1,.651-1.2,6.165,6.165,0,0,1,4.171-3.112l-12.014-.174a6.5,6.5,0,0,1-.579,2.1A9.316,9.316,0,0,0,226.412,247.352Z"/><path class="an" d="M218.641,244.958a2.026,2.026,0,0,1-1.246,1.111c-1.205.329-2.459-.725-3.671-.424-1.357.337-2.287,2.262-3.606,1.8.047.952,1.353,1.209,2.291,1.04s2.105-.4,2.679.364a1.884,1.884,0,0,1,.3,1.17,18.573,18.573,0,0,1-.713,3.524,4.245,4.245,0,0,0,.461,3.46,3.438,3.438,0,0,0,3.91.844,7.942,7.942,0,0,0,3.24-2.729,21.883,21.883,0,0,0,2.534-4.087c.569-1.209,1.016-2.479,1.6-3.68A9.316,9.316,0,0,1,218.641,244.958Z"/><path class="ap" d="M144.123,280.878l-1.627,8.906-.655-.135-1.878-14.7,1.129-.96c1.309,2.156,2.694,4.252,4.035,6.326Z"/><path class="aq" d="M145.127,280.319c-1.341-2.074-2.726-4.17-4.035-6.326l1.926-1.635,4.194,6.8Z"/><path class="ao" d="M182.3,212.533a35.707,35.707,0,0,1,5.346-4.6,111.26,111.26,0,0,1-2.725-22.207c-3.811-.988-7.994-1.625-11.765-.647-8.4,2.178-18.415,9.723-14.991,29.018.263,1.481.558,2.94.874,4.377q.353,1.6.742,3.168c5.979-4.79,15.414-6.365,22.878-6.873C182.389,213.243,182.3,212.533,182.3,212.533Z"/><path class="ar" d="M187.27,235.771c-.768-3.1-1.423-5.857-1.98-8.287-1.449-6.319-2.236-10.435-2.635-12.719-7.464.508-16.9,2.083-22.878,6.873a138.19,138.19,0,0,0,10.234,27.8l-19.057,16.184-7.936,6.74,4.194,6.8c2.381-1.327,5.927-3.308,9.9-5.534,10.91-6.115,25-14.065,26.744-15.319C186.753,256.222,191.366,252.316,187.27,235.771Z"/><path class="ao" d="M207.856,219.513c.227-2.958-1.129-4.349-3.4-4.567s-8.944,3.037-9.748,6.626a24.2,24.2,0,0,0-.2,4.556q.015.837.046,1.745l0,.111a84.864,84.864,0,0,0,12.312-3.286A51.314,51.314,0,0,0,207.856,219.513Z"/><path class="as" d="M204.632,270.233c-.448-.731-2.353-3.147-2.381-3.353l1.741-23.9,0,0c.239-.943.516-8.369,1.146-10.945.3-1.226.617-2.537.924-3.837.284-1.2.558-2.389.805-3.495a84.864,84.864,0,0,1-12.312,3.286c.12,3.424.264,8.184.51,11.276,0,.019,0,.035.006.054l-.018,0,.069.469c.043.376.093.721.153,1.032l3.8,25.827-.009.007a4.65,4.65,0,0,0-1.39,4.208c.322,2.893.6,5.278.6,5.278s.372,3.473.555,3.895.255.416.472.4.01-4.965.01-4.965.79,5.773,1.523,6.658a4.774,4.774,0,0,0,1.568,1.253l-.879-7.664s1.65,7.146,1.935,7.208c1.057.228.107-8.968.122-10.026.432.187.187-.1.547.388.873,1.177,1.428,3.153,2.147,3.669,0,0,.893.308.62-.632A59.655,59.655,0,0,0,204.632,270.233Z"/><path class="at" d="M212.018,237.852,212,236.317a5.191,5.191,0,0,1,4.879.083Z"/><path class="ao" d="M218.986,225.637l-5.2,2.813A18.093,18.093,0,0,0,210,226.121C212.7,224.856,216.146,225.308,218.986,225.637Z"/><path class="as" d="M216.4,222.759c1.509,1.834,4.494,1.847,4.494,1.847l-1.906,1.031c-2.84-.329-6.286-.781-8.987.484-3.7-1.639-6.647-1.011-10.929-1.436a.612.612,0,0,1,.145-.382c3.733-4.6,10.865-2.635,14.872-6.71A13.829,13.829,0,0,0,216.4,222.759Z"/><path class="au" d="M202.237,204.036c2.816,2.558,11.113,5.876,11.255,9.49a20.105,20.105,0,0,0,.6,4.067c-4.007,4.075-11.139,2.1-14.872,6.71a.612.612,0,0,0-.145.382c-.782-.078-1.609-.191-2.493-.36-7.251-1.385-5.017-7.627-8.669-10.267a12.185,12.185,0,0,0-4.945-1.769,111.373,111.373,0,0,1,13.428-17.9C198.924,198.513,200.684,202.625,202.237,204.036Z"/><path class="ar" d="M195.008,192.285a21.07,21.07,0,0,0-6.649-6.513c-7.568-4.255-20.012-5.756-30.919,10.525q-1.256,1.875-2.4,3.761a138.084,138.084,0,0,0-13.551,29.928l-24.954-1.544-9-.557a72.923,72.923,0,0,0-4.058,7.465c2.582.679,6.963,1.829,11.948,3.129,12.1,3.155,27.767,7.189,29.9,7.495,3.53.509,9.562.891,18.078-13.874,1.6-2.768,3.034-5.208,4.317-7.346,5.56-9.265,8.205-12.852,8.205-12.852a37.207,37.207,0,0,1,5.175.139C184.734,204.827,188.821,197.453,195.008,192.285Z"/><path class="av" d="M181.093,212.041c.612.061,1.242.141,1.87.248q.762-1.217,1.549-2.428a12.322,12.322,0,0,0-1.723-1.1Q181.922,210.4,181.093,212.041Z"/><path class="ar" d="M182.789,208.76a12.322,12.322,0,0,1,1.723,1.1c.252-.388.514-.774.769-1.161a8.2,8.2,0,0,1-1.783-1.257C183.26,207.881,183.022,208.319,182.789,208.76Z"/><path class="av" d="M190.6,196.707a63.342,63.342,0,0,0-7.1,10.736,8.2,8.2,0,0,0,1.783,1.257,116.038,116.038,0,0,1,7.133-9.794C191.787,198.194,191.205,197.437,190.6,196.707Z"/><path class="ar" d="M190.6,196.707c.609.73,1.191,1.487,1.818,2.2.5-.607,1.012-1.2,1.527-1.8a20.6,20.6,0,0,0-1.511-2.415Q191.48,195.669,190.6,196.707Z"/><path class="av" d="M195.008,192.285a34.124,34.124,0,0,0-2.578,2.407,20.6,20.6,0,0,1,1.511,2.415c.8-.921,1.608-1.83,2.45-2.714C195.956,193.685,195.492,192.98,195.008,192.285Z"/><path class="aq" d="M107.532,227.885a72.923,72.923,0,0,0-4.058,7.465l-2.146-.566c1.433-2.314,2.747-4.667,4-7.035Z"/><path class="ap" d="M101.328,234.784l-.3-.078L93.684,240l-.378-.552,8.832-11.9,3.194.2C104.075,230.117,102.761,232.47,101.328,234.784Z"/><path class="as" d="M233.411,235.151c1.323,5.447-3.682,9.593-7.649,10.661s-8.935-2.689-8.935-2.689-3.931.234-5.256.33,1.17-2.3,1.17-2.3l-1.293-3.261a18.751,18.751,0,0,1,5.969-1.729s-3-3.541-6.263-2.716c0,0-1.018-4.338,3.662-7.276s11.4-1.768,14.374,1.664A23.484,23.484,0,0,1,233.411,235.151Z"/><path class="ao" d="M220.414,240.736a.71.71,0,1,0,.013,1A.711.711,0,0,0,220.414,240.736Z"/><path class="aw" d="M227.908,244.727l-1.312.895s5.815-2.6,7.674-5.253c3.441-4.9,2.427-8.183,2.427-8.183s.752-2.022-4.915-5.108a23.3,23.3,0,0,0-11.146-2.812,15.318,15.318,0,0,0,1.991,2.807,2.821,2.821,0,0,1,2.58-.728,4,4,0,0,1,1.416.321,3.21,3.21,0,0,1,1.516,1.982,2.4,2.4,0,0,1-.109,2.03,2.162,2.162,0,0,1-1.642.837,3.724,3.724,0,0,1-2.4-.629,4.982,4.982,0,0,0-.521,3.855,9.13,9.13,0,0,0,2.395,4.644c1.247,1.251,2.183,1.533,2.1,3.95Z"/><path class="ax" d="M227.075,230.08a2.33,2.33,0,0,1-2.8-.819.512.512,0,1,0-.255-.933"/><path class="ax" d="M223.381,243.841a2.359,2.359,0,0,0,.532-2.6"/><path class="ax" d="M203.461,272.817a9.058,9.058,0,0,1-2.866-2.85,1.857,1.857,0,0,1-.378-1.212"/><path class="ax" d="M201.435,282.507a42.109,42.109,0,0,1-.959-6.685"/><path class="as" d="M268.127,191.035c.051.212-4.7,1.588-4.7,1.588s5.724-1.087,6.8-.673a4.757,4.757,0,0,1,1.685,1.088l-7.545,1.6s7.3-.707,7.449-.456c.552.929-8.468,2.952-9.467,3.3.315.351-.034.209.542.4,1.394.453,3.443.352,4.161.869,0,0,.576.749-.4.789a59.61,59.61,0,0,1-6.487-.223c-.835-.192-3.731-1.231-3.935-1.192l-22.11,9.25v0c-.817.526-7.77,3.15-10.012,4.566-1.067.675-2.209,1.392-3.344,2.1-3.272,2.031-6.483,3.958-7.661,4.457-2.732,1.155-5.716-1.537-8.6-4.934-2.291-2.7-3.195-8.244-3.836-11.724a8.39,8.39,0,0,0,4.383,2.449,17.193,17.193,0,0,0,4.606.07,40.488,40.488,0,0,0,7.449-1.24l.02.014c3.266-.97,7.692-2.3,10.637-3.037l.053-.012-.009-.015.466-.083q.557-.12,1.028-.185l25.7-4.6,0-.011a4.649,4.649,0,0,1,3.548-2.655c2.845-.614,5.195-1.108,5.195-1.108s3.411-.751,3.869-.713S268.076,190.823,268.127,191.035Z"/><path class="an" d="M225.762,245.812s1.489-.311,5.822-2.876"/><path class="ax" d="M226.725,245.393l1.225-.711s.175-3.272-.852-4.173-5.555-5.066-3.115-9.623c0,0,1.993,1.358,3.72.2s-.182-3.945-1.08-4.418a3.757,3.757,0,0,0-4,.407"/><path class="an" d="M222.821,226.892a2.315,2.315,0,0,1-1.589.426c-1.425-.313-2.114-1.924-3.288-2.79a5.877,5.877,0,0,0-4.354-.708,20.361,20.361,0,0,1-4.486.525,6.241,6.241,0,0,1-5.69-7.076,4.814,4.814,0,0,0,1.872.967,16.869,16.869,0,0,0,3.469.915c2.177.252,4.979-1.487,7.406-2.328"/><path class="ax" d="M227.226,245.28a35.8,35.8,0,0,0,16.836-13.93,4.478,4.478,0,0,0,.814-1.929,5.215,5.215,0,0,0-.835-2.73,6.961,6.961,0,0,1-.979-3.732c.2-1.97,1.8-3.446,3.028-5a15.353,15.353,0,0,0,2.647-5.084"/><path class="ax" d="M226.437,245.549a36.361,36.361,0,0,1-3.571,6.025,4.882,4.882,0,0,1-2.121,1.9,1.486,1.486,0,0,1-1.435-.134,1.777,1.777,0,0,1-.516-.993c-.415-1.7-.285-3.71-1.544-4.929a3.712,3.712,0,0,0-4.425-.2,5.812,5.812,0,0,1-1.416.808,1.127,1.127,0,0,1-1.382-.543"/><path class="ax" d="M227.883,244.7c-.184-.694.021-.967-.163-1.661a6.084,6.084,0,0,0-1.045-2.429c-.886-1.049-2.364-1.379-3.419-2.257a4.841,4.841,0,0,1-.564-6.331"/><path class="ax" d="M227.294,245.213a52.76,52.76,0,0,0,10.88-10,3.808,3.808,0,0,0,.9-1.7c.2-1.327-.926-2.425-1.646-3.557a6.643,6.643,0,0,1-.339-6.4c1.1-2.217,3.341-3.613,4.9-5.532a3.094,3.094,0,0,0,.8-1.651c.1-1.3-1.144-2.245-1.84-3.348a4.329,4.329,0,0,1,3.677-6.641"/><path class="ax" d="M228.1,244.29c1.517-1.883,4.848-6.641,5.683-8.911a7.557,7.557,0,0,0-.566-6.943c-.731-1.011-1.779-1.749-2.579-2.706a7.22,7.22,0,0,1-.861-7.742c1.262-2.454,3.8-3.924,5.909-5.7a4.515,4.515,0,0,0,1.753-2.462c.186-1.011-.524-2.231-1.552-2.195"/><path class="ay" d="M188.382,199.507s-6-7.862-12.1-4.81S149.1,235.512,149.1,235.512L106,230.553l-1.049,2.193s44.438,7.343,45.487,6.675,23.627-37.265,25.124-39.165c1.549-1.966,2.817-3.461,5.106-2.031a64.619,64.619,0,0,1,5.677,4.3Z"/><path class="ax" d="M256.554,195.958a4.294,4.294,0,0,1,4.354.9"/><path class="ax" d="M170.027,249.383l2.792.74"/><path class="ax" d="M141.453,229.828a21.045,21.045,0,0,0,1.833,4.166"/><path class="ax" d="M142.2,230.917a9.817,9.817,0,0,0,1.883,2.265"/><path class="ax" d="M146,276q17.393-10.716,34.367-22.09"/><path class="ax" d="M181.139,252.571c1.056-1.813.506-4.1-.072-6.114l-7.734-27"/><path class="ax" d="M252.044,195.721a14.041,14.041,0,0,0,2.759,4.24,7.006,7.006,0,0,0,4.487,2.143c.318.015.724-.065.789-.377a.678.678,0,0,0-.214-.539,8.789,8.789,0,0,0-4.38-2.307"/><path class="az" d="M277.382,707.08"/><rect class="h" width="478.184" height="852.881" transform="translate(0 0.119)"/><path class="b" d="M461.675,393.678A44.777,44.777,0,0,0,416.9,438.456a45.322,45.322,0,0,0,.491,6.63,29.657,29.657,0,0,0-34.052,27.278,44.771,44.771,0,0,0-66.416,24.1,13.92,13.92,0,0,0-22.109,9.545A44.69,44.69,0,0,0,259.4,488.619c-19.678,0-35.786,12.71-42.023,30.353a46.591,46.591,0,0,0-20.351,14.689,14.362,14.362,0,0,0-14.378-12.443,14.641,14.641,0,0,0-8.6,2.774,46.434,46.434,0,0,0-44.262-31.378,47.163,47.163,0,0,0-24.746,6.956c-1.088-15.627-14.425-27.978-30.728-27.978a31.745,31.745,0,0,0-4.655.342,44.582,44.582,0,0,0,.512-6.718c0-25.054-20.83-45.365-46.526-45.365,0,0-21.172,1.124-21.172,7.153v69.809l-6.58-2.266V853H480V626.665l2.052,0V400.739C482.052,394.787,461.675,393.678,461.675,393.678Z"/></g><text class="ba" transform="translate(162 73)"><tspan x="0" y="0">ELOFUN</tspan></text></g></svg>