<svg xmlns="http://www.w3.org/2000/svg" width="26.627" height="27.784" viewBox="0 0 26.627 27.784"><path d="M137.262,345.963a4.631,4.631,0,1,1-4.631-4.631A4.631,4.631,0,0,1,137.262,345.963Zm0,0" transform="translate(-121.054 -322.809)" fill="#ffa000"/><path d="M19.69,54.153a8.085,8.085,0,0,1-6.269-11.266,8.076,8.076,0,0,0-9.948,7.884V54A7.762,7.762,0,0,1,.708,59.942a2.026,2.026,0,0,0,1.317,3.565h19.1a2.026,2.026,0,0,0,1.306-3.575A7.752,7.752,0,0,1,19.69,54.153Zm0,0" transform="translate(0 -40.353)" fill="#ffc107"/><path d="M288.909,5.788A5.788,5.788,0,1,1,283.121,0,5.788,5.788,0,0,1,288.909,5.788Zm0,0" transform="translate(-262.282)" fill="#f44336"/></svg>