<svg width="342" height="96" viewBox="0 0 342 96" fill="none" xmlns="http://www.w3.org/2000/svg">
<path d="M335.798 0H6.20207C2.77676 0 0 3.62488 0 8.09639V87.9036C0 92.3751 2.77676 96 6.20207 96H335.798C339.223 96 342 92.3751 342 87.9036V8.09639C342 3.62488 339.223 0 335.798 0Z" fill="url(#paint0_linear)"/>
<mask id="mask0" mask-type="alpha" maskUnits="userSpaceOnUse" x="0" y="0" width="342" height="96">
<path d="M335.798 0H6.20207C2.77676 0 0 3.62488 0 8.09639V87.9036C0 92.3751 2.77676 96 6.20207 96H335.798C339.223 96 342 92.3751 342 87.9036V8.09639C342 3.62488 339.223 0 335.798 0Z" fill="url(#paint1_linear)"/>
</mask>
<g mask="url(#mask0)">
<g style="mix-blend-mode:overlay">
<path d="M47.2981 -41.6702C35.0051 -35.9932 33.9071 -23.8423 22.7191 -29.9703C19.3781 -31.8003 16.8791 -33.8703 13.6731 -34.5493C4.5181 -36.4833 1.81709 -23.2833 -6.59591 -24.4443C-11.9599 -25.1833 -20.0269 -27.4223 -26.6959 -19.7753C-30.1229 -15.8453 -30.2759 -11.2203 -30.6519 -5.58229C-31.4359 6.18871 -41.1139 9.68274 -44.2919 22.3747C-47.0029 33.2017 -41.6799 41.6747 -32.5869 43.2817C-22.1249 45.1267 -14.6869 38.9177 -3.3329 33.4437C6.6731 28.6217 13.1331 36.1088 24.9191 38.4288C33.0531 40.0288 39.9551 35.8398 44.8131 29.1608C51.1641 20.4287 51.7921 12.7607 52.8601 3.60973C54.0391 -6.50327 59.2661 -11.0783 63.3771 -16.1113C76.0821 -31.6693 60.5511 -47.7902 47.2981 -41.6702Z" fill="#EE4B10" fill-opacity="0.8"/>
</g>
<g style="mix-blend-mode:overlay">
<path d="M376.724 57.5353C362.377 64.0897 361.095 78.1187 348.037 71.0435C344.138 68.9307 341.221 66.5408 337.48 65.7568C326.794 63.5239 323.642 78.7641 313.823 77.4236C307.562 76.5704 298.147 73.9854 290.363 82.8143C286.364 87.3517 286.185 92.6915 285.746 99.2009C284.831 112.791 273.536 116.825 269.826 131.479C266.662 143.979 272.875 153.762 283.488 155.617C295.698 157.747 304.38 150.579 317.631 144.259C329.31 138.691 336.849 147.336 350.605 150.014C360.099 151.861 368.154 147.025 373.824 139.314C381.237 129.232 381.97 120.379 383.216 109.814C384.592 98.1375 390.693 92.8554 395.491 87.0445C410.319 69.082 392.193 50.4694 376.724 57.5353Z" fill="#FD611E"/>
</g>
</g>
<path d="M312.582 78.5753C313.607 74.2328 310.918 69.8814 306.575 68.8562C302.233 67.831 297.881 70.5203 296.856 74.8628C295.831 79.2054 298.52 83.5568 302.863 84.5819C307.205 85.6071 311.557 82.9179 312.582 78.5753Z" fill="url(#paint2_linear)"/>
<defs>
<linearGradient id="paint0_linear" x1="0" y1="48" x2="342" y2="48" gradientUnits="userSpaceOnUse">
<stop stop-color="#EF5713"/>
<stop offset="1" stop-color="#FE9B1F"/>
</linearGradient>
<linearGradient id="paint1_linear" x1="0" y1="48" x2="342" y2="48" gradientUnits="userSpaceOnUse">
<stop stop-color="#EF5713"/>
<stop offset="1" stop-color="#FE9B1F"/>
</linearGradient>
<linearGradient id="paint2_linear" x1="310.805" y1="78.1558" x2="297.69" y2="75.0596" gradientUnits="userSpaceOnUse">
<stop stop-color="#FE0900"/>
<stop offset="1" stop-color="#FE8900"/>
</linearGradient>
</defs>
</svg>
