<svg xmlns="http://www.w3.org/2000/svg" xmlns:xlink="http://www.w3.org/1999/xlink" width="386" height="83" viewBox="0 0 386 83"><defs><linearGradient id="a" y1="0.5" x2="1" y2="0.5" gradientUnits="objectBoundingBox"><stop offset="0" stop-color="#ef5713"/><stop offset="1" stop-color="#fe9b1f"/></linearGradient><clipPath id="b"><rect width="386" height="83" rx="7" transform="translate(11 -918)" fill="url(#a)"/></clipPath><radialGradient id="d" cx="0.5" cy="0.5" r="0.5" gradientTransform="matrix(0.924, 0.383, -0.383, 0.924, 0.229, -0.153)" gradientUnits="objectBoundingBox"><stop offset="0.198" stop-color="#4d4d4d"/><stop offset="0.581" stop-color="#a9a9a9"/><stop offset="0.866" stop-color="#e6e6e6"/><stop offset="1" stop-color="#fff"/></radialGradient><linearGradient id="e" x1="0.5" y1="0.887" x2="0.5" y2="0.053" gradientUnits="objectBoundingBox"><stop offset="0" stop-color="#fe5500"/><stop offset="1" stop-color="#fe8900"/></linearGradient><linearGradient id="f" x1="0.144" y1="0.5" x2="0.856" y2="0.5" gradientUnits="objectBoundingBox"><stop offset="0"/><stop offset="0.109" stop-color="#050505"/><stop offset="0.252" stop-color="#161616"/><stop offset="0.414" stop-color="#313131"/><stop offset="0.59" stop-color="#575757"/><stop offset="0.777" stop-color="#888"/><stop offset="0.972" stop-color="#c2c2c2"/><stop offset="1" stop-color="#ccc"/></linearGradient><linearGradient id="g" x1="0.142" y1="0.5" x2="0.858" y2="0.5" xlink:href="#f"/><clipPath id="i"><rect width="207" height="83" transform="translate(-553 -1193)" fill="#fff" stroke="#707070" stroke-width="1"/></clipPath><radialGradient id="j" cx="0.5" cy="0.5" r="0.5" gradientUnits="objectBoundingBox"><stop offset="0" stop-color="#fed817"/><stop offset="0.749" stop-color="#c6fd31" stop-opacity="0.039"/><stop offset="1" stop-color="#30c3ff" stop-opacity="0"/></radialGradient><linearGradient id="k" x1="0.5" y1="0.873" x2="0.5" y2="0.112" gradientUnits="objectBoundingBox"><stop offset="0" stop-color="#fed817"/><stop offset="0.182" stop-color="#fd8f32"/><stop offset="0.414" stop-color="#fed817"/><stop offset="0.801" stop-color="#d4dedb" stop-opacity="0.02"/><stop offset="1" stop-color="#d2e1e5" stop-opacity="0"/></linearGradient><linearGradient id="l" x1="0.5" y1="0.89" x2="0.5" y2="-0.271" gradientUnits="objectBoundingBox"><stop offset="0" stop-color="#feb517"/><stop offset="0.176" stop-color="#fb8b1c"/><stop offset="0.693" stop-color="#f36916"/><stop offset="1" stop-color="#ec4810"/></linearGradient><linearGradient id="m" x1="0.5" y1="0.929" x2="0.5" y2="0.173" xlink:href="#l"/><linearGradient id="n" x1="0.5" y1="0.984" x2="0.5" y2="0.052" xlink:href="#l"/><linearGradient id="o" x1="0.5" y1="0.965" x2="0.5" y2="0.063" xlink:href="#k"/></defs><g transform="translate(-15 -74)"><g transform="translate(15 74)"><g transform="translate(-11 918)" clip-path="url(#b)"><rect width="386" height="83" rx="7" transform="translate(11 -918)" fill="url(#a)"/><path d="M9.2-627.889c-12.293,5.677-13.391,17.828-24.579,11.7-3.341-1.83-5.84-3.9-9.046-4.579-9.155-1.934-11.856,11.266-20.269,10.105-5.364-.739-13.431-2.978-20.1,4.669-3.427,3.93-3.58,8.555-3.956,14.193-.784,11.771-10.462,15.265-13.64,27.957-2.711,10.827,2.612,19.3,11.705,20.907,10.462,1.845,17.9-4.364,29.254-9.838,10.006-4.822,16.466,2.665,28.252,4.985,8.134,1.6,15.036-2.589,19.894-9.268,6.351-8.732,6.979-16.4,8.047-25.551,1.179-10.113,6.406-14.688,10.517-19.721C37.984-617.888,22.453-634.009,9.2-627.889Z" transform="translate(383.638 -292.571)" fill="#636363" style="mix-blend-mode:overlay;isolation:isolate"/><path d="M1.694-628c-11.293,5.215-12.3,16.378-22.58,10.746-3.069-1.682-5.365-3.585-8.31-4.207-8.41-1.777-10.892,10.35-18.621,9.283-4.928-.679-12.339-2.736-18.464,4.29-3.148,3.611-3.289,7.859-3.634,13.039-.721,10.814-9.612,14.024-12.531,25.684-2.49,9.946,2.4,17.734,10.753,19.207,9.611,1.695,16.44-4.009,26.876-9.038,9.192-4.43,15.127,2.448,25.955,4.579,7.473,1.471,13.813-2.379,18.276-8.515C5.247-570.95,5.823-577.991,6.8-586.4c1.084-9.291,5.885-13.493,9.662-18.117C28.138-618.809,13.87-633.62,1.694-628Z" transform="translate(84.934 -285.35)" fill="#636363" style="mix-blend-mode:overlay;isolation:isolate"/><g transform="translate(99.664 -730.781)"><circle cx="11.055" cy="11.055" r="11.055" transform="translate(266.143 -121.652) rotate(-22.5)" fill="url(#d)" style="mix-blend-mode:color-burn;isolation:isolate"/><circle cx="8.079" cy="8.079" r="8.079" transform="translate(270.911 -112.852) rotate(-76.717)" fill="url(#e)"/></g><g transform="translate(-30.901 -595.882)" style="mix-blend-mode:color-dodge;isolation:isolate"><rect width="10.772" height="0.067" transform="translate(44.15 -311.201) rotate(-45)" fill="url(#f)"/></g><g transform="translate(-22.543 -697.572)" style="mix-blend-mode:color-dodge;isolation:isolate"><rect width="31.921" height="0.375" transform="translate(36.497 -181.008) rotate(-45)" fill="url(#g)"/></g><g transform="translate(-24.122 -701.988)" style="mix-blend-mode:color-dodge;isolation:isolate"><rect width="12.346" height="0.145" transform="translate(36.497 -194.85) rotate(-45)" fill="url(#g)"/></g></g></g><g transform="translate(131 74)"><g transform="translate(253.713)"><path d="M5.713,0H17a5,5,0,0,1,5,5V78a5,5,0,0,1-5,5H5.713Z" transform="translate(-5.713)" fill="#f26515" opacity="0.522"/></g><g transform="translate(259.679 34.5)"><path d="M48.782-1949.653l4.272,6.884-4.272,7.181" transform="translate(-48.782 1949.653)" fill="none" stroke="#fff" stroke-linecap="round" stroke-linejoin="round" stroke-width="3"/></g><g transform="translate(553 1193)" clip-path="url(#i)"><circle cx="93.5" cy="93.5" r="93.5" transform="translate(-547 -1220)" fill="url(#j)" style="mix-blend-mode:hard-light;isolation:isolate"/><path d="M779.245-2773.094l-5.43,43.154H806.37l11-35.7Z" transform="translate(-1202.758 1613.148)" opacity="0.345" fill="url(#k)" style="mix-blend-mode:color-dodge;isolation:isolate"/><g transform="translate(-498.937 -1138.781)"><g transform="translate(87.239 17.019)"><path d="M813.057-2630.951l-.639.639-2.559-2.558.639-.639a.678.678,0,0,1,.959,0l1.606,1.606a.679.679,0,0,1-.007.953Z" transform="translate(-808.947 2633.708)" fill="#6994ff"/><path d="M817.712-2621.677l-.481.481c-1.148,1.148-4.226-.069-6.875-2.718-2.181-2.184-3.391-4.657-3.109-6.1.111-.569.352-.735.871-1.254l2.559,2.558c-.508.507-.488.486-.5.5-.4.461.239,1.8,1.458,3.018,1.237,1.237,2.6,1.88,3.038,1.439l.481-.481Z" transform="translate(-807.206 2632.108)" fill="#6994ff"/><path d="M833.522-2610.486l-.639.639-2.558-2.558.639-.639a.678.678,0,0,1,.959,0l1.606,1.606A.678.678,0,0,1,833.522-2610.486Z" transform="translate(-822.377 2620.278)" fill="#6994ff"/></g><path d="M786.684-2627.379H752.478l-1.543,10.495h32.834Z" transform="translate(-683.039 2646.573)" fill="url(#l)"/><path d="M553.421-2643.771l3.772,16.13h33.433l-2.23-16.13Z" transform="translate(-553.421 2657.331)" fill="url(#m)"/><path d="M553.42-2653.253l12.071-4.967h22.285l1.638,4.967Z" transform="translate(-553.42 2666.813)" fill="#fed817"/><path d="M786.211-2635.865l-12.071-4.445H751.853l-1.638,4.445Z" transform="translate(-682.567 2655.06)" fill="#fed817"/><path d="M646.687-2668.77l3.6,24.723h33.777l3.515-24.723Z" transform="translate(-614.626 2673.736)" fill="#1a8484"/><path d="M647.2-2668.77l3.6,24.723h33.777l3.514-24.723Z" transform="translate(-614.961 2673.736)" fill="url(#n)"/><path d="M647.2-2678.251l7.518-4.967h26.838l6.536,4.967Z" transform="translate(-614.961 2683.218)" fill="#fed817"/></g><path d="M636.727-2770.025l10.226,41.207H680.57l-6.723-40.746Z" transform="translate(-1145.895 1603.483)" opacity="0.401" fill="url(#o)" style="mix-blend-mode:color-dodge;isolation:isolate"/><path d="M747.765-2774.489l8.955,41.169H797.53l8.76-44.923Z" transform="translate(-1223.287 1599.683)" opacity="0.19" fill="url(#k)" style="mix-blend-mode:color-dodge;isolation:isolate"/><text transform="translate(-450 -1113)" fill="#fff" font-size="22" font-family="Montserrat-Bold, Montserrat" font-weight="700" opacity="0.85"><tspan x="0" y="0">1</tspan></text><text transform="translate(-484 -1112)" fill="#fff" font-size="13" font-family="Montserrat-Bold, Montserrat" font-weight="700" opacity="0.87"><tspan x="0" y="0">2</tspan></text><text transform="translate(-415 -1111)" fill="#fff" font-size="9" font-family="Montserrat-Bold, Montserrat" font-weight="700" opacity="0.85"><tspan x="0" y="0">3</tspan></text></g></g></g></svg>