<svg xmlns="http://www.w3.org/2000/svg" viewBox="0 0 14.963 14.963"><defs><style>.a{fill:#f5f0eb;}.b{fill:#dcd2cd;}.c{fill:#a7d22a;}.d{fill:#87b20b;}.e{fill:#fff;}</style></defs><g transform="translate(-16.525 -16.525)"><path class="a" d="M14.963,7.482a7.481,7.481,0,0,1-12.772,5.29,7.481,7.481,0,0,1,10.58-10.58A7.433,7.433,0,0,1,14.963,7.482Z" transform="translate(16.525 16.525)"/><path class="b" d="M263.486,7.482a7.481,7.481,0,0,1-7.481,7.481V0a7.481,7.481,0,0,1,7.481,7.482Z" transform="translate(-231.998 16.525)"/><path class="c" d="M79.281,72.279a7,7,0,1,1-7-7A7.01,7.01,0,0,1,79.281,72.279Z" transform="translate(-48.272 -48.272)"/><path class="d" d="M263.008,72.279a7.01,7.01,0,0,1-7,7v-14A7.01,7.01,0,0,1,263.008,72.279Z" transform="translate(-231.998 -48.272)"/><path class="e" d="M200.246,209.3l-4.13,4.13-.377.377a1.033,1.033,0,0,1-.733.3h-.016a1.019,1.019,0,0,1-.723-.3l-2.223-2.224a1.022,1.022,0,0,1,1.445-1.445l1.492,1.491,1.135-1.135,2.665-2.665a1.036,1.036,0,0,1,1.465,1.465Z" transform="translate(-172.124 -186.818)"/><path class="a" d="M260.135,209.3l-4.13,4.13V210.5l2.665-2.665a1.036,1.036,0,1,1,1.465,1.465Z" transform="translate(-232.013 -186.817)"/></g></svg>