<svg xmlns="http://www.w3.org/2000/svg" xmlns:xlink="http://www.w3.org/1999/xlink" width="414" height="736" viewBox="0 0 414 736"><defs><filter id="a" x="8" y="174" width="398.362" height="152.216" filterUnits="userSpaceOnUse"><feOffset dy="3" input="SourceAlpha"/><feGaussianBlur stdDeviation="3" result="b"/><feFlood flood-opacity="0.302"/><feComposite operator="in" in2="b"/><feComposite in="SourceGraphic"/></filter><filter id="c" x="112.5" y="428.5" width="188.355" height="56.48" filterUnits="userSpaceOnUse"><feOffset dy="3" input="SourceAlpha"/><feGaussianBlur stdDeviation="2.5" result="d"/><feFlood flood-opacity="0.302"/><feComposite operator="in" in2="d"/><feComposite in="SourceGraphic"/></filter><clipPath id="f"><rect width="414" height="736"/></clipPath></defs><g id="e" clip-path="url(#f)"><rect width="414" height="736" fill="#fff"/><rect width="436.362" height="774.401" transform="translate(-11.158 -22.031)" fill="#0f5d7e"/><g transform="matrix(1, 0, 0, 1, 0, 0)" filter="url(#a)"><rect width="380.362" height="134.216" rx="9" transform="translate(17 180)" fill="#fff"/></g><g transform="matrix(0.921, 0.391, -0.391, 0.921, -1214.582, -762.797)" opacity="0.03"><circle cx="17.71" cy="17.71" r="17.71" transform="translate(1854.129 735.84)" fill="#fff"/><path d="M1588.907,798.413c-6.116-48.929,19.775-108.458,77.266-118.652s156.163-25.28,165.948,15.9-13.455,123.952-56.267,175.327-90.925,59.938-128.029,43.629S1588.907,798.413,1588.907,798.413Z" transform="translate(0 -39.24)" fill="#fff"/></g><g transform="translate(-19 108.658)"><g transform="translate(-22 -272.658)"><g transform="matrix(1, 0, 0, 1, 41, 164)" filter="url(#c)"><rect width="173.355" height="41.48" rx="5" transform="translate(120 433)" fill="#38d2b7"/></g><text transform="translate(189 624.658)" fill="#fff" font-size="19" font-family="Montserrat-Bold, Montserrat" font-weight="700"><tspan x="0" y="0">HOMEPAGE</tspan></text></g></g><text transform="translate(207 254)" fill="#38d2b7" font-size="19" font-family="Montserrat-Black, Montserrat" font-weight="800"><tspan x="-73.464" y="0">Coming soon! </tspan></text></g></svg>