<svg xmlns="http://www.w3.org/2000/svg" width="26.661" height="22.603" viewBox="0 0 26.661 22.603"><g transform="translate(0 -38.96)"><path d="M318.686,273.162H315.98a3.863,3.863,0,0,0-3.857,3.849v4.244a2.326,2.326,0,0,0,2.319,2.314h5.782a2.316,2.316,0,0,0,2.307-2.314v-4.244A3.853,3.853,0,0,0,318.686,273.162Z" transform="translate(-295.87 -222.007)" fill="#ff504a"/><path d="M317.333,273.161H315.98a3.863,3.863,0,0,0-3.857,3.849v4.244a2.326,2.326,0,0,0,2.319,2.314h2.891V273.161Z" transform="translate(-295.87 -222.006)" fill="#df4b38"/><path d="M349.217,121.737a3.458,3.458,0,1,0,3.458,3.458A3.462,3.462,0,0,0,349.217,121.737Z" transform="translate(-327.755 -78.467)" fill="#ff504a"/><path d="M349.217,121.737a3.458,3.458,0,0,0,0,6.917Z" transform="translate(-327.755 -78.467)" fill="#df4b38"/><path d="M6.563,273.162H3.857A3.863,3.863,0,0,0,0,277.011v4.244a2.326,2.326,0,0,0,2.319,2.314H8.1a2.315,2.315,0,0,0,2.307-2.314v-4.244A3.853,3.853,0,0,0,6.563,273.162Z" transform="translate(0 -222.007)" fill="#fd8f32"/><path d="M5.21,273.161H3.857A3.863,3.863,0,0,0,0,277.01v4.244a2.326,2.326,0,0,0,2.319,2.314H5.21Z" transform="translate(0 -222.006)" fill="#feb517"/><path d="M145.487,234.766h-4.71a3.85,3.85,0,0,0-3.845,3.845V246.4a.769.769,0,0,0,.769.769h10.862a.769.769,0,0,0,.769-.769v-7.786A3.85,3.85,0,0,0,145.487,234.766Z" transform="translate(-129.802 -185.61)" fill="#23a790"/><path d="M143.158,234.766h-2.381a3.85,3.85,0,0,0-3.845,3.845V246.4a.769.769,0,0,0,.769.769h5.457v-12.4Z" transform="translate(-129.802 -185.61)" fill="#38d2b7"/><path d="M171.814,38.96a4.624,4.624,0,1,0,4.624,4.624A4.63,4.63,0,0,0,171.814,38.96Z" transform="translate(-158.484)" fill="#23a790"/><path d="M171.814,38.96a4.624,4.624,0,1,0,0,9.249Z" transform="translate(-158.484)" fill="#38d2b7"/><path d="M37.094,121.737a3.458,3.458,0,1,0,3.458,3.458A3.462,3.462,0,0,0,37.094,121.737Z" transform="translate(-31.885 -78.467)" fill="#fd8f32"/><path d="M37.094,121.737a3.458,3.458,0,0,0,0,6.917Z" transform="translate(-31.885 -78.467)" fill="#feb517"/></g></svg>