<svg xmlns="http://www.w3.org/2000/svg" xmlns:xlink="http://www.w3.org/1999/xlink" width="364.193" height="254.79" viewBox="0 0 364.193 254.79"><defs><linearGradient id="a" x1="0.283" y1="-5.275" x2="0.576" y2="2.115" gradientUnits="objectBoundingBox"><stop offset="0" stop-color="#fff"/><stop offset="1" stop-color="#fff" stop-opacity="0"/></linearGradient><clipPath id="b"><path d="M79.864-124.837a109.332,109.332,0,0,1-7.843-18.744c-8.937-28.545-5.632-58.767,4.762-84.1l39.987-4.329,40.019,9.821C166.088-164.814,106.943-135.24,79.864-124.837Z" transform="translate(-66.843 232.011)" fill="none"/></clipPath><linearGradient id="c" x1="-5.18" y1="2.837" x2="-14.25" y2="-17.077" gradientUnits="objectBoundingBox"><stop offset="0" stop-color="#7fb3ff"/><stop offset="1" stop-color="#fff"/></linearGradient><linearGradient id="d" x1="-6.26" y1="7.151" x2="-13.829" y2="-19.314" xlink:href="#c"/><linearGradient id="e" x1="-0.175" y1="0.725" x2="-1.442" y2="-1.139" xlink:href="#c"/><linearGradient id="f" x1="-15.242" y1="1.318" x2="-17.152" y2="0.401" gradientUnits="objectBoundingBox"><stop offset="0" stop-color="#2f516b"/><stop offset="1" stop-color="#4b77bd"/></linearGradient><linearGradient id="g" x1="-2.555" y1="0.789" x2="-2.697" y2="-0.563" gradientUnits="objectBoundingBox"><stop offset="0" stop-color="#b7d389"/><stop offset="1" stop-color="#79f9bf"/></linearGradient><clipPath id="h"><path d="M443.415-174.916a121.729,121.729,0,0,1-12.409,23.472,93.924,93.924,0,0,1-22.942,23.98,41.144,41.144,0,0,1-12.176,6.191c-8.7-10.78-40.415-50.161-40.825-52.088-.474-2.23,28.044-66.676,28.044-66.676l33.21,16.673,3.6-35.654L439-265.837l1.625.944C456.233-235.783,454.381-202.494,443.415-174.916Z" transform="translate(-355.057 265.837)" fill="none"/></clipPath><linearGradient id="i" x1="4.688" y1="14.447" x2="-3.033" y2="-11.626" xlink:href="#c"/><linearGradient id="j" x1="6.189" y1="18.648" x2="-1.657" y2="-6.805" xlink:href="#c"/><linearGradient id="k" x1="1.859" y1="1.326" x2="-0.564" y2="-0.27" xlink:href="#c"/><linearGradient id="l" x1="1.178" y1="1.349" x2="0.217" y2="0.261" xlink:href="#f"/><linearGradient id="m" x1="0.625" y1="1.274" x2="0.388" y2="-0.044" xlink:href="#g"/><clipPath id="n"><path d="M354.59-179.26c-2.974,8.052-1.723,33.573-.219,53.411-1.09.265-2.239.55-3.444.861-6.47,1.662-14.7,4.059-25.674,7.922a321.478,321.478,0,0,0-33.783,13.9c-1.629-23.124-5.087-52.07-9.085-56.58-8.984-10.133-21-34.546-30.487-50.608s-24.227-27.676-21.374-43.837,24.24-2.853,41.625.95c10.961,2.4,13.661,10.463,13.8,15.271,4.073-5.329,17.054-13.726,32.246-9.686,19.219,5.11-15.9-33.154-16.938-52.648s23.859-8.555,42.254,5.707,1.094,19.963,14.406,40.88S361.72-198.572,354.59-179.26Z" transform="translate(-230.163 310.828)" fill="none"/></clipPath><linearGradient id="o" x1="0.303" y1="-0.574" x2="0.747" y2="1.892" gradientUnits="objectBoundingBox"><stop offset="0" stop-color="#ffe0c2"/><stop offset="1" stop-color="#f98267"/></linearGradient><linearGradient id="p" x1="1.502" y1="1.629" x2="-0.238" y2="-0.183" xlink:href="#f"/><clipPath id="q"><path d="M354.473-78.929c-6.959,2.537-15.151,3.971-22.551,2.309.842-20.573-3.547-56.11-4.348-67.374a50.39,50.39,0,0,1,.675-14.369,13.6,13.6,0,0,1,1.5-4.282c.428-.131.865-.27,1.3-.428a63.485,63.485,0,0,0,12.456-5.962,12,12,0,0,1,1.424,1.917c1.6,2.546,4.063,7.76,4.645,16.375C350.385-138.846,355.906-97.532,354.473-78.929Z" transform="translate(-327.38 169.035)" fill="none"/></clipPath><linearGradient id="r" x1="0.708" y1="1.133" x2="0.391" y2="0.169" gradientUnits="objectBoundingBox"><stop offset="0" stop-color="#2a1944"/><stop offset="1"/></linearGradient><linearGradient id="s" x1="0.708" y1="1.133" x2="0.391" y2="0.169" xlink:href="#r"/><linearGradient id="w" x1="0.708" y1="1.133" x2="0.391" y2="0.169" xlink:href="#r"/><linearGradient id="ab" x1="0.708" y1="1.133" x2="0.391" y2="0.169" xlink:href="#r"/><linearGradient id="aq" x1="0.708" y1="1.133" x2="0.391" y2="0.169" xlink:href="#r"/><linearGradient id="ar" x1="0.708" y1="1.133" x2="0.391" y2="0.169" xlink:href="#r"/><linearGradient id="as" x1="0.708" y1="1.133" x2="0.391" y2="0.169" xlink:href="#r"/><linearGradient id="at" x1="0.708" y1="1.133" x2="0.391" y2="0.169" xlink:href="#r"/><linearGradient id="bz" x1="-0.118" y1="-1.764" x2="1.47" y2="3.852" gradientUnits="objectBoundingBox"><stop offset="0"/><stop offset="1" stop-opacity="0"/></linearGradient><linearGradient id="ca" x1="0.007" y1="0.725" x2="1.169" y2="-0.145" xlink:href="#o"/><linearGradient id="cb" x1="0.163" y1="1.899" x2="0.764" y2="-0.665" xlink:href="#o"/><linearGradient id="cc" x1="2.452" y1="1.719" x2="0.136" y2="0.16" xlink:href="#c"/><linearGradient id="cd" x1="2.858" y1="1.426" x2="-0.395" y2="0.212" xlink:href="#c"/><linearGradient id="ce" x1="-0.063" y1="-1.214" x2="1.836" y2="4.297" xlink:href="#bz"/><linearGradient id="cf" x1="0.137" y1="-0.964" x2="1.506" y2="4.361" xlink:href="#bz"/><linearGradient id="cg" x1="0.5" y1="-0.406" x2="0.5" y2="1.515" xlink:href="#o"/><linearGradient id="ch" x1="0.267" y1="0.101" x2="1.119" y2="1.156" xlink:href="#o"/><clipPath id="ci"><path d="M341.109-189.531a3.751,3.751,0,0,0-2.142.182s-1.74-7.383-2.155-7.629-11.366,2.322-17.338-.912a12.3,12.3,0,0,1-4.891-19.494c5.888-6.968,15.178,6.386,20.819,8.127s11.529-.581,13.275,7.3C349.994-196,344.39-193.078,341.109-189.531Z" transform="translate(-311.604 219.382)" fill="none"/></clipPath><linearGradient id="cj" x1="0.505" y1="-4.045" x2="0.497" y2="4.206" xlink:href="#bz"/><linearGradient id="ck" x1="-0.649" y1="-1.441" x2="1.473" y2="2.206" xlink:href="#bz"/><linearGradient id="cl" x1="5.123" y1="0.534" x2="-1.719" y2="0.484" xlink:href="#bz"/><linearGradient id="cm" x1="4.027" y1="0.439" x2="-1.339" y2="0.533" xlink:href="#bz"/><linearGradient id="cn" x1="0.786" y1="-1.591" x2="0.29" y2="2.329" xlink:href="#bz"/><linearGradient id="co" x1="3.341" y1="-2.896" x2="-4.307" y2="6.179" xlink:href="#bz"/><linearGradient id="cp" x1="0.734" y1="-2.227" x2="0.316" y2="2.718" xlink:href="#bz"/><linearGradient id="cq" x1="15.512" y1="-2.458" x2="-12.39" y2="3.123" xlink:href="#bz"/><linearGradient id="cr" x1="0.922" y1="-0.266" x2="-0.023" y2="1.264" xlink:href="#bz"/><clipPath id="cs"><path d="M240.823-167.747,239.4-125.819,181.888-85.18c-1.364.721-3.719,17.31-11.278,28.909a133.032,133.032,0,0,1-37.133-9.518A133.842,133.842,0,0,1,91.046-93.568L74.807-80.792,49.138-67.365,25.37-86.617s36.01-25.821,41.717-44.713A44.614,44.614,0,0,1,87.959-157.6c.019-.014,18.222-32.641,18.222-32.641l26.461-14.894,55.774,28.467Z" transform="translate(-25.37 205.138)" fill="none"/></clipPath><clipPath id="ct"><path d="M165.68-192.679c-7.521-3.65-17.144-.774-20.572,3.428s-3.208,14.6-6.747,20.793-16.037,15.264-11.281,23.78,45.789,8.074,48.554-.774-2.433-12.166-1.88-20.129,2.986-16.148-1-22.563S165.68-192.679,165.68-192.679Z" transform="translate(-126.014 194.349)" fill="none"/></clipPath><linearGradient id="cu" x1="1.206" y1="1.062" x2="-0.197" y2="-0.288" xlink:href="#o"/><linearGradient id="cv" x1="0.607" y1="1.243" x2="0.454" y2="0.059" xlink:href="#c"/><linearGradient id="cw" x1="0.882" y1="0.101" x2="-0.408" y2="1.251" xlink:href="#o"/><linearGradient id="cx" x1="0.049" y1="0.764" x2="1.462" y2="-0.135" xlink:href="#o"/><linearGradient id="cy" x1="1.23" y1="1.385" x2="-0.312" y2="-0.347" xlink:href="#o"/><linearGradient id="cz" x1="0.391" y1="1.112" x2="0.62" y2="-0.149" xlink:href="#f"/><linearGradient id="da" x1="0.324" y1="1.207" x2="0.562" y2="-0.052" xlink:href="#f"/><clipPath id="db"><path d="M134.233-144.538l-.014.028a76.561,76.561,0,0,0-6.069,21.983c-1.434,12.344-5.39,55.775-1.592,70.851.014.056.028.107.042.158-.219,2.541-20.9-5.864-21.565-12.833s5.636-22.118,6.3-27.54a101.791,101.791,0,0,0,.554-11.943S94.083-82.764,69.363-76.629a14.1,14.1,0,0,0-.828-2.239c-1.857-3.924-5.092-5.911-6.4-7.443a2.009,2.009,0,0,1-.572-1.1C61.4-89.4,82.139-97.532,92.091-108.48S103.211-137.789,134.233-144.538Zm81.877,12.455a12.6,12.6,0,0,0-5.743-5.985,4.064,4.064,0,0,0-1.811-.559c-1.657.116-10.617,14.219-25.548,13.06s-15.444-13.2-30.859-16.845a1.463,1.463,0,0,1,.075.2,18.474,18.474,0,0,1,.214,4.622c-.526,17.491-8.4,74.984-4.729,87.491a7.508,7.508,0,0,0,.293.847c1.992,2.652,10.868-6.638,11.324-11.948s-6.679-27.821-4.687-34.4,9.459-8.238,6.14-21.177c13.605,12.94,41.476,12.376,55.91-12.228A7.5,7.5,0,0,0,216.11-132.083Z" transform="translate(-61.566 144.538)" fill="none"/></clipPath><linearGradient id="dc" x1="0.742" y1="2.89" x2="0.428" y2="-0.378" xlink:href="#bz"/><linearGradient id="dd" x1="-3.695" y1="0.563" x2="2.7" y2="0.477" xlink:href="#bz"/><linearGradient id="de" x1="-1.371" y1="-3.663" x2="3.418" y2="7.027" xlink:href="#bz"/><linearGradient id="df" x1="0.342" y1="-0.355" x2="0.665" y2="1.908" xlink:href="#bz"/><linearGradient id="dg" x1="0.551" y1="-0.693" x2="0.458" y2="2.068" xlink:href="#bz"/></defs><g transform="translate(-18.062 337.6)"><g transform="translate(18.062 -337.6)"><g transform="translate(33.09 3.632)"><path d="M388.718-187.179a121.727,121.727,0,0,1-12.409,23.472,93.923,93.923,0,0,1-22.942,23.98,41.144,41.144,0,0,1-12.176,6.191c-4.314,1.345-9.155,2.183-16.444,3.942-1.09.265-2.239.55-3.444.861-6.47,1.662-14.7,4.059-25.674,7.922a321.478,321.478,0,0,0-33.783,13.9q-2.471,1.2-4.738,2.36C234.314-92.893,226.168-84.375,207.551-80.9a98.1,98.1,0,0,1-27.787.875,133.045,133.045,0,0,1-37.134-9.518,133.848,133.848,0,0,1-42.43-27.779,111.949,111.949,0,0,1-28.835-46.642,117.447,117.447,0,0,1-4.7-45.331q.287-3.267.735-6.5a133.7,133.7,0,0,1,8.727-32.27c11.4-27.806,31.334-49.725,52.991-57.078,31.641-10.748,49.529,15.509,97.331,4.277,37.115-8.723,39.921-27.75,69.878-29.593,33.173-2.039,69.375,18.86,87.7,49.914q1,1.69,1.9,3.393A95.193,95.193,0,0,1,396.1-246.561C399.241-226.174,395.975-205.429,388.718-187.179Z" transform="translate(-66.189 330.6)" fill="#185d7a"/><path d="M388.718-167.549a121.727,121.727,0,0,1-12.409,23.472,93.923,93.923,0,0,1-22.942,23.98,41.144,41.144,0,0,1-12.176,6.191c-4.314,1.345-9.155,2.183-16.444,3.942-1.09.265-2.239.55-3.444.861-6.47,1.662-14.7,4.059-25.674,7.922a321.48,321.48,0,0,0-33.783,13.9q-2.471,1.2-4.738,2.36c-22.793,11.655-30.938,20.173-49.556,23.645a98.1,98.1,0,0,1-27.787.875,133.044,133.044,0,0,1-37.134-9.518A133.847,133.847,0,0,1,100.2-97.695a111.949,111.949,0,0,1-28.835-46.642,117.447,117.447,0,0,1-4.7-45.331c11.069-10.375,33.661-26.912,64.6-26.093,44.921,1.188,59.354,55.855,59.354,55.855s-.731-33.513,33.535-41.355,46.392,41.355,46.392,41.355,6.981-49.915,41.639-59.182,41.783,55.854,41.783,55.854,3.654-53.27,42.133-63.7C399.241-206.545,395.975-185.8,388.718-167.549Z" transform="translate(-66.189 310.971)" fill="url(#a)" style="mix-blend-mode:overlay;isolation:isolate"/></g><g transform="translate(90.625)"><g transform="translate(0 19.66)" opacity="0.25" style="mix-blend-mode:overlay;isolation:isolate"><circle cx="1.664" cy="1.664" r="1.664" fill="#fff"/><circle cx="1.664" cy="1.664" r="1.664" transform="translate(13.929)" fill="#fff"/><circle cx="1.664" cy="1.664" r="1.664" transform="translate(27.857)" fill="#fff"/><circle cx="1.664" cy="1.664" r="1.664" transform="translate(41.786)" fill="#fff"/><circle cx="1.664" cy="1.664" r="1.664" transform="translate(55.714 0)" fill="#fff"/><g transform="translate(0 8.998)"><circle cx="1.664" cy="1.664" r="1.664" fill="#fff"/><circle cx="1.664" cy="1.664" r="1.664" transform="translate(13.929)" fill="#fff"/><circle cx="1.664" cy="1.664" r="1.664" transform="translate(27.857)" fill="#fff"/><circle cx="1.664" cy="1.664" r="1.664" transform="translate(41.786)" fill="#fff"/><circle cx="1.664" cy="1.664" r="1.664" transform="translate(55.714)" fill="#fff"/></g><g transform="translate(0 17.996)"><circle cx="1.664" cy="1.664" r="1.664" fill="#fff"/><circle cx="1.664" cy="1.664" r="1.664" transform="translate(13.929)" fill="#fff"/><circle cx="1.664" cy="1.664" r="1.664" transform="translate(27.857)" fill="#fff"/><circle cx="1.664" cy="1.664" r="1.664" transform="translate(41.786)" fill="#fff"/><circle cx="1.664" cy="1.664" r="1.664" transform="translate(55.714)" fill="#fff"/></g><g transform="translate(0 26.994)"><circle cx="1.664" cy="1.664" r="1.664" transform="translate(0 0)" fill="#fff"/><circle cx="1.664" cy="1.664" r="1.664" transform="translate(13.929)" fill="#fff"/><circle cx="1.664" cy="1.664" r="1.664" transform="translate(27.857 0)" fill="#fff"/><circle cx="1.664" cy="1.664" r="1.664" transform="translate(41.786 0)" fill="#fff"/><circle cx="1.664" cy="1.664" r="1.664" transform="translate(55.714 0)" fill="#fff"/></g><g transform="translate(0 35.992)"><circle cx="1.664" cy="1.664" r="1.664" fill="#fff"/><circle cx="1.664" cy="1.664" r="1.664" transform="translate(13.929)" fill="#fff"/><circle cx="1.664" cy="1.664" r="1.664" transform="translate(27.857)" fill="#fff"/><circle cx="1.664" cy="1.664" r="1.664" transform="translate(41.786)" fill="#fff"/><circle cx="1.664" cy="1.664" r="1.664" transform="translate(55.714)" fill="#fff"/></g><g transform="translate(0 44.99)"><circle cx="1.664" cy="1.664" r="1.664" transform="translate(0 0)" fill="#fff"/><circle cx="1.664" cy="1.664" r="1.664" transform="translate(13.929)" fill="#fff"/><circle cx="1.664" cy="1.664" r="1.664" transform="translate(27.857 0)" fill="#fff"/><circle cx="1.664" cy="1.664" r="1.664" transform="translate(41.786 0)" fill="#fff"/><circle cx="1.664" cy="1.664" r="1.664" transform="translate(55.714 0)" fill="#fff"/></g><g transform="translate(0 53.989)"><circle cx="1.664" cy="1.664" r="1.664" fill="#fff"/><circle cx="1.664" cy="1.664" r="1.664" transform="translate(13.929)" fill="#fff"/><circle cx="1.664" cy="1.664" r="1.664" transform="translate(27.857)" fill="#fff"/><circle cx="1.664" cy="1.664" r="1.664" transform="translate(41.786)" fill="#fff"/><circle cx="1.664" cy="1.664" r="1.664" transform="translate(55.714)" fill="#fff"/></g></g><g transform="translate(185.125)" opacity="0.25" style="mix-blend-mode:overlay;isolation:isolate"><g transform="translate(0)"><circle cx="1.664" cy="1.664" r="1.664" fill="#fff"/><circle cx="1.664" cy="1.664" r="1.664" transform="translate(13.929)" fill="#fff"/><circle cx="1.664" cy="1.664" r="1.664" transform="translate(27.857)" fill="#fff"/><circle cx="1.664" cy="1.664" r="1.664" transform="translate(41.786)" fill="#fff"/><circle cx="1.664" cy="1.664" r="1.664" transform="translate(55.714)" fill="#fff"/></g><g transform="translate(0 8.998)"><circle cx="1.664" cy="1.664" r="1.664" fill="#fff"/><circle cx="1.664" cy="1.664" r="1.664" transform="translate(13.929)" fill="#fff"/><circle cx="1.664" cy="1.664" r="1.664" transform="translate(27.857)" fill="#fff"/><circle cx="1.664" cy="1.664" r="1.664" transform="translate(41.786)" fill="#fff"/><circle cx="1.664" cy="1.664" r="1.664" transform="translate(55.714)" fill="#fff"/></g><g transform="translate(0 17.996)"><circle cx="1.664" cy="1.664" r="1.664" fill="#fff"/><circle cx="1.664" cy="1.664" r="1.664" transform="translate(13.929)" fill="#fff"/><circle cx="1.664" cy="1.664" r="1.664" transform="translate(27.857)" fill="#fff"/><circle cx="1.664" cy="1.664" r="1.664" transform="translate(41.786)" fill="#fff"/><circle cx="1.664" cy="1.664" r="1.664" transform="translate(55.714)" fill="#fff"/></g><g transform="translate(0 26.994)"><path d="M368.858-300.117a1.664,1.664,0,0,1-1.664,1.663,1.664,1.664,0,0,1-1.664-1.663,1.664,1.664,0,0,1,1.664-1.664A1.664,1.664,0,0,1,368.858-300.117Z" transform="translate(-365.529 301.781)" fill="#fff"/><path d="M386.039-300.117a1.664,1.664,0,0,1-1.664,1.663,1.664,1.664,0,0,1-1.664-1.663,1.664,1.664,0,0,1,1.664-1.664A1.664,1.664,0,0,1,386.039-300.117Z" transform="translate(-368.782 301.781)" fill="#fff"/><path d="M403.222-300.117a1.664,1.664,0,0,1-1.664,1.663,1.664,1.664,0,0,1-1.664-1.663,1.664,1.664,0,0,1,1.664-1.664A1.664,1.664,0,0,1,403.222-300.117Z" transform="translate(-372.036 301.781)" fill="#fff"/><path d="M420.4-300.117a1.664,1.664,0,0,1-1.664,1.663,1.664,1.664,0,0,1-1.664-1.663,1.664,1.664,0,0,1,1.664-1.664A1.665,1.665,0,0,1,420.4-300.117Z" transform="translate(-375.289 301.781)" fill="#fff"/><path d="M437.585-300.117a1.664,1.664,0,0,1-1.663,1.663,1.664,1.664,0,0,1-1.664-1.663,1.664,1.664,0,0,1,1.664-1.664A1.664,1.664,0,0,1,437.585-300.117Z" transform="translate(-378.543 301.781)" fill="#fff"/></g><g transform="translate(0 35.992)"><circle cx="1.664" cy="1.664" r="1.664" fill="#fff"/><circle cx="1.664" cy="1.664" r="1.664" transform="translate(13.929)" fill="#fff"/><circle cx="1.664" cy="1.664" r="1.664" transform="translate(27.857)" fill="#fff"/><circle cx="1.664" cy="1.664" r="1.664" transform="translate(41.786)" fill="#fff"/><circle cx="1.664" cy="1.664" r="1.664" transform="translate(55.714)" fill="#fff"/></g><g transform="translate(0 44.99)"><circle cx="1.664" cy="1.664" r="1.664" fill="#fff"/><circle cx="1.664" cy="1.664" r="1.664" transform="translate(13.929)" fill="#fff"/><circle cx="1.664" cy="1.664" r="1.664" transform="translate(27.857)" fill="#fff"/><circle cx="1.664" cy="1.664" r="1.664" transform="translate(41.786)" fill="#fff"/><circle cx="1.664" cy="1.664" r="1.664" transform="translate(55.714)" fill="#fff"/></g><g transform="translate(0 53.988)"><circle cx="1.664" cy="1.664" r="1.664" fill="#fff"/><circle cx="1.664" cy="1.664" r="1.664" transform="translate(13.929)" fill="#fff"/><circle cx="1.664" cy="1.664" r="1.664" transform="translate(27.857)" fill="#fff"/><circle cx="1.664" cy="1.664" r="1.664" transform="translate(41.786)" fill="#fff"/><circle cx="1.664" cy="1.664" r="1.664" transform="translate(55.714)" fill="#fff"/></g></g><g transform="translate(114.702 196.635)" opacity="0.25" style="mix-blend-mode:overlay;isolation:isolate"><g transform="translate(0 0)"><circle cx="1.664" cy="1.664" r="1.664" transform="translate(0 0)" fill="#fff"/><circle cx="1.664" cy="1.664" r="1.664" transform="translate(13.929 0)" fill="#fff"/><circle cx="1.664" cy="1.664" r="1.664" transform="translate(27.857 0)" fill="#fff"/><path d="M333.531-90.852a1.664,1.664,0,0,1-1.664,1.663,1.664,1.664,0,0,1-1.664-1.663,1.664,1.664,0,0,1,1.664-1.664A1.664,1.664,0,0,1,333.531-90.852Z" transform="translate(-288.417 92.516)" fill="#fff"/><circle cx="1.664" cy="1.664" r="1.664" transform="translate(55.714 0)" fill="#fff"/></g><g transform="translate(0 8.998)"><circle cx="1.664" cy="1.664" r="1.664" fill="#fff"/><circle cx="1.664" cy="1.664" r="1.664" transform="translate(13.929)" fill="#fff"/><circle cx="1.664" cy="1.664" r="1.664" transform="translate(27.857)" fill="#fff"/><path d="M333.531-79.752a1.664,1.664,0,0,1-1.664,1.663,1.664,1.664,0,0,1-1.664-1.663,1.664,1.664,0,0,1,1.664-1.664A1.664,1.664,0,0,1,333.531-79.752Z" transform="translate(-288.417 81.416)" fill="#fff"/><circle cx="1.664" cy="1.664" r="1.664" transform="translate(55.714)" fill="#fff"/></g><g transform="translate(0 17.996)"><circle cx="1.664" cy="1.664" r="1.664" fill="#fff"/><circle cx="1.664" cy="1.664" r="1.664" transform="translate(13.929)" fill="#fff"/><circle cx="1.664" cy="1.664" r="1.664" transform="translate(27.857)" fill="#fff"/><path d="M333.531-68.653a1.664,1.664,0,0,1-1.664,1.664,1.664,1.664,0,0,1-1.664-1.664,1.664,1.664,0,0,1,1.664-1.663A1.664,1.664,0,0,1,333.531-68.653Z" transform="translate(-288.417 70.316)" fill="#fff"/><circle cx="1.664" cy="1.664" r="1.664" transform="translate(55.714)" fill="#fff"/></g><g transform="translate(0 26.994)"><circle cx="1.664" cy="1.664" r="1.664" fill="#fff"/><circle cx="1.664" cy="1.664" r="1.664" transform="translate(13.929)" fill="#fff"/><circle cx="1.664" cy="1.664" r="1.664" transform="translate(27.857)" fill="#fff"/><path d="M333.531-57.553a1.664,1.664,0,0,1-1.664,1.664,1.664,1.664,0,0,1-1.664-1.664,1.664,1.664,0,0,1,1.664-1.663A1.664,1.664,0,0,1,333.531-57.553Z" transform="translate(-288.417 59.216)" fill="#fff"/><circle cx="1.664" cy="1.664" r="1.664" transform="translate(55.714)" fill="#fff"/></g><g transform="translate(0 35.992)"><circle cx="1.664" cy="1.664" r="1.664" transform="translate(0 0)" fill="#fff"/><circle cx="1.664" cy="1.664" r="1.664" transform="translate(13.929 0)" fill="#fff"/><circle cx="1.664" cy="1.664" r="1.664" transform="translate(27.857 0)" fill="#fff"/><path d="M333.531-46.453a1.664,1.664,0,0,1-1.664,1.664,1.664,1.664,0,0,1-1.664-1.664,1.664,1.664,0,0,1,1.664-1.664A1.664,1.664,0,0,1,333.531-46.453Z" transform="translate(-288.417 48.117)" fill="#fff"/><circle cx="1.664" cy="1.664" r="1.664" transform="translate(55.714 0)" fill="#fff"/></g><g transform="translate(0 44.99)"><circle cx="1.664" cy="1.664" r="1.664" transform="translate(0 0)" fill="#fff"/><circle cx="1.664" cy="1.664" r="1.664" transform="translate(13.929 0)" fill="#fff"/><circle cx="1.664" cy="1.664" r="1.664" transform="translate(27.857 0)" fill="#fff"/><path d="M333.531-35.353a1.664,1.664,0,0,1-1.664,1.664,1.664,1.664,0,0,1-1.664-1.664,1.664,1.664,0,0,1,1.664-1.664A1.664,1.664,0,0,1,333.531-35.353Z" transform="translate(-288.417 37.017)" fill="#fff"/><circle cx="1.664" cy="1.664" r="1.664" transform="translate(55.714 0)" fill="#fff"/></g><g transform="translate(0 53.988)"><circle cx="1.664" cy="1.664" r="1.664" transform="translate(0 0)" fill="#fff"/><circle cx="1.664" cy="1.664" r="1.664" transform="translate(13.929 0)" fill="#fff"/><circle cx="1.664" cy="1.664" r="1.664" transform="translate(27.857 0)" fill="#fff"/><path d="M333.531-24.253a1.664,1.664,0,0,1-1.664,1.663,1.664,1.664,0,0,1-1.664-1.663,1.664,1.664,0,0,1,1.664-1.664A1.664,1.664,0,0,1,333.531-24.253Z" transform="translate(-288.417 25.917)" fill="#fff"/><circle cx="1.664" cy="1.664" r="1.664" transform="translate(55.714 0)" fill="#fff"/></g></g></g><g transform="translate(33.62 56.132)"><g transform="translate(0 27.421)"><g clip-path="url(#b)"><g transform="translate(-2.638 9.911)"><g transform="translate(9.591 34.809)"><path d="M109.518-135.01c-3.6,2.725-4.9-5.422-4.9-5.422S114.048-138.443,109.518-135.01Z" transform="translate(-80.949 169.951)" fill="url(#c)"/><path d="M124.521-157.671c-.73-5.636,7.3-.309,7.3-.309S125.1-153.2,124.521-157.671Z" transform="translate(-84.708 173.705)" fill="url(#d)"/><path d="M75.42-113.5A109.433,109.433,0,0,0,89.876-125.17c-.142.073-.3.143-.466.212-4.185,1.69-3.312-6.514-3.312-6.514s5.771,2.95,4.94,5.186q1.556-1.515,3.153-3.185c.929-.976,1.883-2.017,2.848-3.113-.041.028-.083.057-.127.085-3.795,2.443-4.472-5.779-4.472-5.779s6.488,1.9,5.788,4.321a91.533,91.533,0,0,0,11.688-17.229c-2.674,2.878-5.954-4.163-5.954-4.163s7.01-.486,6.929,2.2a69.587,69.587,0,0,0,3.056-7.431c-2.661,2.695-5.888-4.228-5.888-4.228s5.7-.395,6.761,1.494a60.272,60.272,0,0,0,1.528-6.471c-3.1-.4-1.1-7.058-1.1-7.058s7.627,5.891,2.057,7.013c-.1.019-.187.029-.278.041a65.054,65.054,0,0,1-5.124,16.054c1.909-.99,6.538,2.078,6.538,2.078s-6.721,4.784-7.3.309a5.03,5.03,0,0,1-.041-.705,82.843,82.843,0,0,1-4.825,8.451c2.105-.447,5.732,3.789,5.732,3.789s-7.774,2.763-7.106-1.7c0-.014,0-.027.006-.041-1.887,2.741-3.849,5.275-5.79,7.582,2.121-.623,5.628,4.173,5.628,4.173s-7.962,2.16-6.956-2.239a5.6,5.6,0,0,1,.164-.573c-1.112,1.278-2.211,2.481-3.277,3.6q-1.52,1.6-3.013,3.049c2.24-.565,4.939,5.118,4.939,5.118s-8.226.634-6.415-3.5c.058-.133.118-.255.179-.37A109.97,109.97,0,0,1,75.776-112.94Z" transform="translate(-75.42 176.846)" fill="url(#e)"/></g><g transform="translate(0 21.239)"><path d="M71.319-142.76c4.206-8.118,2.3-25.325,9.872-39.344,5.714-10.584-5.5-16.408-13.723-6.055s-.378,31.793-3.128,39.953S67.913-136.184,71.319-142.76Z" transform="translate(-63.589 193.585)" fill="url(#f)"/><path d="M80.02-192.758a18.833,18.833,0,0,0-8.655,10.084c-2.65,7.245-.575,34.91-6.038,42.414" transform="translate(-63.918 193.429)" fill="none" stroke="#fff" stroke-miterlimit="10" stroke-width="0.574" opacity="0.25" style="mix-blend-mode:overlay;isolation:isolate"/><path d="M67.845-186.184l3.323,7.554S80.775-182,82.43-181.567" transform="translate(-64.395 192.184)" fill="none" stroke="#fff" stroke-miterlimit="10" stroke-width="0.574" opacity="0.25" style="mix-blend-mode:overlay;isolation:isolate"/><path d="M63.686-172.151s4.262,4.924,5.793,6.814c0,0,5.422-2.419,7.551-1.649" transform="translate(-63.607 189.527)" fill="none" stroke="#fff" stroke-miterlimit="10" stroke-width="0.574" opacity="0.25" style="mix-blend-mode:overlay;isolation:isolate"/><path d="M64.2-157.932a34.53,34.53,0,0,1,4.892,4.6s3.575-2.738,6.214-1.487" transform="translate(-63.704 186.834)" fill="none" stroke="#fff" stroke-miterlimit="10" stroke-width="0.574" opacity="0.25" style="mix-blend-mode:overlay;isolation:isolate"/><path d="M65.164-147.107s2.784,1.93,3.419,3.794c0,0,4.011-3.477,5.944-2.481" transform="translate(-63.887 184.785)" fill="none" stroke="#fff" stroke-miterlimit="10" stroke-width="0.574" opacity="0.25" style="mix-blend-mode:overlay;isolation:isolate"/></g><g transform="translate(5.64)"><path d="M88.716-141.766a121.751,121.751,0,0,1-18.095,19.43c-.58-16.543,2.353-19.623,3.376-27.345,1.053-7.96,2-4.094,5.684-4.415s-1.3-3.735-.906-8.83,4.741-12.1,5.02-18.6,3.407-5.339,4.182-4.546,2.715.568,2.693-2.388-3.84-2.188-3.536-5.138,7.141-17.444,5.777-26.182c7.674,1.578,7.559,22.066,7.768,31.639s-7.829,9.54-7.874,12.155,5.7-1.06,6.261-.1-5.093,21.916-9.177,26.724-7.424,4.395-7.238,6.745,5.455-1.956,5.458-.148A1.625,1.625,0,0,0,88.716-141.766Z" transform="translate(-70.546 219.785)" fill="url(#g)"/><path d="M94.483-219.785s5.686,2.684,3.161,21.862S88.6-167.539,87-158.454s-9.1,25.126-8.05,29.836" transform="translate(-72.118 219.785)" fill="none" stroke="#fff" stroke-miterlimit="10" stroke-width="0.574" opacity="0.25" style="mix-blend-mode:overlay;isolation:isolate"/></g></g></g></g><g transform="translate(233.641)"><g clip-path="url(#h)"><g transform="translate(33.084 14.495)"><g transform="translate(16.053 40.69)"><path d="M426.658-153.6c2.116,3.987,6.728-2.854,6.728-2.854S423.995-158.618,426.658-153.6Z" transform="translate(-417.662 190.028)" fill="url(#i)"/><path d="M422.493-180.648C425.529-185.452,416-184,416-184S420.083-176.833,422.493-180.648Z" transform="translate(-415.734 195.196)" fill="url(#j)"/><path d="M438.621-123.536a109.319,109.319,0,0,1-8.2-16.673c.1.126.207.255.332.388,3.085,3.3,5.748-4.514,5.748-4.514s-6.477.246-6.664,2.623c-.516-1.352-1.026-2.758-1.519-4.216-.431-1.276-.858-2.622-1.273-4.023.027.044.051.087.079.131,2.414,3.813,6.49-3.359,6.49-3.359s-6.685-1.011-7.069,1.482a91.5,91.5,0,0,1-3.348-20.548c1.214,3.736,7.153-1.269,7.153-1.269s-6.153-3.392-7.211-.923a69.717,69.717,0,0,1,.357-8.027c1.28,3.564,7.121-1.356,7.121-1.356s-5-2.757-6.761-1.492a60.374,60.374,0,0,1,1.338-6.513c2.978.937,3.974-5.937,3.974-5.937s-9.4,2.131-4.819,5.495c.08.058.157.105.235.154a65.065,65.065,0,0,0-2.112,16.719c-1.315-1.7-6.8-.868-6.8-.868s4.082,7.17,6.492,3.354a5.071,5.071,0,0,0,.334-.623,82.758,82.758,0,0,0,.817,9.7c-1.721-1.292-6.794,1.023-6.794,1.023s5.888,5.779,7.162,1.449l.011-.041c.558,3.281,1.27,6.4,2.059,9.315-1.661-1.458-6.862,1.415-6.862,1.415s6.313,5.312,7.252.9a5.187,5.187,0,0,0,.092-.589c.471,1.628.961,3.182,1.457,4.647.471,1.392.957,2.737,1.449,4.034-1.793-1.456-6.635,2.562-6.635,2.562s7.194,4.039,7.292-.473c0-.146,0-.281-.006-.412a109.952,109.952,0,0,0,8.27,16.825Z" transform="translate(-415.672 197.762)" fill="url(#k)"/></g><g transform="translate(0 82.74)"><path d="M433.312-106.6c-3.461-8.462-17.8-18.158-23.579-33.006-4.362-11.209-16.062-6.441-13.5,6.532s23.977,20.882,28.412,28.263S436.116-99.745,433.312-106.6Z" transform="translate(-395.869 145.89)" fill="url(#l)"/><path d="M401.521-145.365A18.83,18.83,0,0,0,403.6-132.24c3.8,6.712,26.224,23.05,28.4,32.073" transform="translate(-396.865 145.791)" fill="none" stroke="#fff" stroke-miterlimit="10" stroke-width="0.574" opacity="0.25" style="mix-blend-mode:overlay;isolation:isolate"/><path d="M396.511-131.114l7.908,2.361s3.651-9.5,5.057-10.483" transform="translate(-395.991 144.63)" fill="none" stroke="#fff" stroke-miterlimit="10" stroke-width="0.574" opacity="0.25" style="mix-blend-mode:overlay;isolation:isolate"/><path d="M404.508-118.552s6.512-.058,8.943,0c0,0,1.67-5.7,3.635-6.821" transform="translate(-397.505 142.006)" fill="none" stroke="#fff" stroke-miterlimit="10" stroke-width="0.574" opacity="0.25" style="mix-blend-mode:overlay;isolation:isolate"/><path d="M415.672-109.643a34.546,34.546,0,0,1,6.672-.749s.23-4.5,2.892-5.7" transform="translate(-399.619 140.248)" fill="none" stroke="#fff" stroke-miterlimit="10" stroke-width="0.574" opacity="0.25" style="mix-blend-mode:overlay;isolation:isolate"/><path d="M424.546-103.329s3.273-.871,5.1-.148c0,0-.05-5.307,1.96-6.135" transform="translate(-401.299 139.021)" fill="none" stroke="#fff" stroke-miterlimit="10" stroke-width="0.574" opacity="0.25" style="mix-blend-mode:overlay;isolation:isolate"/></g><g transform="translate(38.711)"><path d="M460.185-171.53a121.727,121.727,0,0,1-12.409,23.472c-4.869-15.821-2.84-19.558-3.864-27.28-1.056-7.959.862-4.473,4.339-5.743s-2.225-3.268-3.175-8.29,1.424-12.921,0-19.27,1.9-6.041,2.853-5.478,2.77-.158,1.979-3.007-4.278-1.112-4.753-4.04,2.351-18.7-1.243-26.781c7.82-.475,13.047,19.335,15.742,28.523s-5.074,11.249-4.436,13.787,5.227-2.509,6.018-1.732.791,22.486-1.9,28.192-6.023,6.176-5.231,8.4,4.757-3.309,5.231-1.564C459.426-172.019,459.752-171.787,460.185-171.53Z" transform="translate(-443.622 247.956)" fill="url(#m)"/><path d="M443.98-247.946s6.189,1.111,8.747,20.283-.815,31.69,0,40.88-2.241,26.629,0,30.9" transform="translate(-443.69 247.954)" fill="none" stroke="#fff" stroke-miterlimit="10" stroke-width="0.574" opacity="0.25" style="mix-blend-mode:overlay;isolation:isolate"/></g></g></g></g></g><g transform="translate(166.016 19.66)"><g clip-path="url(#n)"><g transform="translate(20.546 18.206)"><path d="M278.833-217.132c-3.491-1.336-7.954-.554-10.221.354-1.54-3.4-5.185-5.46-8.346-6.493-3.374-1.1-4.757-2.7-4.757-4.808s5.753,1.326,9.459,1.992c1.717.307,4.506,0,7.163.731A8.188,8.188,0,0,1,276.943-222h0A12.885,12.885,0,0,1,278.833-217.132Z" transform="translate(-255.509 277.082)" fill="url(#o)"/><path d="M354.473-78.929c-6.959,2.537-15.151,3.971-22.551,2.309.173-4.152.126-8.913-.056-13.959-.726-19.968-3.654-44.423-4.292-53.415a50.39,50.39,0,0,1,.675-14.369,13.6,13.6,0,0,1,1.5-4.282c.428-.131.865-.27,1.3-.428a63.485,63.485,0,0,0,12.456-5.962,12,12,0,0,1,1.424,1.917,25.287,25.287,0,0,1,2.192,4.473,36.289,36.289,0,0,1,1.83,6.745,47.4,47.4,0,0,1,.623,5.157C350.385-138.846,355.906-97.532,354.473-78.929Z" transform="translate(-269.118 265.774)" fill="url(#p)"/><g transform="translate(58.262 96.739)"><g clip-path="url(#q)"><g transform="translate(9.553 19.629)" opacity="0.25" style="mix-blend-mode:overlay;isolation:isolate"><path d="M341.085-143.86a.961.961,0,0,1-.961.961.961.961,0,0,1-.961-.961.96.96,0,0,1,.961-.961A.961.961,0,0,1,341.085-143.86Z" transform="translate(-339.164 144.821)" fill="url(#r)"/><circle cx="0.961" cy="0.961" r="0.961" transform="translate(6.003)" fill="url(#s)"/><circle cx="0.961" cy="0.961" r="0.961" transform="translate(12.007)" fill="url(#s)"/><circle cx="0.961" cy="0.961" r="0.961" transform="translate(18.01)" fill="url(#s)"/><circle cx="0.961" cy="0.961" r="0.961" transform="translate(24.013)" fill="url(#s)"/><g transform="translate(0 5.003)"><path d="M341.085-137.689a.961.961,0,0,1-.961.961.96.96,0,0,1-.961-.961.961.961,0,0,1,.961-.961A.961.961,0,0,1,341.085-137.689Z" transform="translate(-339.164 138.65)" fill="url(#w)"/><circle cx="0.961" cy="0.961" r="0.961" transform="translate(6.003 0)" fill="url(#s)"/><circle cx="0.961" cy="0.961" r="0.961" transform="translate(12.007 0)" fill="url(#s)"/><circle cx="0.961" cy="0.961" r="0.961" transform="translate(18.01 0)" fill="url(#s)"/><circle cx="0.961" cy="0.961" r="0.961" transform="translate(24.013 0)" fill="url(#s)"/></g><g transform="translate(0 10.006)"><path d="M341.085-131.517a.96.96,0,0,1-.961.96.96.96,0,0,1-.961-.96.96.96,0,0,1,.961-.961A.961.961,0,0,1,341.085-131.517Z" transform="translate(-339.164 132.478)" fill="url(#ab)"/><circle cx="0.961" cy="0.961" r="0.961" transform="translate(6.003)" fill="url(#s)"/><circle cx="0.961" cy="0.961" r="0.961" transform="translate(12.007)" fill="url(#s)"/><circle cx="0.961" cy="0.961" r="0.961" transform="translate(18.01)" fill="url(#s)"/><circle cx="0.961" cy="0.961" r="0.961" transform="translate(24.013)" fill="url(#s)"/></g><g transform="translate(0 15.008)"><path d="M341.085-125.346a.961.961,0,0,1-.961.961.961.961,0,0,1-.961-.961.96.96,0,0,1,.961-.961A.961.961,0,0,1,341.085-125.346Z" transform="translate(-339.164 126.307)" fill="url(#r)"/><circle cx="0.961" cy="0.961" r="0.961" transform="translate(6.003)" fill="url(#s)"/><circle cx="0.961" cy="0.961" r="0.961" transform="translate(12.007)" fill="url(#s)"/><circle cx="0.961" cy="0.961" r="0.961" transform="translate(18.01)" fill="url(#s)"/><circle cx="0.961" cy="0.961" r="0.961" transform="translate(24.013)" fill="url(#s)"/></g><g transform="translate(0 20.011)"><path d="M341.085-119.175a.961.961,0,0,1-.961.961.96.96,0,0,1-.961-.961.961.961,0,0,1,.961-.961A.961.961,0,0,1,341.085-119.175Z" transform="translate(-339.164 120.136)" fill="url(#w)"/><circle cx="0.961" cy="0.961" r="0.961" transform="translate(6.003 0)" fill="url(#s)"/><circle cx="0.961" cy="0.961" r="0.961" transform="translate(12.007 0)" fill="url(#s)"/><circle cx="0.961" cy="0.961" r="0.961" transform="translate(18.01 0)" fill="url(#s)"/><circle cx="0.961" cy="0.961" r="0.961" transform="translate(24.013 0)" fill="url(#s)"/></g><g transform="translate(0 25.014)"><path d="M341.085-113a.961.961,0,0,1-.961.961.961.961,0,0,1-.961-.961.96.96,0,0,1,.961-.961A.961.961,0,0,1,341.085-113Z" transform="translate(-339.164 113.964)" fill="url(#aq)"/><path d="M348.49-113a.961.961,0,0,1-.961.961.961.961,0,0,1-.961-.961.961.961,0,0,1,.961-.961A.96.96,0,0,1,348.49-113Z" transform="translate(-340.566 113.964)" fill="url(#ar)"/><path d="M355.9-113a.961.961,0,0,1-.961.961.961.961,0,0,1-.961-.961.961.961,0,0,1,.961-.961A.961.961,0,0,1,355.9-113Z" transform="translate(-341.968 113.964)" fill="url(#as)"/><path d="M363.3-113a.96.96,0,0,1-.96.961.961.961,0,0,1-.961-.961.96.96,0,0,1,.961-.961A.96.96,0,0,1,363.3-113Z" transform="translate(-343.371 113.964)" fill="url(#at)"/><path d="M370.707-113a.961.961,0,0,1-.961.961.961.961,0,0,1-.961-.961.961.961,0,0,1,.961-.961A.96.96,0,0,1,370.707-113Z" transform="translate(-344.773 113.964)" fill="url(#ar)"/></g></g><g transform="translate(-8.695 55.549)" opacity="0.25" style="mix-blend-mode:overlay;isolation:isolate"><circle cx="0.961" cy="0.961" r="0.961" fill="url(#s)"/><circle cx="0.961" cy="0.961" r="0.961" transform="translate(6.003)" fill="url(#s)"/><circle cx="0.961" cy="0.961" r="0.961" transform="translate(12.007 0)" fill="url(#s)"/><circle cx="0.961" cy="0.961" r="0.961" transform="translate(18.01)" fill="url(#s)"/><circle cx="0.961" cy="0.961" r="0.961" transform="translate(24.014)" fill="url(#s)"/><g transform="translate(0 5.003)"><circle cx="0.961" cy="0.961" r="0.961" fill="url(#s)"/><circle cx="0.961" cy="0.961" r="0.961" transform="translate(6.003)" fill="url(#s)"/><circle cx="0.961" cy="0.961" r="0.961" transform="translate(12.007 0)" fill="url(#s)"/><circle cx="0.961" cy="0.961" r="0.961" transform="translate(18.01)" fill="url(#s)"/><circle cx="0.961" cy="0.961" r="0.961" transform="translate(24.014)" fill="url(#s)"/></g><g transform="translate(0 10.006)"><circle cx="0.961" cy="0.961" r="0.961" fill="url(#s)"/><circle cx="0.961" cy="0.961" r="0.961" transform="translate(6.003)" fill="url(#s)"/><circle cx="0.961" cy="0.961" r="0.961" transform="translate(12.007)" fill="url(#s)"/><circle cx="0.961" cy="0.961" r="0.961" transform="translate(18.01)" fill="url(#s)"/><circle cx="0.961" cy="0.961" r="0.961" transform="translate(24.014)" fill="url(#s)"/></g><g transform="translate(0 15.008)"><circle cx="0.961" cy="0.961" r="0.961" fill="url(#s)"/><circle cx="0.961" cy="0.961" r="0.961" transform="translate(6.003)" fill="url(#s)"/><circle cx="0.961" cy="0.961" r="0.961" transform="translate(12.007)" fill="url(#s)"/><circle cx="0.961" cy="0.961" r="0.961" transform="translate(18.01)" fill="url(#s)"/><circle cx="0.961" cy="0.961" r="0.961" transform="translate(24.014)" fill="url(#s)"/></g><g transform="translate(0 20.011)"><circle cx="0.961" cy="0.961" r="0.961" fill="url(#s)"/><circle cx="0.961" cy="0.961" r="0.961" transform="translate(6.003)" fill="url(#s)"/><circle cx="0.961" cy="0.961" r="0.961" transform="translate(12.007 0)" fill="url(#s)"/><circle cx="0.961" cy="0.961" r="0.961" transform="translate(18.01)" fill="url(#s)"/><circle cx="0.961" cy="0.961" r="0.961" transform="translate(24.014)" fill="url(#s)"/></g><g transform="translate(0 25.014)"><circle cx="0.961" cy="0.961" r="0.961" fill="url(#s)"/><circle cx="0.961" cy="0.961" r="0.961" transform="translate(6.003)" fill="url(#s)"/><circle cx="0.961" cy="0.961" r="0.961" transform="translate(12.007)" fill="url(#s)"/><circle cx="0.961" cy="0.961" r="0.961" transform="translate(18.01)" fill="url(#s)"/><circle cx="0.961" cy="0.961" r="0.961" transform="translate(24.014)" fill="url(#s)"/></g></g></g></g><path d="M337.98-154.029c-5.255-.075-8.047-2.127-9.528-4.334a13.6,13.6,0,0,1,1.5-4.282c.428-.131.865-.27,1.3-.428a63.485,63.485,0,0,0,12.456-5.962,12,12,0,0,1,1.424,1.917C345.339-160.755,344.124-153.946,337.98-154.029Z" transform="translate(-269.321 265.774)" opacity="0.45" fill="url(#bz)" style="mix-blend-mode:overlay;isolation:isolate"/><path d="M339.243-177.775c-.214.358-.433.7-.657,1.024-2.974,4.334-6.921,6.135-10.635,6.2a11.914,11.914,0,0,1-4.8-.913c-8.015-3.342-4.981-14.629-3.3-19.325.456-1.285.815-2.076.815-2.076,5.972,3.234,16.924.661,17.338.912.386.229,1.927,6.67,2.132,7.531.014.066.023.1.023.1a3.748,3.748,0,0,1,2.141-.182,2.672,2.672,0,0,1,1.676,1.261C345.3-181.094,343.641-175.452,339.243-177.775Z" transform="translate(-267.316 270.287)" fill="url(#ca)"/><path d="M341.109-189.531a3.751,3.751,0,0,0-2.142.182s-1.74-7.383-2.155-7.629-11.366,2.322-17.338-.912a12.3,12.3,0,0,1-4.891-19.494c5.888-6.968,15.178,6.386,20.819,8.127s11.529-.581,13.275,7.3C349.994-196,344.39-193.078,341.109-189.531Z" transform="translate(-266.131 275.308)" fill="#ce4d34"/><path d="M342.008-163.5a9.9,9.9,0,0,1-2.849,3.5c-2.737,1.988-8.546.331-8.462-2.737a15.958,15.958,0,0,0-.107-2.1c-.075-.652-.173-1.313-.284-1.946,3.714-.061,7.661-1.862,10.635-6.2a29.913,29.913,0,0,0,2.034,5.93A6.9,6.9,0,0,1,342.008-163.5Z" transform="translate(-269.672 266.522)" fill="url(#cb)"/><path d="M320.925-85.38a23.467,23.467,0,0,1-8.964-4.027,24.547,24.547,0,0,1-6.833-7.935c4.482-19.744,12.94-35.174.168-50.436-5.195-6.2-10.543-9.579-15.5-13.4-7.252-5.576-13.666-12.092-17.515-29.737-2.174-9.947-2.862-15.36-2.961-18.409a8.565,8.565,0,0,1,.47-3.988,2.852,2.852,0,0,1,1.433-.922c2.267-.908,6.731-1.69,10.221-.354a7.988,7.988,0,0,1,1.783.945,34.777,34.777,0,0,0,.177,3.71c1.462,15.253,12.051,43.729,33.476,39.009.618-.131,1.243-.293,1.876-.484,0,0-1.932,2.867-2.309,10.738a66.715,66.715,0,0,0,.13,7.913C317.378-141.49,321.767-105.953,320.925-85.38Z" transform="translate(-258.121 274.535)" fill="url(#cc)"/><path d="M374.475-108.825c1.075,1.615-2.686,5.311-8.788,8.625a55.325,55.325,0,0,1-7.447,3.351c1.433-18.6-4.087-59.918-4.892-71.814a45.255,45.255,0,0,0-1.285-8.22c-1.829-7.084-4.784-10.072-4.784-10.072.54-.34,1.071-.684,1.587-1.038,14.675-9.947,19.521-24.1,16.649-35.472-2.806-11.1-11.395-23.175-14.992-28.84-1.08-1.708-1.713-2.834-1.6-3.179A11.517,11.517,0,0,1,350.3-257.9c1.471-2.1,3.984-4.8,7-5.572a6.6,6.6,0,0,1,2.574-.149c1.029.149,2.453,1.145,4.105,2.793,7.652,7.661,20.117,29.407,20.117,45.652,0,19.744-13.27,37.994-14.267,46.289S366.181-122.929,374.475-108.825Z" transform="translate(-272.886 283.695)" fill="url(#cd)"/><path d="M328.661-161.152s-1.932,2.867-2.309,10.738l-4.738-1.708a32.63,32.63,0,0,1,5.161-8.536l.01-.01C327.4-160.8,328.028-160.962,328.661-161.152Z" transform="translate(-268.026 264.282)" opacity="0.45" fill="url(#ce)" style="mix-blend-mode:overlay;isolation:isolate"/><path d="M357.054-161.435a9.546,9.546,0,0,0-4.99,2.23c-1.829-7.084-4.784-10.072-4.784-10.072.54-.34,1.071-.684,1.587-1.038A17.748,17.748,0,0,1,357.054-161.435Z" transform="translate(-272.886 266.017)" opacity="0.45" fill="url(#cf)" style="mix-blend-mode:overlay;isolation:isolate"/><path d="M280.819-222.269h0A8.188,8.188,0,0,0,276-225.625c-.139-2.053-.065-4.58,1.187-4.548C279.288-230.117,280.819-222.269,280.819-222.269Z" transform="translate(-259.38 277.351)" fill="url(#cg)"/><path d="M357.036-279.155c-.168,3.234-1.629,4.891-1.327,8.047a8.162,8.162,0,0,0,.908,2.965c-3.016.773-5.529,3.472-7,5.572-3.766-2.979-4.547-4.8-5.022-8.29-.5-3.65-1.494-6.884-.5-7.88s3.151,3.234,4.729,4.314,3.65-3.486,4.31-6.39-1.326-7.8,1.411-7.545S357.2-282.39,357.036-279.155Z" transform="translate(-272.202 288.37)" fill="url(#ch)"/><path d="M326.876-182.334c-.124,1.037-2.074,1.2-2.364,2.405s1.825,1.742,1.825,1.742" transform="translate(-268.57 268.293)" fill="none" stroke="#f98267" stroke-miterlimit="10" stroke-width="0.574"/><g transform="translate(45.473 55.926)"><g clip-path="url(#ci)"><path d="M309.736-211.981s-.664,3.838,3.871,7.006,20.467.589,25.5,4.81.606,12.281.606,12.281,5.817-.871,5.342-7.728-8.776-8.184-19.447-11.945S314.824-222.6,314.824-222.6s2.58,7.631,9.254,10.728,24.94,2.942,23.374,18.785" transform="translate(-311.244 219.991)" fill="none" stroke="#fff" stroke-miterlimit="10" stroke-width="0.574" opacity="0.33" style="mix-blend-mode:overlay;isolation:isolate"/></g></g><path d="M283.4-209.93a22.566,22.566,0,0,0-14.084.61,8.565,8.565,0,0,1,.47-3.988,2.852,2.852,0,0,1,1.433-.922c2.267-.908,6.731-1.69,10.221-.354a7.988,7.988,0,0,1,1.783.945A34.777,34.777,0,0,0,283.4-209.93Z" transform="translate(-258.121 274.535)" opacity="0.45" fill="url(#cj)" style="mix-blend-mode:overlay;isolation:isolate"/><path d="M364.361-260.823C358-261.6,352.58-254.7,350.9-252.306c-1.08-1.708-1.713-2.834-1.6-3.179a11.515,11.515,0,0,1,1.373-2.411c1.471-2.1,3.984-4.8,7-5.572a6.6,6.6,0,0,1,2.574-.149C361.284-263.467,362.709-262.471,364.361-260.823Z" transform="translate(-273.267 283.695)" opacity="0.45" fill="url(#ck)" style="mix-blend-mode:overlay;isolation:isolate"/><path d="M355.52-75.861c-6.959,2.537-15.151,3.971-22.551,2.309.173-4.152.126-8.913-.056-13.959,5.381-4.738,11.8-8.267,10.831-16.943-1.6-14.294.238-15.909,4.431-35.826A79.034,79.034,0,0,0,350-152.832a47.4,47.4,0,0,1,.623,5.157C351.433-135.778,356.954-94.464,355.52-75.861Z" transform="translate(-270.165 262.706)" opacity="0.45" fill="url(#cl)" style="mix-blend-mode:overlay;isolation:isolate"/><path d="M378.357-97.5c1.075,1.615-2.686,5.311-8.788,8.625,4.376-15.374-2.606-34.616-1.708-51.209s1.094-23.226,10.384-36.585a55.678,55.678,0,0,0,9.733-27.177c0,19.744-13.27,37.994-14.267,46.289S370.063-111.6,378.357-97.5Z" transform="translate(-276.768 272.365)" opacity="0.92" fill="url(#cm)" style="mix-blend-mode:overlay;isolation:isolate"/><path d="M342.008-163.5a7.972,7.972,0,0,0-2.681-1.518c-2.984-.888-4.152.577-7.466.331q-.711-.056-1.27-.153c-.075-.652-.173-1.313-.284-1.946,3.714-.061,7.661-1.862,10.635-6.2a29.913,29.913,0,0,0,2.034,5.93A6.9,6.9,0,0,1,342.008-163.5Z" transform="translate(-269.672 266.522)" opacity="0.45" fill="url(#cn)" style="mix-blend-mode:overlay;isolation:isolate"/><path d="M346.85-179.454a1.171,1.171,0,0,0-.4,2.24C347.5-176.91,348.411-179.675,346.85-179.454Z" transform="translate(-272.595 267.75)" opacity="0.45" fill="url(#co)" style="mix-blend-mode:overlay;isolation:isolate"/><path d="M340.595-184.426c-.186.81-.466,1.336-.889,1.243-1.513-.33-2.523-2.764-5.344-3.649s-5.2,0-6.525-1.271-2.541-.94-5.86-1.936a5.878,5.878,0,0,1-1.667-.754c.456-1.285.815-2.076.815-2.076,5.972,3.234,16.924.661,17.338.912C338.849-191.728,340.39-185.287,340.595-184.426Z" transform="translate(-267.779 270.287)" opacity="0.45" fill="url(#cp)" style="mix-blend-mode:overlay;isolation:isolate"/><path d="M277.267-169.035l.019.922A4.532,4.532,0,0,1,277.267-169.035Z" transform="translate(-259.626 265.774)" fill="url(#cq)"/><path d="M318.822-92.994c2.006,6.409-2.2,10.734-2.075,16.23a24.547,24.547,0,0,1-6.833-7.935c4.482-19.744,12.94-35.174.168-50.436-5.195-6.2-10.543-9.579-15.5-13.4,15,8.588,21.867,12.735,24.24,23.022S316.286-101.126,318.822-92.994Z" transform="translate(-262.907 261.892)" opacity="0.92" fill="url(#cr)" style="mix-blend-mode:overlay;isolation:isolate"/></g></g></g><g transform="translate(0 105.338)"><g clip-path="url(#cs)"><g transform="translate(10.18 8.746)"><path d="M165.68-192.679c-7.521-3.65-17.144-.774-20.572,3.428s-3.208,14.6-6.747,20.793-16.037,15.264-11.281,23.78,45.789,8.074,48.554-.774-2.433-12.166-1.88-20.129,2.986-16.148-1-22.563S165.68-192.679,165.68-192.679Z" transform="translate(-54.607 194.349)" fill="#ce4d34"/><g transform="translate(71.407)"><g clip-path="url(#ct)"><g transform="translate(-8.719 2.34)" opacity="0.33" style="mix-blend-mode:overlay;isolation:isolate"><path d="M165.354-188.722a2.451,2.451,0,0,0-1.612-2.382,7.111,7.111,0,0,0-3.046-.338c-2.493.089-5.11.232-7.235,1.538-2.681,1.648-4.014,4.787-4.957,7.789-2.336,7.433-3.316,15.3-6.437,22.443a26.588,26.588,0,0,1-6.451,9.355c-5.174,4.6-12.3,6.138-19.079,7.516" transform="translate(-115.501 191.462)" fill="none" stroke="#fff" stroke-miterlimit="10" stroke-width="0.574"/><path d="M165.874-187.661a12.412,12.412,0,0,0-7.546,5.731,28.508,28.508,0,0,0-3.353,9.083c-1.281,5.718-1.963,11.572-3.58,17.2-1.062,3.7-2.582,7.38-5.233,10.174a20.823,20.823,0,0,1-9.141,5.3,62.154,62.154,0,0,1-10.494,1.923" transform="translate(-117.393 190.742)" fill="none" stroke="#fff" stroke-miterlimit="10" stroke-width="0.574"/><path d="M175.963-187.95a5.488,5.488,0,0,1,6,1.167,12.131,12.131,0,0,1,3.085,5.637,78.063,78.063,0,0,1,2,10.793,42.759,42.759,0,0,0,2.626,10.637,16.894,16.894,0,0,0,6.941,8.262,10.636,10.636,0,0,0,10.483.178" transform="translate(-126.753 190.885)" fill="none" stroke="#fff" stroke-miterlimit="10" stroke-width="0.574"/><path d="M163.91-187.508c-4.012-.71-8.138,1.175-11.071,4s-4.878,6.5-6.7,10.149-3.607,7.376-6.309,10.424a21.9,21.9,0,0,1-11.787,6.849,14.386,14.386,0,0,1-7.372-.175,8.619,8.619,0,0,1-5.413-4.78" transform="translate(-115.259 190.742)" fill="none" stroke="#fff" stroke-miterlimit="10" stroke-width="0.574"/><path d="M154.755-190.779c-3.674.85-6.249,4.138-8.049,7.452s-3.2,6.956-5.9,9.594a13.239,13.239,0,0,1-12.325,3.295" transform="translate(-117.763 191.333)" fill="none" stroke="#fff" stroke-miterlimit="10" stroke-width="0.574"/></g></g></g><path d="M171.782-152.989a14,14,0,0,1-6.139,1.429c-4.99.046-9.933-2.388-11.446-6.987a6.182,6.182,0,0,1-.754.168,4.493,4.493,0,0,1-5.26-4.6,4,4,0,0,1,2.737-3.444c.912-.331,1.248,3.072,2.2,3.36.633.191.567-1.489.6-2.755.014-.637.056-1.168.224-1.308.5-.414,7.964-3.57,9.248-6.056,1.2,2.406,1.7,2.528,2.612,2.239s5.6-3.817,6.181-5.809a10.9,10.9,0,0,0,2.369,5.7,7.528,7.528,0,0,0,.577.652S178.089-156.14,171.782-152.989Z" transform="translate(-58.803 191.017)" fill="url(#cu)"/><path d="M162.513-50.163c-3.328,1.685-13.936,2.63-21.15-1.578-3.8-15.076.158-58.507,1.592-70.851a76.56,76.56,0,0,1,6.069-21.983l.014-.028c4.645-1.215,17.133,1.931,17.915,2.127.028.055.586.565.61.639.1.55-.363,1.767-.321,4.183C166.717-120.163,158.841-62.67,162.513-50.163Z" transform="translate(-57.21 184.982)" fill="url(#cv)"/><path d="M264.215-146.345c-.577,2.63-1.825,6.278-6.47,8.02a19.815,19.815,0,0,0-6.879,4.435,12.6,12.6,0,0,0-5.743-5.985c1.513-2.556,3.039-10.077,4.161-10.975,1.248-1,2.248,3.318,2.164,5.311s8.471-4.566,9.169-7.052,2.1-1.41,2.271,0S264.8-148.975,264.215-146.345Z" transform="translate(-77.16 186.724)" fill="url(#cw)"/><path d="M64.059-65.267c-3.556,3.509-11.4,10.04-15.016,10.04a8.67,8.67,0,0,1-7.8-4.231c-.828-1.741-3.319-2.239-3.319-3.235s9.542-2.323,12.609-4.314c-1.657-.168-3.9-3.319-3.481-4.231s2.071.083,5.8,0,4.8-1.471,4.8-1.471C58.966-71.179,62.2-69.191,64.059-65.267Z" transform="translate(-37.928 171.317)" fill="url(#cx)"/><path d="M166.724-147.307c-.056.349-.093.712-.117,1.075-.139,1.908-.019,3.928-1.126,4.771-4.473,3.17-10.31-1.834-11.413-4.175a1.131,1.131,0,0,1-.144-.856c.48-1.132.582-5.73.6-7.634a6.182,6.182,0,0,0,.754-.168C156.791-149.7,161.735-147.261,166.724-147.307Z" transform="translate(-59.885 186.764)" fill="url(#cy)"/><g transform="translate(19.162 40.379)"><path d="M92.091-108.48C82.139-97.532,61.4-89.4,61.567-87.409a2.009,2.009,0,0,0,.572,1.1c1.3,1.531,4.538,3.519,6.4,7.443a14.1,14.1,0,0,1,.828,2.239c24.72-6.135,42.528-27.205,42.528-27.205a101.791,101.791,0,0,1-.554,11.943c-.666,5.422-6.968,20.573-6.3,27.54.405,4.283,8.374,9.109,14.508,11.6,3.845,1.559,6.972,2.206,7.057,1.228-.015-.051-.028-.1-.042-.158-3.8-15.076.158-58.507,1.592-70.851a76.561,76.561,0,0,1,6.069-21.983l.014-.028C103.211-137.789,102.047-119.432,92.091-108.48Z" transform="translate(-61.566 144.538)" fill="url(#cz)"/><path d="M236-131.586a1.351,1.351,0,0,0-.079-.172,12.624,12.624,0,0,0-5.664-5.813,4.063,4.063,0,0,0-1.811-.559c-1.657.116-10.617,14.219-25.548,13.06s-15.444-13.2-30.859-16.845a1.457,1.457,0,0,1,.075.2,18.472,18.472,0,0,1,.214,4.622c-.526,17.491-8.4,74.984-4.729,87.491a7.5,7.5,0,0,0,.293.847c1.992,2.652,10.868-6.638,11.324-11.948s-6.679-27.821-4.687-34.4,9.459-8.238,6.14-21.177a.05.05,0,0,0,.014.009c13.61,12.931,41.467,12.358,55.9-12.237A7.5,7.5,0,0,0,236-131.586Z" transform="translate(-81.459 144.041)" fill="url(#da)"/><g transform="translate(0)"><g clip-path="url(#db)"><g transform="translate(8.871 11.521)"><g transform="translate(30.915)" opacity="0.25" style="mix-blend-mode:overlay;isolation:isolate"><circle cx="0.961" cy="0.961" r="0.961" fill="#fff"/><circle cx="0.961" cy="0.961" r="0.961" transform="translate(6.003)" fill="#fff"/><circle cx="0.961" cy="0.961" r="0.961" transform="translate(12.007)" fill="#fff"/><circle cx="0.961" cy="0.961" r="0.961" transform="translate(18.01)" fill="#fff"/><circle cx="0.961" cy="0.961" r="0.961" transform="translate(24.014)" fill="#fff"/><g transform="translate(0 5.003)"><circle cx="0.961" cy="0.961" r="0.961" fill="#fff"/><circle cx="0.961" cy="0.961" r="0.961" transform="translate(6.003)" fill="#fff"/><circle cx="0.961" cy="0.961" r="0.961" transform="translate(12.007)" fill="#fff"/><circle cx="0.961" cy="0.961" r="0.961" transform="translate(18.01)" fill="#fff"/><circle cx="0.961" cy="0.961" r="0.961" transform="translate(24.014)" fill="#fff"/></g><g transform="translate(0 10.006)"><circle cx="0.961" cy="0.961" r="0.961" fill="#fff"/><circle cx="0.961" cy="0.961" r="0.961" transform="translate(6.003)" fill="#fff"/><circle cx="0.961" cy="0.961" r="0.961" transform="translate(12.007)" fill="#fff"/><circle cx="0.961" cy="0.961" r="0.961" transform="translate(18.01)" fill="#fff"/><circle cx="0.961" cy="0.961" r="0.961" transform="translate(24.014)" fill="#fff"/></g><g transform="translate(0 15.008)"><circle cx="0.961" cy="0.961" r="0.961" fill="#fff"/><circle cx="0.961" cy="0.961" r="0.961" transform="translate(6.003)" fill="#fff"/><circle cx="0.961" cy="0.961" r="0.961" transform="translate(12.007 0)" fill="#fff"/><circle cx="0.961" cy="0.961" r="0.961" transform="translate(18.01)" fill="#fff"/><circle cx="0.961" cy="0.961" r="0.961" transform="translate(24.014)" fill="#fff"/></g><g transform="translate(0 20.011)"><circle cx="0.961" cy="0.961" r="0.961" fill="#fff"/><circle cx="0.961" cy="0.961" r="0.961" transform="translate(6.003)" fill="#fff"/><circle cx="0.961" cy="0.961" r="0.961" transform="translate(12.007)" fill="#fff"/><circle cx="0.961" cy="0.961" r="0.961" transform="translate(18.01)" fill="#fff"/><circle cx="0.961" cy="0.961" r="0.961" transform="translate(24.014)" fill="#fff"/></g><g transform="translate(0 25.014)"><circle cx="0.961" cy="0.961" r="0.961" fill="#fff"/><circle cx="0.961" cy="0.961" r="0.961" transform="translate(6.003)" fill="#fff"/><circle cx="0.961" cy="0.961" r="0.961" transform="translate(12.007)" fill="#fff"/><circle cx="0.961" cy="0.961" r="0.961" transform="translate(18.01)" fill="#fff"/><circle cx="0.961" cy="0.961" r="0.961" transform="translate(24.014)" fill="#fff"/></g></g><g transform="translate(106.373 10.484)" opacity="0.25" style="mix-blend-mode:overlay;isolation:isolate"><circle cx="0.961" cy="0.961" r="0.961" fill="#fff"/><circle cx="0.961" cy="0.961" r="0.961" transform="translate(6.003)" fill="#fff"/><circle cx="0.961" cy="0.961" r="0.961" transform="translate(12.007)" fill="#fff"/><circle cx="0.961" cy="0.961" r="0.961" transform="translate(18.01)" fill="#fff"/><circle cx="0.961" cy="0.961" r="0.961" transform="translate(24.014)" fill="#fff"/><g transform="translate(0 5.003)"><circle cx="0.961" cy="0.961" r="0.961" fill="#fff"/><circle cx="0.961" cy="0.961" r="0.961" transform="translate(6.003)" fill="#fff"/><circle cx="0.961" cy="0.961" r="0.961" transform="translate(12.007)" fill="#fff"/><circle cx="0.961" cy="0.961" r="0.961" transform="translate(18.01)" fill="#fff"/><circle cx="0.961" cy="0.961" r="0.961" transform="translate(24.014)" fill="#fff"/></g><g transform="translate(0 10.006)"><circle cx="0.961" cy="0.961" r="0.961" fill="#fff"/><circle cx="0.961" cy="0.961" r="0.961" transform="translate(6.003)" fill="#fff"/><circle cx="0.961" cy="0.961" r="0.961" transform="translate(12.007)" fill="#fff"/><circle cx="0.961" cy="0.961" r="0.961" transform="translate(18.01)" fill="#fff"/><circle cx="0.961" cy="0.961" r="0.961" transform="translate(24.014)" fill="#fff"/></g><g transform="translate(0 15.008)"><circle cx="0.961" cy="0.961" r="0.961" fill="#fff"/><circle cx="0.961" cy="0.961" r="0.961" transform="translate(6.003 0)" fill="#fff"/><circle cx="0.961" cy="0.961" r="0.961" transform="translate(12.007 0)" fill="#fff"/><circle cx="0.961" cy="0.961" r="0.961" transform="translate(18.01)" fill="#fff"/><circle cx="0.961" cy="0.961" r="0.961" transform="translate(24.014 0)" fill="#fff"/></g><g transform="translate(0 20.011)"><circle cx="0.961" cy="0.961" r="0.961" fill="#fff"/><circle cx="0.961" cy="0.961" r="0.961" transform="translate(6.003)" fill="#fff"/><circle cx="0.961" cy="0.961" r="0.961" transform="translate(12.007)" fill="#fff"/><circle cx="0.961" cy="0.961" r="0.961" transform="translate(18.01)" fill="#fff"/><circle cx="0.961" cy="0.961" r="0.961" transform="translate(24.014)" fill="#fff"/></g><g transform="translate(0 25.014)"><circle cx="0.961" cy="0.961" r="0.961" fill="#fff"/><circle cx="0.961" cy="0.961" r="0.961" transform="translate(6.003)" fill="#fff"/><circle cx="0.961" cy="0.961" r="0.961" transform="translate(12.007)" fill="#fff"/><circle cx="0.961" cy="0.961" r="0.961" transform="translate(18.01)" fill="#fff"/><circle cx="0.961" cy="0.961" r="0.961" transform="translate(24.014)" fill="#fff"/></g></g><g transform="translate(0 43.826)" opacity="0.25" style="mix-blend-mode:overlay;isolation:isolate"><circle cx="0.961" cy="0.961" r="0.961" fill="#fff"/><circle cx="0.961" cy="0.961" r="0.961" transform="translate(6.003)" fill="#fff"/><circle cx="0.961" cy="0.961" r="0.961" transform="translate(12.007)" fill="#fff"/><circle cx="0.961" cy="0.961" r="0.961" transform="translate(18.01)" fill="#fff"/><circle cx="0.961" cy="0.961" r="0.961" transform="translate(24.013)" fill="#fff"/><g transform="translate(0 5.003)"><circle cx="0.961" cy="0.961" r="0.961" fill="#fff"/><circle cx="0.961" cy="0.961" r="0.961" transform="translate(6.003)" fill="#fff"/><circle cx="0.961" cy="0.961" r="0.961" transform="translate(12.007)" fill="#fff"/><circle cx="0.961" cy="0.961" r="0.961" transform="translate(18.01)" fill="#fff"/><circle cx="0.961" cy="0.961" r="0.961" transform="translate(24.013)" fill="#fff"/></g><g transform="translate(0 10.006)"><circle cx="0.961" cy="0.961" r="0.961" fill="#fff"/><circle cx="0.961" cy="0.961" r="0.961" transform="translate(6.003)" fill="#fff"/><circle cx="0.961" cy="0.961" r="0.961" transform="translate(12.007)" fill="#fff"/><circle cx="0.961" cy="0.961" r="0.961" transform="translate(18.01)" fill="#fff"/><circle cx="0.961" cy="0.961" r="0.961" transform="translate(24.013)" fill="#fff"/></g><g transform="translate(0 15.008)"><circle cx="0.961" cy="0.961" r="0.961" fill="#fff"/><circle cx="0.961" cy="0.961" r="0.961" transform="translate(6.003)" fill="#fff"/><circle cx="0.961" cy="0.961" r="0.961" transform="translate(12.007)" fill="#fff"/><circle cx="0.961" cy="0.961" r="0.961" transform="translate(18.01)" fill="#fff"/><circle cx="0.961" cy="0.961" r="0.961" transform="translate(24.013)" fill="#fff"/></g><g transform="translate(0 20.011)"><circle cx="0.961" cy="0.961" r="0.961" transform="translate(0 0)" fill="#fff"/><circle cx="0.961" cy="0.961" r="0.961" transform="translate(6.003 0)" fill="#fff"/><circle cx="0.961" cy="0.961" r="0.961" transform="translate(12.007)" fill="#fff"/><circle cx="0.961" cy="0.961" r="0.961" transform="translate(18.01 0)" fill="#fff"/><circle cx="0.961" cy="0.961" r="0.961" transform="translate(24.013 0)" fill="#fff"/></g><g transform="translate(0 25.014)"><circle cx="0.961" cy="0.961" r="0.961" fill="#fff"/><circle cx="0.961" cy="0.961" r="0.961" transform="translate(6.003)" fill="#fff"/><circle cx="0.961" cy="0.961" r="0.961" transform="translate(12.007)" fill="#fff"/><circle cx="0.961" cy="0.961" r="0.961" transform="translate(18.01)" fill="#fff"/><circle cx="0.961" cy="0.961" r="0.961" transform="translate(24.013)" fill="#fff"/></g></g><g transform="translate(66.154 43.791)" opacity="0.25" style="mix-blend-mode:overlay;isolation:isolate"><circle cx="0.961" cy="0.961" r="0.961" transform="translate(0 0)" fill="#fff"/><circle cx="0.961" cy="0.961" r="0.961" transform="translate(6.003 0)" fill="#fff"/><circle cx="0.961" cy="0.961" r="0.961" transform="translate(12.007 0)" fill="#fff"/><path d="M178.252-75.346a.961.961,0,0,1-.961.961.961.961,0,0,1-.961-.961.961.961,0,0,1,.961-.961A.961.961,0,0,1,178.252-75.346Z" transform="translate(-158.321 76.307)" fill="#fff"/><circle cx="0.961" cy="0.961" r="0.961" transform="translate(24.014 0)" fill="#fff"/><g transform="translate(0 5.003)"><circle cx="0.961" cy="0.961" r="0.961" transform="translate(0 0)" fill="#fff"/><circle cx="0.961" cy="0.961" r="0.961" transform="translate(6.003 0)" fill="#fff"/><circle cx="0.961" cy="0.961" r="0.961" transform="translate(12.007 0)" fill="#fff"/><path d="M178.252-69.175a.96.96,0,0,1-.961.961.961.961,0,0,1-.961-.961.961.961,0,0,1,.961-.961A.961.961,0,0,1,178.252-69.175Z" transform="translate(-158.321 70.136)" fill="#fff"/><circle cx="0.961" cy="0.961" r="0.961" transform="translate(24.014 0)" fill="#fff"/></g><g transform="translate(0 10.006)"><circle cx="0.961" cy="0.961" r="0.961" fill="#fff"/><circle cx="0.961" cy="0.961" r="0.961" transform="translate(6.003)" fill="#fff"/><circle cx="0.961" cy="0.961" r="0.961" transform="translate(12.007)" fill="#fff"/><path d="M178.252-63a.961.961,0,0,1-.961.961.961.961,0,0,1-.961-.961.961.961,0,0,1,.961-.961A.96.96,0,0,1,178.252-63Z" transform="translate(-158.321 63.964)" fill="#fff"/><circle cx="0.961" cy="0.961" r="0.961" transform="translate(24.014)" fill="#fff"/></g><g transform="translate(0 15.008)"><circle cx="0.961" cy="0.961" r="0.961" transform="translate(0 0)" fill="#fff"/><circle cx="0.961" cy="0.961" r="0.961" transform="translate(6.003 0)" fill="#fff"/><circle cx="0.961" cy="0.961" r="0.961" transform="translate(12.007 0)" fill="#fff"/><path d="M178.252-56.832a.961.961,0,0,1-.961.961.961.961,0,0,1-.961-.961.961.961,0,0,1,.961-.961A.961.961,0,0,1,178.252-56.832Z" transform="translate(-158.321 57.793)" fill="#fff"/><circle cx="0.961" cy="0.961" r="0.961" transform="translate(24.014 0)" fill="#fff"/></g><g transform="translate(0 20.011)"><circle cx="0.961" cy="0.961" r="0.961" transform="translate(0 0)" fill="#fff"/><circle cx="0.961" cy="0.961" r="0.961" transform="translate(6.003 0)" fill="#fff"/><circle cx="0.961" cy="0.961" r="0.961" transform="translate(12.007 0)" fill="#fff"/><path d="M178.252-50.661a.96.96,0,0,1-.961.961.961.961,0,0,1-.961-.961.961.961,0,0,1,.961-.961A.961.961,0,0,1,178.252-50.661Z" transform="translate(-158.321 51.622)" fill="#fff"/><circle cx="0.961" cy="0.961" r="0.961" transform="translate(24.014 0)" fill="#fff"/></g><g transform="translate(0 25.014)"><circle cx="0.961" cy="0.961" r="0.961" fill="#fff"/><circle cx="0.961" cy="0.961" r="0.961" transform="translate(6.003)" fill="#fff"/><circle cx="0.961" cy="0.961" r="0.961" transform="translate(12.007)" fill="#fff"/><path d="M178.252-44.489a.961.961,0,0,1-.961.961.961.961,0,0,1-.961-.961.961.961,0,0,1,.961-.961A.96.96,0,0,1,178.252-44.489Z" transform="translate(-158.321 45.45)" fill="#fff"/><circle cx="0.961" cy="0.961" r="0.961" transform="translate(24.014)" fill="#fff"/></g></g></g></g></g></g><path d="M239.864-126.133c-14.429,24.594-42.286,25.167-55.9,12.237.391.186,7.759,3.658,13.908,2.392,6.317-1.3,8.974,1.136,15.941.806s6.968-5.088,11.39-5.753,4.2-4.91,8.96-6.526c2.825-.959,4.305-4.054,5.041-6.409a1.353,1.353,0,0,1,.079.172A7.5,7.5,0,0,1,239.864-126.133Z" transform="translate(-65.581 182.048)" opacity="0.45" fill="url(#dc)" style="mix-blend-mode:overlay;isolation:isolate"/><path d="M123.955-53.425c1.09,3.281,4.1,5.65,5.73,7.731-6.134-2.5-14.1-7.322-14.508-11.6-.666-6.968,5.636-22.118,6.3-27.54a101.791,101.791,0,0,0,.554-11.943s4.757-4.976,6.637-10.51c3.207,7.522-2.215,11.283-1.661,19.358s-6.856,16.923-4.315,23.78S122.554-57.628,123.955-53.425Z" transform="translate(-52.546 177.865)" opacity="0.45" fill="url(#dd)" style="mix-blend-mode:overlay;isolation:isolate"/><path d="M172.825-163.16a2.44,2.44,0,0,0,1.01,2.323c1.257.829.61,1.825-1.03,2.1" transform="translate(-63.467 188.443)" fill="none" stroke="#f98267" stroke-miterlimit="10" stroke-width="0.574"/><path d="M151.329-160.688a1.536,1.536,0,0,0,.534,2.74C153.29-157.627,152.7-161.311,151.329-160.688Z" transform="translate(-59.278 187.989)" opacity="0.45" fill="url(#de)" style="mix-blend-mode:overlay;isolation:isolate"/><path d="M175.657-171.058c-1.424,1.07-3.719,1.345-5.65,1.28-3.626-.117-7.727,2.438-10.934,3.574a7.6,7.6,0,0,1-4.049.382c.014-.637.056-1.168.224-1.308.5-.414,7.964-3.57,9.248-6.056,1.2,2.406,1.7,2.528,2.612,2.239s5.6-3.817,6.181-5.809A10.9,10.9,0,0,0,175.657-171.058Z" transform="translate(-60.1 191.017)" opacity="0.45" fill="url(#df)" style="mix-blend-mode:overlay;isolation:isolate"/><path d="M166.724-147.307c-.056.349-.093.712-.117,1.075-.81-.009-1.625-.079-2.392-.153-2.961-.293-2.8,1.778-7.023,1.065a18.062,18.062,0,0,0-3.123-.316,1.131,1.131,0,0,1-.144-.856c.48-1.132.582-5.73.6-7.634a6.182,6.182,0,0,0,.754-.168C156.791-149.7,161.735-147.261,166.724-147.307Z" transform="translate(-59.885 186.764)" opacity="0.45" fill="url(#dg)" style="mix-blend-mode:overlay;isolation:isolate"/></g></g></g></g><g transform="translate(96.749 -294.933)"><path d="M-26.121-343.439l3.033,21.783-7.344,1.022-1.118-8.029-6.784.944,1.117,8.029-7.344,1.022-3.033-21.783,7.344-1.022,1.074,7.717,6.784-.944-1.074-7.717Z" transform="translate(47.593 357.058)" fill="#fff"/><path d="M1.5-336.665q2.117,2.305,1.6,6.484l-1.143,9.166-6.547-.816.28-2.245q-1.536,2.405-5.152,1.954a7.775,7.775,0,0,1-3.357-1.131,5.116,5.116,0,0,1-1.914-2.17,5.113,5.113,0,0,1-.4-2.789,4.372,4.372,0,0,1,2.412-3.594,10.635,10.635,0,0,1,6.025-.578l2.837.353q-.1-2.038-2.963-2.4a8.1,8.1,0,0,0-2.383.066,6.639,6.639,0,0,0-2.148.73l-1.666-4.925a12.487,12.487,0,0,1,3.715-.977,17.217,17.217,0,0,1,4.2,0Q-.625-338.972,1.5-336.665Zm-6.924,10.328A2.368,2.368,0,0,0-4.4-327.443l.148-1.184L-6-328.845q-2.152-.269-2.33,1.165A1.248,1.248,0,0,0-8-326.641a1.839,1.839,0,0,0,1.183.543A2.349,2.349,0,0,0-5.428-326.336Z" transform="translate(41.456 356.342)" fill="#fff"/><path d="M29.662-341.546,24.319-323.81,17-323.151l-8.426-16.5,7.26-.653,4.267,8.859,2.867-9.5Z" transform="translate(36.959 356.699)" fill="#fff"/><path d="M53.583-330.643l-11.92-.665a2.888,2.888,0,0,0,1.171,1.56,4.271,4.271,0,0,0,2.168.64,5.56,5.56,0,0,0,1.912-.176,6.7,6.7,0,0,0,1.734-.879l3.492,3.939q-2.663,2.62-7.651,2.343A12.36,12.36,0,0,1,39.1-325.33a8.681,8.681,0,0,1-3.461-3.388A8.408,8.408,0,0,1,34.6-333.37a8.475,8.475,0,0,1,1.526-4.524,8.706,8.706,0,0,1,3.658-2.959,10.8,10.8,0,0,1,5.036-.852,10.83,10.83,0,0,1,4.694,1.3,8.186,8.186,0,0,1,3.25,3.235,8.8,8.8,0,0,1,1,4.87Q53.761-332.143,53.583-330.643Zm-10.819-5.732a2.828,2.828,0,0,0-1.035,1.642l5.52.308a2.88,2.88,0,0,0-.847-1.731,2.718,2.718,0,0,0-1.785-.713A2.761,2.761,0,0,0,42.764-336.375Z" transform="translate(32.032 356.733)" fill="#fff"/><path d="M79.766-347.559l3.686-.624.866,5.112-3.469.588,1.847,10.9-7,1.186-1.847-10.9-2.323.393-.866-5.111,2.323-.394-.016-.093a7.1,7.1,0,0,1,1.094-5.585,7.752,7.752,0,0,1,5.247-2.881,12.154,12.154,0,0,1,2.329-.171,6.617,6.617,0,0,1,1.964.3l-.85,5.147a3.859,3.859,0,0,0-1.647-.135,1.621,1.621,0,0,0-1.143.687,2.125,2.125,0,0,0-.2,1.548Z" transform="translate(25.202 359.274)" fill="#fff"/><path d="M109.887-350.454v17.186h-6.755V-334.9a6.076,6.076,0,0,1-2.2,1.462,7.33,7.33,0,0,1-2.67.487,7.06,7.06,0,0,1-5.247-2q-1.98-2-1.98-6.017v-9.488h7.1v8.264a4.274,4.274,0,0,0,.567,2.513,1.95,1.95,0,0,0,1.665.754,2.153,2.153,0,0,0,1.728-.833,4.076,4.076,0,0,0,.691-2.623v-8.075Z" transform="translate(21.344 358.386)" fill="#fff"/><path d="M136.059-351.621q1.651,2.163,1.122,5.991l-1.342,9.71-7.033-.972,1.175-8.5q.4-2.926-1.681-3.214a2.46,2.46,0,0,0-2.027.56,3.885,3.885,0,0,0-1.09,2.5l-1.106,8-7.034-.972,2.353-17.024,6.691.925-.232,1.68a6.557,6.557,0,0,1,2.509-1.175,7.969,7.969,0,0,1,2.9-.106A6.93,6.93,0,0,1,136.059-351.621Z" transform="translate(16.419 359.35)" fill="#fff"/><path d="M148.014-360.239H156.5l-1.414,13.573h-5.655Zm1.257,21.207a3.535,3.535,0,0,1-1.162-2.67,3.425,3.425,0,0,1,1.162-2.655,4.272,4.272,0,0,1,2.984-1.052,4.276,4.276,0,0,1,2.985,1.052A3.428,3.428,0,0,1,156.4-341.7a3.538,3.538,0,0,1-1.162,2.67,4.166,4.166,0,0,1-2.985,1.1A4.163,4.163,0,0,1,149.271-339.032Z" transform="translate(10.555 360.239)" fill="#fff"/></g></g></svg>