<svg xmlns="http://www.w3.org/2000/svg" xmlns:xlink="http://www.w3.org/1999/xlink" width="385" height="82" viewBox="0 0 385 82">
  <defs>
    <pattern id="pattern" preserveAspectRatio="xMidYMid slice" width="100%" height="100%" viewBox="0 0 1554 335">
      <image width="1554" height="335" xlink:href="../goldenpot.jpg"/>
    </pattern>
  </defs>
  <g id="Group_17557" data-name="Group 17557" transform="translate(-15)">
    <rect id="Banner_Golden_Pot__OL_April_08-01" data-name="Banner Golden Pot _OL April 08-01" width="385" height="82" rx="7" transform="translate(15)" fill="url(#pattern)"/>
    <g id="goldenpot" transform="translate(186 3)" fill="none" stroke="#707070" stroke-width="1">
      <rect width="86" height="21" stroke="none"/>
      <rect x="0.5" y="0.5" width="85" height="20" fill="none"/>
    </g>
    <g id="prize" transform="translate(115 35)" fill="none" stroke="#707070" stroke-width="1">
      <rect width="125" height="29" stroke="none"/>
      <rect x="0.5" y="0.5" width="124" height="28" fill="none"/>
    </g>
    <g id="progress" transform="translate(334 22)" fill="#fff" stroke="#707070" stroke-width="1">
      <circle cx="20" cy="20" r="20" stroke="none"/>
      <circle cx="20" cy="20" r="19.5" fill="none"/>
    </g>
    <g id="days" transform="translate(334 47)" fill="#fff" stroke="#707070" stroke-width="1">
      <rect width="40" height="15" stroke="none"/>
      <rect x="0.5" y="0.5" width="39" height="14" fill="none"/>
    </g>
    <g id="remainCount" transform="translate(334 22)" fill="#fff" stroke="#707070" stroke-width="1">
      <rect width="40" height="25" stroke="none"/>
      <rect x="0.5" y="0.5" width="39" height="24" fill="none"/>
    </g>
    <text id="_03" data-name="03" transform="translate(354 42)" fill="#f2088f" font-size="18" font-family="Montserrat-Bold, Montserrat" font-weight="700"><tspan x="-11.349" y="0">03</tspan></text>
    <g id="countDown" transform="translate(317 63)" fill="#fff" stroke="#707070" stroke-width="1">
      <rect width="76" height="16" stroke="none"/>
      <rect x="0.5" y="0.5" width="75" height="15" fill="none"/>
    </g>
    <g id="countDownTitle" transform="translate(317 4)" fill="#fff" stroke="#707070" stroke-width="1">
      <rect width="76" height="16" stroke="none"/>
      <rect x="0.5" y="0.5" width="75" height="15" fill="none"/>
    </g>
  </g>
</svg>
