<svg xmlns="http://www.w3.org/2000/svg" xmlns:xlink="http://www.w3.org/1999/xlink" width="414" height="736" viewBox="0 0 414 736"><defs><filter id="a" x="-9" y="130.509" width="432" height="436.28" filterUnits="userSpaceOnUse"><feOffset dy="3" input="SourceAlpha"/><feGaussianBlur stdDeviation="3" result="b"/><feFlood flood-opacity="0.161"/><feComposite operator="in" in2="b"/><feComposite in="SourceGraphic"/></filter><clipPath id="d"><rect width="414" height="736"/></clipPath></defs><g id="c" clip-path="url(#d)"><rect width="414" height="736" fill="#fff"/><rect width="436.362" height="644.401" transform="translate(-22.158 135.969)" fill="#f6f6f6"/><g transform="matrix(0.921, 0.391, -0.391, 0.921, -1214.582, -779.797)" opacity="0.03"><circle cx="17.71" cy="17.71" r="17.71" transform="translate(1876.876 651.226)" fill="#185d7a"/><path d="M1588.907,798.413c-6.116-48.929,19.775-108.458,77.266-118.652s156.163-25.28,165.948,15.9-13.455,123.952-56.267,175.327-90.925,59.938-128.029,43.629S1588.907,798.413,1588.907,798.413Z" transform="translate(0 -39.24)" fill="#185d7a"/></g><g transform="matrix(1, 0, 0, 1, 0, 0)" filter="url(#a)"><path d="M1284.064-568.367v392.918c0,14.007-13.039,25.362-29.125,25.362H899.187c-16.084,0-29.123-11.355-29.123-25.362V-568.367" transform="translate(-870.06 704.88)" fill="#fff"/></g><path d="M803.694-812.612a12.611,12.611,0,0,1-8.976-3.718A12.611,12.611,0,0,1,791-825.306a12.611,12.611,0,0,1,3.718-8.976A12.611,12.611,0,0,1,803.694-838a12.611,12.611,0,0,1,8.976,3.718,12.611,12.611,0,0,1,3.718,8.976,12.611,12.611,0,0,1-3.718,8.976A12.611,12.611,0,0,1,803.694-812.612Zm-1.322-5.284a.485.485,0,0,0-.485.485.485.485,0,0,0,.485.485h3.114a.485.485,0,0,0,.485-.485.485.485,0,0,0-.485-.485h-1.073v-2.166a5.707,5.707,0,0,0,5.19-5.654.485.485,0,0,0-.485-.485.485.485,0,0,0-.485.485,4.711,4.711,0,0,1-4.706,4.705,4.711,4.711,0,0,1-4.705-4.705.485.485,0,0,0-.485-.485.485.485,0,0,0-.485.485,5.707,5.707,0,0,0,5.19,5.654v2.166Zm1.557-15.57a2.564,2.564,0,0,0-2.561,2.561v5.19a2.564,2.564,0,0,0,2.561,2.56,2.563,2.563,0,0,0,2.56-2.56v-5.19A2.563,2.563,0,0,0,803.929-833.466Z" transform="translate(-416.388 878.177)" fill="#fff"/><path d="M12.31,24.621a12.311,12.311,0,0,1-8.7-21.016,12.31,12.31,0,1,1,17.41,17.41A12.23,12.23,0,0,1,12.31,24.621Zm-1.244-18.9a1.433,1.433,0,0,0-1.013,2.446l3.909,3.909L10.04,16a1.433,1.433,0,0,0,2.027,2.027l4.853-4.853.025-.022c.021-.019.041-.037.061-.057a1.435,1.435,0,0,0,0-2.027L12.079,6.143A1.423,1.423,0,0,0,11.066,5.724Z" transform="translate(39.621 65) rotate(180)" fill="#fff"/><text transform="translate(162 48)" fill="#fff" font-size="13" font-family="Montserrat-Bold, Montserrat" font-weight="700"><tspan x="0" y="0">IRON PUNCH</tspan></text><g transform="translate(374.977 25.563)"><path d="M-601.214,196.485A3.185,3.185,0,0,1-604.4,193.3v-1.261l-.813-.813a.379.379,0,0,1,.017.086V193.3a3.981,3.981,0,0,0,3.976,3.976,3.932,3.932,0,0,0,1.67-.387l-.6-.6A3.112,3.112,0,0,1-601.214,196.485Z" transform="translate(613.626 -181.736)" fill="#fff"/><path d="M-818.669-63.439a12.363,12.363,0,0,0-12.363,12.363,12.363,12.363,0,0,0,12.363,12.363,12.363,12.363,0,0,0,12.363-12.363A12.363,12.363,0,0,0-818.669-63.439Zm3.621,13.306a3.938,3.938,0,0,0,.4-1.738V-53.86a.4.4,0,0,1,.4-.4.4.4,0,0,1,.4.4v1.988a4.719,4.719,0,0,1-.485,2.087.4.4,0,0,1-.358.223.394.394,0,0,1-.174-.04A.4.4,0,0,1-815.048-50.133Zm-6.753-7.305a3.185,3.185,0,0,1,3.181-3.181,3.185,3.185,0,0,1,3.181,3.181v5.567a3.113,3.113,0,0,1-.1.772.4.4,0,0,1-.28.287.4.4,0,0,1-.106.014.4.4,0,0,1-.281-.117l-5.475-5.475a.4.4,0,0,1-.116-.281ZM-810.219-43.2l-.562.562a.4.4,0,0,1-.562,0l-5.017-5.058a4.711,4.711,0,0,1-1.861.555v3.219h1.193a1.592,1.592,0,0,1,1.591,1.591v.4a.4.4,0,0,1-.4.4H-821.4a.4.4,0,0,1-.4-.4v-.4a1.592,1.592,0,0,1,1.591-1.591h1.193v-3.2a4.775,4.775,0,0,1-4.374-4.752V-53.86a.4.4,0,0,1,.4-.4.38.38,0,0,1,.086.017l-4.211-4.211a.4.4,0,0,1,0-.562l.562-.562a.4.4,0,0,1,.562,0l15.776,15.816A.4.4,0,0,1-810.219-43.2Z" transform="translate(831.032 63.439)" fill="#fff"/><path d="M-601.214,197.28a3.981,3.981,0,0,1-3.976-3.976v-1.988a.379.379,0,0,0-.017-.086l.813.813V193.3a3.185,3.185,0,0,0,3.181,3.181,3.112,3.112,0,0,0,1.067-.194l.6.6A3.932,3.932,0,0,1-601.214,197.28Z" transform="translate(613.626 -181.736)" fill="#fff"/></g></g></svg>