<svg xmlns="http://www.w3.org/2000/svg" xmlns:xlink="http://www.w3.org/1999/xlink" width="414" height="736" viewBox="0 0 414 736"><defs><filter id="a" x="-9" y="-16" width="432" height="228" filterUnits="userSpaceOnUse"><feOffset dy="3" input="SourceAlpha"/><feGaussianBlur stdDeviation="3" result="b"/><feFlood flood-opacity="0.161"/><feComposite operator="in" in2="b"/><feComposite in="SourceGraphic"/></filter><filter id="c" x="8" y="207.154" width="398.362" height="473.216" filterUnits="userSpaceOnUse"><feOffset dy="3" input="SourceAlpha"/><feGaussianBlur stdDeviation="3" result="d"/><feFlood flood-opacity="0.302"/><feComposite operator="in" in2="d"/><feComposite in="SourceGraphic"/></filter><clipPath id="f"><rect width="414" height="736"/></clipPath></defs><g id="e" clip-path="url(#f)"><rect width="414" height="736" fill="#fff"/><rect width="436.362" height="768.401" transform="translate(-11.158 -16.031)" fill="#0f5d7e"/><g transform="matrix(0.921, 0.391, -0.391, 0.921, -1214.582, -762.797)" opacity="0.03"><circle cx="17.71" cy="17.71" r="17.71" transform="translate(1854.129 735.84)" fill="#185d7a"/><path d="M1588.907,798.413c-6.116-48.929,19.775-108.458,77.266-118.652s156.163-25.28,165.948,15.9-13.455,123.952-56.267,175.327-90.925,59.938-128.029,43.629S1588.907,798.413,1588.907,798.413Z" transform="translate(0 -39.24)" fill="#185d7a"/></g><g transform="matrix(1, 0, 0, 1, 0, 0)" filter="url(#a)"><path d="M0,0H414a0,0,0,0,1,0,0V190a20,20,0,0,1-20,20H20A20,20,0,0,1,0,190V0A0,0,0,0,1,0,0Z" transform="translate(0 -10)" fill="#fff"/></g><g transform="matrix(1, 0, 0, 1, 0, 0)" filter="url(#c)"><rect width="380.362" height="455.216" rx="9" transform="translate(17 213.15)" fill="#fff"/></g><path d="M803.694-812.612a12.611,12.611,0,0,1-8.976-3.718A12.611,12.611,0,0,1,791-825.306a12.611,12.611,0,0,1,3.718-8.976A12.611,12.611,0,0,1,803.694-838a12.611,12.611,0,0,1,8.976,3.718,12.611,12.611,0,0,1,3.718,8.976,12.611,12.611,0,0,1-3.718,8.976A12.611,12.611,0,0,1,803.694-812.612Zm-1.322-5.284a.485.485,0,0,0-.485.485.485.485,0,0,0,.485.485h3.114a.485.485,0,0,0,.485-.485.485.485,0,0,0-.485-.485h-1.073v-2.166a5.707,5.707,0,0,0,5.19-5.654.485.485,0,0,0-.485-.485.485.485,0,0,0-.485.485,4.711,4.711,0,0,1-4.706,4.705,4.711,4.711,0,0,1-4.705-4.705.485.485,0,0,0-.485-.485.485.485,0,0,0-.485.485,5.707,5.707,0,0,0,5.19,5.654v2.166Zm1.557-15.57a2.564,2.564,0,0,0-2.561,2.561v5.19a2.564,2.564,0,0,0,2.561,2.56,2.563,2.563,0,0,0,2.56-2.56v-5.19A2.563,2.563,0,0,0,803.929-833.466Z" transform="translate(-416.388 878.177)" fill="#fff"/><path d="M12.31,24.621a12.311,12.311,0,0,1-8.7-21.016,12.31,12.31,0,1,1,17.41,17.41A12.23,12.23,0,0,1,12.31,24.621Zm-1.244-18.9a1.433,1.433,0,0,0-1.013,2.446l3.909,3.909L10.04,16a1.433,1.433,0,0,0,2.027,2.027l4.853-4.853.025-.022c.021-.019.041-.037.061-.057a1.435,1.435,0,0,0,0-2.027L12.079,6.143A1.423,1.423,0,0,0,11.066,5.724Z" transform="translate(39.621 65) rotate(180)" fill="#fff"/><text transform="translate(162 48)" fill="#fff" font-size="13" font-family="Montserrat-Bold, Montserrat" font-weight="700"><tspan x="0" y="0">IRON PUNCH</tspan></text></g></svg>