<svg xmlns="http://www.w3.org/2000/svg" xmlns:xlink="http://www.w3.org/1999/xlink" width="414" height="733" viewBox="0 0 414 733"><defs><filter id="a" x="-9" y="22" width="432" height="606.789" filterUnits="userSpaceOnUse"><feOffset dy="3" input="SourceAlpha"/><feGaussianBlur stdDeviation="3" result="b"/><feFlood flood-opacity="0.161"/><feComposite operator="in" in2="b"/><feComposite in="SourceGraphic"/></filter><clipPath id="d"><rect width="414" height="733"/></clipPath></defs><g id="c" clip-path="url(#d)"><rect width="414" height="733" fill="#fff"/><rect width="436.362" height="761.401" transform="translate(-13.158 18.969)" fill="#f6f6f6"/><g transform="matrix(0.921, 0.391, -0.391, 0.921, -1234.582, -722.797)" opacity="0.03"><circle cx="17.71" cy="17.71" r="17.71" transform="translate(1854.129 735.84)" fill="#185d7a"/><path d="M1588.907,798.413c-6.116-48.929,19.775-108.458,77.266-118.652s156.163-25.28,165.948,15.9-13.455,123.952-56.267,175.327-90.925,59.938-128.029,43.629S1588.907,798.413,1588.907,798.413Z" transform="translate(0 -39.24)" fill="#185d7a"/></g><g transform="matrix(1, 0, 0, 1, 0, 0)" filter="url(#a)"><path d="M1284.064-568.367V-15.279c0,19.717-13.039,35.7-29.125,35.7H899.187c-16.084,0-29.123-15.984-29.123-35.7V-568.367" transform="translate(-870.06 596.37)" fill="#fff"/></g><rect width="414" height="69" transform="translate(2 1)" fill="#fff"/><line x2="414" transform="translate(0.5 579.5)" fill="none" stroke="#dcdcdc" stroke-width="0.5"/><line x2="414" transform="translate(0.5 199.5)" fill="none" stroke="#dcdcdc" stroke-width="0.5"/></g></svg>