<svg xmlns="http://www.w3.org/2000/svg" width="26.819" height="25" viewBox="0 0 26.819 25"><g transform="translate(-3.036 -5)"><g transform="translate(3.036 5)"><path d="M5.351,5A2.315,2.315,0,0,1,7.666,7.315V9.63H5.351a2.315,2.315,0,1,1,0-4.63Z" transform="translate(-3.036 -5)" fill="#f68820"/></g><g transform="translate(5.351 5)"><path d="M25.166,27.685V24.213a.926.926,0,0,0-.926-.926.926.926,0,0,0,.926-.926V9.4a.926.926,0,0,0-.926-.926.926.926,0,0,0,.926-.926V7.315A2.315,2.315,0,0,0,22.851,5H8.036a2.315,2.315,0,0,1,2.315,2.315v4.861a.926.926,0,0,0,.926.926.926.926,0,0,0-.926.926V27.685A2.315,2.315,0,0,0,12.666,30H27.48A2.315,2.315,0,0,1,25.166,27.685Z" transform="translate(-8.036 -5)" fill="#fbbe18"/></g><g transform="translate(10.443 8.472)"><g transform="translate(2.778)"><path d="M25.5,13.426h5.556a.463.463,0,0,0,0-.926H25.5a.463.463,0,0,0,0,.926Z" transform="translate(-25.036 -12.5)" fill="#f68820"/></g><g transform="translate(0 2.315)"><path d="M19.5,18.426h8.333a.463.463,0,1,0,0-.926H19.5a.463.463,0,0,0,0,.926Z" transform="translate(-19.036 -17.5)" fill="#f68820"/></g><g transform="translate(0 4.63)"><path d="M19.5,23.426h8.333a.463.463,0,1,0,0-.926H19.5a.463.463,0,0,0,0,.926Z" transform="translate(-19.036 -22.5)" fill="#f68820"/></g><g transform="translate(0 6.944)"><path d="M19.5,28.426h8.333a.463.463,0,1,0,0-.926H19.5a.463.463,0,0,0,0,.926Z" transform="translate(-19.036 -27.5)" fill="#f68820"/></g><g transform="translate(0 9.259)"><path d="M19.5,33.426h8.333a.463.463,0,1,0,0-.926H19.5a.463.463,0,0,0,0,.926Z" transform="translate(-19.036 -32.5)" fill="#f68820"/></g><g transform="translate(0 11.574)"><path d="M19.5,38.426h8.333a.463.463,0,1,0,0-.926H19.5a.463.463,0,0,0,0,.926Z" transform="translate(-19.036 -37.5)" fill="#f68820"/></g><g transform="translate(0 13.889)"><path d="M19.5,43.426h3.935a.463.463,0,0,0,0-.926H19.5a.463.463,0,0,0,0,.926Z" transform="translate(-19.036 -42.5)" fill="#f68820"/></g></g><g transform="translate(8.823 25.37)"><path d="M16.693,49a1.157,1.157,0,0,0,0,2.315h3.472V49Z" transform="translate(-15.536 -49)" fill="#bf6b1e"/></g><g transform="translate(9.98 25.37)"><path d="M18.036,49a2.315,2.315,0,1,1,0,4.63H32.851a2.315,2.315,0,1,0,0-4.63Z" transform="translate(-18.036 -49)" fill="#f68820"/></g><g transform="translate(15.767 8.968)"><g transform="translate(2.083)"><path d="M35.036,25.575h2.745a2.317,2.317,0,0,0,1.637-.678l6.944-6.944a2.314,2.314,0,0,0,0-3.274l-.43-.43a2.314,2.314,0,0,0-3.274,0l-6.944,6.944a2.314,2.314,0,0,0-.678,1.637v2.744Z" transform="translate(-35.036 -13.571)" fill="#b3b4b6"/></g><g transform="translate(2.083 0.893)"><path d="M35.036,26.611h2.745a2.317,2.317,0,0,0,1.637-.678l6.944-6.944a2.314,2.314,0,0,0,0-3.274l-.215-.215Z" transform="translate(-35.036 -15.5)" fill="gray"/></g><g transform="translate(8.102 0)"><path d="M48.036,19.557v-3.7l1.6-1.6a2.314,2.314,0,0,1,3.274,0l.43.43a2.314,2.314,0,0,1,0,3.274l-1.6,1.6Z" transform="translate(-48.036 -13.571)" fill="#55525b"/></g><g transform="translate(8.102 0.893)"><path d="M48.036,20.593,53.129,15.5l.215.215a2.314,2.314,0,0,1,0,3.274l-1.6,1.6Z" transform="translate(-48.036 -15.5)" fill="#353744"/></g><g transform="translate(0 0.662)"><path d="M30.767,28.426a.231.231,0,0,1-.164-.395L43.566,15.068a.231.231,0,0,1,.327.327L30.931,28.359A.231.231,0,0,1,30.767,28.426Z" transform="translate(-30.536 -15.001)" fill="#dbdee3"/></g></g></g></svg>