<svg xmlns="http://www.w3.org/2000/svg" viewBox="0 0 1024 241.69">
  <defs>
    <style>.cls-18sdf,.cls-234534jhj{fill:#1a2c56;}.cls-234534jhj{fill-rule:evenodd;}</style>
  </defs>
  <g id="Layer_2" data-name="Layer 2">
    <g id="Layer_1-2" data-name="Layer 1">
      <path class="cls-18sdf" d="M405,230.71A110.24,110.24,0,1,1,515.21,120.47,110.37,110.37,0,0,1,405,230.71Zm0-217.66A107.42,107.42,0,1,0,512.38,120.47,107.54,107.54,0,0,0,405,13.05Z" />
      <path class="cls-18sdf" d="M414.45,217.23a93.46,93.46,0,1,1,93.46-93.46A93.56,93.56,0,0,1,414.45,217.23Zm0-184.1a90.64,90.64,0,1,0,90.63,90.64A90.74,90.74,0,0,0,414.45,33.13Z" />
      <path class="cls-18sdf" d="M408.49,199.23a83,83,0,1,1,83-83A83.1,83.1,0,0,1,408.49,199.23Zm0-163.18a80.18,80.18,0,1,0,80.18,80.18A80.27,80.27,0,0,0,408.49,36.05Z" />
      <path class="cls-18sdf" d="M414.64,220.48A110.24,110.24,0,1,1,524.88,110.24,110.36,110.36,0,0,1,414.64,220.48Zm0-217.65A107.42,107.42,0,1,0,522.05,110.24,107.53,107.53,0,0,0,414.64,2.83Z" />
      <path class="cls-18sdf" d="M414.64,241.69A117.92,117.92,0,1,1,532.56,123.77,118.06,118.06,0,0,1,414.64,241.69Zm0-233A115.1,115.1,0,1,0,529.73,123.77,115.22,115.22,0,0,0,414.64,8.68Z" />
      <circle class="cls-18sdf" cx="510.52" cy="192.05" r="8.48" />
      <circle class="cls-18sdf" cx="335.39" cy="37.82" r="8.48" />
      <circle class="cls-18sdf" cx="352.81" cy="215.82" r="8.48" />
      <circle class="cls-18sdf" cx="523.47" cy="96.43" r="8.48" />
      <circle class="cls-18sdf" cx="490.08" cy="115.42" r="8.48" />
      <circle class="cls-18sdf" cx="409.17" cy="31.72" r="8.48" transform="translate(312.32 430.53) rotate(-80.78)" />
      <circle class="cls-18sdf" cx="352.81" cy="175.84" r="8.48" transform="translate(-40.43 148.4) rotate(-22.5)" />
      <circle class="cls-18sdf" cx="312.54" cy="66.05" r="8.48" />
      <path class="cls-18sdf" d="M408.45,26.47a91.45,91.45,0,1,0,91.44,91.45A91.45,91.45,0,0,0,408.45,26.47Zm-68.36,80.39-7.83-1.78c2.72-4,5.28-7.65,7.84-11.35l5.85.2c2.64,1.21,5.43,1,8.22.88,1.93.53,3.83,1.29,5.9.87l1.52,1.56c-3,3.59-3.57,8.7-7.41,11.75-2.59-1.41-5.42-1.09-8.2-1.17C344.15,106.69,342.13,106.7,340.09,106.86Zm35.45,11.54c-1.79,4.64-4.05,9.11-5,14.06-1.6,2-2.07,4.49-2.72,6.88a.88.88,0,0,0-.74.58l-6.65-.86-.13.09-1.43-.55-12.84-2.84c.32-1.1.64-2.2,1-3.3L356.79,113l3.28-.66,3.4.37c1.56,1.12,4.26.08,4.74.58C370.37,115.52,376.62,112,375.54,118.4Zm-8.49-24.55q1.92-4.53,3.82-9l3.27-5.18,3.41.1c3.45,1.47,7.09.79,10.66,1l1,1.07q-2.86,7.13-5.74,14.23l-2.26-.07Zm28.19,21c-2.22-1.22-4.64-1.1-7.05-1l-5.88-1.24-.3-1.21c4.57-12.07,4.57-12.07,16.41-11.57l1.36.36,2.49.3a10.89,10.89,0,0,0,1.14.21c9.77.93,9.77.93,9.39,10.71-.58,4.53-3.07,5.74-7.39,4.75A98.09,98.09,0,0,0,395.24,114.82Zm52.88,51.92-3.61,1-7,.39-7.08-.27-12.54-3.91q-3.18-2.07-6.34-4.16l-2.05-1.83-3.64-6.81c.05-1.5.09-3,.14-4.51,2.07-3.89,4.34-7.57,9.25-8.3-2.42,5.9-1.51,11,4,14.64,3.36,2.24,6.88,4.3,11.15,4.3a21.43,21.43,0,0,0,13.06.31c8.24-2.09,10.62-5.27,10.46-13.35,2.21-.4,2.89,1.89,4.48,2.57l-.09.11C462.51,157.15,460.33,161.39,448.12,166.74Zm18.26-76.67-1.87,1.36c-4.93,2.06-10.87,3.07-10.67,10.4q-1.45,4.67-2.9,9.34c-1.55,4.7-3.43,9.3-4.11,14.25a17.58,17.58,0,0,0-2.18,7.06,60.24,60.24,0,0,0-4,13.81l.19,0-.75,1.34c-.88.85-1.75,1.71-2.61,2.57l-7-.2c-2.78-1.31-3.83-3.4-3.57-6.54.31-3.64.15-7.33.19-11l-.21-21.12c0-2.35,0-4.71-.05-7.06s0-4.68-.05-7c.83-4.13,0-7.21-4.06-9.63a14,14,0,0,1-6.77-11.54c1.19-8.4,8-10.54,14.51-13a17.53,17.53,0,0,0,7-.92h3.32l1.12.19,2.56.28,2.47.35c5.89,1.36,11.61,3.16,16.51,6.85C471.63,76,472.47,82,466.38,90.07Z" />
      <path class="cls-234534jhj" d="M38.89,90.85H0V80.18A21.54,21.54,0,0,1,21.5,58.69h132V69.11a21.78,21.78,0,0,1-21.74,21.74Zm46.68,18.41h40v6A21.78,21.78,0,0,1,103.84,137H38.89v19.88h92.9a21.77,21.77,0,0,1,21.73,21.74V189H21.5A21.54,21.54,0,0,1,0,167.53V131a21.74,21.74,0,0,1,21.7-21.69Z" />
      <path class="cls-234534jhj" d="M574.43,90.85h-38.9V80.18A21.54,21.54,0,0,1,557,58.69h132V69.11a21.78,21.78,0,0,1-21.74,21.74Zm0,18.41h86.69v6A21.79,21.79,0,0,1,639.37,137H574.43V189h-38.9V131a21.74,21.74,0,0,1,21.71-21.69Z" />
      <path class="cls-234534jhj" d="M721,189a21.54,21.54,0,0,1-21.5-21.49V58.69h17.16a21.77,21.77,0,0,1,21.74,21.74v76.42h83.86V80.43A21.78,21.78,0,0,1,844,58.69h17.17V167.53A21.55,21.55,0,0,1,839.68,189Z" />
      <path class="cls-234534jhj" d="M1024,189H985.09l-70.5-74v52.23A21.78,21.78,0,0,1,892.86,189H875.68V58.69h38.91l70.5,74V80.42a21.78,21.78,0,0,1,21.75-21.73H1024Z" />
      <path class="cls-234534jhj" d="M197,80.42a21.77,21.77,0,0,0-21.73-21.73H158.06V168.44A20.62,20.62,0,0,0,178.65,189H306.37V178.59a21.77,21.77,0,0,0-21.73-21.74H197Z" />
    </g>
  </g>
</svg>