<svg width="156" height="23" viewBox="0 0 156 23" fill="none" xmlns="http://www.w3.org/2000/svg">
<path d="M115.139 16.9217C115.502 17.2606 115.463 17.6569 115.271 17.9083C115.109 18.1242 114.755 18.3073 114.31 18.0531C114.225 18.146 114.14 18.2417 114.052 18.3373C112.713 19.7721 111.077 20.6876 109.152 21.092C108.224 21.2861 107.288 21.3462 106.344 21.2806C104.952 21.1795 103.676 20.7231 102.515 19.9524C102.457 19.9142 102.407 19.9005 102.333 19.9196C101.878 20.0344 101.441 19.6901 101.447 19.22C101.447 19.1545 101.43 19.1107 101.381 19.067C100.909 18.6407 100.505 18.1515 100.088 17.6705C99.1133 16.5391 98.5011 15.2274 98.0783 13.8145C97.8889 13.1859 97.7297 12.5519 97.6446 11.8988C97.5375 11.0571 97.6089 10.229 97.8285 9.40917C97.985 8.82434 98.1799 8.25591 98.427 7.70388C98.4517 7.64649 98.4517 7.61096 98.4105 7.5563C98.2101 7.30215 98.1717 7.01793 98.3254 6.73372C98.4764 6.4495 98.7289 6.32379 99.0501 6.35112C99.1105 6.35659 99.1435 6.34019 99.1791 6.291C99.4591 5.90294 99.7446 5.51761 100.025 5.12954C100.049 5.09675 100.063 5.03936 100.055 4.99837C99.9203 4.42721 100.395 3.95443 100.972 4.08834C101.007 4.09653 101.062 4.08013 101.093 4.05554C102.152 3.15917 103.357 2.55521 104.711 2.24094C105.564 2.04417 106.432 1.97858 107.305 2.00591C108.488 2.04144 109.63 2.26827 110.72 2.73831C112.202 3.38053 113.383 4.39168 114.313 5.69524C114.999 6.6572 115.499 7.71208 115.859 8.83254C115.886 8.91452 115.916 8.95551 116.012 8.97738C116.323 9.04843 116.526 9.24793 116.597 9.55674C116.668 9.86828 116.567 10.1306 116.306 10.3192C116.235 10.3711 116.257 10.423 116.268 10.4804C116.397 11.1964 116.468 11.9179 116.46 12.6448C116.449 13.6697 116.221 14.6535 115.812 15.5881C115.62 16.0281 115.376 16.4462 115.156 16.8725C115.159 16.8917 115.148 16.9081 115.139 16.9217ZM98.9486 7.84325C98.7674 8.42534 98.6795 9.01564 98.6631 9.61139C98.6329 10.6335 98.7262 11.6474 98.9595 12.6448C99.2862 14.055 99.8599 15.3531 100.793 16.4735C102.204 18.1706 104.03 19.0725 106.234 19.2036C106.984 19.2474 107.73 19.2036 108.474 19.0916C109.397 18.9522 110.283 18.7035 111.123 18.2963C112.408 17.6705 113.421 16.7578 114.099 15.4952C114.607 14.5469 114.859 13.5248 114.939 12.459C114.999 11.6774 114.977 10.8958 114.843 10.1197C114.684 9.18234 114.379 8.29417 113.907 7.46885C112.985 5.85648 111.65 4.68956 109.965 3.91343C109.177 3.54997 108.353 3.30948 107.489 3.24115C106.66 3.1783 105.833 3.21109 105.01 3.33407C104.087 3.47071 103.198 3.71394 102.355 4.1102C102.067 4.24684 101.787 4.40534 101.504 4.55018C101.559 4.73328 101.567 4.89452 101.515 5.05576C101.373 5.48755 100.889 5.68431 100.472 5.48481C100.431 5.46568 100.398 5.43562 100.351 5.48208C100.033 5.80729 99.7529 6.16256 99.5195 6.55062C99.7446 6.80204 99.827 7.08352 99.6897 7.39506C99.5525 7.70934 99.2944 7.84871 98.9486 7.84325ZM115.817 10.4613C115.817 10.4886 115.817 10.5105 115.817 10.5324C115.837 10.874 115.861 11.2183 115.875 11.5599C115.903 12.2021 115.839 12.8361 115.664 13.4592C115.343 14.5988 114.744 15.5881 113.956 16.4626C112.482 18.0996 110.684 19.2501 108.603 19.9688C108.01 20.1738 107.401 20.3268 106.769 20.3296C105.855 20.335 104.949 20.2394 104.066 20.0071C103.629 19.8923 103.201 19.742 102.759 19.6026C102.751 19.6136 102.731 19.6436 102.709 19.671C102.687 19.6983 102.663 19.7256 102.638 19.7529C102.652 19.7639 102.66 19.7721 102.671 19.7803C103.794 20.5154 105.024 20.9445 106.366 21.0456C107.242 21.1112 108.115 21.0538 108.977 20.8843C110.695 20.5482 112.199 19.7857 113.47 18.5806C113.704 18.3592 113.921 18.1187 114.146 17.8892C114.044 17.7388 113.995 17.594 114.003 17.4355C114.028 17.0037 114.409 16.7086 114.837 16.796C114.912 16.8124 114.939 16.7906 114.969 16.7359C115.175 16.3369 115.403 15.9488 115.581 15.5389C116.023 14.5305 116.259 13.4729 116.227 12.3688C116.216 11.978 116.18 11.5845 116.144 11.1937C116.119 10.945 116.073 10.6991 116.034 10.4504C116.007 10.4476 115.99 10.4476 115.974 10.4476C115.925 10.4531 115.872 10.4586 115.817 10.4613ZM98.7125 7.78313C98.7015 7.78039 98.6933 7.77493 98.6823 7.7722C98.6603 7.81319 98.6384 7.85145 98.6191 7.89244C98.254 8.75328 98.0619 9.65512 97.9987 10.587C97.9246 11.6829 98.0289 12.7624 98.3391 13.8172C98.6274 14.7956 99.0776 15.7056 99.6156 16.5719C99.9752 17.1513 100.357 17.717 100.892 18.157C101.139 18.3592 101.392 18.556 101.639 18.7527C101.922 18.5259 102.21 18.4849 102.504 18.6598C102.773 18.8183 102.874 19.067 102.847 19.3785C102.866 19.3895 102.891 19.4031 102.913 19.4113C103.302 19.5398 103.687 19.6792 104.082 19.7885C104.702 19.9579 105.342 20.0317 105.984 20.0809C106.599 20.1273 107.209 20.1082 107.81 19.9634C108.82 19.7202 109.764 19.313 110.668 18.8047C110.684 18.7965 110.698 18.7801 110.714 18.7691C110.593 18.7965 110.484 18.8402 110.374 18.8784C109.457 19.2009 108.51 19.3785 107.541 19.4359C106.764 19.4824 105.99 19.4742 105.224 19.3321C103.516 19.0096 102.078 18.198 100.911 16.919C99.8297 15.7329 99.149 14.3365 98.7619 12.7924C98.5725 12.0382 98.4709 11.273 98.4352 10.4968C98.3968 9.68518 98.4352 8.88173 98.6383 8.09194C98.6631 7.98262 98.6878 7.88424 98.7125 7.78313ZM114.294 15.6756C114.297 15.6783 114.297 15.681 114.299 15.6838C114.363 15.5936 114.428 15.5089 114.486 15.4159C114.656 15.129 114.84 14.8502 114.988 14.5524C115.395 13.7544 115.636 12.9072 115.636 12.0081C115.636 11.4916 115.598 10.9723 115.57 10.4558C115.568 10.423 115.532 10.3821 115.502 10.3629C115.065 10.0978 114.98 9.56494 115.312 9.18234C115.337 9.15501 115.354 9.09762 115.343 9.0621C115.277 8.79974 115.214 8.53739 115.134 8.2805C114.796 7.18464 114.277 6.18989 113.503 5.33451C112.543 4.27417 111.343 3.60736 109.976 3.22476C109.037 2.96241 108.076 2.84763 107.102 2.82303C106.083 2.79844 105.076 2.87222 104.082 3.10724C103.132 3.33407 102.245 3.703 101.447 4.2687C101.416 4.29056 101.389 4.31243 101.362 4.33429C101.367 4.34249 101.373 4.35342 101.381 4.36162C101.411 4.34522 101.441 4.33156 101.471 4.31516C101.765 4.16212 102.051 3.99542 102.353 3.85877C103.703 3.25482 105.125 2.99793 106.599 2.98427C107.277 2.9788 107.95 3.02526 108.609 3.19743C110.464 3.68114 112.013 4.65403 113.245 6.11336C114.475 7.56996 115.093 9.26979 115.192 11.1636C115.222 11.7184 115.203 12.2704 115.139 12.8252C115.063 13.5084 114.917 14.178 114.667 14.8202C114.557 15.1071 114.42 15.3886 114.294 15.6756ZM112.499 4.11566C112.504 4.1102 112.507 4.102 112.512 4.09653C111.011 2.88042 109.273 2.30926 107.357 2.2382C105.608 2.17262 103.95 2.50876 102.432 3.40513C102.443 3.41059 102.451 3.40786 102.46 3.40513C103.602 2.88589 104.812 2.6536 106.058 2.59347C107.17 2.54155 108.277 2.60167 109.372 2.8285C110.475 3.05532 111.51 3.44612 112.446 4.08287C112.46 4.0938 112.479 4.10473 112.499 4.11566ZM115.381 8.14113C115.373 8.14386 115.365 8.14659 115.356 8.14659C115.433 8.43081 115.51 8.71502 115.587 9.00197C115.612 8.99377 115.636 8.98284 115.672 8.96918C115.573 8.69043 115.477 8.41441 115.381 8.14113Z" fill="white"/>
<path d="M106.824 18.9549C105.49 19.0178 104.175 18.5341 102.983 17.6896C102.226 17.1513 101.52 16.5501 100.949 15.8122C100.241 14.8994 99.7688 13.8801 99.5327 12.7514C99.3982 12.1037 99.3543 11.4506 99.401 10.7947C99.5163 9.20966 100.087 7.80498 101.141 6.60527C102.154 5.45201 103.417 4.70595 104.916 4.35888C105.229 4.28783 105.553 4.25777 105.874 4.21131C105.932 4.20311 105.967 4.18671 105.995 4.13205C106.236 3.65381 106.84 3.56363 107.222 3.94622C107.263 3.98722 107.323 4.02274 107.378 4.03094C109.064 4.33702 110.631 4.92185 111.985 5.99312C113.33 7.05892 114.156 8.44173 114.483 10.1197C114.648 10.9723 114.675 11.8277 114.601 12.6913C114.521 13.6123 114.313 14.4977 113.898 15.3312C113.286 16.5555 112.336 17.4382 111.112 18.0394C110.31 18.433 109.459 18.6735 108.581 18.8128C108.048 18.8976 107.516 18.9467 106.824 18.9549ZM108.073 12.7323C108.067 12.7323 108.059 12.7323 108.054 12.7323C108.054 12.94 108.043 13.1477 108.059 13.3554C108.07 13.4975 108.109 13.6369 108.155 13.7735C108.235 14.0031 108.438 14.0468 108.652 14.0604C108.817 14.0714 108.921 13.9757 108.998 13.8527C109.08 13.7188 109.154 13.5795 109.209 13.4319C109.445 12.8061 109.531 12.1475 109.671 11.4998C109.769 11.0434 109.876 10.5897 109.986 10.1361C110.082 9.73436 110.307 9.45288 110.73 9.3381C110.9 9.29165 111.068 9.20146 111.216 9.10308C111.567 8.87625 111.65 8.4554 111.416 8.11106C111.334 7.99082 111.23 7.87877 111.117 7.78312C110.73 7.45518 110.274 7.25022 109.789 7.10538C109.506 7.02066 109.215 6.95234 108.921 6.9906C108.345 7.06985 107.87 7.35134 107.48 7.76946C107.384 7.87331 107.301 8.00448 107.26 8.13566C107.2 8.33242 107.312 8.50459 107.442 8.64123C107.642 8.85986 107.859 9.06755 108.076 9.26978C108.166 9.3545 108.21 9.45288 108.207 9.56493C108.199 9.95299 108.188 10.3411 108.163 10.7291C108.142 11.0762 108.089 11.4233 108.073 11.7703C108.059 12.0928 108.073 12.4125 108.073 12.7323ZM105.589 18.5942C105.589 18.6051 105.586 18.6133 105.586 18.6243C105.863 18.6543 106.143 18.7008 106.42 18.7117C107.024 18.7363 107.625 18.7117 108.227 18.6379C109.014 18.5423 109.786 18.3701 110.522 18.075C112.333 17.3508 113.552 16.0827 114.09 14.1998C114.425 13.0329 114.477 11.8414 114.326 10.6417C114.228 9.84095 114.002 9.07575 113.635 8.35429C112.946 7.00973 111.88 6.04504 110.56 5.33997C110.544 5.33177 110.527 5.3263 110.511 5.32084C110.522 5.34543 110.538 5.3591 110.557 5.37003C111.249 5.81821 111.853 6.36478 112.364 7.00973C113.33 8.2313 113.865 9.61959 113.956 11.1718C113.997 11.8796 113.945 12.5874 113.764 13.2789C113.11 15.7384 111.581 17.4109 109.19 18.2963C108.575 18.5232 107.933 18.6379 107.277 18.6789C106.824 18.7063 106.376 18.6926 105.929 18.6379C105.816 18.6215 105.704 18.6079 105.589 18.5942ZM108.918 14.6644C108.798 14.6535 108.674 14.6453 108.553 14.6316C108.111 14.5797 107.713 14.4157 107.356 14.1534C107.159 14.0085 107.041 13.8172 107.057 13.5631C107.065 13.4483 107.082 13.3335 107.085 13.2187C107.085 13.1695 107.076 13.1067 107.046 13.0766C107.024 13.0575 106.95 13.0739 106.912 13.0958C106.802 13.1641 106.687 13.2297 106.601 13.3198C106.321 13.6123 106.289 13.8664 106.494 14.1971C106.643 14.4376 106.835 14.6343 107.057 14.8038C107.785 15.3585 108.603 15.5635 109.506 15.4187C109.835 15.364 110.14 15.2383 110.384 15.0005C110.799 14.5961 110.835 14.1588 110.513 13.7106C110.483 13.6696 110.439 13.6341 110.395 13.6095C110.343 13.5795 110.296 13.5986 110.285 13.6614C110.274 13.7161 110.269 13.7708 110.264 13.8282C110.236 14.1452 110.104 14.3993 109.756 14.5196C109.484 14.6125 109.204 14.6589 108.918 14.6644ZM103.294 12.9673C103.497 12.3715 103.7 11.7758 103.906 11.1691C103.467 11.1172 103.041 11.0653 102.613 11.0161C102.338 11.549 102.067 12.0737 101.795 12.6038C102.053 12.6667 102.297 12.7296 102.541 12.7897C102.788 12.8443 103.038 12.9045 103.294 12.9673ZM104.562 10.8412C104.592 10.8521 104.614 10.863 104.633 10.8658C105.105 10.9587 105.58 11.0516 106.052 11.139C106.236 11.1746 106.412 11.2265 106.599 11.1062C106.931 10.8904 107.008 10.5979 106.783 10.2727C106.763 10.2427 106.72 10.2181 106.684 10.2153C106.478 10.1907 106.272 10.1689 106.063 10.1498C105.748 10.1224 105.432 10.0978 105.116 10.0732C105.092 10.0705 105.053 10.0814 105.042 10.1006C104.883 10.3438 104.724 10.5897 104.562 10.8412ZM102.909 9.5622C102.379 9.54853 101.866 9.53214 101.353 9.52394C101.317 9.52394 101.273 9.55127 101.248 9.57859C101.155 9.68244 101.067 9.78902 100.979 9.8956C100.878 10.0186 100.776 10.1416 100.664 10.2782C100.793 10.2919 100.9 10.3001 101.007 10.311C101.246 10.3356 101.485 10.3602 101.726 10.3848C101.948 10.4066 102.174 10.4312 102.396 10.4476C102.426 10.4504 102.473 10.4312 102.484 10.4094C102.624 10.1361 102.761 9.85734 102.909 9.5622ZM103.45 9.51027C103.878 9.51027 104.287 9.51027 104.707 9.51027C104.82 9.1878 104.932 8.85439 105.059 8.49093C104.68 8.49093 104.32 8.49093 103.958 8.49366C103.933 8.49366 103.9 8.52918 103.887 8.55651C103.804 8.72868 103.727 8.90085 103.648 9.07575C103.587 9.21513 103.521 9.3545 103.45 9.51027Z" fill="white"/>
<path d="M75.0599 7.05182L86.0433 7.05455L86.0734 8.63687C86.0844 9.23536 85.6095 9.7218 85.0138 9.7218L74.0305 9.71907L74.0003 8.13675C73.9866 7.53826 74.4615 7.05182 75.0599 7.05182Z" fill="white"/>
<path d="M84.1844 15.0615L77.1431 15.0587L77.1101 13.3589L82.2298 13.3616C83.2098 13.3616 83.9895 12.5637 83.9702 11.5826L83.962 11.1344L75.7952 11.1317C74.8344 11.1317 74.0712 11.9132 74.0904 12.8752L74.1426 15.4987C74.1646 16.6001 75.0705 17.4937 76.1685 17.4937L86.2487 17.4964L86.2405 17.0865C86.2185 15.966 85.2961 15.0615 84.1844 15.0615Z" fill="white"/>
<path d="M96.9056 14.9463L89.7325 14.9435L89.6172 8.96135C89.598 7.90921 88.7306 7.05657 87.6819 7.05383H86.5729L86.7403 15.5857C86.7595 16.5176 87.4513 17.3129 88.371 17.4605C88.629 17.5561 88.9008 17.6053 89.1753 17.608L98.4374 17.6108L98.4155 16.422C98.3935 15.6103 97.7209 14.9463 96.9056 14.9463Z" fill="white"/>
<path d="M141.722 7.07425C140.674 7.07425 139.839 7.9269 139.861 8.97904L139.976 14.9612L133.402 14.9585L133.287 8.9763C133.267 7.92416 132.4 7.07152 131.351 7.06879H130.242L130.41 15.6007C130.429 16.5326 131.121 17.3278 132.04 17.4754C132.298 17.5711 132.57 17.6202 132.845 17.623L140.646 17.6257C140.921 17.623 141.19 17.5738 141.445 17.4781C142.359 17.3306 143.021 16.5353 143.004 15.6034L142.837 7.07152L141.722 7.07425Z" fill="white"/>
<path d="M118.429 7.06812L129.692 7.07085L129.722 8.6395C129.733 9.2462 129.256 9.73811 128.649 9.73811L117.386 9.73538L117.356 8.16672C117.345 7.56003 117.825 7.06812 118.429 7.06812Z" fill="white"/>
<path d="M120.422 11.1428H119.151C118.19 11.1428 117.427 11.9244 117.446 12.8864L117.537 17.5185H120.545L120.488 14.4988L120.466 13.3701L125.586 13.3728C126.566 13.3728 127.345 12.5776 127.326 11.5937L127.318 11.1456L120.422 11.1428Z" fill="white"/>
<path d="M155.797 7.15192L156 17.5148H152.873L147.301 11.7267L147.383 15.9352C147.399 16.807 146.708 17.5148 145.838 17.5148H145.835H144.259L144.056 7.15192H147.21L152.64 12.8991L152.558 8.7151C152.582 7.84059 153.288 7.15192 154.161 7.15465L155.797 7.15192Z" fill="white"/>
<path d="M18.4957 17.5555C16.3549 18.8091 13.8091 18.134 12.4783 16.1475C11.9962 15.4147 11.8612 14.8554 11.7262 13.8525L11.5912 12.7724C11.5719 12.5603 11.5333 12.3288 11.514 12.0781C11.4176 10.9016 11.2826 9.8216 11.2054 9.33944C11.2054 9.33944 11.9576 6.75506 12.8448 6.6972C13.2305 7.12151 13.462 7.71938 13.5584 8.51013C13.6741 9.41659 13.7898 11.2295 13.9055 12.9653C13.9634 13.5246 14.002 14.0839 14.0984 14.3539C14.4263 15.1254 14.9856 15.7425 15.8149 15.839C16.8371 15.974 17.7821 15.4918 18.245 14.6046C18.4571 14.1996 18.4378 13.4282 18.4571 13.351C18.4957 13.3317 18.7657 14.8554 18.4957 17.5555Z" fill="white"/>
<path d="M20.81 18.0954C20.7715 20.1591 19.7107 21.6634 17.8206 22.4735C16.432 23.0713 15.1205 22.9942 13.9055 22.3963C13.0376 21.8756 13.0569 20.8148 13.5391 20.5062C13.5776 20.487 13.6162 20.4677 13.6548 20.4484C14.2719 20.1591 14.7348 20.2941 15.2555 20.4291C15.5641 20.5255 15.8534 20.5641 16.1427 20.5641C16.6442 20.5448 17.0877 20.352 17.4735 20.0627C17.6856 19.8891 17.8592 19.6962 17.9942 19.5034C18.0135 19.4841 18.0135 19.4648 18.0328 19.4648C18.0714 19.4069 18.1099 19.3683 18.1292 19.3105C18.3414 18.944 18.4378 18.5583 18.4764 18.2112C18.4764 17.999 18.4957 17.7869 18.4957 17.5747C18.7657 14.8746 18.4957 13.351 18.4957 13.351C18.4957 12.7531 18.4957 12.1745 18.5149 11.5766C18.5342 10.4195 19.4021 9.45513 20.54 9.32013C20.7522 9.28156 20.8293 9.30084 20.8293 9.55157C20.81 12.3867 20.8679 15.2411 20.81 18.0954Z" fill="white"/>
<path d="M7.9074 18.1534C7.83026 18.1534 7.29024 18.1726 7.29024 18.1726C6.49949 18.1726 5.78589 17.5362 5.34231 16.2247L3.58724 11.0752C3.37509 10.4581 3.0858 9.7252 2.91222 9.28161C2.91222 9.28161 2.73864 7.75799 3.14366 7.33369C3.45224 7.00582 3.89583 6.77438 4.24298 7.00582C4.24298 7.00582 4.24298 7.00582 4.26227 7.00582C4.3587 7.10225 4.43585 7.19868 4.51299 7.3144C4.51299 7.3144 4.783 7.77727 4.86015 8.00871C4.86015 8.00871 8.35099 16.4754 8.0424 17.9798C8.00383 18.0569 7.98455 18.1534 7.9074 18.1534Z" fill="white"/>
<path d="M4.35872 7.16005C4.14657 6.92861 4.03086 6.9479 3.95371 6.9479C3.20154 7.06362 2.91224 9.28156 2.91224 9.28156C2.58437 11.0173 2.37223 15.9161 2.37223 18.1533H1.52362C0.617164 18.1533 0 17.5554 0 16.5332C0 13.8139 0.540015 8.3751 0.983602 5.96429H1.50434C2.68081 5.96429 3.76084 6.40788 4.35872 7.16005Z" fill="white"/>
<path d="M13.1726 7.10219C12.4011 6.40788 11.2247 9.30084 11.2247 9.30084C11.0704 9.68657 10.8389 10.188 10.6653 10.7473L8.96815 15.9739C8.67885 16.8418 8.11954 18.1726 7.92668 18.1533C6.6152 18.5776 5.74731 17.1504 5.74731 17.0733C6.09447 17.2854 6.38377 16.8418 6.65378 16.2439C7.00093 15.4725 7.40595 14.5467 7.59881 13.8717L9.00672 9.55157C9.54674 7.89293 10.1832 6.75504 10.6846 6.19573C10.8196 6.04144 11.0125 5.96429 11.2054 5.96429C11.8611 5.96429 12.7483 6.29216 13.1726 7.10219Z" fill="white"/>
<path d="M33.6934 18.3269H32.5555C30.2411 18.3269 27.5989 17.4397 27.5989 15.3954V5.50145C28.2546 5.25072 31.0897 5 32.1312 5H33.5584C36.7021 5 40 7.02507 40 11.4224C39.9807 15.3954 37.2614 18.3269 33.6934 18.3269ZM33.1341 7.21794H32.5362C32.189 7.21794 31.4947 7.35294 31.4947 7.35294V14.9132C31.4947 15.6847 31.8612 16.0318 32.8641 16.0318H33.3269C35.5835 16.0318 37.1842 14.1803 37.1842 11.8081C37.1842 8.83799 35.487 7.21794 33.1341 7.21794Z" fill="white"/>
<path d="M26.0173 6.75506V6.71649C26.0173 5.65574 25.1109 5.01929 24.4166 5.01929H22.3915V6.8515V15.4532C22.3915 16.9961 23.8187 17.864 25.458 18.1919C25.7473 18.2498 26.0173 18.0183 26.0173 17.729V14.1418V6.75506Z" fill="white"/>
<path opacity="0.45" d="M4.43586 7.27582C4.41658 7.27582 4.26228 6.92866 3.87655 7.12153C3.54868 7.29511 3.16295 8.70301 3.20153 9.9952L2.93152 9.32018C2.93152 9.32018 3.08581 8.10513 3.45225 7.4494C3.8187 6.77437 4.18514 6.90938 4.43586 7.27582Z" fill="white"/>
<path opacity="0.45" d="M13.4427 7.73869C13.4234 7.73869 13.2498 7.06367 12.8255 7.14081C12.4591 7.19867 11.6876 8.76087 11.3405 9.97592L11.2247 9.32018C11.2247 9.32018 11.8419 7.83513 12.3819 7.31439C12.9412 6.81295 13.1727 7.00581 13.4427 7.73869Z" fill="white"/>
<path opacity="0.45" d="M7.13603 14.1611L7.30961 14.6625C7.30961 14.6625 6.76959 15.974 6.53815 16.4369C6.48029 16.5526 6.326 16.8612 6.34528 16.784C6.461 16.4562 7.13603 14.1611 7.13603 14.1611Z" fill="white"/>
<line x1="57.5" y1="2.18557e-08" x2="57.5" y2="23" stroke="#BE4800"/>
</svg>
