<svg xmlns="http://www.w3.org/2000/svg" xmlns:xlink="http://www.w3.org/1999/xlink" width="393" height="71" viewBox="0 0 393 71"><defs><clipPath id="a"><path d="M1271.009-2471.277c-10.529-.217-19.236,8.418-19.445,19.285s8.157,19.855,18.685,20.071,19.248-8.419,19.458-19.286S1281.551-2471.06,1271.009-2471.277Zm-7.46,11.666,3.006.062-.984,2.8-3.308-.067Zm-8.647,4.894,1.718-2.083,4.275.09-1.231,2.48Zm6.8,7.3-3.943-1,2.245-4.344,3.411.421Zm4.767-7.92s2.352.161,4.426.416c1.35,2-1.031,2.709-1.031,2.709l-4.79-.958Zm9.753,14.7c-3.9-.082-6.583-3.129-6.556-4.475a2.589,2.589,0,0,1,1.816-2.108c.609.373-.9,1.976,1.193,3.265a6.615,6.615,0,0,0,6,.649c1.608-.715.977-2.46,1.437-2.45s1.017,1.129,1,1.976S1280.128-2440.557,1276.227-2440.636Zm4-16.088c-.823.691-1.295,3.187-1.759,5.336s-1.265,7.292-2.876,6.9c-1.91.083-1.447-2.612-1.4-4.881s.914-7.3.384-7.908-2.318-1.956-2.3-3.075,2.687-3.4,4.92-3.354,6.4,2,6.358,4.108S1281.046-2457.419,1280.224-2456.723Z" transform="translate(-1251.56 2471.281)" fill="#fff"/></clipPath><clipPath id="b"><circle cx="1.966" cy="1.966" r="1.966" fill="#fff"/></clipPath><clipPath id="e"><circle cx="1.821" cy="1.821" r="1.821" fill="#fff"/></clipPath></defs><g transform="translate(-4 -322)"><rect width="393" height="71" rx="8" transform="translate(4 322)" fill="#185d7a"/><g transform="translate(159.065 331)"><g transform="translate(0 0)"><g transform="translate(0 14.292)"><path d="M5.807,0h26.03a0,0,0,0,1,0,0V1.208A5.807,5.807,0,0,1,26.03,7.015H0a0,0,0,0,1,0,0V5.807A5.807,5.807,0,0,1,5.807,0Z" transform="translate(0)" fill="#fff"/><path d="M1204.521-2440.583h-18.578v-4.473h13.51a4.682,4.682,0,0,0,4.682-4.683v-1.177h-21.545a4.588,4.588,0,0,0-4.588,4.588v6.9a5.242,5.242,0,0,0,5.242,5.242h26.6v-1.08A5.318,5.318,0,0,0,1204.521-2440.583Z" transform="translate(-1178.002 2461.63)" fill="#fff"/><path d="M1241.381-2441.953h-18.926v-15.727a5.01,5.01,0,0,0-5.011-5.011h-2.929v22.432a5,5,0,0,0,4.208,4.932,6.273,6.273,0,0,0,2.114.389h24.437v-3.123A3.892,3.892,0,0,0,1241.381-2441.953Z" transform="translate(-1180.354 2462.69)" fill="#fff"/><path d="M1371.444-2462.69a5.011,5.011,0,0,0-5.011,5.011v15.727h-17.345v-15.727a5.011,5.011,0,0,0-5.011-5.011h-2.929v22.432a5,5,0,0,0,4.208,4.932,6.274,6.274,0,0,0,2.113.389h20.583a6.285,6.285,0,0,0,2.114-.389,5,5,0,0,0,4.208-4.932v-22.432Z" transform="translate(-1188.458 2462.69)" fill="#fff"/><g transform="translate(117.652)"><path d="M5.877,0H32.608a0,0,0,0,1,0,0V1.138a5.877,5.877,0,0,1-5.877,5.877H0a0,0,0,0,1,0,0V5.877A5.877,5.877,0,0,1,5.877,0Z" fill="#fff"/><path d="M1311.663-2450.915h-3.353a4.587,4.587,0,0,0-4.586,4.588v12.179h7.941v-7.939h0v-2.968h13.51a4.683,4.683,0,0,0,4.683-4.683v-1.177Z" transform="translate(-1303.723 2461.63)" fill="#fff"/></g><path d="M1412.182-2462.478v27.246h-8.249l-14.407-15.218v11.063a4.157,4.157,0,0,1-4.167,4.154H1381.2v-27.246h8.322l14.033,15.108v-11a4.306,4.306,0,0,1,4.311-4.107Z" transform="translate(-1191.09 2462.67)" fill="#fff"/></g><g transform="translate(64.207 0)"><g transform="translate(9.252 5.149)"><path d="M1270.419-2431.279c-4.863-.1-9.517-2.677-13.835-7.658l.45-.415c4.2,4.846,8.709,7.355,13.4,7.45,6.166.127,20.544-1.448,20.879-18.759.369-19.06-19.454-20.657-19.654-20.661l.012-.623c.207,0,20.625,1.651,20.246,21.3C1291.558-2432.273,1275.372-2431.177,1270.419-2431.279Z" transform="translate(-1256.583 2471.945)" fill="#fff"/></g><g transform="translate(2.215 2.588)"><path d="M1269.554-2430.227c-12.279-.25-20.982-11.1-20.7-25.788a17.488,17.488,0,0,1,5.271-12.841c4.291-4.087,11.192-6.267,18.457-5.853,8.287.48,20.41,8.247,20.117,23.4C1292.393-2435.422,1280.541-2430,1269.554-2430.227Zm1.872-43.905c-6.688-.137-12.936,1.968-16.886,5.734a16.872,16.872,0,0,0-5.079,12.4c-.283,14.564,7.985,24.907,20.105,25.156,10.7.22,22.232-5.045,22.532-20.475.285-14.744-11.495-22.3-19.547-22.767Q1271.987-2474.122,1271.426-2474.132Z" transform="translate(-1248.85 2474.759)" fill="#fff"/></g><path d="M1270.007-2425.609c-15.835-.325-23.773-18.175-23.589-27.65.123-6.37,6.649-24.722,25.525-24.338,17.865.364,24.024,17.252,23.8,28.511C1295.552-2439.029,1286.5-2425.274,1270.007-2425.609Zm1.925-51.37c-18.421-.375-24.79,17.521-24.909,23.73-.181,9.263,7.559,26.7,23,27.02,16.1.328,24.933-13.069,25.125-22.867C1295.358-2460.109,1289.353-2476.624,1271.932-2476.979Z" transform="translate(-1246.415 2477.603)" fill="#fff"/><g transform="translate(0.376 1.533)"><path d="M1269.546-2428.014c-11.266-.23-18.553-5.8-21.66-16.569-2.92-10.117,1-18.407,2.271-19.613a6.4,6.4,0,0,0,.63-.993c1.724-3.014,6.3-11.018,20.817-10.721,20.146.41,22.855,15.9,22.676,25.1-.262,13.453-17.429,22.94-24.646,22.792h0Zm2.046-47.278c-14.161-.288-18.609,7.488-20.284,10.417a5.773,5.773,0,0,1-.74,1.134c-1.211,1.152-4.944,9.139-2.1,18.98,3.075,10.652,10.012,15.94,21.18,16.127h0c7.036.145,23.777-9.089,24.031-22.185C1293.85-2459.785,1291.213-2474.89,1271.592-2475.292Z" transform="translate(-1246.829 2475.917)" fill="#fff"/></g><g transform="translate(4.681 5.753)"><path d="M1271.009-2471.277c-10.529-.217-19.236,8.418-19.445,19.285s8.157,19.855,18.685,20.071,19.248-8.419,19.458-19.286S1281.551-2471.06,1271.009-2471.277Zm-7.46,11.666,3.006.062-.984,2.8-3.308-.067Zm-8.647,4.894,1.718-2.083,4.275.09-1.231,2.48Zm6.8,7.3-3.943-1,2.245-4.344,3.411.421Zm4.767-7.92s2.352.161,4.426.416c1.35,2-1.031,2.709-1.031,2.709l-4.79-.958Zm9.753,14.7c-3.9-.082-6.583-3.129-6.556-4.475a2.589,2.589,0,0,1,1.816-2.108c.609.373-.9,1.976,1.193,3.265a6.615,6.615,0,0,0,6,.649c1.608-.715.977-2.46,1.437-2.45s1.017,1.129,1,1.976S1280.128-2440.557,1276.227-2440.636Zm4-16.088c-.823.691-1.295,3.187-1.759,5.336s-1.265,7.292-2.876,6.9c-1.91.083-1.447-2.612-1.4-4.881s.914-7.3.384-7.908-2.318-1.956-2.3-3.075,2.687-3.4,4.92-3.354,6.4,2,6.358,4.108S1281.046-2457.419,1280.224-2456.723Z" transform="translate(-1251.56 2471.281)" fill="#fff"/><g clip-path="url(#a)"><path d="M0,0,19.608-.02V.1L0,.115Z" transform="translate(20.401 27.078) rotate(-88.858)" fill="#fff"/><path d="M0,0,19.608-.02V.448L0,.468Z" transform="translate(20.508 27.08) rotate(-88.858)" fill="#fff"/><path d="M0,0,19.608-.02V.448L0,.468Z" transform="translate(20.969 27.09) rotate(-88.858)" fill="#fff"/><path d="M0,0,19.608-.02V.448L0,.468Z" transform="translate(21.429 27.099) rotate(-88.858)" fill="#fff"/><path d="M0,0,19.608-.02V.448L0,.468Z" transform="translate(21.89 27.109) rotate(-88.858)" fill="#fff"/><path d="M0,0,19.608-.02V.448L0,.468Z" transform="translate(22.35 27.118) rotate(-88.858)" fill="#fff"/><path d="M0,0,19.608-.02V.448L0,.468Z" transform="translate(22.811 27.128) rotate(-88.858)" fill="#fff"/><path d="M0,0,19.608-.02V.448L0,.468Z" transform="translate(23.271 27.137) rotate(-88.858)" fill="#fff"/><path d="M0,0,19.608-.02V.448L0,.468Z" transform="translate(23.731 27.147) rotate(-88.858)" fill="#fff"/><path d="M0,0,19.608-.02V.448L0,.468Z" transform="translate(24.192 27.156) rotate(-88.858)" fill="#fff"/><path d="M0,0,19.608-.02V.448L0,.468Z" transform="translate(24.652 27.166) rotate(-88.858)" fill="#fff"/><path d="M0,0,19.608-.02V.448L0,.468Z" transform="translate(25.113 27.175) rotate(-88.858)" fill="#fff"/><path d="M0,0,19.608-.02V.448L0,.468Z" transform="translate(25.573 27.185) rotate(-88.858)" fill="#fff"/><path d="M0,0,19.608-.02V.448L0,.468Z" transform="translate(26.034 27.194) rotate(-88.858)" fill="#fff"/><path d="M0,0,19.608-.02V.448L0,.468Z" transform="translate(26.494 27.204) rotate(-88.858)" fill="#fff"/><path d="M0,0,19.608-.02V.448L0,.468Z" transform="translate(26.955 27.213) rotate(-88.858)" fill="#fff"/><path d="M0,0,19.608-.02V.448L0,.468Z" transform="translate(27.415 27.223) rotate(-88.858)" fill="#fff"/><path d="M0,0,19.608-.02V.448L0,.468Z" transform="translate(27.875 27.232) rotate(-88.858)" fill="#fff"/><path d="M0,0,19.608-.02V.448L0,.468Z" transform="translate(28.336 27.242) rotate(-88.858)" fill="#fff"/><path d="M0,0,19.608-.02V.448L0,.468Z" transform="translate(28.796 27.251) rotate(-88.858)" fill="#fff"/><path d="M0,0,19.608-.02V.448L0,.468Z" transform="translate(29.257 27.261) rotate(-88.858)" fill="#fff"/><path d="M0,0,19.608-.02V.448L0,.468Z" transform="translate(29.717 27.27) rotate(-88.858)" fill="#fff"/><path d="M0,0,19.608-.02V.448L0,.468Z" transform="translate(30.178 27.279) rotate(-88.858)" fill="#fff"/><path d="M0,0,19.608-.02V.448L0,.468Z" transform="translate(30.638 27.289) rotate(-88.858)" fill="#fff"/><path d="M0,0,19.608-.02V.448L0,.468Z" transform="translate(31.099 27.298) rotate(-88.858)" fill="#fff"/><path d="M0,0,19.608-.02V.119L0,.139Z" transform="translate(31.559 27.308) rotate(-88.858)" fill="#fff"/><path d="M0,0,6.557-.007V.451L0,.458Z" transform="translate(18.027 30.508) rotate(-88.858)" fill="#fff"/><path d="M0,0,6.557-.007V.515L0,.522Z" transform="translate(18.482 30.517) rotate(-88.858)" fill="#fff"/><path d="M0,0,6.557-.007V.515L0,.522Z" transform="translate(19.001 30.528) rotate(-88.858)" fill="#fff"/><path d="M0,0,6.557-.007V.456L0,.463Z" transform="translate(19.52 30.539) rotate(-88.858)" fill="#fff"/><path d="M0,0,6.557-.007V.456L0,.463Z" transform="translate(19.981 30.548) rotate(-88.858)" fill="#fff"/><path d="M0,0,6.557-.007V.456L0,.463Z" transform="translate(20.441 30.558) rotate(-88.858)" fill="#fff"/><path d="M0,0,6.557-.007V.456L0,.463Z" transform="translate(20.902 30.567) rotate(-88.858)" fill="#fff"/><path d="M0,0,6.557-.007V.456L0,.463Z" transform="translate(21.362 30.577) rotate(-88.858)" fill="#fff"/><path d="M0,0,6.557-.007V.456L0,.463Z" transform="translate(21.822 30.586) rotate(-88.858)" fill="#fff"/><path d="M0,0,6.557-.007V.456L0,.463Z" transform="translate(22.283 30.596) rotate(-88.858)" fill="#fff"/><path d="M0,0,6.557-.007V.456L0,.463Z" transform="translate(22.743 30.605) rotate(-88.858)" fill="#fff"/><path d="M0,0,6.557-.007V.456L0,.463Z" transform="translate(23.204 30.615) rotate(-88.858)" fill="#fff"/><path d="M0,0,6.557-.007V.456L0,.463Z" transform="translate(23.664 30.624) rotate(-88.858)" fill="#fff"/><path d="M0,0,6.557-.007V.456L0,.463Z" transform="translate(24.125 30.634) rotate(-88.858)" fill="#fff"/><path d="M0,0,6.557-.007V.456L0,.463Z" transform="translate(24.585 30.643) rotate(-88.858)" fill="#fff"/><path d="M0,0,6.557-.007V.456L0,.463Z" transform="translate(25.046 30.652) rotate(-88.858)" fill="#fff"/><path d="M0,0,6.557-.007V.456L0,.463Z" transform="translate(25.506 30.662) rotate(-88.858)" fill="#fff"/><path d="M0,0,6.557-.007V.456L0,.463Z" transform="translate(25.967 30.671) rotate(-88.858)" fill="#fff"/><path d="M0,0,6.557-.007V.456L0,.463Z" transform="translate(26.427 30.681) rotate(-88.858)" fill="#fff"/><path d="M0,0,6.557-.007V.456L0,.463Z" transform="translate(26.887 30.69) rotate(-88.858)" fill="#fff"/><path d="M0,0,6.557-.007V.456L0,.463Z" transform="translate(27.348 30.7) rotate(-88.858)" fill="#fff"/><path d="M0,0,6.557-.007V.456L0,.463Z" transform="translate(27.808 30.709) rotate(-88.858)" fill="#fff"/><path d="M0,0,6.557-.007V.456L0,.463Z" transform="translate(28.269 30.719) rotate(-88.858)" fill="#fff"/><path d="M0,0,6.557-.007V.456L0,.463Z" transform="translate(28.729 30.728) rotate(-88.858)" fill="#fff"/><path d="M0,0,6.557-.007V.3L0,.311Z" transform="translate(29.19 30.738) rotate(-88.858)" fill="#fff"/><path d="M0,0,3.054,0v.01L0,.01Z" transform="translate(13.503 18.97) rotate(-88.858)" fill="#fff"/><path d="M0,0,3.054,0v.52L0,.52Z" transform="translate(13.512 18.97) rotate(-88.858)" fill="#fff"/><path d="M0,0,3.054,0v.52L0,.52Z" transform="translate(14.031 18.981) rotate(-88.858)" fill="#fff"/><path d="M0,0,3.054,0v.52L0,.52Z" transform="translate(14.55 18.991) rotate(-88.858)" fill="#fff"/><path d="M0,0,3.054,0v.52L0,.52Z" transform="translate(15.069 19.002) rotate(-88.858)" fill="#fff"/><path d="M0,0,3.054,0v.52L0,.52Z" transform="translate(15.588 19.013) rotate(-88.858)" fill="#fff"/><path d="M0,0,3.054,0v.52L0,.52Z" transform="translate(16.107 19.023) rotate(-88.858)" fill="#fff"/><path d="M0,0,3.054,0v.52L0,.52Z" transform="translate(16.626 19.034) rotate(-88.858)" fill="#fff"/><path d="M0,0,3.054,0v.52L0,.52Z" transform="translate(17.146 19.045) rotate(-88.858)" fill="#fff"/><path d="M0,0,3.054,0v.52L0,.52Z" transform="translate(17.665 19.055) rotate(-88.858)" fill="#fff"/><path d="M0,0,3.054,0v.52L0,.52Z" transform="translate(18.184 19.066) rotate(-88.858)" fill="#fff"/><path d="M0,0,3.054,0v.52L0,.52Z" transform="translate(18.703 19.077) rotate(-88.858)" fill="#fff"/><path d="M0,0,3.054,0v.52L0,.52Z" transform="translate(19.222 19.087) rotate(-88.858)" fill="#fff"/><path d="M0,0,3.054,0V.459L0,.462Z" transform="translate(19.741 19.098) rotate(-88.858)" fill="#fff"/><path d="M0,0,3.054,0V.459L0,.462Z" transform="translate(20.202 19.107) rotate(-88.858)" fill="#fff"/><path d="M0,0,3.054,0V.011L0,.014Z" transform="translate(20.662 19.117) rotate(-88.858)" fill="#fff"/><path d="M0,0,5.31-.005V.478L0,.484Z" transform="translate(6.186 23.781) rotate(-88.858)" fill="#fff"/><path d="M0,0,5.31-.005V.516L0,.521Z" transform="translate(6.668 23.791) rotate(-88.858)" fill="#fff"/><path d="M0,0,5.31-.005V.516L0,.521Z" transform="translate(7.187 23.802) rotate(-88.858)" fill="#fff"/><path d="M0,0,5.31-.005V.516L0,.521Z" transform="translate(7.706 23.813) rotate(-88.858)" fill="#fff"/><path d="M0,0,5.31-.005V.516L0,.521Z" transform="translate(8.225 23.823) rotate(-88.858)" fill="#fff"/><path d="M0,0,5.31-.005V.516L0,.521Z" transform="translate(8.744 23.834) rotate(-88.858)" fill="#fff"/><path d="M0,0,5.31-.005V.516L0,.521Z" transform="translate(9.263 23.845) rotate(-88.858)" fill="#fff"/><path d="M0,0,5.31-.005V.516L0,.521Z" transform="translate(9.782 23.855) rotate(-88.858)" fill="#fff"/><path d="M0,0,5.31-.005V.516L0,.521Z" transform="translate(10.301 23.866) rotate(-88.858)" fill="#fff"/><path d="M0,0,5.31-.005V.516L0,.521Z" transform="translate(10.821 23.876) rotate(-88.858)" fill="#fff"/><path d="M0,0,5.31-.005V.422L0,.427Z" transform="translate(11.34 23.887) rotate(-88.858)" fill="#fff"/><path d="M0,0,2.506,0v.35L0,.35Z" transform="translate(3.335 16.952) rotate(-88.858)" fill="#fff"/><path d="M0,0,2.506,0v.52L0,.52Z" transform="translate(3.684 16.96) rotate(-88.858)" fill="#fff"/><path d="M0,0,2.506,0v.52L0,.52Z" transform="translate(4.203 16.97) rotate(-88.858)" fill="#fff"/><path d="M0,0,2.506,0v.52L0,.52Z" transform="translate(4.722 16.981) rotate(-88.858)" fill="#fff"/><path d="M0,0,2.506,0v.52L0,.52Z" transform="translate(5.241 16.991) rotate(-88.858)" fill="#fff"/><path d="M0,0,2.506,0v.52L0,.52Z" transform="translate(5.76 17.002) rotate(-88.858)" fill="#fff"/><path d="M0,0,2.506,0v.52L0,.52Z" transform="translate(6.279 17.013) rotate(-88.858)" fill="#fff"/><path d="M0,0,2.506,0v.52L0,.52Z" transform="translate(6.798 17.024) rotate(-88.858)" fill="#fff"/><path d="M0,0,2.506,0v.52L0,.52Z" transform="translate(7.318 17.034) rotate(-88.858)" fill="#fff"/><path d="M0,0,2.506,0v.52L0,.52Z" transform="translate(7.837 17.045) rotate(-88.858)" fill="#fff"/><path d="M0,0,2.506,0v.52L0,.52Z" transform="translate(8.356 17.056) rotate(-88.858)" fill="#fff"/><path d="M0,0,2.506,0V.411L0,.414Z" transform="translate(8.875 17.066) rotate(-88.858)" fill="#fff"/><path d="M0,0,2.817,0V.3L0,.3Z" transform="translate(10.703 14.461) rotate(-88.858)" fill="#fff"/><path d="M0,0,2.817,0v.52L0,.52Z" transform="translate(11.002 14.467) rotate(-88.858)" fill="#fff"/><path d="M0,0,2.817,0v.52L0,.52Z" transform="translate(11.521 14.478) rotate(-88.858)" fill="#fff"/><path d="M0,0,2.817,0v.52L0,.52Z" transform="translate(12.041 14.488) rotate(-88.858)" fill="#fff"/><path d="M0,0,2.817,0v.52L0,.52Z" transform="translate(12.56 14.499) rotate(-88.858)" fill="#fff"/><path d="M0,0,2.817,0v.52L0,.52Z" transform="translate(13.079 14.51) rotate(-88.858)" fill="#fff"/><path d="M0,0,2.817,0v.52L0,.52Z" transform="translate(13.598 14.52) rotate(-88.858)" fill="#fff"/><path d="M0,0,2.817,0v.52L0,.52Z" transform="translate(14.117 14.531) rotate(-88.858)" fill="#fff"/><path d="M0,0,2.817,0V.3L0,.306Z" transform="translate(14.636 14.542) rotate(-88.858)" fill="#fff"/><path d="M1251.906-2471.695l-.76,39.357Z" transform="translate(-1251.522 2471.306)" fill="#fff"/><path d="M0,0,39.365-.04V.495L0,.535Z" transform="translate(-0.377 38.969) rotate(-88.858)" fill="#fff"/><path d="M0,0,39.365-.04V.495L0,.535Z" transform="translate(0.143 38.98) rotate(-88.858)" fill="#fff"/><path d="M0,0,39.365-.04V.495L0,.535Z" transform="translate(0.662 38.99) rotate(-88.858)" fill="#fff"/><path d="M0,0,39.365-.04V.495L0,.535Z" transform="translate(1.181 39.001) rotate(-88.858)" fill="#fff"/><path d="M0,0,39.365-.04V.495L0,.535Z" transform="translate(1.7 39.012) rotate(-88.858)" fill="#fff"/><path d="M0,0,39.365-.04V.495L0,.535Z" transform="translate(2.219 39.023) rotate(-88.858)" fill="#fff"/><path d="M0,0,39.365-.04V.495L0,.535Z" transform="translate(2.738 39.033) rotate(-88.858)" fill="#fff"/><path d="M0,0,39.365-.04V.495L0,.535Z" transform="translate(3.257 39.044) rotate(-88.858)" fill="#fff"/><path d="M0,0,39.365-.04V.495L0,.535Z" transform="translate(3.776 39.055) rotate(-88.858)" fill="#fff"/><path d="M0,0,39.365-.04V.495L0,.535Z" transform="translate(4.296 39.065) rotate(-88.858)" fill="#fff"/><path d="M0,0,39.365-.04V.495L0,.535Z" transform="translate(4.815 39.076) rotate(-88.858)" fill="#fff"/><path d="M0,0,39.365-.04V.495L0,.535Z" transform="translate(5.334 39.087) rotate(-88.858)" fill="#fff"/><path d="M0,0,39.365-.04V.495L0,.535Z" transform="translate(5.853 39.097) rotate(-88.858)" fill="#fff"/><path d="M0,0,39.365-.04V.495L0,.535Z" transform="translate(6.372 39.108) rotate(-88.858)" fill="#fff"/><path d="M0,0,39.365-.04V.495L0,.535Z" transform="translate(6.891 39.119) rotate(-88.858)" fill="#fff"/><path d="M0,0,39.365-.04V.495L0,.535Z" transform="translate(7.41 39.129) rotate(-88.858)" fill="#fff"/><path d="M0,0,39.365-.04V.495L0,.535Z" transform="translate(7.929 39.14) rotate(-88.858)" fill="#fff"/><path d="M0,0,39.365-.04V.495L0,.535Z" transform="translate(8.448 39.151) rotate(-88.858)" fill="#fff"/><path d="M0,0,39.365-.04V.495L0,.535Z" transform="translate(8.967 39.162) rotate(-88.858)" fill="#fff"/><path d="M0,0,39.365-.04V.495L0,.535Z" transform="translate(9.486 39.172) rotate(-88.858)" fill="#fff"/><path d="M0,0,39.365-.04V.495L0,.535Z" transform="translate(10.006 39.183) rotate(-88.858)" fill="#fff"/><path d="M0,0,39.365-.04V.495L0,.535Z" transform="translate(10.525 39.194) rotate(-88.858)" fill="#fff"/><path d="M0,0,39.365-.04V.495L0,.535Z" transform="translate(11.044 39.204) rotate(-88.858)" fill="#fff"/><path d="M0,0,39.365-.04V.495L0,.535Z" transform="translate(11.563 39.215) rotate(-88.858)" fill="#fff"/><path d="M0,0,39.365-.04V.495L0,.535Z" transform="translate(12.082 39.226) rotate(-88.858)" fill="#fff"/><path d="M0,0,39.365-.04V.495L0,.535Z" transform="translate(12.601 39.236) rotate(-88.858)" fill="#fff"/><path d="M0,0,39.365-.04V.495L0,.535Z" transform="translate(13.12 39.247) rotate(-88.858)" fill="#fff"/><path d="M0,0,39.365-.04V.495L0,.535Z" transform="translate(13.639 39.258) rotate(-88.858)" fill="#fff"/><path d="M0,0,39.365-.04V.495L0,.535Z" transform="translate(14.159 39.268) rotate(-88.858)" fill="#fff"/><path d="M0,0,39.365-.04V.495L0,.535Z" transform="translate(14.678 39.279) rotate(-88.858)" fill="#fff"/><path d="M0,0,39.365-.04V.495L0,.535Z" transform="translate(15.197 39.29) rotate(-88.858)" fill="#fff"/><path d="M0,0,39.365-.04V.495L0,.535Z" transform="translate(15.716 39.3) rotate(-88.858)" fill="#fff"/><path d="M0,0,39.365-.04V.495L0,.535Z" transform="translate(16.235 39.311) rotate(-88.858)" fill="#fff"/><path d="M0,0,39.365-.04V.495L0,.535Z" transform="translate(16.754 39.322) rotate(-88.858)" fill="#fff"/><path d="M0,0,39.365-.04V.495L0,.535Z" transform="translate(17.273 39.332) rotate(-88.858)" fill="#fff"/><path d="M0,0,39.365-.04V.495L0,.535Z" transform="translate(17.792 39.343) rotate(-88.858)" fill="#fff"/><path d="M0,0,39.365-.04V.495L0,.535Z" transform="translate(18.311 39.354) rotate(-88.858)" fill="#fff"/><path d="M0,0,39.365-.04V.495L0,.535Z" transform="translate(18.83 39.364) rotate(-88.858)" fill="#fff"/><path d="M0,0,39.365-.04V.436L0,.476Z" transform="translate(19.35 39.375) rotate(-88.858)" fill="#fff"/><path d="M0,0,39.365-.04V.436L0,.476Z" transform="translate(19.81 39.385) rotate(-88.858)" fill="#fff"/><path d="M0,0,39.365-.04V.436L0,.476Z" transform="translate(20.271 39.394) rotate(-88.858)" fill="#fff"/><path d="M0,0,39.365-.04V.436L0,.476Z" transform="translate(20.731 39.403) rotate(-88.858)" fill="#fff"/><path d="M0,0,39.365-.04V.436L0,.476Z" transform="translate(21.191 39.413) rotate(-88.858)" fill="#fff"/><path d="M0,0,39.365-.04V.436L0,.476Z" transform="translate(21.652 39.422) rotate(-88.858)" fill="#fff"/><path d="M0,0,39.365-.04V.436L0,.476Z" transform="translate(22.112 39.432) rotate(-88.858)" fill="#fff"/><path d="M0,0,39.365-.04V.436L0,.476Z" transform="translate(22.573 39.441) rotate(-88.858)" fill="#fff"/><path d="M0,0,39.365-.04V.436L0,.476Z" transform="translate(23.033 39.451) rotate(-88.858)" fill="#fff"/><path d="M0,0,39.365-.04V.436L0,.476Z" transform="translate(23.494 39.46) rotate(-88.858)" fill="#fff"/><path d="M0,0,39.365-.04V.436L0,.476Z" transform="translate(23.954 39.47) rotate(-88.858)" fill="#fff"/><path d="M0,0,39.365-.04V.436L0,.476Z" transform="translate(24.414 39.479) rotate(-88.858)" fill="#fff"/><path d="M0,0,39.365-.04V.436L0,.476Z" transform="translate(24.875 39.489) rotate(-88.858)" fill="#fff"/><path d="M0,0,39.365-.04V.436L0,.476Z" transform="translate(25.335 39.498) rotate(-88.858)" fill="#fff"/><path d="M0,0,39.365-.04V.436L0,.476Z" transform="translate(25.796 39.508) rotate(-88.858)" fill="#fff"/><path d="M0,0,39.365-.04V.436L0,.476Z" transform="translate(26.256 39.517) rotate(-88.858)" fill="#fff"/><path d="M0,0,39.365-.04V.436L0,.476Z" transform="translate(26.717 39.527) rotate(-88.858)" fill="#fff"/><path d="M0,0,39.365-.04V.436L0,.476Z" transform="translate(27.177 39.536) rotate(-88.858)" fill="#fff"/><path d="M0,0,39.365-.04V.436L0,.476Z" transform="translate(27.638 39.546) rotate(-88.858)" fill="#fff"/><path d="M0,0,39.365-.04V.436L0,.476Z" transform="translate(28.098 39.555) rotate(-88.858)" fill="#fff"/><path d="M0,0,39.365-.04V.436L0,.476Z" transform="translate(28.558 39.565) rotate(-88.858)" fill="#fff"/><path d="M0,0,39.365-.04V.436L0,.476Z" transform="translate(29.019 39.574) rotate(-88.858)" fill="#fff"/><path d="M0,0,39.365-.04V.436L0,.476Z" transform="translate(29.48 39.583) rotate(-88.858)" fill="#fff"/><path d="M0,0,39.365-.04V.436L0,.476Z" transform="translate(29.94 39.593) rotate(-88.858)" fill="#fff"/><path d="M0,0,39.365-.04V.436L0,.476Z" transform="translate(30.4 39.602) rotate(-88.858)" fill="#fff"/><path d="M0,0,39.365-.04V.436L0,.476Z" transform="translate(30.861 39.612) rotate(-88.858)" fill="#fff"/><path d="M0,0,39.365-.04V.436L0,.476Z" transform="translate(31.321 39.621) rotate(-88.858)" fill="#fff"/><path d="M0,0,39.365-.04V.436L0,.476Z" transform="translate(31.782 39.631) rotate(-88.858)" fill="#fff"/><path d="M0,0,39.365-.04V.436L0,.476Z" transform="translate(32.242 39.64) rotate(-88.858)" fill="#fff"/><path d="M0,0,39.365-.04V.436L0,.476Z" transform="translate(32.703 39.65) rotate(-88.858)" fill="#fff"/><path d="M0,0,39.365-.04V.436L0,.476Z" transform="translate(33.163 39.659) rotate(-88.858)" fill="#fff"/><path d="M0,0,39.365-.04V.436L0,.476Z" transform="translate(33.624 39.669) rotate(-88.858)" fill="#fff"/><path d="M0,0,39.365-.04V.436L0,.476Z" transform="translate(34.084 39.678) rotate(-88.858)" fill="#fff"/><path d="M0,0,39.365-.04V.436L0,.476Z" transform="translate(34.544 39.688) rotate(-88.858)" fill="#fff"/><path d="M0,0,39.365-.04V.436L0,.476Z" transform="translate(35.005 39.697) rotate(-88.858)" fill="#fff"/><path d="M0,0,39.365-.04V.436L0,.476Z" transform="translate(35.465 39.707) rotate(-88.858)" fill="#fff"/><path d="M0,0,39.365-.04V.436L0,.476Z" transform="translate(35.926 39.716) rotate(-88.858)" fill="#fff"/><path d="M0,0,39.365-.04V.436L0,.476Z" transform="translate(36.386 39.726) rotate(-88.858)" fill="#fff"/><path d="M0,0,39.365-.04V.436L0,.476Z" transform="translate(36.847 39.735) rotate(-88.858)" fill="#fff"/><path d="M0,0,39.365-.04V.436L0,.476Z" transform="translate(37.307 39.744) rotate(-88.858)" fill="#fff"/><path d="M1293.065-2431.5l.76-39.36Z" transform="translate(-1255.297 2471.255)" fill="#fff"/></g></g><g transform="translate(6.723 5.447)"><circle cx="1.966" cy="1.966" r="1.966" fill="#fff"/><g clip-path="url(#b)"><path d="M1253.761-2467.339" transform="translate(-1253.8 2471.231)" fill="#fff"/><path d="M1253.762-2467.4l3.931.079v.054Z" transform="translate(-1253.8 2471.235)" fill="#fff"/><rect width="0.054" height="3.931" transform="translate(-0.038 3.838) rotate(-88.858)" fill="#fff"/><rect width="0.054" height="3.931" transform="translate(-0.037 3.785) rotate(-88.858)" fill="#fff"/><rect width="0.054" height="3.931" transform="translate(-0.036 3.732) rotate(-88.858)" fill="#fff"/><rect width="0.054" height="3.931" transform="translate(-0.034 3.678) rotate(-88.858)" fill="#fff"/><rect width="0.054" height="3.931" transform="translate(-0.033 3.624) rotate(-88.858)" fill="#fff"/><rect width="0.054" height="3.931" transform="translate(-0.032 3.571) rotate(-88.858)" fill="#fff"/><rect width="0.054" height="3.931" transform="translate(-0.031 3.517) rotate(-88.858)" fill="#fff"/><rect width="0.054" height="3.931" transform="translate(-0.03 3.464) rotate(-88.858)" fill="#fff"/><rect width="0.054" height="3.931" transform="translate(-0.029 3.41) rotate(-88.858)" fill="#fff"/><rect width="0.054" height="3.931" transform="translate(-0.028 3.357) rotate(-88.858)" fill="#fff"/><rect width="0.054" height="3.931" transform="translate(-0.027 3.303) rotate(-88.858)" fill="#fff"/><rect width="0.054" height="3.931" transform="translate(-0.026 3.25) rotate(-88.858)" fill="#fff"/><rect width="0.054" height="3.931" transform="translate(-0.025 3.197) rotate(-88.858)" fill="#fff"/><rect width="0.054" height="3.931" transform="translate(-0.024 3.143) rotate(-88.858)" fill="#fff"/><rect width="0.054" height="3.931" transform="translate(-0.023 3.089) rotate(-88.858)" fill="#fff"/><rect width="0.054" height="3.931" transform="translate(-0.022 3.036) rotate(-88.858)" fill="#fff"/><rect width="0.054" height="3.931" transform="translate(-0.021 2.982) rotate(-88.858)" fill="#fff"/><rect width="0.054" height="3.931" transform="translate(-0.02 2.929) rotate(-88.858)" fill="#fff"/><rect width="0.054" height="3.931" transform="translate(-0.019 2.876) rotate(-88.858)" fill="#fff"/><rect width="0.054" height="3.931" transform="translate(-0.017 2.822) rotate(-88.858)" fill="#fff"/><rect width="0.054" height="3.931" transform="translate(-0.016 2.768) rotate(-88.858)" fill="#fff"/><rect width="0.054" height="3.931" transform="translate(-0.015 2.715) rotate(-88.858)" fill="#fff"/><rect width="0.054" height="3.931" transform="translate(-0.014 2.662) rotate(-88.858)" fill="#fff"/><rect width="0.054" height="3.931" transform="translate(-0.013 2.608) rotate(-88.858)" fill="#fff"/><rect width="0.054" height="3.931" transform="translate(-0.012 2.555) rotate(-88.858)" fill="#fff"/><rect width="0.054" height="3.931" transform="translate(-0.011 2.501) rotate(-88.858)" fill="#fff"/><rect width="0.054" height="3.931" transform="translate(-0.01 2.447) rotate(-88.858)" fill="#fff"/><rect width="0.054" height="3.931" transform="translate(-0.009 2.394) rotate(-88.858)" fill="#fff"/><rect width="0.054" height="3.931" transform="translate(-0.008 2.341) rotate(-88.858)" fill="#fff"/><rect width="0.054" height="3.931" transform="translate(-0.007 2.287) rotate(-88.858)" fill="#fff"/><rect width="0.054" height="3.931" transform="translate(-0.006 2.234) rotate(-88.858)" fill="#fff"/><rect width="0.054" height="3.931" transform="translate(-0.005 2.18) rotate(-88.858)" fill="#fff"/><rect width="0.054" height="3.931" transform="translate(-0.004 2.127) rotate(-88.858)" fill="#fff"/><rect width="0.054" height="3.931" transform="translate(-0.003 2.073) rotate(-88.858)" fill="#fff"/><rect width="0.054" height="3.931" transform="translate(-0.002 2.02) rotate(-88.858)" fill="#fff"/><rect width="0.054" height="3.931" transform="translate(0 1.966) rotate(-88.858)" fill="#fff"/><rect width="0.054" height="3.931" transform="translate(0.001 1.913) rotate(-88.858)" fill="#fff"/><rect width="0.047" height="3.931" transform="translate(0.002 1.859) rotate(-88.858)" fill="#fff"/><rect width="0.047" height="3.931" transform="translate(0.003 1.812) rotate(-88.858)" fill="#fff"/><rect width="0.047" height="3.931" transform="translate(0.004 1.764) rotate(-88.858)" fill="#fff"/><rect width="0.047" height="3.931" transform="translate(0.005 1.717) rotate(-88.858)" fill="#fff"/><rect width="0.047" height="3.931" transform="translate(0.006 1.669) rotate(-88.858)" fill="#fff"/><rect width="0.047" height="3.931" transform="translate(0.007 1.622) rotate(-88.858)" fill="#fff"/><rect width="0.047" height="3.931" transform="translate(0.007 1.574) rotate(-88.858)" fill="#fff"/><rect width="0.047" height="3.931" transform="translate(0.008 1.527) rotate(-88.858)" fill="#fff"/><rect width="0.047" height="3.931" transform="translate(0.009 1.48) rotate(-88.858)" fill="#fff"/><rect width="0.047" height="3.931" transform="translate(0.01 1.432) rotate(-88.858)" fill="#fff"/><rect width="0.047" height="3.931" transform="translate(0.011 1.385) rotate(-88.858)" fill="#fff"/><rect width="0.047" height="3.931" transform="translate(0.012 1.337) rotate(-88.858)" fill="#fff"/><rect width="0.047" height="3.931" transform="translate(0.013 1.29) rotate(-88.858)" fill="#fff"/><rect width="0.047" height="3.931" transform="translate(0.014 1.242) rotate(-88.858)" fill="#fff"/><rect width="0.047" height="3.931" transform="translate(0.015 1.195) rotate(-88.858)" fill="#fff"/><rect width="0.047" height="3.931" transform="translate(0.016 1.147) rotate(-88.858)" fill="#fff"/><rect width="0.047" height="3.931" transform="translate(0.017 1.1) rotate(-88.858)" fill="#fff"/><rect width="0.047" height="3.931" transform="translate(0.018 1.053) rotate(-88.858)" fill="#fff"/><rect width="0.047" height="3.931" transform="translate(0.019 1.005) rotate(-88.858)" fill="#fff"/><rect width="0.047" height="3.931" transform="translate(0.02 0.957) rotate(-88.858)" fill="#fff"/><rect width="0.047" height="3.931" transform="translate(0.021 0.91) rotate(-88.858)" fill="#fff"/><rect width="0.047" height="3.931" transform="translate(0.022 0.863) rotate(-88.858)" fill="#fff"/><rect width="0.047" height="3.931" transform="translate(0.023 0.815) rotate(-88.858)" fill="#fff"/><rect width="0.047" height="3.931" transform="translate(0.024 0.768) rotate(-88.858)" fill="#fff"/><rect width="0.047" height="3.931" transform="translate(0.024 0.72) rotate(-88.858)" fill="#fff"/><rect width="0.047" height="3.931" transform="translate(0.025 0.673) rotate(-88.858)" fill="#fff"/><rect width="0.047" height="3.931" transform="translate(0.026 0.625) rotate(-88.858)" fill="#fff"/><rect width="0.047" height="3.931" transform="translate(0.027 0.578) rotate(-88.858)" fill="#fff"/><rect width="0.047" height="3.931" transform="translate(0.028 0.531) rotate(-88.858)" fill="#fff"/><rect width="0.047" height="3.931" transform="translate(0.029 0.483) rotate(-88.858)" fill="#fff"/><rect width="0.047" height="3.931" transform="translate(0.03 0.436) rotate(-88.858)" fill="#fff"/><rect width="0.047" height="3.931" transform="translate(0.031 0.388) rotate(-88.858)" fill="#fff"/><rect width="0.047" height="3.931" transform="translate(0.032 0.341) rotate(-88.858)" fill="#fff"/><rect width="0.047" height="3.931" transform="translate(0.033 0.293) rotate(-88.858)" fill="#fff"/><rect width="0.047" height="3.931" transform="translate(0.034 0.246) rotate(-88.858)" fill="#fff"/><rect width="0.047" height="3.931" transform="translate(0.035 0.198) rotate(-88.858)" fill="#fff"/><rect width="0.047" height="3.931" transform="translate(0.036 0.151) rotate(-88.858)" fill="#fff"/><rect width="0.047" height="3.931" transform="translate(0.037 0.104) rotate(-88.858)" fill="#fff"/><rect width="0.047" height="3.931" transform="translate(0.038 0.056) rotate(-88.858)" fill="#fff"/><rect width="0.047" height="3.931" transform="translate(0.039 0.009) rotate(-88.858)" fill="#fff"/><path d="M1257.778-2471.582l-3.931-.078Z" transform="translate(-1253.807 2471.621)" fill="#fff"/></g></g><circle cx="1.966" cy="1.966" r="1.966" transform="translate(1.9 11.742)" fill="#fff"/><g transform="translate(22.155 4.521)"><circle cx="1.966" cy="1.966" r="1.966" fill="#fff"/><g clip-path="url(#b)"><path d="M1272.493-2468.132l2.584-.883-.018.935Z" transform="translate(-1270.919 2472.309)" fill="#fff"/><path d="M1272.321-2468.141l2.742-.935v.058l-2.585.881Z" transform="translate(-1270.903 2472.313)" fill="#fff"/><path d="M1272.149-2468.149l2.9-.991,0,.058-2.742.937Z" transform="translate(-1270.887 2472.32)" fill="#fff"/><path d="M1271.977-2468.158l3.057-1.044v.058l-2.9.992Z" transform="translate(-1270.872 2472.326)" fill="#fff"/><path d="M1271.806-2468.167l3.214-1.1,0,.057-3.056,1.046Z" transform="translate(-1270.858 2472.331)" fill="#fff"/><path d="M1271.634-2468.175l3.371-1.152v.056l-3.213,1.1Z" transform="translate(-1270.842 2472.336)" fill="#fff"/><path d="M1271.462-2468.183l3.529-1.207v.057l-3.371,1.153Z" transform="translate(-1270.825 2472.342)" fill="#fff"/><path d="M1271.29-2468.194l3.687-1.259v.057l-3.529,1.2Z" transform="translate(-1270.811 2472.347)" fill="#fff"/><path d="M1271.119-2468.2l3.844-1.314v.056l-3.688,1.262Z" transform="translate(-1270.796 2472.353)" fill="#fff"/><path d="M1270.946-2468.21l4-1.368v.057l-3.844,1.313Z" transform="translate(-1270.779 2472.36)" fill="#fff"/><path d="M1270.775-2468.219l4.159-1.422v.058l-4,1.366Z" transform="translate(-1270.764 2472.366)" fill="#fff"/><path d="M1270.6-2468.226l4.317-1.477v.057l-4.159,1.423Z" transform="translate(-1270.748 2472.371)" fill="#fff"/><path d="M1270.437-2468.239l4.468-1.526v.056l-4.317,1.476-.151,0Z" transform="translate(-1270.734 2472.376)" fill="#fff"/><path d="M1270.438-2468.3l4.468-1.527v.056l-4.468,1.528Z" transform="translate(-1270.734 2472.382)" fill="#fff"/><path d="M1270.439-2468.365l4.468-1.526v.057l-4.468,1.528Z" transform="translate(-1270.734 2472.387)" fill="#fff"/><path d="M1270.441-2468.427l4.468-1.526v.057l-4.468,1.527Z" transform="translate(-1270.734 2472.392)" fill="#fff"/><path d="M1270.443-2468.489l4.469-1.527v.057l-4.469,1.528Z" transform="translate(-1270.734 2472.398)" fill="#fff"/><path d="M1270.444-2468.551l4.468-1.526v.057l-4.469,1.525Z" transform="translate(-1270.734 2472.403)" fill="#fff"/><path d="M1270.445-2468.613l4.468-1.528v.058l-4.468,1.527Z" transform="translate(-1270.734 2472.41)" fill="#fff"/><path d="M1270.445-2468.676l4.469-1.528v.057l-4.469,1.527Z" transform="translate(-1270.734 2472.416)" fill="#fff"/><path d="M1270.447-2468.739l4.469-1.527v.056l-4.468,1.526Z" transform="translate(-1270.734 2472.421)" fill="#fff"/><path d="M1270.448-2468.8l4.468-1.526v.056l-4.468,1.527Z" transform="translate(-1270.735 2472.427)" fill="#fff"/><path d="M1270.449-2468.864l4.469-1.526v.056l-4.468,1.528Z" transform="translate(-1270.734 2472.431)" fill="#fff"/><path d="M1270.451-2468.927l4.469-1.526v.058l-4.469,1.527Z" transform="translate(-1270.735 2472.438)" fill="#fff"/><path d="M1270.452-2468.988l4.468-1.528v.057l-4.469,1.527Z" transform="translate(-1270.735 2472.443)" fill="#fff"/><path d="M1270.453-2469.052l4.468-1.528v.059l-4.468,1.526Z" transform="translate(-1270.735 2472.449)" fill="#fff"/><path d="M1270.455-2469.113l4.468-1.528,0,.057-4.468,1.527Z" transform="translate(-1270.736 2472.455)" fill="#fff"/><path d="M1270.456-2469.177l4.469-1.526v.056l-4.469,1.527Z" transform="translate(-1270.735 2472.46)" fill="#fff"/><path d="M1270.457-2469.239l4.469-1.527v.056l-4.469,1.527Z" transform="translate(-1270.736 2472.467)" fill="#fff"/><path d="M1270.459-2469.3l4.468-1.527v.057l-4.47,1.527Z" transform="translate(-1270.735 2472.472)" fill="#fff"/><path d="M1270.46-2469.365l4.468-1.527v.057l-4.469,1.528Z" transform="translate(-1270.736 2472.478)" fill="#fff"/><path d="M1270.46-2469.427l4.468-1.527v.058l-4.468,1.526Z" transform="translate(-1270.736 2472.483)" fill="#fff"/><path d="M1270.461-2469.488l4.469-1.528v.055l-4.468,1.529Z" transform="translate(-1270.736 2472.489)" fill="#fff"/><path d="M1270.463-2469.552l4.469-1.527v.057l-4.469,1.527Z" transform="translate(-1270.736 2472.494)" fill="#fff"/><path d="M1270.464-2469.613l4.469-1.528v.057l-4.468,1.527Z" transform="translate(-1270.736 2472.5)" fill="#fff"/><path d="M1270.466-2469.677l4.468-1.528v.056l-4.469,1.527Z" transform="translate(-1270.737 2472.506)" fill="#fff"/><path d="M1270.468-2469.739l4.467-1.527v.057l-4.468,1.527Z" transform="translate(-1270.736 2472.511)" fill="#fff"/><path d="M1270.468-2469.8l4.468-1.527v.058l-4.469,1.528Z" transform="translate(-1270.737 2472.517)" fill="#fff"/><path d="M1270.468-2469.865l4.469-1.526v.057l-4.469,1.528Z" transform="translate(-1270.736 2472.521)" fill="#fff"/><path d="M1270.471-2469.921l4.468-1.527v.052l-4.468,1.526Z" transform="translate(-1270.736 2472.527)" fill="#fff"/><path d="M1270.472-2469.975l4.468-1.529v.053l-4.468,1.525Z" transform="translate(-1270.736 2472.533)" fill="#fff"/><path d="M1270.473-2470.032l4.468-1.527v.051l-4.469,1.526Z" transform="translate(-1270.737 2472.537)" fill="#fff"/><path d="M1270.473-2470.087l4.469-1.527v.051l-4.469,1.526Z" transform="translate(-1270.737 2472.543)" fill="#fff"/><path d="M1270.475-2470.141l4.469-1.528v.051l-4.468,1.527Z" transform="translate(-1270.737 2472.546)" fill="#fff"/><path d="M1270.476-2470.2l4.469-1.527v.051l-4.469,1.527Z" transform="translate(-1270.737 2472.551)" fill="#fff"/><path d="M1270.477-2470.253l4.468-1.528v.052l-4.469,1.526Z" transform="translate(-1270.737 2472.558)" fill="#fff"/><path d="M1270.478-2470.309l4.469-1.528v.051l-4.469,1.528Z" transform="translate(-1270.737 2472.562)" fill="#fff"/><path d="M1270.48-2470.367l4.468-1.525v.049l-4.468,1.528Z" transform="translate(-1270.738 2472.567)" fill="#fff"/><path d="M1270.481-2470.42l4.468-1.527v.051l-4.469,1.526Z" transform="translate(-1270.737 2472.573)" fill="#fff"/><path d="M1270.482-2470.476l4.469-1.526v.051l-4.469,1.526Z" transform="translate(-1270.738 2472.577)" fill="#fff"/><path d="M1270.483-2470.531l4.468-1.526v.049l-4.469,1.528Z" transform="translate(-1270.737 2472.582)" fill="#fff"/><path d="M1270.484-2470.587l4.468-1.526v.05l-4.469,1.526Z" transform="translate(-1270.738 2472.587)" fill="#fff"/><path d="M1270.485-2470.641l4.469-1.529v.051l-4.469,1.527Z" transform="translate(-1270.738 2472.593)" fill="#fff"/><path d="M1270.486-2470.7l4.468-1.528v.049l-4.468,1.527Z" transform="translate(-1270.738 2472.598)" fill="#fff"/><path d="M1270.487-2470.753l4.468-1.527v.052l-4.468,1.525Z" transform="translate(-1270.738 2472.602)" fill="#fff"/><path d="M1270.489-2470.809l4.468-1.526v.05l-4.469,1.526Z" transform="translate(-1270.738 2472.606)" fill="#fff"/><path d="M1270.49-2470.863l4.468-1.527v.051l-4.468,1.526Z" transform="translate(-1270.739 2472.612)" fill="#fff"/><path d="M1270.49-2470.92l4.469-1.527v.051l-4.468,1.528Z" transform="translate(-1270.739 2472.618)" fill="#fff"/><path d="M1270.491-2470.976l4.469-1.526,0,.051-4.468,1.526Z" transform="translate(-1270.739 2472.624)" fill="#fff"/><path d="M1270.492-2471.029l4.469-1.529v.05l-4.468,1.527Z" transform="translate(-1270.738 2472.629)" fill="#fff"/><path d="M1270.494-2471.086l4.468-1.528v.051l-4.469,1.528Z" transform="translate(-1270.738 2472.633)" fill="#fff"/><path d="M1270.495-2471.143l4.469-1.525v.05l-4.469,1.527Z" transform="translate(-1270.739 2472.638)" fill="#fff"/><path d="M1270.5-2471.2l4.468-1.527v.051l-4.468,1.526Z" transform="translate(-1270.739 2472.643)" fill="#fff"/><path d="M1270.5-2471.253l4.469-1.527v.05l-4.469,1.528Z" transform="translate(-1270.739 2472.648)" fill="#fff"/><path d="M1270.5-2471.31l4.468-1.526v.051l-4.468,1.526Z" transform="translate(-1270.738 2472.654)" fill="#fff"/><path d="M1270.5-2471.362l4.4-1.5h.068v.026l-4.469,1.526Z" transform="translate(-1270.739 2472.655)" fill="#fff"/><path d="M1270.5-2471.411l4.261-1.456h.138l-4.4,1.5Z" transform="translate(-1270.739 2472.656)" fill="#fff"/><path d="M1270.5-2471.462l4.121-1.409.139,0-4.261,1.458Z" transform="translate(-1270.739 2472.656)" fill="#fff"/><path d="M1270.5-2471.514l3.981-1.359.139,0-4.121,1.407Z" transform="translate(-1270.74 2472.655)" fill="#fff"/><path d="M1270.5-2471.563l3.842-1.313.138,0-3.981,1.361Z" transform="translate(-1270.74 2472.656)" fill="#fff"/><path d="M1270.505-2471.614l3.7-1.266.139,0-3.842,1.313Z" transform="translate(-1270.739 2472.657)" fill="#fff"/><path d="M1270.506-2471.667l3.562-1.217.138,0-3.7,1.264Z" transform="translate(-1270.74 2472.657)" fill="#fff"/><path d="M1270.507-2471.717l3.422-1.169.14,0-3.563,1.218Z" transform="translate(-1270.741 2472.657)" fill="#fff"/><path d="M1270.508-2471.767l3.283-1.121.138,0-3.422,1.171Z" transform="translate(-1270.74 2472.657)" fill="#fff"/><path d="M1270.509-2471.817l3.142-1.075.139,0-3.282,1.123Z" transform="translate(-1270.74 2472.658)" fill="#fff"/><path d="M1270.511-2471.869l3-1.027.14,0-3.144,1.075Z" transform="translate(-1270.74 2472.659)" fill="#fff"/><path d="M1270.512-2471.92l2.863-.977h.138l-3,1.027Z" transform="translate(-1270.74 2472.657)" fill="#fff"/><path d="M1270.513-2471.971l2.723-.931.139,0-2.864.979Z" transform="translate(-1270.74 2472.658)" fill="#fff"/><path d="M1270.513-2472.022l2.585-.882.137,0-2.723.932Z" transform="translate(-1270.74 2472.659)" fill="#fff"/><path d="M1273.1-2472.909l-2.584.882.019-.933Z" transform="translate(-1270.74 2472.663)" fill="#fff"/></g></g><g transform="translate(45.947 18.781)"><circle cx="1.966" cy="1.966" r="1.966" fill="#fff"/><g clip-path="url(#b)"><path d="M1298.64-2452.986l2.584-.883-.019.933Z" transform="translate(-1297.066 2457.164)" fill="#fff"/><path d="M1298.468-2452.993l2.742-.938v.056l-2.585.884Z" transform="translate(-1297.049 2457.167)" fill="#fff"/><path d="M1298.3-2453l2.9-.992v.057l-2.741.938Z" transform="translate(-1297.034 2457.175)" fill="#fff"/><path d="M1298.125-2453.012l3.057-1.044v.057l-2.9.99Z" transform="translate(-1297.019 2457.18)" fill="#fff"/><path d="M1297.952-2453.022l3.214-1.1v.058l-3.057,1.042Z" transform="translate(-1297.004 2457.186)" fill="#fff"/><path d="M1297.781-2453.03l3.372-1.151v.057l-3.214,1.1Z" transform="translate(-1296.988 2457.19)" fill="#fff"/><path d="M1297.609-2453.037l3.529-1.207v.057l-3.372,1.15Z" transform="translate(-1296.973 2457.196)" fill="#fff"/><path d="M1297.437-2453.046l3.687-1.261v.058l-3.529,1.207Z" transform="translate(-1296.957 2457.202)" fill="#fff"/><path d="M1297.265-2453.056l3.844-1.314v.056l-3.687,1.261Z" transform="translate(-1296.942 2457.207)" fill="#fff"/><path d="M1297.094-2453.066l4-1.366v.057l-3.844,1.313Z" transform="translate(-1296.926 2457.214)" fill="#fff"/><path d="M1296.922-2453.073l4.159-1.421v.056l-4,1.368Z" transform="translate(-1296.911 2457.219)" fill="#fff"/><path d="M1296.75-2453.083l4.317-1.474v.057l-4.159,1.421Z" transform="translate(-1296.896 2457.226)" fill="#fff"/><path d="M1296.584-2453.094l4.469-1.526v.057l-4.317,1.473-.151,0Z" transform="translate(-1296.881 2457.23)" fill="#fff"/><path d="M1296.585-2453.155l4.468-1.527v.057l-4.469,1.527Z" transform="translate(-1296.881 2457.235)" fill="#fff"/><path d="M1296.586-2453.218l4.469-1.528v.057l-4.469,1.528Z" transform="translate(-1296.88 2457.242)" fill="#fff"/><path d="M1296.587-2453.28l4.469-1.528v.057l-4.468,1.527Z" transform="translate(-1296.881 2457.247)" fill="#fff"/><path d="M1296.589-2453.342l4.468-1.528v.057l-4.468,1.528Z" transform="translate(-1296.88 2457.252)" fill="#fff"/><path d="M1296.59-2453.406l4.468-1.527v.056l-4.469,1.528Z" transform="translate(-1296.881 2457.259)" fill="#fff"/><path d="M1296.591-2453.468l4.469-1.528v.058l-4.468,1.527Z" transform="translate(-1296.881 2457.265)" fill="#fff"/><path d="M1296.593-2453.533l4.468-1.526v.057l-4.469,1.527Z" transform="translate(-1296.88 2457.271)" fill="#fff"/><path d="M1296.593-2453.594l4.469-1.527v.057l-4.469,1.527Z" transform="translate(-1296.881 2457.277)" fill="#fff"/><path d="M1296.594-2453.658l4.47-1.526,0,.057-4.468,1.527Z" transform="translate(-1296.881 2457.282)" fill="#fff"/><path d="M1296.6-2453.718l4.468-1.528v.056l-4.468,1.528Z" transform="translate(-1296.881 2457.286)" fill="#fff"/><path d="M1296.6-2453.781l4.468-1.528v.056l-4.469,1.527Z" transform="translate(-1296.881 2457.292)" fill="#fff"/><path d="M1296.6-2453.843l4.468-1.529v.057l-4.469,1.528Z" transform="translate(-1296.882 2457.299)" fill="#fff"/><path d="M1296.6-2453.906l4.469-1.528v.057l-4.469,1.528Z" transform="translate(-1296.882 2457.303)" fill="#fff"/><path d="M1296.6-2453.971l4.468-1.525v.057l-4.468,1.527Z" transform="translate(-1296.882 2457.31)" fill="#fff"/><path d="M1296.6-2454.032l4.468-1.527v.057l-4.468,1.528Z" transform="translate(-1296.882 2457.316)" fill="#fff"/><path d="M1296.6-2454.1l4.468-1.526v.057l-4.469,1.528Z" transform="translate(-1296.882 2457.322)" fill="#fff"/><path d="M1296.605-2454.157l4.468-1.526v.056l-4.469,1.527Z" transform="translate(-1296.882 2457.327)" fill="#fff"/><path d="M1296.606-2454.219l4.469-1.528v.057l-4.468,1.526Z" transform="translate(-1296.883 2457.332)" fill="#fff"/><path d="M1296.607-2454.281l4.469-1.527v.057l-4.469,1.527Z" transform="translate(-1296.883 2457.337)" fill="#fff"/><path d="M1296.609-2454.344l4.468-1.528v.057l-4.469,1.526Z" transform="translate(-1296.883 2457.343)" fill="#fff"/><path d="M1296.61-2454.407l4.468-1.526v.057l-4.468,1.527Z" transform="translate(-1296.883 2457.348)" fill="#fff"/><path d="M1296.612-2454.47l4.468-1.526v.057l-4.468,1.527Z" transform="translate(-1296.883 2457.354)" fill="#fff"/><path d="M1296.613-2454.532l4.468-1.527v.057l-4.469,1.528Z" transform="translate(-1296.884 2457.36)" fill="#fff"/><path d="M1296.614-2454.6l4.468-1.525v.056l-4.469,1.528Z" transform="translate(-1296.883 2457.366)" fill="#fff"/><path d="M1296.615-2454.656l4.469-1.528v.058l-4.469,1.526Z" transform="translate(-1296.884 2457.373)" fill="#fff"/><path d="M1296.616-2454.719l4.469-1.528,0,.056-4.467,1.529Z" transform="translate(-1296.883 2457.377)" fill="#fff"/><path d="M1296.618-2454.777l4.469-1.525v.05l-4.468,1.527Z" transform="translate(-1296.884 2457.382)" fill="#fff"/><path d="M1296.619-2454.83l4.468-1.528v.051l-4.469,1.527Z" transform="translate(-1296.883 2457.387)" fill="#fff"/><path d="M1296.62-2454.886l4.469-1.527v.051l-4.469,1.526Z" transform="translate(-1296.884 2457.392)" fill="#fff"/><path d="M1296.621-2454.942l4.468-1.527v.05l-4.468,1.529Z" transform="translate(-1296.884 2457.398)" fill="#fff"/><path d="M1296.622-2455l4.468-1.527v.051l-4.469,1.526Z" transform="translate(-1296.883 2457.402)" fill="#fff"/><path d="M1296.623-2455.053l4.469-1.527v.052l-4.469,1.525Z" transform="translate(-1296.884 2457.406)" fill="#fff"/><path d="M1296.624-2455.108l4.469-1.527v.05l-4.469,1.527Z" transform="translate(-1296.884 2457.412)" fill="#fff"/><path d="M1296.625-2455.164l4.468-1.526v.05l-4.468,1.528Z" transform="translate(-1296.884 2457.416)" fill="#fff"/><path d="M1296.626-2455.219l4.469-1.528v.051l-4.468,1.528Z" transform="translate(-1296.884 2457.423)" fill="#fff"/><path d="M1296.627-2455.275l4.469-1.527,0,.051-4.468,1.527Z" transform="translate(-1296.884 2457.428)" fill="#fff"/><path d="M1296.629-2455.33l4.469-1.527v.05l-4.468,1.527Z" transform="translate(-1296.884 2457.433)" fill="#fff"/><path d="M1296.63-2455.386l4.468-1.527v.05l-4.468,1.528Z" transform="translate(-1296.884 2457.437)" fill="#fff"/><path d="M1296.631-2455.444l4.468-1.525v.05l-4.468,1.528Z" transform="translate(-1296.885 2457.443)" fill="#fff"/><path d="M1296.632-2455.5l4.468-1.527v.051l-4.469,1.526Z" transform="translate(-1296.885 2457.447)" fill="#fff"/><path d="M1296.633-2455.553l4.468-1.526v.051l-4.469,1.527Z" transform="translate(-1296.885 2457.453)" fill="#fff"/><path d="M1296.634-2455.609l4.468-1.526v.051l-4.469,1.526Z" transform="translate(-1296.885 2457.456)" fill="#fff"/><path d="M1296.635-2455.664l4.468-1.527v.051l-4.468,1.527Z" transform="translate(-1296.885 2457.462)" fill="#fff"/><path d="M1296.636-2455.718l4.469-1.528v.052l-4.468,1.525Z" transform="translate(-1296.885 2457.468)" fill="#fff"/><path d="M1296.638-2455.773l4.468-1.529v.05l-4.469,1.529Z" transform="translate(-1296.886 2457.472)" fill="#fff"/><path d="M1296.638-2455.83l4.468-1.527v.049l-4.469,1.528Z" transform="translate(-1296.885 2457.479)" fill="#fff"/><path d="M1296.639-2455.885l4.469-1.526v.05l-4.469,1.526Z" transform="translate(-1296.885 2457.481)" fill="#fff"/><path d="M1296.64-2455.939l4.469-1.529v.053l-4.469,1.526Z" transform="translate(-1296.885 2457.488)" fill="#fff"/><path d="M1296.641-2456l4.469-1.527v.051l-4.468,1.528Z" transform="translate(-1296.886 2457.492)" fill="#fff"/><path d="M1296.643-2456.052l4.468-1.526v.051l-4.469,1.526Z" transform="translate(-1296.885 2457.497)" fill="#fff"/><path d="M1296.644-2456.105l4.469-1.528v.05l-4.469,1.528Z" transform="translate(-1296.885 2457.502)" fill="#fff"/><path d="M1296.645-2456.162l4.468-1.528v.051l-4.469,1.528Z" transform="translate(-1296.886 2457.508)" fill="#fff"/><path d="M1296.646-2456.217l4.4-1.5.068,0v.025l-4.469,1.527Z" transform="translate(-1296.886 2457.511)" fill="#fff"/><path d="M1296.648-2456.267l4.26-1.456.138,0-4.4,1.5Z" transform="translate(-1296.886 2457.512)" fill="#fff"/><path d="M1296.647-2456.317l4.121-1.409.139,0-4.261,1.456Z" transform="translate(-1296.886 2457.51)" fill="#fff"/><path d="M1296.65-2456.368l3.98-1.361.139,0-4.12,1.409Z" transform="translate(-1296.886 2457.511)" fill="#fff"/><path d="M1296.65-2456.419l3.842-1.312h.138l-3.981,1.363Z" transform="translate(-1296.886 2457.511)" fill="#fff"/><path d="M1296.651-2456.469l3.7-1.266.139,0-3.842,1.314Z" transform="translate(-1296.886 2457.513)" fill="#fff"/><path d="M1296.653-2456.521l3.562-1.217.139,0-3.7,1.265Z" transform="translate(-1296.887 2457.511)" fill="#fff"/><path d="M1296.655-2456.573l3.422-1.168.139,0-3.563,1.219Z" transform="translate(-1296.887 2457.512)" fill="#fff"/><path d="M1296.654-2456.623l3.283-1.121.14,0-3.423,1.169Z" transform="translate(-1296.887 2457.512)" fill="#fff"/><path d="M1296.656-2456.672l3.143-1.074.137,0-3.281,1.122Z" transform="translate(-1296.887 2457.512)" fill="#fff"/><path d="M1296.657-2456.723l3-1.026.138,0-3.143,1.075Z" transform="translate(-1296.887 2457.512)" fill="#fff"/><path d="M1296.658-2456.772l2.865-.981.138,0-3,1.026Z" transform="translate(-1296.887 2457.512)" fill="#fff"/><path d="M1296.659-2456.826l2.724-.93.139,0-2.864.978Z" transform="translate(-1296.888 2457.513)" fill="#fff"/><path d="M1296.661-2456.875l2.584-.884.138,0-2.724.932Z" transform="translate(-1296.888 2457.513)" fill="#fff"/><path d="M1299.245-2457.764l-2.584.884.019-.935Z" transform="translate(-1296.887 2457.519)" fill="#fff"/></g></g><g transform="translate(42.66 39.899)"><circle cx="1.821" cy="1.821" r="1.821" fill="#fff"/><g clip-path="url(#e)"><path d="M1294.9-2430.7l2.393-.817-.017.866Z" transform="translate(-1293.442 2434.564)" fill="#fff"/><path d="M1294.741-2430.7l2.54-.866,0,.052-2.393.818Z" transform="translate(-1293.427 2434.568)" fill="#fff"/><path d="M1294.582-2430.711l2.685-.918v.052l-2.54.868Z" transform="translate(-1293.414 2434.575)" fill="#fff"/><path d="M1294.423-2430.718l2.831-.969v.054l-2.686.917Z" transform="translate(-1293.398 2434.58)" fill="#fff"/><path d="M1294.263-2430.728l2.978-1.017,0,.052-2.831.969Z" transform="translate(-1293.385 2434.585)" fill="#fff"/><path d="M1294.1-2430.736l3.123-1.067v.054l-2.977,1.018Z" transform="translate(-1293.37 2434.591)" fill="#fff"/><path d="M1293.945-2430.743l3.269-1.117v.052l-3.125,1.068Z" transform="translate(-1293.356 2434.595)" fill="#fff"/><path d="M1293.786-2430.753l3.415-1.167v.052l-3.269,1.117Z" transform="translate(-1293.342 2434.601)" fill="#fff"/><path d="M1293.627-2430.76l3.561-1.216v.052l-3.415,1.166Z" transform="translate(-1293.327 2434.606)" fill="#fff"/><path d="M1293.468-2430.767l3.706-1.268v.052l-3.561,1.217Z" transform="translate(-1293.313 2434.612)" fill="#fff"/><path d="M1293.308-2430.774l3.853-1.317v.052l-3.706,1.267Z" transform="translate(-1293.298 2434.616)" fill="#fff"/><path d="M1293.149-2430.783l4-1.366v.052l-3.852,1.315Z" transform="translate(-1293.284 2434.621)" fill="#fff"/><path d="M1293-2430.794l4.14-1.414,0,.053-4,1.366-.14,0Z" transform="translate(-1293.271 2434.626)" fill="#fff"/><path d="M1293-2430.852l4.139-1.413v.053L1293-2430.8Z" transform="translate(-1293.27 2434.631)" fill="#fff"/><path d="M1293-2430.91l4.14-1.413,0,.052-4.14,1.414Z" transform="translate(-1293.271 2434.637)" fill="#fff"/><path d="M1293-2430.968l4.139-1.414v.053l-4.139,1.413Z" transform="translate(-1293.271 2434.643)" fill="#fff"/><path d="M1293-2431.026l4.139-1.414v.053l-4.14,1.413Z" transform="translate(-1293.272 2434.647)" fill="#fff"/><path d="M1293-2431.083l4.14-1.415v.052l-4.139,1.415Z" transform="translate(-1293.271 2434.653)" fill="#fff"/><path d="M1293-2431.142l4.139-1.413v.052l-4.139,1.415Z" transform="translate(-1293.272 2434.659)" fill="#fff"/><path d="M1293-2431.2l4.139-1.414v.052l-4.139,1.414Z" transform="translate(-1293.271 2434.663)" fill="#fff"/><path d="M1293-2431.256l4.139-1.416v.054L1293-2431.2Z" transform="translate(-1293.271 2434.668)" fill="#fff"/><path d="M1293.006-2431.316l4.139-1.413v.052l-4.14,1.414Z" transform="translate(-1293.271 2434.673)" fill="#fff"/><path d="M1293.007-2431.374l4.139-1.414v.052l-4.139,1.414Z" transform="translate(-1293.271 2434.679)" fill="#fff"/><path d="M1293.008-2431.43l4.14-1.416,0,.052-4.139,1.415Z" transform="translate(-1293.271 2434.685)" fill="#fff"/><path d="M1293.01-2431.489l4.139-1.414,0,.052-4.139,1.414Z" transform="translate(-1293.271 2434.69)" fill="#fff"/><path d="M1293.01-2431.548l4.139-1.414v.052l-4.14,1.413Z" transform="translate(-1293.271 2434.694)" fill="#fff"/><path d="M1293.011-2431.605l4.14-1.414v.051l-4.14,1.416Z" transform="translate(-1293.271 2434.699)" fill="#fff"/><path d="M1293.013-2431.663l4.139-1.414v.052l-4.14,1.415Z" transform="translate(-1293.272 2434.705)" fill="#fff"/><path d="M1293.015-2431.72l4.139-1.414,0,.051-4.139,1.414Z" transform="translate(-1293.272 2434.708)" fill="#fff"/><path d="M1293.015-2431.779l4.139-1.414v.052l-4.139,1.415Z" transform="translate(-1293.271 2434.716)" fill="#fff"/><path d="M1293.016-2431.836l4.14-1.415v.052l-4.14,1.414Z" transform="translate(-1293.272 2434.72)" fill="#fff"/><path d="M1293.017-2431.9l4.139-1.413v.051l-4.139,1.415Z" transform="translate(-1293.272 2434.725)" fill="#fff"/><path d="M1293.018-2431.954l4.139-1.413v.052l-4.139,1.415Z" transform="translate(-1293.272 2434.731)" fill="#fff"/><path d="M1293.019-2432.011l4.139-1.414v.052l-4.139,1.414Z" transform="translate(-1293.272 2434.736)" fill="#fff"/><path d="M1293.02-2432.07l4.14-1.414,0,.053-4.139,1.415Z" transform="translate(-1293.273 2434.742)" fill="#fff"/><path d="M1293.022-2432.127l4.139-1.414v.052l-4.14,1.414Z" transform="translate(-1293.272 2434.746)" fill="#fff"/><path d="M1293.023-2432.186l4.139-1.413v.051l-4.139,1.415Z" transform="translate(-1293.273 2434.751)" fill="#fff"/><path d="M1293.025-2432.243l4.139-1.414v.052l-4.139,1.415Z" transform="translate(-1293.273 2434.758)" fill="#fff"/><path d="M1293.026-2432.3l4.139-1.413v.051l-4.14,1.415Z" transform="translate(-1293.273 2434.761)" fill="#fff"/><path d="M1293.026-2432.353l4.139-1.413v.046l-4.139,1.416Z" transform="translate(-1293.272 2434.766)" fill="#fff"/><path d="M1293.027-2432.4l4.14-1.413v.046l-4.139,1.417Z" transform="translate(-1293.273 2434.771)" fill="#fff"/><path d="M1293.029-2432.456l4.139-1.413v.046l-4.139,1.416Z" transform="translate(-1293.273 2434.776)" fill="#fff"/><path d="M1293.03-2432.506l4.14-1.414v.047l-4.14,1.416Z" transform="translate(-1293.273 2434.779)" fill="#fff"/><path d="M1293.031-2432.557l4.139-1.415v.047l-4.139,1.416Z" transform="translate(-1293.273 2434.786)" fill="#fff"/><path d="M1293.031-2432.609l4.14-1.414v.047l-4.139,1.416Z" transform="translate(-1293.273 2434.789)" fill="#fff"/><path d="M1293.033-2432.661l4.139-1.413v.047l-4.14,1.416Z" transform="translate(-1293.273 2434.794)" fill="#fff"/><path d="M1293.034-2432.713l4.139-1.413v.047l-4.139,1.416Z" transform="translate(-1293.274 2434.8)" fill="#fff"/><path d="M1293.036-2432.763l4.138-1.415v.047l-4.139,1.416Z" transform="translate(-1293.274 2434.804)" fill="#fff"/><path d="M1293.036-2432.815l4.14-1.413v.046l-4.139,1.415Z" transform="translate(-1293.273 2434.809)" fill="#fff"/><path d="M1293.037-2432.867l4.139-1.413v.046l-4.139,1.416Z" transform="translate(-1293.274 2434.812)" fill="#fff"/><path d="M1293.037-2432.916l4.14-1.416v.048l-4.14,1.415Z" transform="translate(-1293.274 2434.817)" fill="#fff"/><path d="M1293.038-2432.969l4.139-1.413v.046l-4.139,1.416Z" transform="translate(-1293.274 2434.821)" fill="#fff"/><path d="M1293.04-2433.021l4.139-1.413v.046l-4.139,1.416Z" transform="translate(-1293.275 2434.827)" fill="#fff"/><path d="M1293.041-2433.072l4.139-1.414v.046l-4.139,1.415Z" transform="translate(-1293.275 2434.832)" fill="#fff"/><path d="M1293.041-2433.123l4.14-1.413v.045l-4.14,1.416Z" transform="translate(-1293.274 2434.836)" fill="#fff"/><path d="M1293.043-2433.175l4.139-1.414v.046l-4.139,1.415Z" transform="translate(-1293.275 2434.841)" fill="#fff"/><path d="M1293.044-2433.226l4.139-1.414v.047l-4.139,1.414Z" transform="translate(-1293.274 2434.846)" fill="#fff"/><path d="M1293.045-2433.278l4.139-1.413v.046l-4.139,1.416Z" transform="translate(-1293.275 2434.85)" fill="#fff"/><path d="M1293.046-2433.329l4.139-1.414v.049l-4.139,1.413Z" transform="translate(-1293.274 2434.855)" fill="#fff"/><path d="M1293.047-2433.381l4.139-1.414v.047l-4.139,1.414Z" transform="translate(-1293.275 2434.858)" fill="#fff"/><path d="M1293.048-2433.432l4.14-1.414v.047l-4.14,1.415Z" transform="translate(-1293.275 2434.864)" fill="#fff"/><path d="M1293.049-2433.481l4.14-1.416v.049l-4.14,1.412Z" transform="translate(-1293.275 2434.868)" fill="#fff"/><path d="M1293.05-2433.535l4.139-1.414v.046l-4.139,1.416Z" transform="translate(-1293.275 2434.873)" fill="#fff"/><path d="M1293.051-2433.585l4.14-1.415v.048l-4.14,1.414Z" transform="translate(-1293.274 2434.878)" fill="#fff"/><path d="M1293.052-2433.637l4.139-1.414v.048l-4.139,1.413Z" transform="translate(-1293.276 2434.882)" fill="#fff"/><path d="M1293.053-2433.686l4.076-1.393h.063v.024l-4.139,1.415Z" transform="translate(-1293.275 2434.885)" fill="#fff"/><path d="M1293.055-2433.732l3.947-1.349.128,0-4.076,1.393Z" transform="translate(-1293.276 2434.884)" fill="#fff"/><path d="M1293.055-2433.781l3.818-1.3.128,0-3.947,1.349Z" transform="translate(-1293.275 2434.886)" fill="#fff"/><path d="M1293.057-2433.827l3.687-1.261.128,0-3.818,1.305Z" transform="translate(-1293.275 2434.886)" fill="#fff"/><path d="M1293.057-2433.875l3.559-1.216.129,0-3.688,1.261Z" transform="translate(-1293.275 2434.886)" fill="#fff"/><path d="M1293.058-2433.921l3.428-1.172.129,0-3.558,1.218Z" transform="translate(-1293.275 2434.887)" fill="#fff"/><path d="M1293.059-2433.969l3.3-1.128.128,0-3.428,1.173Z" transform="translate(-1293.276 2434.887)" fill="#fff"/><path d="M1293.061-2434.016l3.17-1.083.128,0-3.3,1.126Z" transform="translate(-1293.276 2434.888)" fill="#fff"/><path d="M1293.061-2434.062l3.041-1.04.128,0-3.17,1.083Z" transform="translate(-1293.277 2434.886)" fill="#fff"/><path d="M1293.063-2434.109l2.911-1,.129,0-3.042,1.04Z" transform="translate(-1293.276 2434.887)" fill="#fff"/><path d="M1293.063-2434.157l2.783-.95.128,0-2.912.994Z" transform="translate(-1293.277 2434.888)" fill="#fff"/><path d="M1293.064-2434.2l2.653-.906.128,0-2.781.95Z" transform="translate(-1293.277 2434.889)" fill="#fff"/><path d="M1293.066-2434.252l2.523-.861.129,0-2.652.906Z" transform="translate(-1293.276 2434.89)" fill="#fff"/><path d="M1293.066-2434.3l2.394-.818.128,0-2.523.862Z" transform="translate(-1293.276 2434.888)" fill="#fff"/><path d="M1295.46-2435.12l-2.393.817.017-.865Z" transform="translate(-1293.277 2434.894)" fill="#fff"/></g></g><g transform="translate(9.682 44.77)"><circle cx="1.821" cy="1.821" r="1.821" fill="#fff"/><g clip-path="url(#e)"><path d="M1258.658-2425.577l2.393-.817-.017.865Z" transform="translate(-1257.2 2429.446)" fill="#fff"/><path d="M1258.5-2425.586l2.54-.867,0,.052-2.393.818Z" transform="translate(-1257.185 2429.452)" fill="#fff"/><path d="M1258.339-2425.594l2.686-.916,0,.053-2.539.867Z" transform="translate(-1257.172 2429.457)" fill="#fff"/><path d="M1258.18-2425.6l2.831-.968v.054l-2.686.917Z" transform="translate(-1257.156 2429.463)" fill="#fff"/><path d="M1258.021-2425.61l2.978-1.017,0,.053-2.831.967Z" transform="translate(-1257.142 2429.467)" fill="#fff"/><path d="M1257.862-2425.619l3.123-1.065v.052l-2.977,1.017Z" transform="translate(-1257.129 2429.472)" fill="#fff"/><path d="M1257.7-2425.627l3.269-1.117v.055l-3.124,1.066Z" transform="translate(-1257.114 2429.478)" fill="#fff"/><path d="M1257.544-2425.635l3.415-1.166,0,.052-3.268,1.119Z" transform="translate(-1257.099 2429.482)" fill="#fff"/><path d="M1257.385-2425.643l3.56-1.217v.052l-3.414,1.167Z" transform="translate(-1257.085 2429.489)" fill="#fff"/><path d="M1257.226-2425.65l3.706-1.267v.052l-3.56,1.216Z" transform="translate(-1257.071 2429.494)" fill="#fff"/><path d="M1257.066-2425.657l3.853-1.318v.052l-3.706,1.269Z" transform="translate(-1257.057 2429.5)" fill="#fff"/><path d="M1256.907-2425.665l4-1.367v.052l-3.853,1.317Z" transform="translate(-1257.042 2429.504)" fill="#fff"/><path d="M1256.754-2425.677l4.14-1.413,0,.052-4,1.365h-.14Z" transform="translate(-1257.029 2429.508)" fill="#fff"/><path d="M1256.754-2425.734l4.141-1.415,0,.052-4.139,1.414Z" transform="translate(-1257.029 2429.514)" fill="#fff"/><path d="M1256.756-2425.793l4.139-1.413v.053l-4.139,1.413Z" transform="translate(-1257.029 2429.52)" fill="#fff"/><path d="M1256.757-2425.851l4.139-1.414v.052l-4.139,1.415Z" transform="translate(-1257.029 2429.526)" fill="#fff"/><path d="M1256.758-2425.907l4.139-1.416v.054l-4.14,1.413Z" transform="translate(-1257.029 2429.53)" fill="#fff"/><path d="M1256.759-2425.966l4.14-1.414v.052l-4.14,1.415Z" transform="translate(-1257.029 2429.535)" fill="#fff"/><path d="M1256.761-2426.024l4.139-1.414v.051l-4.14,1.415Z" transform="translate(-1257.029 2429.542)" fill="#fff"/><path d="M1256.762-2426.082l4.14-1.414v.052l-4.14,1.415Z" transform="translate(-1257.029 2429.546)" fill="#fff"/><path d="M1256.763-2426.141l4.139-1.414v.052l-4.139,1.415Z" transform="translate(-1257.029 2429.551)" fill="#fff"/><path d="M1256.764-2426.2l4.14-1.413v.052l-4.139,1.414Z" transform="translate(-1257.029 2429.555)" fill="#fff"/><path d="M1256.765-2426.257l4.139-1.413v.052l-4.14,1.415Z" transform="translate(-1257.029 2429.561)" fill="#fff"/><path d="M1256.766-2426.314l4.14-1.414v.052l-4.139,1.415Z" transform="translate(-1257.029 2429.568)" fill="#fff"/><path d="M1256.767-2426.372l4.14-1.414v.052l-4.139,1.414Z" transform="translate(-1257.029 2429.572)" fill="#fff"/><path d="M1256.768-2426.431l4.14-1.413v.052l-4.14,1.414Z" transform="translate(-1257.029 2429.577)" fill="#fff"/><path d="M1256.769-2426.488l4.139-1.415v.052l-4.139,1.414Z" transform="translate(-1257.029 2429.582)" fill="#fff"/><path d="M1256.771-2426.547l4.14-1.413v.052l-4.139,1.415Z" transform="translate(-1257.03 2429.588)" fill="#fff"/><path d="M1256.771-2426.6l4.14-1.414,0,.052-4.139,1.414Z" transform="translate(-1257.03 2429.592)" fill="#fff"/><path d="M1256.774-2426.66l4.139-1.415v.051l-4.139,1.415Z" transform="translate(-1257.03 2429.596)" fill="#fff"/><path d="M1256.775-2426.72l4.139-1.414v.052l-4.139,1.416Z" transform="translate(-1257.03 2429.603)" fill="#fff"/><path d="M1256.776-2426.778l4.139-1.413v.052l-4.14,1.414Z" transform="translate(-1257.03 2429.608)" fill="#fff"/><path d="M1256.776-2426.836l4.139-1.414v.052l-4.139,1.416Z" transform="translate(-1257.03 2429.614)" fill="#fff"/><path d="M1256.778-2426.895l4.139-1.413v.053l-4.139,1.413Z" transform="translate(-1257.03 2429.619)" fill="#fff"/><path d="M1256.779-2426.952l4.139-1.413v.051l-4.139,1.415Z" transform="translate(-1257.031 2429.623)" fill="#fff"/><path d="M1256.781-2427.01l4.139-1.414v.052l-4.14,1.416Z" transform="translate(-1257.031 2429.629)" fill="#fff"/><path d="M1256.782-2427.068l4.14-1.413v.051l-4.14,1.414Z" transform="translate(-1257.031 2429.634)" fill="#fff"/><path d="M1256.782-2427.126l4.139-1.414v.053l-4.139,1.415Z" transform="translate(-1257.031 2429.641)" fill="#fff"/><path d="M1256.784-2427.184l4.139-1.414v.053l-4.14,1.413Z" transform="translate(-1257.031 2429.645)" fill="#fff"/><path d="M1256.784-2427.235l4.141-1.414,0,.047-4.139,1.415Z" transform="translate(-1257.03 2429.649)" fill="#fff"/><path d="M1256.785-2427.286l4.141-1.414v.046l-4.14,1.416Z" transform="translate(-1257.031 2429.654)" fill="#fff"/><path d="M1256.787-2427.338l4.139-1.414v.046l-4.139,1.416Z" transform="translate(-1257.031 2429.659)" fill="#fff"/><path d="M1256.787-2427.389l4.139-1.414v.046l-4.14,1.415Z" transform="translate(-1257.031 2429.663)" fill="#fff"/><path d="M1256.789-2427.44l4.139-1.415v.047l-4.14,1.416Z" transform="translate(-1257.031 2429.669)" fill="#fff"/><path d="M1256.79-2427.491l4.139-1.415v.046l-4.139,1.416Z" transform="translate(-1257.032 2429.672)" fill="#fff"/><path d="M1256.792-2427.544l4.139-1.414,0,.047-4.139,1.415Z" transform="translate(-1257.031 2429.678)" fill="#fff"/><path d="M1256.792-2427.593l4.14-1.416v.047l-4.14,1.416Z" transform="translate(-1257.032 2429.682)" fill="#fff"/><path d="M1256.793-2427.646l4.139-1.415v.047l-4.139,1.416Z" transform="translate(-1257.031 2429.687)" fill="#fff"/><path d="M1256.794-2427.7l4.14-1.415v.047l-4.14,1.415Z" transform="translate(-1257.031 2429.691)" fill="#fff"/><path d="M1256.8-2427.749l4.139-1.414,0,.047-4.139,1.415Z" transform="translate(-1257.032 2429.695)" fill="#fff"/><path d="M1256.8-2427.8l4.14-1.414v.047l-4.14,1.416Z" transform="translate(-1257.032 2429.7)" fill="#fff"/><path d="M1256.8-2427.851l4.139-1.414v.046l-4.139,1.415Z" transform="translate(-1257.032 2429.705)" fill="#fff"/><path d="M1256.8-2427.9l4.14-1.414v.046l-4.139,1.416Z" transform="translate(-1257.032 2429.709)" fill="#fff"/><path d="M1256.8-2427.955l4.139-1.414v.046l-4.139,1.416Z" transform="translate(-1257.033 2429.715)" fill="#fff"/><path d="M1256.8-2428.007l4.139-1.414v.047l-4.14,1.416Z" transform="translate(-1257.032 2429.72)" fill="#fff"/><path d="M1256.8-2428.056l4.14-1.416,0,.048-4.139,1.413Z" transform="translate(-1257.033 2429.724)" fill="#fff"/><path d="M1256.8-2428.108l4.139-1.414v.044l-4.139,1.415Z" transform="translate(-1257.032 2429.728)" fill="#fff"/><path d="M1256.8-2428.161l4.138-1.414v.047l-4.139,1.415Z" transform="translate(-1257.033 2429.733)" fill="#fff"/><path d="M1256.8-2428.211l4.139-1.414v.046l-4.14,1.416Z" transform="translate(-1257.032 2429.737)" fill="#fff"/><path d="M1256.806-2428.262l4.139-1.414v.044l-4.139,1.415Z" transform="translate(-1257.033 2429.74)" fill="#fff"/><path d="M1256.806-2428.313l4.141-1.416,0,.047-4.139,1.416Z" transform="translate(-1257.033 2429.747)" fill="#fff"/><path d="M1256.808-2428.365l4.139-1.414v.047l-4.14,1.415Z" transform="translate(-1257.033 2429.75)" fill="#fff"/><path d="M1256.808-2428.418l4.139-1.414v.046l-4.139,1.416Z" transform="translate(-1257.033 2429.756)" fill="#fff"/><path d="M1256.809-2428.468l4.139-1.415v.045l-4.139,1.416Z" transform="translate(-1257.033 2429.761)" fill="#fff"/><path d="M1256.81-2428.519l4.139-1.414v.047l-4.139,1.415Z" transform="translate(-1257.034 2429.764)" fill="#fff"/><path d="M1256.811-2428.571l4.076-1.391h.063v.023l-4.139,1.414Z" transform="translate(-1257.033 2429.766)" fill="#fff"/><path d="M1256.812-2428.616l3.947-1.349.129,0-4.076,1.392Z" transform="translate(-1257.034 2429.768)" fill="#fff"/><path d="M1256.813-2428.66l3.817-1.307.128,0-3.946,1.351Z" transform="translate(-1257.034 2429.768)" fill="#fff"/><path d="M1256.815-2428.709l3.687-1.26.128,0-3.817,1.306Z" transform="translate(-1257.033 2429.768)" fill="#fff"/><path d="M1256.815-2428.758l3.559-1.214h.128l-3.688,1.26Z" transform="translate(-1257.033 2429.768)" fill="#fff"/><path d="M1256.817-2428.8l3.428-1.173.129,0-3.558,1.217Z" transform="translate(-1257.033 2429.77)" fill="#fff"/><path d="M1256.818-2428.851l3.3-1.127h.129l-3.429,1.173Z" transform="translate(-1257.034 2429.769)" fill="#fff"/><path d="M1256.819-2428.9l3.171-1.084.128,0-3.3,1.128Z" transform="translate(-1257.034 2429.771)" fill="#fff"/><path d="M1256.819-2428.946l3.041-1.038h.128l-3.171,1.084Z" transform="translate(-1257.034 2429.769)" fill="#fff"/><path d="M1256.821-2428.992l2.91-1,.129,0-3.042,1.039Z" transform="translate(-1257.033 2429.77)" fill="#fff"/><path d="M1256.821-2429.04l2.783-.95.128,0-2.911,1Z" transform="translate(-1257.035 2429.771)" fill="#fff"/><path d="M1256.822-2429.087l2.653-.906.128,0-2.782.95Z" transform="translate(-1257.034 2429.771)" fill="#fff"/><path d="M1256.824-2429.133l2.523-.863.129,0-2.653.906Z" transform="translate(-1257.035 2429.772)" fill="#fff"/><path d="M1256.826-2429.18l2.393-.818.128,0-2.523.863Z" transform="translate(-1257.035 2429.771)" fill="#fff"/><path d="M1259.219-2430l-2.394.819.017-.865Z" transform="translate(-1257.035 2429.776)" fill="#fff"/></g></g></g></g></g><g transform="translate(6 185)"><g transform="translate(45.086 155.534)"><g transform="translate(0 0)"><path d="M246.927-305.159c.216,1.318.545,4.226.818,7.419h0c.068.682.136,1.284.2,1.863h0l.352,2.908a12.632,12.632,0,0,0,2.011,6.226h0a11.961,11.961,0,0,0,16.247,3.829h0a46.194,46.194,0,0,0,0-11.408h0a11.537,11.537,0,0,1-.591,3.409h0a6.3,6.3,0,0,1-6.544,3.341h0c-2.238-.284-3.761-1.954-4.624-4.022h0a20.479,20.479,0,0,1-.534-3.727h0c-.307-4.715-.648-9.623-.943-12.055h0a8.764,8.764,0,0,0-1.943-4.908h0c-2.4.159-4.453,7.123-4.453,7.123" transform="translate(-246.927 312.282)" fill="#fff"/></g></g><g transform="translate(49.896 162.245)"><g transform="translate(0 0)"><path d="M-24.37-28.251a12.421,12.421,0,0,1-8.089,11.8,12.1,12.1,0,0,1-10.577-.2c-2.329-1.42-2.318-4.25-1-5.125a2.583,2.583,0,0,1,.3-.17c1.693-.8,2.92-.4,4.34-.034a6.439,6.439,0,0,0,2.409.352h.011a6.44,6.44,0,0,0,3.6-1.352,7.028,7.028,0,0,0,1.431-1.488.763.763,0,0,0,.08-.125,4.4,4.4,0,0,0,.273-.421c0-.011.011-.011.011-.022a7.842,7.842,0,0,0,.932-2.988c.022-.58.034-1.159.045-1.727a46.192,46.192,0,0,0,0-11.407c.011-1.591.011-3.181.034-4.783a6.258,6.258,0,0,1,5.465-6.113c.568-.079.784-.057.784.637-.022,7.726.114,15.452-.045,23.166" transform="translate(44.93 52.085)" fill="#fff"/></g></g><g transform="translate(22.782 156.18)"><g transform="translate(0 0)"><path d="M198.346-309.724c-1.068,1.138-.6,5.271-.6,5.271h0c.49,1.163,1.252,3.128,1.831,4.82h0l4.718,13.886c1.189,3.554,3.122,5.277,5.278,5.277h0l1.652-.03h0c.2,0,.275-.251.313-.435h0c.845-4.076-8.6-26.927-8.6-26.927h0A18.254,18.254,0,0,0,202-309.73h0a6.916,6.916,0,0,0-.674-.852h0c-.013,0-.019-.013-.032-.026h0a1.417,1.417,0,0,0-.832-.263h0a3.2,3.2,0,0,0-2.112,1.147" transform="translate(-197.642 310.871)" fill="#fff"/></g></g><g transform="translate(15 153.614)"><g transform="translate(0 0)"><path d="M183.283-316.478a215.322,215.322,0,0,0-2.648,28.562h0c0,2.784,1.682,4.374,4.136,4.374h2.306c0-6.01.579-19.235,1.443-23.95h0s.766-6,2.8-6.308h0c.215-.033.515-.1,1.1.547h0a9.811,9.811,0,0,0-7.74-3.226h-1.4Z" transform="translate(-180.635 316.478)" fill="#fff"/></g></g><g transform="translate(30.474 153.613)"><g transform="translate(0 0)"><path d="M227.727-315.862c-1.325,1.489-3.078,4.559-4.515,9.054h0l-3.8,11.681a46.763,46.763,0,0,1-2.527,6.431h0c-.745,1.655-1.479,2.862-2.439,2.265h0c-.022.207,2.369,4.034,5.888,2.891h0c.523.076,2.054-3.512,2.83-5.876h0l4.61-14.135c.477-1.488,1.1-2.823,1.532-3.885h0s3.21-7.828,5.277-5.962h0a6.12,6.12,0,0,0-5.467-3.08h0a1.857,1.857,0,0,0-1.392.617" transform="translate(-214.45 316.479)" fill="#fff"/></g></g><g transform="translate(88.83 151)"><g transform="translate(0 0)"><path d="M355.8-322.19c-2.807,0-10.464.675-12.245,1.35h0v26.75c0,5.505,7.116,7.9,13.379,7.9h3.077c9.665,0,17.007-7.9,17.007-18.647h0c0-11.895-8.908-17.348-17.385-17.348H355.8Zm-1.728,26.749v-20.413a21.377,21.377,0,0,1,2.808-.363H358.5c6.371,0,10.96,4.415,10.96,12.362h0c0,6.441-4.319,11.427-10.42,11.427H357.8c-2.754,0-3.726-.935-3.726-3.012" transform="translate(-343.556 322.19)" fill="#fff"/></g></g><g transform="translate(75.053 151)"><g transform="translate(0 0)"><path d="M312.844-322.19v4.932h0V-294c0,4.152,3.872,6.5,8.3,7.384h0a1.266,1.266,0,0,0,1.5-1.245h0v-9.7h0v-19.9h0v-.125a4.551,4.551,0,0,0-4.336-4.594h-5.472Z" transform="translate(-312.844 322.19)" fill="#fff"/></g></g></g><line x1="1" y2="39" transform="translate(141.5 337.5)" fill="rgba(0,0,0,0)" stroke="rgba(255,255,255,0.5)" stroke-width="1"/></g></svg>