<svg xmlns="http://www.w3.org/2000/svg" xmlns:xlink="http://www.w3.org/1999/xlink"  viewBox="0 0 20.803 20.803"><defs><linearGradient id="a" x1="0.865" y1="0.053" x2="0.168" y2="0.907" gradientUnits="objectBoundingBox"><stop offset="0" stop-color="#d3d3d3"/><stop offset="1" stop-color="#3b3b3b"/></linearGradient><linearGradient id="b" x1="0.5" y1="0.11" x2="0.5" y2="0.862" gradientUnits="objectBoundingBox"><stop offset="0" stop-color="silver"/><stop offset="1" stop-color="#999"/></linearGradient><linearGradient id="c" x1="0.362" y1="0.205" x2="0.727" y2="0.985" gradientUnits="objectBoundingBox"><stop offset="0" stop-color="#fff"/><stop offset="1" stop-color="#999"/></linearGradient><linearGradient id="d" x1="0.371" y1="0.189" x2="0.614" y2="0.773" gradientUnits="objectBoundingBox"><stop offset="0"/><stop offset="1" stop-color="#b3b3b3"/></linearGradient><linearGradient id="e" x1="0.5" y1="1.117" x2="0.5" y2="0.024" gradientUnits="objectBoundingBox"><stop offset="0" stop-color="#4d4d4d"/><stop offset="1" stop-color="#fff"/></linearGradient><linearGradient id="f" x1="0.49" y1="0.461" x2="0.422" y2="0.113" xlink:href="#d"/><linearGradient id="g" x1="0.5" y1="0.908" x2="0.5" y2="0.054" xlink:href="#b"/><linearGradient id="h" x1="0.5" y1="0.106" x2="0.5" y2="0.746" xlink:href="#b"/><linearGradient id="i" x1="0.563" y1="0.613" x2="0.262" y2="0.076" xlink:href="#d"/><linearGradient id="j" x1="-0.191" y1="-0.012" x2="0.883" y2="0.823" xlink:href="#e"/><linearGradient id="k" x1="0.5" y1="0.998" x2="0.5" y2="0.051" gradientUnits="objectBoundingBox"><stop offset="0" stop-color="#4d4d4d"/><stop offset="1" stop-color="#949494"/></linearGradient><linearGradient id="l" x1="0.5" y1="0.777" x2="0.5" y2="0.04" gradientUnits="objectBoundingBox"><stop offset="0"/><stop offset="1" stop-color="#949494"/></linearGradient><linearGradient id="m" x1="0.5" y1="-1.954" x2="0.5" y2="3.587" xlink:href="#d"/><linearGradient id="n" x1="0.5" y1="-6.485" x2="0.5" y2="5.976" xlink:href="#d"/><linearGradient id="o" x1="0.5" y1="-1.885" x2="0.5" y2="6.036" xlink:href="#d"/><linearGradient id="p" x1="0.5" y1="-7.292" x2="0.5" y2="36.871" xlink:href="#d"/><linearGradient id="q" x1="0.5" y1="-3.147" x2="0.5" y2="9.992" xlink:href="#d"/><linearGradient id="r" x1="0.5" y1="0.097" x2="0.5" y2="4.363" xlink:href="#b"/><linearGradient id="s" x1="0.5" y1="-0.247" x2="0.5" y2="1.327" xlink:href="#b"/><linearGradient id="t" x1="0.5" y1="-2.59" x2="0.5" y2="0.299" xlink:href="#b"/><linearGradient id="u" x1="0.5" y1="-14.328" x2="0.5" y2="-3.911" xlink:href="#b"/><linearGradient id="v" x1="0.5" y1="-1.436" x2="0.5" y2="0.533" xlink:href="#b"/></defs><g transform="translate(-267.795 -270.246)"><circle cx="10.402" cy="10.402" r="10.402" transform="translate(267.795 270.246)" fill="url(#a)"/><circle cx="9.958" cy="9.958" r="9.958" transform="translate(268.239 270.69)" fill="url(#b)"/><circle cx="9.958" cy="9.958" r="9.958" transform="translate(268.239 270.69)" fill="url(#c)" style="mix-blend-mode:multiply;isolation:isolate"/><path d="M276.281,292.079a9.71,9.71,0,0,1,15.172-11.907c-.315.579-.653,1.148-1.007,1.7a7.813,7.813,0,0,0-12.264,9.648C277.558,291.729,276.921,291.917,276.281,292.079Z" transform="translate(-6.377 -6.377)" fill="url(#d)" style="mix-blend-mode:screen;isolation:isolate"/><path d="M389.6,399.694h-.087a.846.846,0,0,0-.8.541,7.709,7.709,0,0,1-5.722,4.791.848.848,0,0,0-.664.66l0,.021a1.047,1.047,0,0,0,1.246,1.238,9.711,9.711,0,0,0,7.072-6.157.828.828,0,0,0-.828-1.1Q389.708,399.694,389.6,399.694Z" transform="translate(-103.338 -116.822)" opacity="0.35" fill="url(#e)" style="mix-blend-mode:multiply;isolation:isolate"/><path d="M276.864,286.573q.185,0,.367.013a.774.774,0,0,0,.815-.649,7.7,7.7,0,0,1,8.848-6.381,1.228,1.228,0,0,0,1.275-.594l.01-.018a.87.87,0,0,0-.57-1.288,9.7,9.7,0,0,0-11.543,8,.8.8,0,0,0,.789.921Z" transform="translate(-7.456 -6.507)" fill="url(#f)" style="mix-blend-mode:screen;isolation:isolate"/><circle cx="7.569" cy="7.569" r="7.569" transform="translate(270.627 273.078)" fill="url(#g)"/><circle cx="6.983" cy="6.983" r="6.983" transform="translate(271.213 273.664)" fill="url(#h)"/><circle cx="6.983" cy="6.983" r="6.983" transform="translate(271.213 273.664)" fill="url(#i)" style="mix-blend-mode:screen;isolation:isolate"/><path d="M345.092,322.977a2.8,2.8,0,0,0-1.17-1.017,11.9,11.9,0,0,0-2.662-.81,2.322,2.322,0,0,1-.951-.338.511.511,0,0,1-.206-.394.643.643,0,0,1,.25-.51,1.136,1.136,0,0,1,.744-.21,1.437,1.437,0,0,1,.941.281,1.051,1.051,0,0,1,.228.268,1.208,1.208,0,0,0,1.1.581l.052,0a1.205,1.205,0,0,0,.656-2.168l-.018-.013a3.621,3.621,0,0,0-1.549-.572V316.7a.247.247,0,0,0-.247-.247h-1.588a.247.247,0,0,0-.247.247v1.336a4.467,4.467,0,0,0-1.3.312,2.717,2.717,0,0,0-1.232.988,2.4,2.4,0,0,0-.41,1.335,2.239,2.239,0,0,0,.8,1.77,6.169,6.169,0,0,0,2.658,1.113,3.62,3.62,0,0,1,1.451.532.842.842,0,0,1,.313.638.853.853,0,0,1-.329.66,1.385,1.385,0,0,1-.935.285,1.5,1.5,0,0,1-1.251-.557,1.354,1.354,0,0,1-.159-.264,1.212,1.212,0,0,0-1.181-.675l-.186.012a1.208,1.208,0,0,0-.919,1.89,3.449,3.449,0,0,0,.411.5,3.656,3.656,0,0,0,2.271.855v1.219a.247.247,0,0,0,.247.247h1.588a.247.247,0,0,0,.247-.247v-1.254a4.4,4.4,0,0,0,1.1-.3,3.052,3.052,0,0,0,1.364-1.129,2.907,2.907,0,0,0,.488-1.626A2.578,2.578,0,0,0,345.092,322.977Z" transform="translate(-62.893 -41.704)" opacity="0.35" fill="url(#j)" style="mix-blend-mode:multiply;isolation:isolate"/><path d="M341.187,319.071a2.8,2.8,0,0,0-1.17-1.016,11.908,11.908,0,0,0-2.662-.81,2.322,2.322,0,0,1-.951-.338.51.51,0,0,1-.206-.394.642.642,0,0,1,.25-.51,1.136,1.136,0,0,1,.744-.21,1.437,1.437,0,0,1,.941.282,1.052,1.052,0,0,1,.228.268,1.208,1.208,0,0,0,1.1.581l.052,0a1.205,1.205,0,0,0,.656-2.168l-.018-.013a3.623,3.623,0,0,0-1.549-.572V312.8a.247.247,0,0,0-.247-.247h-1.588a.247.247,0,0,0-.247.247v1.336a4.461,4.461,0,0,0-1.3.313,2.717,2.717,0,0,0-1.232.988,2.4,2.4,0,0,0-.41,1.335,2.239,2.239,0,0,0,.8,1.77,6.169,6.169,0,0,0,2.658,1.113,3.619,3.619,0,0,1,1.451.532.842.842,0,0,1,.313.638.853.853,0,0,1-.328.66,1.384,1.384,0,0,1-.935.285,1.5,1.5,0,0,1-1.251-.557,1.356,1.356,0,0,1-.159-.264,1.211,1.211,0,0,0-1.181-.675l-.186.012a1.208,1.208,0,0,0-.919,1.89,3.445,3.445,0,0,0,.411.5,3.654,3.654,0,0,0,2.271.855v1.219a.247.247,0,0,0,.247.247h1.588a.247.247,0,0,0,.247-.247v-1.254a4.4,4.4,0,0,0,1.1-.3,3.052,3.052,0,0,0,1.363-1.129,2.906,2.906,0,0,0,.488-1.626A2.578,2.578,0,0,0,341.187,319.071Z" transform="translate(-59.368 -38.179)" fill="url(#k)"/><path d="M341.187,319.071a2.8,2.8,0,0,0-1.17-1.016,11.908,11.908,0,0,0-2.662-.81,2.322,2.322,0,0,1-.951-.338.51.51,0,0,1-.206-.394.642.642,0,0,1,.25-.51,1.136,1.136,0,0,1,.744-.21,1.437,1.437,0,0,1,.941.282,1.052,1.052,0,0,1,.228.268,1.208,1.208,0,0,0,1.1.581l.052,0a1.205,1.205,0,0,0,.656-2.168l-.018-.013a3.623,3.623,0,0,0-1.549-.572V312.8a.247.247,0,0,0-.247-.247h-1.588a.247.247,0,0,0-.247.247v1.336a4.461,4.461,0,0,0-1.3.313,2.717,2.717,0,0,0-1.232.988,2.4,2.4,0,0,0-.41,1.335,2.239,2.239,0,0,0,.8,1.77,6.169,6.169,0,0,0,2.658,1.113,3.619,3.619,0,0,1,1.451.532.842.842,0,0,1,.313.638.853.853,0,0,1-.328.66,1.384,1.384,0,0,1-.935.285,1.5,1.5,0,0,1-1.251-.557,1.356,1.356,0,0,1-.159-.264,1.211,1.211,0,0,0-1.181-.675l-.186.012a1.208,1.208,0,0,0-.919,1.89,3.445,3.445,0,0,0,.411.5,3.654,3.654,0,0,0,2.271.855v1.219a.247.247,0,0,0,.247.247h1.588a.247.247,0,0,0,.247-.247v-1.254a4.4,4.4,0,0,0,1.1-.3,3.052,3.052,0,0,0,1.363-1.129,2.906,2.906,0,0,0,.488-1.626A2.578,2.578,0,0,0,341.187,319.071Z" transform="translate(-59.368 -38.179)" fill="url(#l)" style="mix-blend-mode:screen;isolation:isolate"/><g transform="translate(274.209 274.371)" style="mix-blend-mode:screen;isolation:isolate"><path d="M361.615,354.939a2.321,2.321,0,0,1-.951-.338.558.558,0,0,1-.192-.284.65.65,0,0,0-.014.135.51.51,0,0,0,.206.394,2.322,2.322,0,0,0,.951.338,11.906,11.906,0,0,1,2.662.81,2.8,2.8,0,0,1,1.17,1.016,2.554,2.554,0,0,1,.362,1.227c0-.038,0-.076,0-.115a2.578,2.578,0,0,0-.366-1.357,2.8,2.8,0,0,0-1.17-1.016A11.906,11.906,0,0,0,361.615,354.939Z" transform="translate(-357.837 -350.245)" fill="url(#m)"/><path d="M339.285,392.388a.881.881,0,0,1-.318.536,1.384,1.384,0,0,1-.935.285,1.5,1.5,0,0,1-1.251-.557,1.36,1.36,0,0,1-.159-.264,1.211,1.211,0,0,0-1.181-.675l-.186.012a1.206,1.206,0,0,0-1.123,1.328,1.2,1.2,0,0,1,1.123-1.083l.186-.012a1.211,1.211,0,0,1,1.181.675,1.358,1.358,0,0,0,.159.264,1.5,1.5,0,0,0,1.251.557,1.385,1.385,0,0,0,.935-.285.853.853,0,0,0,.328-.66A.778.778,0,0,0,339.285,392.388Z" transform="translate(-334.072 -383.992)" fill="url(#n)"/><path d="M333.987,330.327a2.718,2.718,0,0,1,1.232-.988,4.463,4.463,0,0,1,1.3-.312v-.245a4.461,4.461,0,0,0-1.3.313,2.718,2.718,0,0,0-1.232.988,2.4,2.4,0,0,0-.41,1.335c0,.036,0,.071.005.106A2.419,2.419,0,0,1,333.987,330.327Z" transform="translate(-333.577 -327.198)" fill="url(#o)"/><path d="M364.046,312.8h1.588a.247.247,0,0,1,.247.247V312.8a.247.247,0,0,0-.247-.247h-1.588a.247.247,0,0,0-.247.247v.245A.247.247,0,0,1,364.046,312.8Z" transform="translate(-360.852 -312.55)" fill="url(#p)"/><path d="M385.151,329.377a3.623,3.623,0,0,1,1.549.572l.018.013a1.144,1.144,0,0,1,.481.823,1.149,1.149,0,0,0-.481-1.068l-.018-.013a3.623,3.623,0,0,0-1.549-.572Z" transform="translate(-380.122 -327.515)" fill="url(#q)"/></g><g transform="translate(274.209 277.246)" opacity="0.8" style="mix-blend-mode:multiply;isolation:isolate"><path d="M360.458,342.761a.44.44,0,0,0,.034.161.682.682,0,0,1,.217-.3,1.136,1.136,0,0,1,.744-.21,1.437,1.437,0,0,1,.941.281,1.052,1.052,0,0,1,.228.268,1.208,1.208,0,0,0,1.1.581l.052,0a1.218,1.218,0,0,0,1.13-1.406,1.207,1.207,0,0,1-1.13,1.038l-.052,0a1.208,1.208,0,0,1-1.1-.581,1.054,1.054,0,0,0-.228-.268,1.437,1.437,0,0,0-.941-.281,1.136,1.136,0,0,0-.744.21A.642.642,0,0,0,360.458,342.761Z" transform="translate(-357.837 -342.042)" fill="url(#r)"/><path d="M334.378,355.806a6.168,6.168,0,0,0,2.658,1.113,3.62,3.62,0,0,1,1.451.532.9.9,0,0,1,.291.457.8.8,0,0,0,.022-.186.842.842,0,0,0-.313-.638,3.62,3.62,0,0,0-1.451-.532,6.168,6.168,0,0,1-2.658-1.113,2.22,2.22,0,0,1-.792-1.6c-.005.064-.008.128-.008.193A2.239,2.239,0,0,0,334.378,355.806Z" transform="translate(-333.577 -352.692)" fill="url(#s)"/><path d="M337.016,404.218a3.655,3.655,0,0,1-2.271-.855,3.449,3.449,0,0,1-.411-.5,1.209,1.209,0,0,1-.2-.5,1.2,1.2,0,0,0,.2.865,3.456,3.456,0,0,0,.411.5,3.655,3.655,0,0,0,2.271.855Z" transform="translate(-334.07 -396.489)" fill="url(#t)"/><path d="M365.634,434.063h-1.588a.247.247,0,0,1-.247-.247v.367a.247.247,0,0,0,.247.247h1.588a.247.247,0,0,0,.247-.247v-.367A.247.247,0,0,1,365.634,434.063Z" transform="translate(-360.852 -424.868)" fill="url(#u)"/><path d="M387.61,392.846a3.053,3.053,0,0,1-1.364,1.129,4.406,4.406,0,0,1-1.1.3v.367a4.4,4.4,0,0,0,1.1-.3,3.052,3.052,0,0,0,1.364-1.129,2.907,2.907,0,0,0,.488-1.626c0-.064,0-.128-.006-.19A2.9,2.9,0,0,1,387.61,392.846Z" transform="translate(-380.122 -386.585)" fill="url(#v)"/></g></g></svg>