<svg xmlns="http://www.w3.org/2000/svg" width="23.563" height="23.563" viewBox="0 0 23.563 23.563"><g transform="translate(0 0)"><g transform="translate(8.376 7.456)"><path d="M196.94,162.162a.691.691,0,0,0-.566-.149l-10.125,1.841a.69.69,0,0,0-.567.679v8.792a2.531,2.531,0,1,0,1.381,2.253v-6.787l8.744-1.59v4.283a2.531,2.531,0,1,0,1.381,2.253V162.692A.69.69,0,0,0,196.94,162.162Z" transform="translate(-182.001 -162.002)" fill="#dd636e"/><path d="M392.5,162.162a.69.69,0,0,0-.566-.149l-4.939.9V168l4.372-.795v4.283a2.531,2.531,0,1,0,1.381,2.253V162.692A.69.69,0,0,0,392.5,162.162Z" transform="translate(-377.566 -162.002)" fill="#d82e3d"/></g><g transform="translate(0 0)"><path d="M9.877.16A.69.69,0,0,0,9.311.011L4.249.932a.69.69,0,0,0-.567.679V10.4a2.531,2.531,0,1,0,1.381,2.253V5.869l4.5-.817a.69.69,0,0,0,.567-.679V.69A.69.69,0,0,0,9.877.16Z" transform="translate(0 0)" fill="#6be4ce"/><path d="M152.974.16a.69.69,0,0,0-.566-.149L150,.449V5.534l2.655-.483a.69.69,0,0,0,.567-.679V.69a.69.69,0,0,0-.248-.53Z" transform="translate(-143.097 0)" fill="#38d2b7"/></g><g transform="translate(0 16.66)"><path d="M3.452,368.9a.69.69,0,0,1-.69-.69A2.153,2.153,0,0,0,.69,366.143a.69.69,0,0,1,0-1.381,2.153,2.153,0,0,0,2.071-2.071.69.69,0,1,1,1.381,0,2.153,2.153,0,0,0,2.071,2.071.69.69,0,0,1,0,1.381,2.153,2.153,0,0,0-2.071,2.071A.69.69,0,0,1,3.452,368.9Z" transform="translate(0 -362.001)" fill="#ffe646"/><path d="M75.69,368.214a2.153,2.153,0,0,1,2.071-2.071.69.69,0,1,0,0-1.381,2.153,2.153,0,0,1-2.071-2.071A.69.69,0,0,0,75,362v6.9A.69.69,0,0,0,75.69,368.214Z" transform="translate(-71.548 -362.001)" fill="#ffc81e"/></g><g transform="translate(11.966 0)"><path d="M263.452,6.9a.69.69,0,0,1-.69-.69,2.153,2.153,0,0,0-2.071-2.071.69.69,0,1,1,0-1.381A2.153,2.153,0,0,0,262.761.691a.69.69,0,1,1,1.381,0,2.153,2.153,0,0,0,2.071,2.071.69.69,0,1,1,0,1.381,2.153,2.153,0,0,0-2.071,2.071A.69.69,0,0,1,263.452,6.9Z" transform="translate(-260 -0.001)" fill="#ffe646"/><path d="M335.69,6.214a2.153,2.153,0,0,1,2.071-2.071.69.69,0,0,0,0-1.381A2.153,2.153,0,0,1,335.69.691.69.69,0,0,0,335,0V6.9A.69.69,0,0,0,335.69,6.214Z" transform="translate(-331.548 -0.001)" fill="#ffc81e"/></g></g></svg>