<svg xmlns="http://www.w3.org/2000/svg" xmlns:xlink="http://www.w3.org/1999/xlink" width="236.049" height="105.602" viewBox="0 0 236.049 105.602"><defs><linearGradient id="a" x1="-5.662" y1="4.598" x2="-5.639" y2="4.598" gradientUnits="objectBoundingBox"><stop offset="0" stop-color="#faa759"/><stop offset="0.603" stop-color="#f37021"/><stop offset="1" stop-color="#f37021"/></linearGradient><linearGradient id="b" x1="-6.485" y1="4.679" x2="-6.452" y2="4.679" gradientUnits="objectBoundingBox"><stop offset="0" stop-color="#fbad34"/><stop offset="0.752" stop-color="#f37021"/><stop offset="1" stop-color="#f37021"/></linearGradient><linearGradient id="c" x1="-7.014" y1="4.397" x2="-6.975" y2="4.397" gradientUnits="objectBoundingBox"><stop offset="0" stop-color="#fbad34"/><stop offset="0.212" stop-color="#fbad34"/><stop offset="0.638" stop-color="#f37021"/><stop offset="1" stop-color="#f37021"/></linearGradient><linearGradient id="d" x1="-4.873" y1="4.369" x2="-4.851" y2="4.369" gradientUnits="objectBoundingBox"><stop offset="0" stop-color="#fbad34"/><stop offset="0.676" stop-color="#f37021"/><stop offset="1" stop-color="#f37021"/></linearGradient><linearGradient id="e" x1="-4.698" y1="4.096" x2="-4.684" y2="4.096" xlink:href="#d"/><linearGradient id="f" x1="-14.597" y1="4.142" x2="-14.55" y2="4.142" xlink:href="#d"/></defs><g transform="translate(-15 -151)"><g transform="translate(-165.635 473.19)"><path d="M246.927-296.715c.471,2.88,1.191,9.236,1.787,16.213h0c.149,1.49.3,2.8.447,4.072h0l.77,6.355c.769,6.01,1.539,9.287,4.4,13.607h0a26.139,26.139,0,0,0,35.5,8.368h0c1.589-15.916,0-24.929,0-24.929h0c-.149.472-.075,5.09-1.291,7.449h0a13.769,13.769,0,0,1-14.3,7.3h0c-4.891-.621-8.219-4.271-10.105-8.79h0c-.645-1.589-.771-4.816-1.167-8.144h0c-.671-10.3-1.416-21.029-2.061-26.343h0c-.571-4.667-2.011-8.242-4.246-10.725h0c-5.239.347-9.732,15.567-9.732,15.567" fill="url(#a)"/></g><g transform="translate(-166.635 473.19)"><g transform="translate(303.461 -244.823)"><path d="M0,0C-.248,12.215-6.53,21.054-17.678,25.8a26.434,26.434,0,0,1-23.115-.446c-5.09-3.1-5.065-9.287-2.185-11.2a5.643,5.643,0,0,1,.645-.372c3.7-1.738,6.381-.869,9.485-.074a14.072,14.072,0,0,0,5.264.77h.024a14.073,14.073,0,0,0,7.871-2.955,15.359,15.359,0,0,0,3.128-3.252,1.666,1.666,0,0,0,.174-.274,9.606,9.606,0,0,0,.6-.919c0-.024.025-.024.025-.049A17.138,17.138,0,0,0-13.73.5c.049-1.267.074-2.532.1-3.773,1.589-15.915,0-24.928,0-24.928.025-3.477.025-6.952.074-10.453A13.677,13.677,0,0,1-1.614-52.016C-.373-52.189.1-52.14.1-50.625.05-33.742.348-16.858,0,0" fill="#f37021"/></g></g><g transform="translate(-165.635 473.19)"><path d="M199.181-308.364c-2.334,2.487-1.32,11.519-1.32,11.519h0c1.07,2.542,2.737,6.836,4,10.533h0l10.31,30.346c2.6,7.767,6.822,11.532,11.533,11.532h0s3.174-.056,3.611-.065h0c.436-.007.6-.549.684-.95h0c1.846-8.907-18.788-58.844-18.788-58.844h0a39.868,39.868,0,0,0-2.056-4.085h0a15.113,15.113,0,0,0-1.474-1.862h0c-.028,0-.041-.028-.069-.056h0a3.1,3.1,0,0,0-1.818-.575h0c-1.6,0-3.31,1.121-4.615,2.507" fill="url(#b)"/></g><g transform="translate(-165.635 473.19)"><path d="M186.421-316.478c-2.632,14.3-5.786,46.33-5.786,62.418h0c0,6.083,3.675,9.559,9.038,9.559h5.04c0-13.134,1.266-42.035,3.153-52.338h0s1.674-13.117,6.119-13.785h0c.47-.071,1.125-.216,2.4,1.2h0c-3.584-4.5-9.914-7.05-16.915-7.05h-3.053Z" fill="url(#c)"/></g><g transform="translate(-165.635 473.19)"><path d="M243.465-315.131c-2.9,3.254-6.726,9.963-9.866,19.786h0l-8.3,25.526c-1.051,4.044-3.481,9.52-5.523,14.053h0c-1.629,3.617-3.232,6.255-5.33,4.949h0c-.048.453,5.178,8.816,12.867,6.318h0c1.143.166,4.489-7.674,6.184-12.842h0l10.074-30.889c1.042-3.251,2.4-6.17,3.349-8.49h0s7.015-17.106,11.531-13.029h0c-2.518-4.815-7.724-6.73-11.948-6.73h0a4.058,4.058,0,0,0-3.042,1.348" fill="url(#d)"/></g><g transform="translate(-165.635 473.19)"><path d="M370.316-322.19c-6.135,0-22.867,1.475-26.76,2.95h0v58.458c0,12.031,15.551,17.253,29.237,17.253h6.725c21.12,0,37.166-17.253,37.166-40.75h0c0-25.994-19.467-37.911-37.991-37.911h-8.377Zm-3.776,58.456v-44.609a46.713,46.713,0,0,1,6.136-.794h3.538c13.923,0,23.952,9.648,23.952,27.014h0c0,14.076-9.438,24.972-22.771,24.972h-2.713c-6.018,0-8.142-2.044-8.142-6.583" fill="url(#e)"/></g><g transform="translate(-165.635 473.19)"><path d="M312.844-322.19v61.6c0,9.074,8.462,14.211,18.146,16.136h0a2.766,2.766,0,0,0,3.286-2.72h0v-64.7h0v-.274A9.945,9.945,0,0,0,324.8-322.19H312.844Z" fill="url(#f)"/></g></g></svg>