<svg xmlns="http://www.w3.org/2000/svg" xmlns:xlink="http://www.w3.org/1999/xlink" viewBox="0 0 300.059 54.916"><defs><style>.a{fill:none;}.b{fill:#c1d12c;}.c{fill:#9cb21d;}.d,.e{fill:#b6c146;}.d,.g{mix-blend-mode:multiply;}.ck,.d,.e,.f,.g,.j{isolation:isolate;}.e,.f{mix-blend-mode:screen;}.h{clip-path:url(#a);}.i{opacity:0.15;}.j{mix-blend-mode:color-burn;}.k{fill:url(#b);}.l{fill:url(#c);}.m{fill:url(#d);}.n{fill:url(#e);}.o{fill:url(#f);}.p{fill:url(#g);}.q{fill:url(#h);}.r{fill:url(#i);}.s{fill:url(#j);}.t{fill:url(#k);}.u{fill:url(#l);}.v{fill:url(#m);}.w{fill:url(#n);}.x{fill:url(#o);}.y{fill:url(#p);}.z{fill:url(#q);}.aa{fill:url(#r);}.ab{fill:url(#s);}.ac{fill:url(#t);}.ad{fill:url(#u);}.ae{fill:url(#v);}.af{fill:url(#w);}.ag{fill:url(#x);}.ah{fill:url(#y);}.ai{fill:url(#z);}.aj{fill:url(#aa);}.ak{fill:url(#ab);}.al{fill:url(#ac);}.am{fill:url(#ad);}.an{fill:url(#ae);}.ao{fill:url(#af);}.ap{fill:url(#ag);}.aq{fill:url(#ah);}.ar{fill:url(#ai);}.as{fill:url(#aj);}.at{fill:url(#ak);}.au{fill:url(#al);}.av{fill:url(#am);}.aw{fill:url(#an);}.ax{fill:url(#ao);}.ay{fill:url(#ap);}.az{fill:url(#aq);}.ba{fill:url(#ar);}.bb{fill:url(#as);}.bc{fill:url(#at);}.bd{fill:url(#au);}.be{fill:url(#av);}.bf{fill:url(#aw);}.bg{fill:url(#ax);}.bh{fill:url(#ay);}.bi{fill:url(#az);}.bj{fill:url(#ba);}.bk{fill:url(#bb);}.bl{fill:url(#bc);}.bm{fill:url(#bd);}.bn{fill:url(#be);}.bo{fill:url(#bf);}.bp{fill:url(#bg);}.bq{fill:url(#bh);}.br{fill:url(#bi);}.bs{fill:url(#bj);}.bt{fill:url(#bk);}.bu{fill:url(#bl);}.bv{fill:url(#bm);}.bw{fill:url(#bn);}.bx{fill:url(#bo);}.by{fill:url(#bp);}.bz{fill:url(#bq);}.ca{fill:url(#br);}.cb{fill:url(#bs);}.cc{fill:url(#bt);}.cd{fill:url(#bu);}.ce{fill:url(#bv);}.cf{fill:url(#bw);}.cg{fill:url(#bx);}.ch{fill:url(#by);}.ci{fill:url(#bz);}.cj{fill:url(#ca);}.ck{mix-blend-mode:overlay;}.cl{fill:#ababab;}</style><clipPath id="a"><rect class="a" width="181.057" height="54.916" rx="10.473"/></clipPath><linearGradient id="b" x1="229.614" y1="25.186" x2="229.62" y2="25.18" gradientUnits="objectBoundingBox"><stop offset="0" stop-color="#d8d8d8"/><stop offset="1" stop-color="#d8d8d8"/></linearGradient><linearGradient id="c" x1="134.159" y1="13.14" x2="134.169" y2="13.132" xlink:href="#b"/><linearGradient id="d" x1="87.849" y1="16.023" x2="87.854" y2="16.017" xlink:href="#b"/><linearGradient id="e" x1="53.326" y1="5.675" x2="53.33" y2="5.672" gradientUnits="objectBoundingBox"><stop offset="0" stop-color="#e3e3e3"/><stop offset="1" stop-color="#e3e3e3"/></linearGradient><linearGradient id="f" x1="55.502" y1="7.181" x2="55.504" y2="7.179" gradientUnits="objectBoundingBox"><stop offset="0" stop-color="#dedede"/><stop offset="1" stop-color="#dedede"/></linearGradient><linearGradient id="g" x1="67.726" y1="16.277" x2="67.739" y2="16.258" xlink:href="#f"/><linearGradient id="h" x1="90.663" y1="19.208" x2="90.667" y2="19.202" gradientUnits="objectBoundingBox"><stop offset="0" stop-color="#d8d8d8"/><stop offset="1" stop-color="#d7d7d7"/></linearGradient><linearGradient id="i" x1="101.743" y1="20.216" x2="101.748" y2="20.209" gradientUnits="objectBoundingBox"><stop offset="0" stop-color="#d8d8d8"/><stop offset="1" stop-color="#dedede"/></linearGradient><linearGradient id="j" x1="109.454" y1="10.572" x2="109.457" y2="10.569" xlink:href="#b"/><linearGradient id="k" x1="50.204" y1="6.307" x2="50.207" y2="6.304" gradientUnits="objectBoundingBox"><stop offset="0" stop-color="#e3e3e3"/><stop offset="1" stop-color="#e6e6e6"/></linearGradient><linearGradient id="l" x1="123.02" y1="15.371" x2="123.024" y2="15.368" xlink:href="#b"/><linearGradient id="m" x1="160.014" y1="21.668" x2="160.03" y2="21.651" xlink:href="#b"/><linearGradient id="n" x1="225.617" y1="27.084" x2="225.631" y2="27.072" xlink:href="#b"/><linearGradient id="o" x1="135.595" y1="14.308" x2="135.619" y2="14.29" gradientUnits="objectBoundingBox"><stop offset="0" stop-color="#d8d8d8"/><stop offset="1" stop-color="#dfdfdf"/></linearGradient><linearGradient id="p" x1="56.196" y1="6.908" x2="56.21" y2="6.896" gradientUnits="objectBoundingBox"><stop offset="0" stop-color="#e3e3e3"/><stop offset="1" stop-color="#e8e8e8"/></linearGradient><linearGradient id="q" x1="80.373" y1="7.418" x2="80.396" y2="7.404" gradientUnits="objectBoundingBox"><stop offset="0" stop-color="#e3e3e3"/><stop offset="1" stop-color="#ededed"/></linearGradient><linearGradient id="r" x1="114.789" y1="12.604" x2="114.798" y2="12.597" gradientUnits="objectBoundingBox"><stop offset="0" stop-color="#dedede"/><stop offset="1" stop-color="#e3e3e3"/></linearGradient><linearGradient id="s" x1="153.842" y1="18.417" x2="153.863" y2="18.4" gradientUnits="objectBoundingBox"><stop offset="0" stop-color="#e7e7e7"/><stop offset="1" stop-color="#e4e4e4"/></linearGradient><linearGradient id="t" x1="56.499" y1="9.599" x2="56.506" y2="9.59" gradientUnits="objectBoundingBox"><stop offset="0" stop-color="#e2e2e2"/><stop offset="1" stop-color="#ededed"/></linearGradient><linearGradient id="u" x1="95.014" y1="13.391" x2="95.021" y2="13.384" xlink:href="#t"/><linearGradient id="v" x1="83.826" y1="13.027" x2="83.833" y2="13.019" gradientUnits="objectBoundingBox"><stop offset="0" stop-color="#ededed"/><stop offset="1" stop-color="#e8e8e8"/></linearGradient><linearGradient id="w" x1="160.843" y1="8.649" x2="160.849" y2="8.647" gradientUnits="objectBoundingBox"><stop offset="0" stop-color="#e3e3e3"/><stop offset="1" stop-color="#e7e7e7"/></linearGradient><linearGradient id="x" x1="63.955" y1="13.499" x2="63.959" y2="13.493" gradientUnits="objectBoundingBox"><stop offset="0" stop-color="#d7d7d7"/><stop offset="1" stop-color="#dedede"/></linearGradient><linearGradient id="y" x1="101.095" y1="31.094" x2="101.098" y2="31.086" gradientUnits="objectBoundingBox"><stop offset="0" stop-color="#d7d7d7"/><stop offset="1" stop-color="#e3e3e3"/></linearGradient><linearGradient id="z" x1="80.524" y1="12.117" x2="80.527" y2="12.114" gradientUnits="objectBoundingBox"><stop offset="0" stop-color="#ececec"/><stop offset="1" stop-color="#e5e5e5"/></linearGradient><linearGradient id="aa" x1="79.082" y1="14.69" x2="79.087" y2="14.683" gradientUnits="objectBoundingBox"><stop offset="0" stop-color="#ededed"/><stop offset="1" stop-color="#e5e5e5"/></linearGradient><linearGradient id="ab" x1="80.564" y1="13.113" x2="80.568" y2="13.107" xlink:href="#z"/><linearGradient id="ac" x1="64.571" y1="8.623" x2="64.573" y2="8.622" gradientUnits="objectBoundingBox"><stop offset="0" stop-color="#e8e8e8"/><stop offset="1" stop-color="#f2f2f2"/></linearGradient><linearGradient id="ad" x1="64.426" y1="8.806" x2="64.428" y2="8.805" gradientUnits="objectBoundingBox"><stop offset="0" stop-color="#f2f2f2"/><stop offset="1" stop-color="#f5f5f5"/></linearGradient><linearGradient id="ae" x1="165.809" y1="44.215" x2="165.823" y2="44.186" gradientUnits="objectBoundingBox"><stop offset="0" stop-color="#e9e9e9"/><stop offset="1" stop-color="#fafafa"/></linearGradient><linearGradient id="af" x1="68.184" y1="13.365" x2="68.193" y2="13.354" xlink:href="#f"/><linearGradient id="ag" x1="101.283" y1="18.712" x2="101.288" y2="18.706" xlink:href="#f"/><linearGradient id="ah" x1="73.303" y1="18.718" x2="73.315" y2="18.699" gradientUnits="objectBoundingBox"><stop offset="0" stop-color="#dedede"/><stop offset="1" stop-color="#e7e7e7"/></linearGradient><linearGradient id="ai" x1="160.839" y1="7.47" x2="160.844" y2="7.468" gradientUnits="objectBoundingBox"><stop offset="0" stop-color="#e3e3e3"/><stop offset="1" stop-color="#d8d8d8"/></linearGradient><linearGradient id="aj" x1="239.479" y1="14.366" x2="239.495" y2="14.359" xlink:href="#b"/><linearGradient id="ak" x1="133.318" y1="27.129" x2="133.323" y2="27.123" gradientUnits="objectBoundingBox"><stop offset="0" stop-color="#dedede"/><stop offset="1" stop-color="#e6e6e6"/></linearGradient><linearGradient id="al" x1="102.608" y1="25.782" x2="102.611" y2="25.776" gradientUnits="objectBoundingBox"><stop offset="0" stop-color="#eaeaea"/><stop offset="1" stop-color="#f6f6f6"/></linearGradient><linearGradient id="am" x1="977.113" y1="9.394" x2="977.183" y2="9.39" xlink:href="#b"/><linearGradient id="an" x1="137.818" y1="15.024" x2="137.826" y2="15.017" xlink:href="#b"/><linearGradient id="ao" x1="431.302" y1="14.871" x2="431.314" y2="14.868" gradientUnits="objectBoundingBox"><stop offset="0" stop-color="#e9e9e9"/><stop offset="1" stop-color="#d8d8d8"/></linearGradient><linearGradient id="ap" x1="2114.3" y1="236.261" x2="2114.494" y2="236.096" xlink:href="#ao"/><linearGradient id="aq" x1="431.618" y1="14.876" x2="431.642" y2="14.87" xlink:href="#ae"/><linearGradient id="ar" x1="48.371" y1="9.956" x2="48.379" y2="9.944" gradientUnits="objectBoundingBox"><stop offset="0" stop-color="#e5e5e5"/><stop offset="1" stop-color="#e8e8e8"/></linearGradient><linearGradient id="as" x1="150.282" y1="18.571" x2="150.286" y2="18.567" gradientUnits="objectBoundingBox"><stop offset="0" stop-color="#ededed"/><stop offset="1" stop-color="#ececec"/></linearGradient><linearGradient id="at" x1="275.729" y1="9.925" x2="275.744" y2="9.922" gradientUnits="objectBoundingBox"><stop offset="0" stop-color="#dcdcdc"/><stop offset="1" stop-color="#dcdcdc"/></linearGradient><linearGradient id="au" x1="252.96" y1="108.578" x2="252.967" y2="108.553" xlink:href="#y"/><linearGradient id="av" x1="95.656" y1="10.911" x2="95.659" y2="10.909" xlink:href="#f"/><linearGradient id="aw" x1="65.656" y1="8.891" x2="65.658" y2="8.889" gradientUnits="objectBoundingBox"><stop offset="0" stop-color="#dedede"/><stop offset="1" stop-color="#ddd"/></linearGradient><linearGradient id="ax" x1="99.329" y1="23.192" x2="99.332" y2="23.187" gradientUnits="objectBoundingBox"><stop offset="0" stop-color="#d7d7d7"/><stop offset="1" stop-color="#d7d7d7"/></linearGradient><linearGradient id="ay" x1="101.113" y1="31.111" x2="101.118" y2="31.099" gradientUnits="objectBoundingBox"><stop offset="0" stop-color="#e9e9e9"/><stop offset="1" stop-color="#fbfbfb"/></linearGradient><linearGradient id="az" x1="103.222" y1="15.051" x2="103.226" y2="15.048" gradientUnits="objectBoundingBox"><stop offset="0" stop-color="#f7f7f7"/><stop offset="1" stop-color="#f8f8f8"/></linearGradient><linearGradient id="ba" x1="45.689" y1="9.208" x2="45.691" y2="9.205" gradientUnits="objectBoundingBox"><stop offset="0" stop-color="#f9f9f9"/><stop offset="1" stop-color="#fbfbfb"/></linearGradient><linearGradient id="bb" x1="66.038" y1="9.035" x2="66.043" y2="9.03" gradientUnits="objectBoundingBox"><stop offset="0" stop-color="#f8f8f8"/><stop offset="1" stop-color="#f8f8f8"/></linearGradient><linearGradient id="bc" x1="50.207" y1="13.344" x2="50.21" y2="13.34" gradientUnits="objectBoundingBox"><stop offset="0" stop-color="#fbfbfb"/><stop offset="1" stop-color="#f8f8f8"/></linearGradient><linearGradient id="bd" x1="51.938" y1="9.318" x2="51.941" y2="9.314" gradientUnits="objectBoundingBox"><stop offset="0" stop-color="#f6f6f6"/><stop offset="1" stop-color="#f7f7f7"/></linearGradient><linearGradient id="be" x1="169.612" y1="44.199" x2="169.617" y2="44.189" xlink:href="#ae"/><linearGradient id="bf" x1="133.339" y1="18.168" x2="133.346" y2="18.161" gradientUnits="objectBoundingBox"><stop offset="0" stop-color="#d8d8d8"/><stop offset="1" stop-color="#e3e3e3"/></linearGradient><linearGradient id="bg" x1="117.327" y1="15.841" x2="117.379" y2="15.79" gradientUnits="objectBoundingBox"><stop offset="0" stop-color="#e1e1e1"/><stop offset="1" stop-color="#ececec"/></linearGradient><linearGradient id="bh" x1="113.532" y1="18.869" x2="113.536" y2="18.864" xlink:href="#x"/><linearGradient id="bi" x1="203.256" y1="35.979" x2="203.275" y2="35.953" gradientUnits="objectBoundingBox"><stop offset="0" stop-color="#f9f9f9"/><stop offset="1" stop-color="#fafafa"/></linearGradient><linearGradient id="bj" x1="92.772" y1="47.437" x2="92.776" y2="47.421" gradientUnits="objectBoundingBox"><stop offset="0" stop-color="#fbfbfb"/><stop offset="1" stop-color="#efefef"/></linearGradient><linearGradient id="bk" x1="120.717" y1="21.708" x2="120.723" y2="21.701" xlink:href="#y"/><linearGradient id="bl" x1="89.012" y1="20.852" x2="89.017" y2="20.843" xlink:href="#y"/><linearGradient id="bm" x1="81.944" y1="19.152" x2="81.972" y2="19.107" gradientUnits="objectBoundingBox"><stop offset="0" stop-color="#ededed"/><stop offset="1" stop-color="#ededed"/></linearGradient><linearGradient id="bn" x1="70.103" y1="17.055" x2="70.13" y2="17.011" xlink:href="#v"/><linearGradient id="bo" x1="147.953" y1="23.645" x2="147.957" y2="23.64" xlink:href="#bm"/><linearGradient id="bp" x1="49.619" y1="5.811" x2="49.623" y2="5.808" gradientUnits="objectBoundingBox"><stop offset="0" stop-color="#ddd"/><stop offset="1" stop-color="#e8e8e8"/></linearGradient><linearGradient id="bq" x1="120.232" y1="13.701" x2="120.236" y2="13.698" xlink:href="#bm"/><linearGradient id="br" x1="75.097" y1="10.002" x2="75.101" y2="9.998" xlink:href="#ar"/><linearGradient id="bs" x1="87.104" y1="20.226" x2="87.107" y2="20.222" xlink:href="#f"/><linearGradient id="bt" x1="89.815" y1="14.434" x2="89.819" y2="14.431" xlink:href="#ak"/><linearGradient id="bu" x1="389.053" y1="74.39" x2="389.066" y2="74.374" xlink:href="#f"/><linearGradient id="bv" x1="155.016" y1="32" x2="155.035" y2="31.975" xlink:href="#ak"/><linearGradient id="bw" x1="173.882" y1="13.115" x2="173.906" y2="13.103" gradientUnits="objectBoundingBox"><stop offset="0" stop-color="#e3e3e3"/><stop offset="1" stop-color="#dadada"/></linearGradient><linearGradient id="bx" x1="174.238" y1="13.112" x2="174.257" y2="13.102" gradientUnits="objectBoundingBox"><stop offset="0" stop-color="#e4e4e4"/><stop offset="1" stop-color="#dcdcdc"/></linearGradient><linearGradient id="by" x1="151.48" y1="18.399" x2="151.499" y2="18.384" gradientUnits="objectBoundingBox"><stop offset="0" stop-color="#dbdbdb"/><stop offset="1" stop-color="#dbdbdb"/></linearGradient><linearGradient id="bz" x1="146.141" y1="17.549" x2="146.159" y2="17.535" gradientUnits="objectBoundingBox"><stop offset="0" stop-color="#dcdcdc"/><stop offset="1" stop-color="#dbdbdb"/></linearGradient><linearGradient id="ca" x1="200.06" y1="25.419" x2="200.066" y2="25.414" xlink:href="#bz"/></defs><rect class="b" width="300.059" height="54.916" rx="8" transform="translate(0 0)"/><rect class="c" width="126.626" height="41.754" rx="20.877" transform="translate(158.46 6.668)"/><path class="d" d="M-3647.685,1278.722h0c0-11.53,8.9-20.877,19.884-20.877h86.859a19.155,19.155,0,0,1,11.465,3.825,19.2,19.2,0,0,0-12.206-4.4h-86.86c-10.981,0-19.883,9.347-19.883,20.877h0a21.169,21.169,0,0,0,8.418,17.051A21.217,21.217,0,0,1-3647.685,1278.722Z" transform="translate(3806.886 -1250.6)"/><path class="e" d="M-3527.345,1262.4a21.217,21.217,0,0,1,7.677,16.474h0c0,11.53-8.9,20.877-19.883,20.877h-86.859a19.152,19.152,0,0,1-11.466-3.826,19.2,19.2,0,0,0,12.207,4.4h86.859c10.981,0,19.884-9.347,19.884-20.877h0A21.168,21.168,0,0,0-3527.345,1262.4Z" transform="translate(3804.495 -1251.565)"/><g class="f" transform="translate(0.105)"><path class="b" d="M-3852.146,1258a7.5,7.5,0,0,1,7.312-7.678H-3559.4a7.036,7.036,0,0,1,4.233,1.425,7.635,7.635,0,0,0-5.782-2.7h-284.408a8.027,8.027,0,0,0-7.825,8.216v38.484a8.427,8.427,0,0,0,1.833,5.279,7.944,7.944,0,0,1-.8-3.47Z" transform="translate(3853.183 -1249.057)"/><path class="b" d="M-3850.814,1313.07" transform="translate(3852.646 -1261.091)"/></g><g class="g" transform="translate(2.043 2.937)"><path class="b" d="M-3553.7,1295.706a7.5,7.5,0,0,1-7.312,7.678h-285.435a7.035,7.035,0,0,1-4.233-1.425,7.635,7.635,0,0,0,5.783,2.7h284.408a8.027,8.027,0,0,0,7.825-8.216v-38.484a8.43,8.43,0,0,0-1.832-5.279,7.944,7.944,0,0,1,.8,3.471Z" transform="translate(3850.678 -1252.674)"/><path class="b" d="M-3467.7,1252.674" transform="translate(3763.888 -1252.674)"/></g><g transform="translate(0.105 0)"><g class="h"><g class="i" transform="translate(-1.359 -18.11)"><g transform="translate(0 0)"><g class="j" transform="translate(0.925 66.078)"><path class="k" d="M-3853.744,1313.659l8.477-5.528.321,10.472-6.247-2.3,5.016-4.533-2.23,7.823Z" transform="translate(3853.744 -1308.131)"/></g><g class="j" transform="translate(0 66.078)"><path class="l" d="M-3845.217,1318.6l-.321-10.472-8.477,5.528-.925.74v13.615l2.832,1.243,12.233.939Z" transform="translate(3854.941 -1308.131)"/></g><g class="j" transform="translate(0 75.804)"><path class="m" d="M-3850.248,1337.608h6.784l2.984-3.45,8.6-10.959-13.341-2.343-9.723-.747v5.254l2.832,6.146Z" transform="translate(3854.941 -1320.108)"/></g><g class="j" transform="translate(0 19.711)"><path class="n" d="M-3824.052,1278.674l1.305-27.645-23.455,12.635-8.739,5.213v26.932l8.493,5.231,29.646,9.181Z" transform="translate(3854.941 -1251.029)"/></g><g class="j" transform="translate(7.433 12.395)"><path class="o" d="M-3844.024,1261.971l9.417-19.952,11.748,18.539,14.037,7.316-13.053,9.106-23.455,12.636Z" transform="translate(3845.329 -1242.02)"/></g><g class="j" transform="translate(16.851 27.268)"><path class="p" d="M-3820.1,1264l1.951-3.666,2.048,3.607,12.086,10.982-15.1,5.5-14.037-7.316Z" transform="translate(3833.152 -1260.336)"/></g><g class="j" transform="translate(23.467 78.845)"><path class="q" d="M-3823.495,1338.311h15.126l5.876-8.862-13.268-1.18-8.837-4.415.776,10.242Z" transform="translate(3824.597 -1323.854)"/></g><g class="j" transform="translate(25.992 79.611)"><path class="r" d="M-3807.628,1338.489l5.876-8.862-5.241-.466.586-4.363-14.925,5.467,9.086,8.225Z" transform="translate(3821.332 -1324.797)"/></g><g class="j" transform="translate(7.66 64.055)"><path class="s" d="M-3844.2,1311.307l6.247,2.3-5.016,4.533,12.243-12.495,4.184,17.38-18.49,10.2Z" transform="translate(3845.036 -1305.64)"/></g><g class="j" transform="translate(7.66 41.855)"><path class="t" d="M-3844.2,1306.168l3.866-27.867,21.052,17.449,14.625,17.667-21.885,4.464-18.49,10.2Z" transform="translate(3845.036 -1278.301)"/></g><g class="j" transform="translate(9.723 75.014)"><path class="u" d="M-3838.335,1337.425h.766l11.628-11.867-3.646-1.83.559-.712-3.039-.534-6.663-3.346.164,2.2-3.8-.668Z" transform="translate(3842.368 -1319.136)"/></g><g class="j" transform="translate(14.461 80.575)"><path class="v" d="M-3823.675,1338.712l-.878-11.867-5.79,1.667-1.64-2.528-4.26,9.278,6.871,3.45Z" transform="translate(3836.242 -1325.984)"/></g><g class="j" transform="translate(23.467 78.845)"><path class="w" d="M-3823.821,1334.1l-.776-10.242,8.836,4.415-4.582,4.682-1.571-6.507,5.358,5.56Z" transform="translate(3824.597 -1323.854)"/></g><g class="j" transform="translate(26.151 73.603)"><path class="x" d="M-3811.973,1337.1l5.613-13.692-7.317-6.008-1.3,9.657-1.572-6.507-4.581,4.682,8.428,11.867Z" transform="translate(3821.127 -1317.398)"/></g><g class="j" transform="translate(1.242 38.175)"><path class="y" d="M-3846.084,1305.316l-7.251-31.547,29.646,9.181,6.532,1.423-4.44,5.228.719,30.124Z" transform="translate(3853.335 -1273.768)"/></g><g class="j" transform="translate(8.493 41.855)"><path class="z" d="M-3843.959,1306.168l3.866-27.867,21.052,17.449-4.585-2.257,4.154-3.04.719,30.124Z" transform="translate(3843.959 -1278.301)"/></g><g class="j" transform="translate(26.448 36.846)"><path class="aa" d="M-3816.3,1282.641l8.627-10.51,4.355,13.1-2.095,11.933-8.8-7.872-6.532-1.423Z" transform="translate(3820.743 -1272.132)"/></g><g class="j" transform="translate(30.921 45.114)"><path class="ab" d="M-3812.469,1296.5l-2.489-14.19,12.949,4.831-2.1,11.933-8.795-7.872,4.584,2.257Z" transform="translate(3814.958 -1282.314)"/></g><g class="j" transform="translate(11.526 55.245)"><path class="ac" d="M-3825.412,1320.981l-14.624-17.667,21.885-4.464,8.317-4.059-.81,9.592,6.307,21.726Z" transform="translate(3840.037 -1294.791)"/></g><g class="j" transform="translate(26.151 64.837)"><path class="ad" d="M-3821.127,1323.2l5.878-14.339,8.888,12.515-12.186-7.387,12.186-7.387,6.308,21.726Z" transform="translate(3821.127 -1306.603)"/></g><g class="j" transform="translate(30.921 45.114)"><path class="ae" d="M-3812.469,1296.5l-2.489-14.19,12.949,4.831,10.806,10.131-13.759,4.76-8.317,4.059Z" transform="translate(3814.958 -1282.314)"/></g><g class="j" transform="translate(0 32.346)"><path class="af" d="M-3844.939,1292.07l2.653-20.911-3.612,1.564-.3-6.132-8.739,5.213v26.932l8.493,5.231.81-6.38,1,.536Z" transform="translate(3854.941 -1266.59)"/></g><g class="j" transform="translate(25.992 72.253)"><path class="ag" d="M-3792.73,1336.785l.6-2.45,2.136-18.6-16.41,7.358-14.925,5.467,9.086,8.225Z" transform="translate(3821.332 -1315.735)"/></g><g class="j" transform="translate(43.832 84.545)"><path class="ah" d="M-3779.618,1339.631l1.028-8.758-19.674,8.758Z" transform="translate(3798.265 -1330.873)"/></g><g class="j" transform="translate(39.345 69.653)"><path class="ai" d="M-3793.684,1336.183l5.463-2.45,8.841-10.879-13.394-2.6-6.705-7.721-3.016,9.958-1.573,13.692Z" transform="translate(3804.067 -1312.534)"/></g><g class="j" transform="translate(41.797 71.47)"><path class="aj" d="M-3792.054,1320.676l4.411-5.9,2.664,6.964,8.983,8.5-11.505,3.916-13.395-2.6Z" transform="translate(3800.896 -1314.772)"/></g><g class="j" transform="translate(46.209 71.594)"><path class="ak" d="M-3783.93,1336.633h10.717l1.708-6.393.9-15.315-13.082,6.839-11.505,3.916,8.982,8.5Z" transform="translate(3795.191 -1314.925)"/></g><g class="j" transform="translate(38.439 29.639)"><path class="al" d="M-3799.806,1283.563l17.446-20.307,8.026,26.016-30.9,11.7,5.8-33.95,13.458,8.606Z" transform="translate(3805.238 -1263.256)"/></g><g class="j" transform="translate(44.24 21.705)"><path class="am" d="M-3772.635,1287.435l-17.917-16.978,22.962-7.8-12.987,28.679-17.162-26.148,30.9-11.7Z" transform="translate(3797.738 -1253.485)"/></g><g class="j" transform="translate(0 87.204)"><path class="an" d="M-3846.279,1340.247l3.333-3.454-9.162-2.645-2.832,1.2v4.9Z" transform="translate(3854.941 -1334.148)"/></g><g class="j" transform="translate(18.802 24.991)"><path class="ao" d="M-3818.543,1279.9l-12.086-10.982,15.1-5.5,5.307-5.884,2.2,7.767,6.78,16.865Z" transform="translate(3830.629 -1257.532)"/></g><g class="j" transform="translate(28.464 32.758)"><path class="ap" d="M-3815.712,1281.695l8.627-10.51,4.355,13.1-15.407-6.356,12.946-10.831,6.78,16.865Z" transform="translate(3818.137 -1267.098)"/></g><g class="j" transform="translate(30.413 32.758)"><path class="aq" d="M-3802.158,1284.285l-13.458-8.606,13.827-7.934-1.949,2.25-.881-2.9,15.407,6.356Z" transform="translate(3815.616 -1267.098)"/></g><g class="j" transform="translate(0 36.914)"><path class="ar" d="M-3854.941,1277.7v37.148l8.493-9.82,4.163-32.808Z" transform="translate(3854.941 -1272.216)"/></g><g class="j" transform="translate(0 58.987)"><path class="as" d="M-3854.941,1319.954l8.493-9.82-5.337-5.939-2.23,7.823-.925-12.619Z" transform="translate(3854.941 -1299.398)"/></g><g class="j" transform="translate(29.219 20.516)"><path class="at" d="M-3812.476,1262.38l5.307-5.884,2.2,7.767-12.19-2.317,8.006-9.926,6.883,8.2Z" transform="translate(3817.16 -1252.021)"/></g><g class="j" transform="translate(30.1 20.516)"><path class="au" d="M-3804.711,1264.263l1.949-2.25.881,2.9-14.139-.067,7.125-12.823,12.19,2.317Z" transform="translate(3816.02 -1252.021)"/></g><g class="j" transform="translate(0 58.987)"><path class="av" d="M-3854.941,1329.911l2.078,1.081-1.153-18.974-.925-12.619Z" transform="translate(3854.941 -1299.398)"/></g><g class="j" transform="translate(0 71.125)"><path class="aw" d="M-3854.016,1314.827l-.925-.481v18.966l2.832-2.887,11.912-9.533Z" transform="translate(3854.941 -1314.346)"/></g><g class="j" transform="translate(0 74.33)"><path class="ax" d="M-3852.92,1337.266l2.691-18.973-4.711,1.952v17.021Z" transform="translate(3854.941 -1318.293)"/></g><g class="j" transform="translate(0 74.609)"><path class="ay" d="M-3854.941,1318.637v1.19l.963-.432Z" transform="translate(3854.941 -1318.637)"/></g><g class="j" transform="translate(0 74.33)"><path class="az" d="M-3852.92,1337.266l2.691-18.973-4.711,1.952v17.021Z" transform="translate(3854.941 -1318.293)"/></g><g class="j" transform="translate(44.74 55.655)"><path class="ba" d="M-3784.116,1318.074l-12.975-21.963,24.6-.816,16.288,13.23-19.056,8.195-3.313,8.733Z" transform="translate(3797.091 -1295.295)"/></g><g class="j" transform="translate(57.714 71.594)"><path class="bb" d="M-3780.315,1321.764l13.083-6.839-.9,15.315-9.769-1.894,6.447-7.936-3.313,8.733Z" transform="translate(3780.315 -1314.925)"/></g><g class="j"><path class="bc" d="M-3854.941,1226.755v31.478l5.843,4.144,1.542-22.935-2.387-12.687Z" transform="translate(3854.941 -1226.755)"/></g><g class="j" transform="translate(54.959 90.853)"><path class="bd" d="M-3776.071,1341.091l-7.574-2.45-.232,2.45Z" transform="translate(3783.877 -1338.642)"/></g><g class="j" transform="translate(8.739 12.395)"><path class="be" d="M-3843.641,1261.971l9.418-19.952,11.747,18.539-19.844,12.661-.521-24.375,10.427,7.29Z" transform="translate(3843.641 -1242.02)"/></g><g class="j" transform="translate(9.539 4.326)"><path class="bf" d="M-3829.01,1241.915l17.22,2.234-10.452,14.541-19.844,12.661-.521-24.375,2.624-14.895Z" transform="translate(3842.607 -1232.083)"/></g><g class="j" transform="translate(55.191 81.421)"><path class="bg" d="M-3764.823,1338.908l1.126-11.881-19.881,9.432.271,2.45Z" transform="translate(3783.577 -1327.027)"/></g><g class="j" transform="translate(43.832 84.545)"><path class="bh" d="M-3779.618,1339.631l1.028-8.758-19.674,8.758Z" transform="translate(3798.265 -1330.873)"/></g><g class="j" transform="translate(37.226 17.037)"><path class="bi" d="M-3806.807,1251.215l14.139.067-7.125,12.823-2.392-16.369,14.7,6.01-11.748,16.3Z" transform="translate(3806.807 -1247.737)"/></g><g class="j" transform="translate(26.232 1.033)"><path class="bj" d="M-3810.029,1247.51l-10.994-18.972,21.146-.51,22.741,2.671-13.574,19.343-11.747,16.3Z" transform="translate(3821.022 -1228.027)"/></g><g class="j" transform="translate(44.24 4.727)"><path class="bk" d="M-3797.738,1261.255l12.987-28.679,17.162,26.148-15.379,12.31-2.464-20.138,2.392,16.369Z" transform="translate(3797.738 -1232.577)"/></g><g class="j" transform="translate(33.804)"><path class="bl" d="M-3778.522,1226.755h-17.925l-1.21,1.033-13.574,19.343,22.741,2.671,17.052,3.463-5.669-17.237Z" transform="translate(3811.232 -1226.755)"/></g><g class="j" transform="translate(50.876 5.81)"><path class="bm" d="M-3772.105,1237.374l21.048,4.927-14.587,16.675-15.379,12.31-2.464-20.138-5.669-17.237Z" transform="translate(3789.157 -1233.91)"/></g><g class="j" transform="translate(0.144 87.204)"><path class="bn" d="M-3846.237,1340.247l3.333-3.454-9.162-2.645-2.688,6.1Z" transform="translate(3854.755 -1334.148)"/></g><g class="j" transform="translate(0.144 77.954)"><path class="bo" d="M-3839.56,1338.105l-.878-3.45-3.629-11.9-8,9.25-2.688,6.1Z" transform="translate(3854.755 -1322.757)"/></g><g class="j" transform="translate(55.191 75.51)"><path class="bp" d="M-3769.137,1337.54l1.865-4.8.511-2.249-2.111.66-10.605-11.4-4.1,15.343,1.812,2.45Z" transform="translate(3783.577 -1319.747)"/></g><g class="j" transform="translate(55.191 78.552)"><path class="bq" d="M-3766.183,1338.244l-1.632-14.751-15.762,12.3,1.812,2.45Z" transform="translate(3783.577 -1323.493)"/></g><g class="j" transform="translate(11.712 85.761)"><path class="br" d="M-3829.852,1339.913l-1.182-7.542-8.763,7.542Z" transform="translate(3839.797 -1332.371)"/></g><g class="j" transform="translate(6.568 87.625)"><path class="bs" d="M-3826.769,1340.344l2.12-5.314-13.907,1.864-7.892-2.228,1.444,5.678Z" transform="translate(3846.448 -1334.666)"/></g><g class="j" transform="translate(13.084 80.575)"><path class="bt" d="M-3821.378,1338.712l-5.485-4.215-5.522-8.513-4.26,9.278-1.376,3.45Z" transform="translate(3838.022 -1325.984)"/></g><g class="j" transform="translate(15.138 80.025)"><path class="bu" d="M-3812.743,1338.585l-1.026-13.277-12.492,9.062-9.105,4.215Z" transform="translate(3835.366 -1325.307)"/></g><g class="j" transform="translate(28.731 64.398)"><path class="bv" d="M-3805.6,1321.275l-12.186-7.387,12.186-7.387,3.09-.439-1.183,3.029,9.1,7.826Z" transform="translate(3817.79 -1306.062)"/></g><g class="j" transform="translate(30.111 49.946)"><path class="bw" d="M-3805.2,1303.155l-10.806-10.131,13.76-4.76,13.9,9.692-14.942,7.79-3.09.439Z" transform="translate(3816.007 -1288.264)"/></g><g class="j" transform="translate(38.527 67.427)"><path class="bx" d="M-3802.734,1321.976l3.016-9.958,6.706,7.721-12.112,2.131,4.3-12.079,9.1,7.826Z" transform="translate(3805.125 -1309.792)"/></g><g class="j" transform="translate(28.928 29.639)"><path class="by" d="M-3802.593,1283.563l17.445-20.307,8.027,26.016-3.549,30-22.969-18.227-13.9-9.692Z" transform="translate(3817.535 -1263.256)"/></g><g class="j" transform="translate(41.191 65.295)"><path class="bz" d="M-3792.232,1319.246l4.412-5.9,2.664,6.963-16.524,8.036,1.634-19.042,12.112-2.131Z" transform="translate(3801.68 -1307.167)"/></g><g class="j" transform="translate(42.825 55.655)"><path class="ca" d="M-3784.678,1318.074l-12.975-21.963,24.6-.816-3.549,30-22.969-18.227,16.523-8.035Z" transform="translate(3799.567 -1295.295)"/></g><g class="j" transform="translate(17.366 14.159)"><path class="cb" d="M-3826.716,1244.192l17.22,2.234-10.453,14.541-2.406-4.218,4.682-.078-14.815,1.985Z" transform="translate(3832.486 -1244.192)"/></g><g class="j" transform="translate(17.366 4.526)"><path class="cc" d="M-3826.716,1241.962l12.288-9.633,1.8,15.99,2.526,7.648-7.572-1.527-14.815,1.985Z" transform="translate(3832.486 -1232.329)"/></g><g class="j" transform="translate(29.546 26.637)"><path class="cd" d="M-3816.379,1263.856l1.951-3.666,2.048,3.607-4.357-.552,2.634-3.685,2.406,4.219Z" transform="translate(3816.737 -1259.559)"/></g><g class="j" transform="translate(27.02 20.516)"><path class="ce" d="M-3813.12,1262.38l-6.883-8.2,10.206-2.159,2.526,7.648-7.572-1.527,4.357.552Z" transform="translate(3820.003 -1252.021)"/></g><g class="j" transform="translate(0 26.509)"><path class="cf" d="M-3854.941,1259.4v24.207l11.682.838Z" transform="translate(3854.941 -1259.401)"/></g><g class="j" transform="translate(0 26.509)"><path class="cg" d="M-3854.22,1260.945l-.72-1.544v24.207l11.682.838-7.911-16.961,4.968-2.246Z" transform="translate(3854.941 -1259.401)"/></g><g class="j" transform="translate(0 7.449)"><path class="ch" d="M-3854.941,1253.476l13.423,1.2-6.037-13.506-7.385-5.238Z" transform="translate(3854.941 -1235.929)"/></g><g class="j" transform="translate(0 12.028)"><path class="ci" d="M-3847.555,1242.227l-7.385-.659v13.387l9.111,6,.428-12.2,4.313-5.225Z" transform="translate(3854.941 -1241.568)"/></g><g class="j" transform="translate(0 19.221)"><path class="cj" d="M-3845.708,1259.14l.885-7.912-.618.279.038-1.081-9.539,4.958v2.057l8.739,6.11.123-1.092.249.164Z" transform="translate(3854.941 -1250.426)"/></g></g><g class="ck"><g transform="translate(39.132 43.977)"><path class="cl" d="M-3798.856,1292.666l-5.486-6.1,8.661-5.648.329,10.718-2.9-1.067Zm-2.815-3.357,2.747,3.057.529-1.854Zm3.456,1.107,2.709,1-.313-10.227-8.294,5.408,2.347,2.612,5.248-4.741Zm-3.317-1.219,3.179,1.168,1.551-5.442Z" transform="translate(3804.342 -1280.913)"/></g><g transform="translate(27.19 43.977)"><path class="cl" d="M-3793.465,1303.2l-12.383-.955-13.937-6.116.1-.08,11.918-9.538,8.584-5.6.325,10.589Zm-12.337-1.1,12.094.929-5.294-11.5-.316-10.339-8.367,5.456-11.808,9.45Z" transform="translate(3819.784 -1280.913)"/></g><g transform="translate(35.691 53.559)"><path class="cl" d="M-3799.729,1316.442l-3.669-12.025-5.393-11.7,12.366.949,13.466,2.365-8.684,11.062Zm-8.82-23.555,5.287,11.473,3.595,11.781,7.914-9.151,8.52-10.853-13.212-2.321Z" transform="translate(3808.791 -1292.714)"/></g><g transform="translate(0 57.313)"><path class="cl" d="M-3854.941,1297.586v.154l14.461-.245-7.2,13.6-7.26,4.344v.177l7.351-4.4.018-.011,7.344-13.868Z" transform="translate(3854.941 -1297.336)"/></g><g transform="translate(15.962 0)"><path class="cl" d="M-3779.781,1226.755h-.147l-1.2,25.386v.011l7.223,31.429-29.516-9.14-30.589-18.84,30.839-18.4,19.4-10.449h-.321l-19.145,10.314-31.062,18.53,30.815,18.979,29.785,9.226-7.278-31.666Z" transform="translate(3834.301 -1226.755)"/></g><g transform="translate(45.676 0)"><path class="cl" d="M-3778.925,1226.755h-.176l5.71,9.011.011.017,13.941,7.265-12.94,9.028-23.342,12.575,1.3-27.5,4.909-10.4h-.164l-4.884,10.347-1.319,27.808,23.575-12.7,13.053-9.106.106-.074-14.134-7.366Z" transform="translate(3795.88 -1226.755)"/></g><g transform="translate(55.027 5.148)"><path class="cl" d="M-3769.611,1253.42l-.028-.015-14.151-7.375.106-.074,13.039-9.1,2-3.767,2.107,3.712,12.174,11.06Zm-13.886-7.409,13.9,7.242,14.952-5.445-12.005-10.913-1.983-3.492-1.913,3.576Z" transform="translate(3783.79 -1233.095)"/></g><g transform="translate(61.706 56.753)"><path class="cl" d="M-3773.128,1323.045l-.01-.133-1.228-15.89-.787-10.375,8.939,4.466,13.382,1.19-7.7,11.6Zm-1.092-16.035,1.218,15.757,12.376-8.979,7.528-11.353-13.168-1.177-8.721-4.358Z" transform="translate(3775.153 -1296.647)"/></g><g transform="translate(64.17 57.531)"><path class="cl" d="M-3759.837,1314.137l-12.13-10.98,15.158-5.553-.592,4.408,5.29.47Zm-11.841-10.922,11.813,10.694,7.49-11.294-5.045-.449-.719,5.353-.1-.083-7.511-6.166,8.2.73.559-4.167Zm6.406-1.748,7.023,5.767.682-5.081Z" transform="translate(3771.967 -1297.605)"/></g><g transform="translate(45.904 41.942)"><path class="cl" d="M-3795.586,1306.265l.842-22.151,5.875,2.158,7.708-7.866,4.23,17.568-.052.028Zm.981-21.936-.824,21.676,18.326-10.109-4.139-17.192-7.473,7.626.431.158-5.113,4.62-.1-.114,4.509-4.6Zm5.773,2.121-2.826,2.884,3.086-2.788Z" transform="translate(3795.586 -1278.407)"/></g><g transform="translate(45.904 19.747)"><path class="cl" d="M-3795.586,1301.127l.838-22.054,3.885-28,.1.082,21.053,17.449,14.717,17.777-.125.026-21.875,4.462Zm.984-22.036-.827,21.776,18.4-10.145,21.761-4.438-14.542-17.566-20.943-17.357Z" transform="translate(3795.586 -1251.074)"/></g><g transform="translate(47.947 52.922)"><path class="cl" d="M-3788.7,1311.12l-4.243-17.624,3.821.672-.166-2.239,6.768,3.4,3.154.554-.58.739,3.655,1.835Zm-4.046-17.433,4.126,17.137,12.077-12.325-3.5-1.757-8.124,10.348-.944-12.764Zm3.785.665.913,12.346,7.87-10.024-2.386-1.2Zm6.919,1.216,1.96.983.441-.562Zm-6.931-1.374,5.93,1.042-6.079-3.052Z" transform="translate(3792.944 -1291.929)"/></g><g transform="translate(52.685 58.456)"><path class="cl" d="M-3773.849,1314.723l-12.969-6.512,4.347-9.467,1.682,2.593,5.825-1.678Zm-12.773-6.585,12.607,6.33-1.081-14.612-5.605,1.614,3.824,5.9-.112.1-5.448-5.654,1.5-.431-1.511-2.329Zm4.469-6.25,4.729,4.909-3.427-5.284Z" transform="translate(3786.818 -1298.744)"/></g><g transform="translate(61.706 56.753)"><path class="cl" d="M-3774.359,1307.115l-.794-10.468,9.047,4.52-2.236,2.286,1.456,1.511Zm-.627-10.214.76,10.017,3.356-.966-1.65-6.836,4.074,4.229,2.087-2.133Zm6.538,6.659-2.307,2.358,3.585-1.032Zm-3.8-3.946,1.475,6.109,2.224-2.272Z" transform="translate(3775.153 -1296.647)"/></g><g transform="translate(64.376 51.495)"><path class="cl" d="M-3762.7,1310.814l-9-12.676,4.718-4.822,1.511,6.256,1.263-9.4.1.082,7.362,6.044Zm-8.808-12.659,8.774,12.354,5.806-14.162-7.172-5.89-1.332,9.913-1.631-6.758Z" transform="translate(3771.701 -1290.172)"/></g><g transform="translate(39.463 16.098)"><path class="cl" d="M-3771.28,1292.779l-25.346-14.49-.008-.033-7.281-31.677,29.768,9.218,6.651,1.449-4.505,5.3Zm-25.219-14.592,25.067,14.329-.717-30.022,4.375-5.15-6.407-1.4-29.531-9.144Z" transform="translate(3803.914 -1246.58)"/></g><g transform="translate(46.735 19.747)"><path class="cl" d="M-3769.149,1293.624l-25.362-14.5.007-.053,3.885-28,17.512,14.516,3.233-2.366.123,5.147.783.648-.776-.382Zm-25.2-14.582,25.051,14.319-.592-24.8-4.35-2.142,1.011-.741-17.279-14.321Zm20.4-12.646,3.895,1.917-3.055-2.532Zm.966-.707,3.086,2.558-.113-4.733Z" transform="translate(3794.511 -1251.074)"/></g><g transform="translate(64.631 14.73)"><path class="cl" d="M-3755.856,1270.223l-8.877-7.946-6.638-1.446,4.524-5.327,8.71-10.61,4.4,13.244,0,.02Zm-15.237-9.488,6.441,1.413,8.7,7.786,2.069-11.782-4.307-12.954-8.545,10.41Z" transform="translate(3771.371 -1244.895)"/></g><g transform="translate(69.148 23.032)"><path class="cl" d="M-3754.532,1272.145l-5.4-4.831-3.066,2.244-.02-.117-2.513-14.321,13.127,4.9Zm-5.274-4.922,5.176,4.633,2.06-11.738-12.77-4.765,2.445,13.942,2.849-2.084-3.792-3.394,5.193,2.557Zm-3.107-2.782,2.992,2.678.984-.72Z" transform="translate(3765.53 -1255.119)"/></g><g transform="translate(49.71 33.154)"><path class="cl" d="M-3754.721,1299.133l-21.22-5.163-.015-.02-14.708-17.768.125-.025,21.885-4.464,8.415-4.11-.821,9.71Zm-21.141-5.3,20.927,5.091-6.274-21.613v-.015l.8-9.459-8.2,4-21.777,4.444Z" transform="translate(3790.665 -1267.584)"/></g><g transform="translate(64.371 42.756)"><path class="cl" d="M-3750.425,1301.356l-21.283-5.178.035-.084,3.513-8.568-1.011-.613,1.68-1.018,1.747-4.262,1.59,2.239,7.359-4.46Zm-21.079-5.286,20.865,5.076-6.243-21.505-7.184,4.354,7.5,10.558-11.465-6.95Zm3.53-8.61,10.864,6.585-7.083-9.973-3.183,1.929Zm-.9-.548.776.471.513-1.253Zm3.168-4.975-1.57,3.828,3-1.816Z" transform="translate(3771.708 -1279.41)"/></g><g transform="translate(69.148 23.032)"><path class="cl" d="M-3763.84,1279.144l.821-9.714-2.51-14.311,13.093,4.891,10.9,10.22-13.881,4.8Zm-1.5-23.791,2.468,14.07v.01l-.8,9.458,8.2-4,13.647-4.722-10.7-10.032Z" transform="translate(3765.53 -1255.119)"/></g><g transform="translate(15.962 10.252)"><path class="cl" d="M-3803.39,1277.01l-30.911-19.038,31.166-18.592.3,6.148,3.634-1.574-2.669,21.037.306,6.178-1.021-.546Zm-30.617-19.036,30.5,18.786.788-6.211-25.885-13.86,25.629-11.1-.3-5.953Zm31.448,12.487.841.45-.252-5.087Zm-25.693-13.757,25.555,13.683.685-5.4-.954-19.231Zm25.43-11.012.916,18.462,2.531-19.954Z" transform="translate(3834.301 -1239.381)"/></g><g transform="translate(0 0)"><path class="cl" d="M-3843.173,1226.755l9.99,27.57-11.473,39.039-10.285-11.64v.225l10.35,11.715,11.555-39.319.008-.025-9.988-27.565Z" transform="translate(3854.941 -1226.755)"/><path class="cl" d="M-3845.992,1226.755l-8.949,11.533v.244l9.138-11.776Z" transform="translate(3854.941 -1226.755)"/></g><g transform="translate(0 24.355)"><path class="cl" d="M-3854.941,1256.748v.155l21.74,3.122L-3844.656,1299l-9.789-11.079,8.589-22.892-9.085,1.425v.156l8.856-1.389-8.47,22.576-.385-.436v.226l.326.369-.326.868v.42l.436-1.163,9.914,11.22,11.58-39.406Z" transform="translate(3854.941 -1256.748)"/></g><g transform="translate(0 40.605)"><path class="cl" d="M-3854.941,1276.761v.157l6.991,1.718-6.991,7.826v.224l7.185-8.042.087-.1Z" transform="translate(3854.941 -1276.761)"/></g><g transform="translate(0 32.639)"><path class="cl" d="M-3854.941,1268.375v.156l8.856-1.389-8.856,23.606v.417l9.085-24.214Z" transform="translate(3854.941 -1266.95)"/></g><g transform="translate(64.17 50.164)"><path class="cl" d="M-3747.023,1325.6l-12.877-13.225-12.066-10.923,15.045-5.51,16.522-7.409-2.151,18.732Zm-24.655-24.091,11.878,10.753,12.7,13.041,4.407-18.066,2.119-18.458-16.293,7.306Z" transform="translate(3771.967 -1288.533)"/></g><g transform="translate(76.156 62.457)"><path class="cl" d="M-3734.127,1332.805l-21.31-6.892,4.853-4.731-5.885-6.044,25.76-11.467-.016.132Zm-21.023-6.961,20.9,6.759,3.366-28.687-25.324,11.273,5.733,5.887,11.5-11.21-4.533,18.579-6.968-7.156Zm4.779-4.659,6.782,6.965,4.345-17.813Z" transform="translate(3756.469 -1303.671)"/></g><g transform="translate(77.015 47.537)"><path class="cl" d="M-3755.358,1314.129l2.154-18.747,3.055-10.084,6.774,7.8,13.495,2.62-.082.1-8.853,10.894Zm2.3-18.707-2.12,18.461,16.277-7.3,8.748-10.765-13.294-2.58-6.636-7.642Z" transform="translate(3755.358 -1285.298)"/></g><g transform="translate(79.981 49.352)"><path class="cl" d="M-3737.986,1307.148l-.018,0-13.519-2.624.082-.1,8.841-10.878,4.489-6.008.048.123,2.657,6.948,9.065,8.581Zm-13.261-2.731,13.251,2.573,11.367-3.869-8.9-8.426-.007-.016-2.616-6.839-4.334,5.8Z" transform="translate(3751.523 -1287.533)"/></g><g transform="translate(84.387 49.501)"><path class="cl" d="M-3726.059,1318.651l-10.694-11.495-9.074-8.59,11.621-3.955,13.192-6.9-.008.133-.9,15.315Zm-19.481-20.02,8.888,8.415,10.52,11.307,4.066-15.215.889-15.166-12.979,6.785Z" transform="translate(3745.826 -1287.716)"/></g><g transform="translate(76.666 7.523)"><path class="cl" d="M-3755.809,1274l.022-.132,5.82-34.061,8.972,5.738,8.188-9.531.04.127,8.049,26.087Zm5.949-33.944-5.759,33.708,30.717-11.63-7.966-25.819-8,9.311,4.558,2.914-14.317,8.216,9.532-11.1Zm8.893,5.687-8.973,10.444,13.337-7.653Z" transform="translate(3755.809 -1236.02)"/></g><g transform="translate(82.448)"><path class="cl" d="M-3717.287,1226.755h-.149L-3719,1235.9l-22.179,7.536,13.649,12.934-3.542,7.821-17.035-25.955,30.315-11.479h-.431l-30.022,11.368-.09.034,17.215,26.23.072.11,3.633-8.021,4.346,4.118,3.763-22.028,1.372-3.03-.907.308Zm-5.879,33.539-4.182-3.963,7.8-17.236Zm3.721-21.776-8.017,17.7-13.428-12.723,21.863-7.429Zm1.234-2.726-1,2.2.337-1.973Z" transform="translate(3748.334 -1226.755)"/></g><g transform="translate(33.707 65.157)"><path class="cl" d="M-3804.532,1319.327l-.553-4.026-6.272-5.161,7.443-3.143.024.006,9.285,2.681-6.853,7.1Zm-6.534-9.144,6.117,5.034,0,.031.521,3.793,2.868-2.371,6.666-6.909-9.016-2.6Z" transform="translate(3811.357 -1306.997)"/></g><g transform="translate(56.98 2.876)"><path class="cl" d="M-3751.616,1255.172l-17.449-2.288-.017-.015-12.182-11.068,15.2-5.537,5.382-5.967,2.236,7.9Zm-17.386-2.434,17.152,2.249-6.73-16.742-2.166-7.648L-3766,1236.4l-14.981,5.455Z" transform="translate(3781.264 -1230.297)"/></g><g transform="translate(66.64 10.67)"><path class="cl" d="M-3753.1,1257.339l-3.3-1.359-9.953-1.305,1.718-2.093-4.143-1.708.1-.083,13.021-10.895.038.093,6.829,16.988-4.636-.608Zm-2.708-1.283,2.464,1.016-.241-.725Zm2.331.151,4.456.584-6.693-16.649-12.771,10.685,3.954,1.63,6.981-8.5Zm-2.882-.378,2.72.357-3.966-11.928-6.781,8.26Zm-9.7-1.271,9.112,1.2-7.54-3.111Z" transform="translate(3768.773 -1239.895)"/></g><g transform="translate(68.588 10.662)"><path class="cl" d="M-3752.644,1257.3l-.044-.028-13.566-8.675,11.644-6.681-.617-2.028,2.415,1,.881-.505-.554.64,12.927,5.333Zm-13.317-8.695,13.305,8.508,12.806-10.715-12.743-5.257-1.669,1.926-.3-1Zm11.527-6.615.236.776,1.46-1.685-.065-.027Zm-.56-1.84.514,1.691,1.5-.86Z" transform="translate(3766.255 -1239.886)"/></g><g transform="translate(11.079 14.827)"><path class="cl" d="M-3819.131,1294.538l-6.479-21.238-15.005-3.846,10.728-11.77,29.26-12.671-4.183,32.964-.015.018Zm-21.2-25.17,14.838,3.8.013.041,6.414,21.025,14.12-16.327,4.142-32.652-29.01,12.563Z" transform="translate(3840.615 -1245.014)"/></g><g transform="translate(26.055 34.29)"><path class="cl" d="M-3814.743,1299.044l-6.508-21.334.046-.032,12.095-8.7,1.094,14.932,2.154-7.554,5.471,6.089-.045.053Zm-6.335-21.271,6.4,20.97,14.089-16.291-5.2-5.791-2.307,8.093-1.135-15.493Z" transform="translate(3821.251 -1268.983)"/></g><g transform="translate(0 24.355)"><path class="cl" d="M-3833.1,1259.885l-21.845-3.137v.155l21.818,3.133,14.8,3.792-10.546,11.581-1.215,31.307-24.855-16.519v.182l24.991,16.609,1.223-31.515,10.684-11.732Z" transform="translate(3854.941 -1256.748)"/></g><g transform="translate(0 11.242)"><path class="cl" d="M-3854.941,1242.174v.165l2.032.826-2.032,1.135v.174l2.384-1.332Z" transform="translate(3854.941 -1240.896)"/><path class="cl" d="M-3854.941,1240.6v.176l4.6,2.634-4.6,2.943v.18l4.89-3.131Z" transform="translate(3854.941 -1240.6)"/></g><path class="cl" d="M-3843.173,1226.755l9.975,27.53-21.242,10.724.847-11.773,3.04,1.235-2.205-14.887-.967,13.433-1.217-.495v.165l1.2.49-.86,11.952-.009.133,21.531-10.87.061-.031-10-27.607Zm-9.534,14.172,1.971,13.3-2.845-1.156Z" transform="translate(3854.941 -1226.755)"/><path class="cl" d="M-3845.992,1226.755l-8.949,11.533v.244l9.138-11.776Z" transform="translate(3854.941 -1226.755)"/><g transform="translate(0 0)"><path class="cl" d="M-3850.324,1226.755l3.27,9.126-5.43-.942.27-8.184h-.314l-2.412,1.348v.175l2.577-1.44-.266,8.076-2.311-.4v.156l2.306.4-.167,5.057-2.139-1.269v.177l2.277,1.351.175-5.291,5.662.982-3.341-9.321Z" transform="translate(3854.941 -1226.755)"/></g><g transform="translate(67.403)"><path class="cl" d="M-3758.327,1226.755h-.2l5.625,6.7-3.437.728-1.29-4.553-5.553,6.157,6.74-1.425.874,3.087-11.948-2.271,6.795-8.424h-.192l-6.879,8.528,12.433,2.364-.938-3.314,3.673-.776Zm-4.425,8.786,5.06-5.61,1.213,4.283Z" transform="translate(3767.787 -1226.755)"/></g><g transform="translate(68.295 0)"><path class="cl" d="M-3751.341,1226.755h-.823l4.835.919-7.924,9.824.11.1,1.864-2.151.812,2.669-13.912-.066,6.277-11.3h-.17l-6.362,11.449,14.367.068-.936-3.078,6.15-7.624Z" transform="translate(3766.634 -1226.755)"/></g><g transform="translate(10.884 34.29)"><path class="cl" d="M-3811.27,1303.437l-16.342-8.5-13.256-10.442,15.222-6.823,12.09-8.691,1.124,15.345Zm-29.306-18.9,13.041,10.274,16.1,8.373-1.146-18.842-1.1-15.079-11.9,8.553Z" transform="translate(3840.868 -1268.983)"/></g><g transform="translate(22.938 41.074)"><path class="cl" d="M-3819.771,1314.56l-.031-.129-4.315-17.972-1.164-19.121,16.339,8.5,13.934,6.115-.1.08-11.912,9.533Zm-5.348-36.967,1.146,18.842,4.282,17.828,12.575-12.817,11.817-9.458-13.707-6.015Z" transform="translate(3825.281 -1277.338)"/></g><g transform="translate(24.086 52.244)"><path class="cl" d="M-3819.434,1317.146l-.031-.129-4.332-18.038,19.039-7.886-1.823,12.849.171-.072-.188.192-1.184,8.35-3.878-3.191Zm-4.188-18.073,4.268,17.776,7.579-7.725-2.4-1.975,7.438-3.141,1.8-12.675Zm12.069,10.04,3.663,3.014,1.119-7.889Zm-2.332-1.919,2.216,1.824,4.623-4.711Z" transform="translate(3823.797 -1291.094)"/></g><g transform="translate(0 26.098)"><path class="cl" d="M-3828.76,1275.78l-25.406-16.885-.775,19.961v3.784l.911-23.471,25.187,16.739,13.042,10.274-15,6.721-.019.009-14.3,20.966-9.825-22.75v.373l9.744,22.562.052.121,14.424-21.148,15.21-6.818Z" transform="translate(3854.941 -1258.895)"/></g><g transform="translate(0 50.19)"><path class="cl" d="M-3848.3,1288.565l.211,7.256-6.847.115v.154l6.851-.116.4,13.806,7.463-14.093-7.72.13-.2-6.99,17.274,9.75-14.24,20.877-9.825-22.75v.374l9.744,22.562.053.121,14.436-21.165.049-.071Zm7.825,7.281-7.082,13.372-.382-13.245Z" transform="translate(3854.941 -1288.565)"/></g><g transform="translate(6.939 52.244)"><path class="cl" d="M-3818.915,1332.153h.2l-13.667-14.7-13.3-12.509,16.969-5.843,18.747-7.765-2.966,20.914-5.327,19.9h.152l5.317-19.872,3.005-21.187-18.977,7.86-17.088,5.883-.12.042,13.49,12.683Z" transform="translate(3845.968 -1291.094)"/></g><g transform="translate(6.636 50.19)"><path class="cl" d="M-3845.382,1325.373l-.373-15.872h0l-.605-20.936,17.572,9.918,13.508,12.7-17.211,5.926Zm-.823-36.546.6,20.67.365,15.606,12.69-8.136,16.985-5.85-13.3-12.508Z" transform="translate(3846.36 -1288.565)"/></g><g transform="translate(1.824 71.021)"><path class="cl" d="M-3843.7,1336.5h.185l-8.792-12.011,5.367-.746.152,6.453,13.2-8.465-13.211,1.836-.215-9.143,23.964,7.283-14.662,14.793h.211l14.736-14.867-24.4-7.415.22,9.371-5.634.783Zm9.446-14.521-12.394,7.946-.146-6.2Z" transform="translate(3852.582 -1314.218)"/></g><g transform="translate(82.932 33.611)"><path class="cl" d="M-3729.036,1298.536l-5.63-7.492-13.041-22.076,24.756-.821,16.409,13.329-19.145,8.233Zm-5.508-7.576,5.466,7.271,3.277-8.639.029-.013,18.939-8.144L-3723,1268.3l-24.449.81Z" transform="translate(3747.707 -1268.148)"/></g><g transform="translate(95.923 49.501)"><path class="cl" d="M-3718.547,1303.251l-6.591-1.277-.092.242-.228-.3-3.064-.594,1.36-1.673-3.748-4.987,13.276-6.941-.008.133Zm-6.535-1.424,6.4,1.241.887-15.1-12.888,6.737,3.619,4.814,5.36-6.6Zm-.3-.057.148.028,3.061-8.064-4.8,5.912Zm-2.868-.556,2.65.513-1.474-1.961Z" transform="translate(3730.91 -1287.716)"/></g><g transform="translate(2.128 0)"><path class="cl" d="M-3829.585,1226.755l1.166.8-18.629,17.542-1.406-7.013,13.682-8.472-4.81-2.854h-.3l4.815,2.857-13.421,8.31-2.239-11.167h-.15l2.256,11.25-3.41,2.111.677-13.361h-.146l-.691,13.64,3.6-2.231,1.448,7.223,18.96-17.855-1.138-.777Z" transform="translate(3852.19 -1226.755)"/></g><g transform="translate(3.444 0)"><path class="cl" d="M-3827.756,1226.755l-.221.744-18.685,17.6-3.677-18.339h-.149l3.735,18.631,18.889-17.787.015-.014.247-.83Z" transform="translate(3850.488 -1226.755)"/></g><g transform="translate(1.692 0.673)"><path class="cl" d="M-3829.778,1255.843l-2.722-1.859-.047.649-3.85-3.31-15.989-10.921,2.072-1.046-2.438-2.1.119-.047,24.287-9.628-.006.118Zm-2.71-2.034,2.577,1.76,1.406-27.757-23.959,9.5,2.3,1.973,19.43-9.811-.009.133Zm-2.784-1.718,2.6,2.236.031-.438Zm-1.039-.893,3.683,2.515,1.725-23.986-19.141,9.664Zm-15.777-10.776,14.652,10.007-12.753-10.966Z" transform="translate(3852.753 -1227.584)"/></g><g transform="translate(6.423 0)"><path class="cl" d="M-3826.581,1226.755l-.5.718-19.337,4.562,1.57-5.28H-3845l-1.632,5.488,19.639-4.633.6-.855Z" transform="translate(3846.636 -1226.755)"/></g><g transform="translate(18.525 0)"><path class="cl" d="M-3804.5,1226.755l-.909,13.518-18.041-12.8-.015-.011-6.177-.712h-1.343l7.467.861,18.131,12.859.106.075.927-13.795Z" transform="translate(3830.987 -1226.755)"/></g><g transform="translate(0 11.242)"><path class="cl" d="M-3854.941,1240.6v.176l4.6,2.634-4.6,2.943v.18l4.89-3.131Z" transform="translate(3854.941 -1240.6)"/></g><g transform="translate(91.267 68.786)"><path class="cl" d="M-3736.93,1334.485l2.182-23.02.085.029,21.226,6.864-5.592,5.452,2.239,1.121-6.6,3.13-6.435,6.274-.234-3.11Zm2.311-22.817-2.14,22.567,6.689-3.174-1-13.276.115.057,11.782,5.9,5.448-5.311Zm4.7,19.488.214,2.848,5.893-5.745Zm-.987-13.118.975,12.955,6.457-3.063,4.184-4.08Zm11.758,5.884-3.906,3.809,5.913-2.806Z" transform="translate(3736.93 -1311.466)"/></g><g transform="translate(46.898)"><path class="cl" d="M-3778.744,1226.755l5.668,8.944-19.67,12.55-.249-11.622,10.23-5.317-6.422-4.49.031-.065h-.388l.168.119-3.662,7.758-.168-7.877h-.147l.175,8.174-1.122,2.377,1.16-.6.253,11.817,20.018-12.772-5.7-8.993Zm-15.231,10.211.805-1.705.027,1.272Zm.945-2,3.778-8,6.194,4.331-9.941,5.167Z" transform="translate(3794.3 -1226.755)"/></g><g transform="translate(47.846 0)"><path class="cl" d="M-3766.34,1226.755l-6.4,8.91-19.723,12.585-.461-21.495h-.145l.465,21.765,19.953-12.73,6.5-9.034Z" transform="translate(3793.074 -1226.755)"/></g><g transform="translate(93.434 59.331)"><path class="cl" d="M-3731.842,1330l-2.286-20.672.05-.023,20-9.487-2.185,23.053-3.4-2.371Zm-2.128-20.577,2.244,20.295,11.925-9.306-.793-.553,4.54-2.37.077.131-3.568,2.784,3.156,2.2,2.136-22.532Zm13.669,10.454.626.436,2.95-2.3Z" transform="translate(3734.128 -1299.822)"/></g><g transform="translate(54.912 62.456)"><path class="cl" d="M-3772.247,1334.517l-11.4-7.45,21.113-11.834,25.423-11.317-3.376,28.771-.379,1.829h.15l.373-1.8,3.393-28.911.015-.132-25.659,11.422-21.233,11.9-.112.063,11.415,7.461Z" transform="translate(3783.938 -1303.671)"/></g><g transform="translate(0 74.175)"><path class="cl" d="M-3854.941,1318.1v.236l8.531,10.419-8.531,1.69v.157l8.683-1.72.125-.025Z" transform="translate(3854.941 -1318.102)"/></g><g transform="translate(0 68.936)"><path class="cl" d="M-3854.941,1311.651v.329l10.845,21.6-10.845-.438v.154l11.093.448Z" transform="translate(3854.941 -1311.651)"/></g><g transform="translate(0 59.916)"><path class="cl" d="M-3847.7,1311.76l2.579,22.169h.148l-2.581-22.178.06-11.209-7.448,4.457v.177l7.3-4.368Z" transform="translate(3854.941 -1300.542)"/></g><g transform="translate(0 72.672)"><path class="cl" d="M-3854.941,1316.251v.183l6.684,4.555-6.684,3.58v.172l6.977-3.736Z" transform="translate(3854.941 -1316.251)"/></g><g transform="translate(76.051 0)"><path class="cl" d="M-3742.256,1226.755h-.169l-6.231,11.214-1.639-11.214h-.149l1.7,11.667Z" transform="translate(3755.209 -1226.755)"/><path class="cl" d="M-3740.635,1226.755l2.729,1.116-11.612,16.114-6.928-17.229h-.159l7.051,17.535,11.824-16.408.058-.081-2.559-1.046Z" transform="translate(3756.605 -1226.755)"/></g><g transform="translate(76.051 0)"><path class="cl" d="M-3737.121,1226.755l-.726,1.035-11.67,16.195-6.928-17.229h-.159l7.051,17.535,11.824-16.408.791-1.127Z" transform="translate(3756.605 -1226.755)"/></g><g transform="translate(82.461)"><path class="cl" d="M-3724,1226.755l5.836,8.893-15.222,12.184-.449-3.676.412.169-2.411-16.5-.146.022,1.967,16.072-14.1-5.765,5.161-11.4h-.162l-5.166,11.407-.034.075,14.321,5.855.493,4.024,15.535-12.435-5.858-8.927Zm-11.07,7.311,1.464,10.019-.25-.1Z" transform="translate(3748.316 -1226.755)"/></g><g transform="translate(85.005 0)"><path class="cl" d="M-3719.686,1226.755l1.461,4.443-16.933-3.439-8.552-1h-1.318l9.848,1.156,17.052,3.463.125.025-1.528-4.645Z" transform="translate(3745.027 -1226.755)"/></g><g transform="translate(94.435 0)"><path class="cl" d="M-3706.864,1226.755l-7.74,8.848-15.278,12.229-2.451-20.021-.347-1.056h-.154l.359,1.091,2.464,20.138.016.132,15.489-12.4,7.84-8.961Z" transform="translate(3732.833 -1226.755)"/></g><g transform="translate(0 91.592)"><path class="cl" d="M-3854,1341.262l-.941-1.711v.308l.772,1.4Z" transform="translate(3854.941 -1339.551)"/></g><g transform="translate(0 67.775)"><path class="cl" d="M-3825.574,1330.516l-11.217,5.233h.359l11.149-5.2L-3847.6,1313.5l-7.343-3.278v.166l7.271,3.246Z" transform="translate(3854.941 -1310.221)"/></g><g transform="translate(0 71.042)"><path class="cl" d="M-3823.586,1321.712l-14.663,14.793h.212l14.736-14.866-24.3-7.386-.026-.008-7.309,3.41v.169l7.32-3.415Z" transform="translate(3854.941 -1314.245)"/></g><g transform="translate(36.772 65.147)"><path class="cl" d="M-3800.755,1316.985l.21-.8-6.849.65,4.343-9.85,9.344,2.7-4.606,4.774,1.308,1.393-2.921.278Zm-2.216-9.818-4.183,9.49,6.65-.631.8-3.051,1.286,1.37,4.425-4.586Zm2.582,9-.079.3.312-.324Zm.76-2.9-.718,2.738.356-.034,1.471-1.524Zm1.211,1.289-1.344,1.393,2.435-.231Z" transform="translate(3807.394 -1306.984)"/></g><g transform="translate(36.772 55.839)"><path class="cl" d="M-3789.171,1315.968l-8-2.258-10.221.97,4.328-9.811,8.084-9.348,3.668,12.025Zm-7.989-2.414.012,0,7.771,2.193-2.077-8.161-3.589-11.767-7.906,9.142-4.2,9.539Z" transform="translate(3807.394 -1295.521)"/></g><g transform="translate(26.024 71.139)"><path class="cl" d="M-3807.548,1336.527-3821,1325.838l17.268-7.652.032-.015.922-3.511,2.409,2.566,14.013,15.463-15.135,3.838h.625l14.792-3.75-14.189-15.657-2.589-2.757-.97,3.7-17.468,7.741,13.5,10.727Z" transform="translate(3821.291 -1314.363)"/></g><g transform="translate(93.433 53.396)"><path class="cl" d="M-3723.934,1321.805l-10.195-13.785.01-.037,4.134-15.471,10.663,11.461,2.19-.685-.541,2.379Zm-10.034-13.817,9.993,13.512,6.162-15.879.478-2.109-2.032.636-10.546-11.337Z" transform="translate(3734.129 -1292.513)"/></g><g transform="translate(93.409 56.445)"><path class="cl" d="M-3723.941,1322.511l-10.219-13.815,15.924-12.428,2.293,20.74-5.1-1.976Zm-10.011-13.786,9.97,13.481,2.8-7.227-4.547-1.763,8.152-7.117-3.412,8.79,4.869,1.886-2.237-20.226Zm8.517,4.439,4.314,1.672,3.192-8.224Z" transform="translate(3734.16 -1296.268)"/></g><g transform="translate(26.975 63.652)"><path class="cl" d="M-3806.85,1334.794l-12.93-14.268,19.76-5.01.016,0,11.713-10.081,2.455,15.668,1.227,13.7h.147l-1.229-13.715-2.5-15.936-11.883,10.227-19.991,5.069,13.01,14.355Z" transform="translate(3820.062 -1305.143)"/></g><g transform="translate(42.457 79.471)"><path class="cl" d="M-3799.969,1338.457h.229l1.161-1.013,1.749,1.013h.3l-1.931-1.118,6.575-5.738,7.6-4.823,1.907,11.678h.148l-1.92-11.764,2.854-1.81,1.216,13.573h.147l-1.227-13.71-.011-.123-3.005,1.906-.265-1.627-7.534,6.572-8.074,5.121,1.326.768Zm15.432-13.265.233,1.424-6.825,4.327Zm-15.213,11.4,7.028-4.457-5.874,5.125Z" transform="translate(3800.043 -1324.624)"/></g><g transform="translate(44.787 65.55)"><path class="cl" d="M-3792.393,1331.829l-2.5-15.932-2.141-8.416,8,2.258,14.018-1.879-5.485,13.73Zm-4.43-24.13,2.077,8.168,2.455,15.673,11.686-10.057,5.36-13.436-13.8,1.849-.014,0Z" transform="translate(3797.03 -1307.481)"/></g><g transform="translate(47.25 58.456)"><path class="cl" d="M-3793.845,1321.846l5.466-13.7,4.315-9.4,5.587,8.612,9.739,7.484-11.076,5.125Zm5.6-13.639-5.366,13.452,13.77-1.846,10.813-5.006-9.562-7.354-5.451-8.4Z" transform="translate(3793.845 -1298.744)"/></g><g transform="translate(55.73 79.491)"><path class="cl" d="M-3782.721,1338.461l5.42-13.594,18.918,10.951-4.168,2.643h.284l4.177-2.649-19.212-11.121-.071-.042-5.507,13.812Z" transform="translate(3782.88 -1324.649)"/><path class="cl" d="M-3771.757,1340.469h.153l1.423-4.836,4.27,4.836h.2l-4.535-5.136Z" transform="translate(3780.36 -1326.658)"/></g><g transform="translate(51.481 57.921)"><path class="cl" d="M-3766.365,1330.735l-.1-.086-12.167-10.826-9.745-7.489,11.049-5.116,12.59-9.133.01.133,1.229,15.9Zm-21.718-18.368,9.544,7.335,12.075,10.743,2.821-16.335-1.218-15.746-12.4,8.993Z" transform="translate(3788.374 -1298.085)"/></g><g transform="translate(54.912 73.807)"><path class="cl" d="M-3772.525,1337.145h.278l-11.4-7.45,7.965-4.465,10.32,9.182,2.216-12.83,8.724-1.171-6.672,16.733h.159l6.7-16.8.049-.123-8.93,1.2.652-3.775-8.65,4.848-6.635.891,1.95,1.735-8.137,4.561Zm9.862-19.211-.606,3.51-7.437,1Zm-8.408,4.712,7.773-1.043-2.161,12.519-10.082-8.97Zm-6.332.849,5.923-.794-4.182,2.344Z" transform="translate(3783.938 -1317.649)"/></g><g transform="translate(66.906 42.338)"><path class="cl" d="M-3756.1,1294.287l-.03-.019-12.3-7.453,12.323-7.463,3.216-.457-1.21,3.1,9.152,7.875Zm-12.032-7.472,12.045,7.3,10.852-4.3-9.039-7.778,1.155-2.958-2.95.42Z" transform="translate(3768.429 -1278.895)"/></g><g transform="translate(68.289 27.895)"><path class="cl" d="M-3756.989,1279.208l1.211-3.1-10.863-10.183,13.914-4.814.03.021,14,9.765-.114.059-14.965,7.8Zm-9.365-13.223,10.75,10.079-1.154,2.956,2.952-.42,14.817-7.724-13.76-9.6Z" transform="translate(3766.641 -1261.108)"/></g><g transform="translate(76.735 45.334)"><path class="cl" d="M-3753.332,1295.024l.178-.587-2.566.451,4.378-12.3,9.273,7.979-2.342.928,1.06,1.221-7.457,1.312Zm.341-.615-.109.359,1.546-.612Zm1.715-11.569-4.217,11.853,2.39-.421,2.872-9.484,5.715,6.581,2.159-.855Zm1.108,2.248-2.773,9.156,2.1-.369,6.18-2.448Zm5.611,6.461-5.54,2.193,6.458-1.136Z" transform="translate(3755.72 -1282.584)"/></g><g transform="translate(67.104 7.523)"><path class="cl" d="M-3731.105,1292.326l-.1-.081-22.968-18.226-14-9.763.114-.059,14.929-7.783,17.521-20.394.039.127,8.031,26.032,0,.017Zm-36.775-28.05,13.79,9.618,22.872,18.149,3.531-29.849-7.983-25.873-17.37,20.219-.012.007Z" transform="translate(3768.173 -1236.02)"/></g><g transform="translate(79.428 43.232)"><path class="cl" d="M-3752.238,1301.393l1.65-19.234,12.293-2.163-4.177,11.738,4.2-5.618.048.123,2.689,7.032-.063.03Zm1.787-19.1-1.618,18.85,16.345-7.949-2.591-6.771-4.625,6.189,4.418-12.419Z" transform="translate(3752.238 -1279.996)"/></g><g transform="translate(81.005 33.61)"><path class="cl" d="M-3727.031,1298.366l-.1-.081-23.066-18.3,6.551-3.186-4.624-7.827,24.815-.823-.011.089Zm-22.885-18.352,22.771,18.069,3.522-29.777-24.39.809,4.5,7.617,10.065-4.894-1.666,19.4-8.454-14.312Zm6.48-3.151,8.214,13.906,1.6-18.68Z" transform="translate(3750.199 -1268.146)"/></g><g transform="translate(19.348 70.824)"><path class="cl" d="M-3813.485,1336.454h.7l-7.345-1.646-9.547-18.961,20.474.8,2.889-2.388.524,3.805,5.676,18.388h.154l-5.687-18.423-.558-4.057-3.046,2.518-20.675-.809,9.7,19.261Z" transform="translate(3829.923 -1313.975)"/></g><g transform="translate(26.024 74.788)"><path class="cl" d="M-3818.361,1335.842l6.833,1.531h.7l-7.254-1.625,3.377-3.867,6.912,5.492h.243l-7.055-5.606,4.741-5.43,3.311,11.036h.154l-3.4-11.337-4.923,5.637-6.28-4.99,17.194-7.619,5.651,18.308h.154l-5.715-18.515-17.574,7.788,6.471,5.142Z" transform="translate(3821.291 -1318.857)"/></g><g transform="translate(1.824 77.272)"><path class="cl" d="M-3843.52,1337.947l-8.791-12.011,18.392-2.557,14.958-1.288-6.422,14.261-.35,1.595h.149l.339-1.545,6.525-14.486-15.215,1.31-18.522,2.575-.126.017,8.877,12.129Z" transform="translate(3852.582 -1321.916)"/></g><g transform="translate(13.89 58.099)"><path class="cl" d="M-3836.981,1333.317l6.522-14.48,5.5-20.532,14.2,15.284,9.682,19.229-20.7-.81Zm12.089-34.714-5.431,20.294-6.417,14.245,14.958-1.288,20.457.8-9.559-18.983Z" transform="translate(3836.981 -1298.305)"/></g><g transform="translate(55.571)"><path class="cl" d="M-3764.076,1226.755l-6.348,8.831-2-3.509,4.28-.573-.01-.154-4.809.081.3.523-10.186,1.365,2.618-6.563h-.159l-2.692,6.749,10.5-1.406,2.146,3.763,6.545-9.106Zm-8.632,4.825,3.235-.054-3.034.407Z" transform="translate(3783.086 -1226.755)"/></g><g transform="translate(55.571 0)"><path class="cl" d="M-3762.708,1226.755l2.014,6.1-7.447-1.5-.012,0-14.7,1.969,2.619-6.563h-.159l-2.692,6.749,14.929-2,7.685,1.55-2.082-6.3Z" transform="translate(3783.086 -1226.755)"/></g><g transform="translate(67.733 4.533)"><path class="cl" d="M-3766.994,1236.852l.291-.546-.657-.084,2.777-3.884,2.527,4.431-.688.011.016.028-.2-.025Zm.449-.526-.2.368,2.74-.046Zm1.661-3.311,2.053,3.614.518-.009-2.285-4.006Zm-1.584,3.166,3.46.438-1.906-3.358Zm-.623-.079.465.059,1.479-2.779Z" transform="translate(3767.36 -1232.338)"/></g><g transform="translate(65.203)"><path class="cl" d="M-3759.886,1226.755l2.014,6.1-3.178-.641.209-.293-4.483-.568-.023.152,4.038.815-2.306,3.226-6.739-8.03,3.581-.758h-.743l-3.117.659,7.027,8.372,2.457-3.437,3.5.705-2.081-6.3Zm-1.324,5.424-2.039-.411,2.138.271Z" transform="translate(3770.632 -1226.755)"/></g><g transform="translate(1.692 0)"><path class="cl" d="M-3817.8,1226.755h-.155l1.03,3,12.362,26.5-28.019-2.01-19.882-17.095,24.063-9.539.018-.007.684-.852h-.192l-.58.722-24.283,9.626,20.1,17.28.018.016,28.192,2.022.127.009-12.471-26.736Z" transform="translate(3852.753 -1226.755)"/></g><g transform="translate(20.395)"><path class="cl" d="M-3801.732,1237.142l-8.136-4.356-1.555-3.335-.264,2.361-9.442-5.057h-.323l9.748,5.22-1.141,10.193,5.939-2.685,7.824,16.776-27.977-2.007-1.364-27.5h-.147l1.367,27.573,0,.067,28.234,2.025.127.009-7.934-17.008Zm-9.6-7.154,1.251,2.68-1.463-.783Zm-1.336,11.932,1.105-9.871,1.588.85,3.005,6.444Zm2.911-8.9,7.684,4.114-4.76,2.153Z" transform="translate(3828.57 -1226.755)"/></g><g transform="translate(25.945 0)"><path class="cl" d="M-3797.565,1226.755l1.851,4.14-14.033-1.252-.037,0-7.522,9.357-3.939-11.466.052-.776h-.147l-.053.781v.016l4.035,11.747,7.637-9.5,14.248,1.271-1.929-4.316Z" transform="translate(3821.394 -1226.755)"/></g><g transform="translate(36.18 0)"><path class="cl" d="M-3796.648,1226.755l-.327,9.317-9.721-6.405-1.3-2.911h-.163l1.34,3,.009.021,9.973,6.571.337-9.589Z" transform="translate(3808.16 -1226.755)"/></g><g transform="translate(36.488)"><path class="cl" d="M-3796.1,1226.755l-.453,4.054.142-4.054h-.147l-.209,5.963-.357,3.2-9.381-6.181,6.585-2.978h-.371l-6.529,2.952,9.677,6.377-.1.919-10.221-7.146,5.965-3.1h-.33l-5.927,3.081,10.632,7.434.123-1.1.258.171.127-3.613.669-5.976Zm-.785,9.317-.1-.068.153-1.365Z" transform="translate(3807.761 -1226.755)"/></g></g></g><path class="a" d="M-3633.685,1262.2v29.752c0,7.852-6.071,14.218-13.55,14.218H-3841.4c-7.479,0-13.542-6.366-13.542-14.218V1262.2c0-7.852,6.063-14.218,13.542-14.218h194.164C-3639.756,1247.984-3633.685,1254.35-3633.685,1262.2Z" transform="translate(3853.582 -1248.855)"/></g></g></svg>