<svg width="13" height="13" viewBox="0 0 13 13" fill="none" xmlns="http://www.w3.org/2000/svg">
<path d="M12.2233 4.2747L8.43661 3.72086L6.74386 0.267174C6.69762 0.172615 6.62156 0.0960662 6.5276 0.0495368C6.29196 -0.0675371 6.00561 0.0300245 5.88778 0.267174L4.19503 3.72086L0.408326 4.2747C0.303927 4.28971 0.208476 4.33925 0.135397 4.41429C0.0470483 4.50568 -0.00163595 4.62863 4.19772e-05 4.75612C0.0017199 4.88361 0.0536227 5.00522 0.144346 5.09422L2.88407 7.78242L2.2368 11.5783C2.22162 11.6666 2.23133 11.7574 2.26483 11.8405C2.29832 11.9235 2.35427 11.9954 2.42631 12.0481C2.49836 12.1007 2.58362 12.132 2.67244 12.1384C2.76126 12.1448 2.85008 12.126 2.92882 12.0841L6.31582 10.292L9.70282 12.0841C9.79529 12.1337 9.90267 12.1502 10.0056 12.1322C10.2651 12.0871 10.4396 11.8395 10.3948 11.5783L9.74757 7.78242L12.4873 5.09422C12.5619 5.02068 12.6111 4.92462 12.626 4.81955C12.6663 4.55688 12.4843 4.31373 12.2233 4.2747Z" fill="#FFDE42"/>
</svg>
