<svg xmlns="http://www.w3.org/2000/svg" xmlns:xlink="http://www.w3.org/1999/xlink" width="27.744" height="19.618" viewBox="0 0 27.744 19.618"><defs><linearGradient id="a" x1="0.476" y1="0.3" x2="0.553" y2="0.945" gradientUnits="objectBoundingBox"><stop offset="0" stop-color="#ffd945"/><stop offset="0.304" stop-color="#ffcd3e"/><stop offset="0.856" stop-color="#ffad2b"/><stop offset="1" stop-color="#ffa325"/></linearGradient><linearGradient id="b" x1="0.47" y1="0.168" x2="0.633" y2="1.948" gradientUnits="objectBoundingBox"><stop offset="0" stop-color="#ff7044"/><stop offset="1" stop-color="#f82814"/></linearGradient><linearGradient id="c" x1="0.681" y1="0.958" x2="0.05" y2="0.248" gradientUnits="objectBoundingBox"><stop offset="0" stop-color="#f82814" stop-opacity="0"/><stop offset="1" stop-color="#c0272d"/></linearGradient><linearGradient id="d" x1="0.5" y1="0.12" x2="0.5" y2="0.799" xlink:href="#a"/><linearGradient id="e" x1="0.57" y1="0.388" x2="0.774" y2="-0.178" gradientUnits="objectBoundingBox"><stop offset="0" stop-color="#fbb27e" stop-opacity="0"/><stop offset="1" stop-color="#ff7044"/></linearGradient><linearGradient id="f" x1="0.654" y1="0.543" x2="-0.549" y2="0.422" xlink:href="#e"/><linearGradient id="g" x1="0.511" y1="0.678" x2="0.472" y2="-0.328" xlink:href="#e"/><linearGradient id="h" x1="0.451" y1="0.521" x2="0.759" y2="-0.074" xlink:href="#e"/><linearGradient id="i" x1="0.501" y1="0.541" x2="0.048" y2="0.316" xlink:href="#e"/><linearGradient id="j" y1="0.5" x2="1" y2="0.5" gradientUnits="objectBoundingBox"><stop offset="0" stop-color="#cdec7a"/><stop offset="0.34" stop-color="#c1ea76"/><stop offset="0.956" stop-color="#a1e66b"/><stop offset="1" stop-color="#9ee66a"/></linearGradient></defs><g transform="translate(0 -74.691)"><path d="M63.534,122.232a1.579,1.579,0,0,0,0,1.6l.366.623a1.58,1.58,0,0,1,0,1.6l-.366.623a1.579,1.579,0,0,0,0,1.6l.366.623a1.58,1.58,0,0,1,0,1.6l-.071.121a.12.12,0,0,1-.1.059H39.154a.12.12,0,0,1-.1-.181,1.576,1.576,0,0,0,0-1.6l-.366-.623a1.577,1.577,0,0,1,0-1.6l.366-.623a1.577,1.577,0,0,0,0-1.6l-.366-.623a1.577,1.577,0,0,1,0-1.6l.366-.623a1.579,1.579,0,0,0,0-1.6l-.366-.623a1.58,1.58,0,0,1,0-1.6l.366-.623a1.579,1.579,0,0,0,0-1.6l-.366-.623a1.58,1.58,0,0,1,0-1.6l.071-.121a.12.12,0,0,1,.1-.059H63.43a.12.12,0,0,1,.1.181,1.576,1.576,0,0,0,0,1.6l.366.623a1.577,1.577,0,0,1,0,1.6l-.366.623a1.577,1.577,0,0,0,0,1.6l.366.623a1.577,1.577,0,0,1,0,1.6Z" transform="translate(-36.373 -36.373)" fill="url(#a)"/><g transform="translate(0 74.691)"><path d="M25.068,83.766a1.579,1.579,0,0,0,0,1.6l.366.623a1.58,1.58,0,0,1,0,1.6l-.366.623a1.579,1.579,0,0,0,0,1.6l.366.623a1.58,1.58,0,0,1,0,1.6l-.071.121a.12.12,0,0,1-.1.059H.688a.12.12,0,0,1-.1-.181,1.576,1.576,0,0,0,0-1.6l-.366-.623a1.577,1.577,0,0,1,0-1.6l.366-.623a1.577,1.577,0,0,0,0-1.6l-.366-.623a1.577,1.577,0,0,1,0-1.6l.366-.623a1.579,1.579,0,0,0,0-1.6l-.366-.623a1.58,1.58,0,0,1,0-1.6L.585,78.7a1.579,1.579,0,0,0,0-1.6l-.366-.623a1.58,1.58,0,0,1,0-1.6L.29,74.75a.12.12,0,0,1,.1-.059H24.964a.12.12,0,0,1,.1.181,1.576,1.576,0,0,0,0,1.6l.366.623a1.577,1.577,0,0,1,0,1.6l-.366.623a1.577,1.577,0,0,0,0,1.6l.366.623a1.577,1.577,0,0,1,0,1.6Z" transform="translate(0 -74.691)" fill="url(#b)"/><path d="M52.7,135.465a1.518,1.518,0,0,0-1-.587l-.876-.127c-.033-.03-2.448-2.429-2.448-2.429a1.545,1.545,0,0,0-2.61.259l-.618,1.252a1.545,1.545,0,0,1-1.163.845l-1.382.2a1.545,1.545,0,0,0-.856,2.635l1.163,1.163a1.544,1.544,0,0,1,.281,1.179l-.236,1.376a1.524,1.524,0,0,0,.583,1.486l3.425,3.425H63.375Z" transform="translate(-39.028 -128.618)" fill="url(#c)"/><g transform="translate(2.245 3.102)"><path d="M48.53,132.572l.618,1.252a1.545,1.545,0,0,0,1.163.845l1.382.2a1.545,1.545,0,0,1,.856,2.635l-1,.975a1.545,1.545,0,0,0-.444,1.367l.236,1.376a1.545,1.545,0,0,1-2.241,1.628l-1.236-.65a1.545,1.545,0,0,0-1.438,0l-1.236.65a1.545,1.545,0,0,1-2.241-1.628l.236-1.376a1.545,1.545,0,0,0-.444-1.367l-1-.975a1.545,1.545,0,0,1,.856-2.635l1.382-.2a1.545,1.545,0,0,0,1.163-.845l.618-1.252A1.545,1.545,0,0,1,48.53,132.572Z" transform="translate(-41.272 -131.711)" fill="url(#d)"/><path d="M44.532,182.531a1.541,1.541,0,0,1-.554.194l-1.382.2a1.545,1.545,0,0,0-.856,2.635l1,.975a1.545,1.545,0,0,1,.444,1.367l-.236,1.376a1.545,1.545,0,0,0,2.241,1.628l1.236-.65a1.545,1.545,0,0,1,1.438,0l1.236.65a1.524,1.524,0,0,0,1.556-.069Z" transform="translate(-41.272 -179.766)" fill="url(#e)"/><path d="M154.622,137.509l-1,.975a1.539,1.539,0,0,0-.437.806,1.523,1.523,0,0,0-.007.56l.236,1.377a1.545,1.545,0,0,1-2.242,1.628l-1.236-.649a1.541,1.541,0,0,0-.719-.177v-4l.009,0,0,0-.005-.008v-6.308a1.526,1.526,0,0,1,1.385.861l.618,1.252a1.549,1.549,0,0,0,1.163.846l1.382.2a1.545,1.545,0,0,1,.856,2.635Z" transform="translate(-143.346 -131.715)" fill="url(#f)"/><g transform="translate(1.653 4.461)"><path d="M71.909,216.827a1.543,1.543,0,0,1,.007.56l-.236,1.376a1.545,1.545,0,0,0,2.241,1.628l1.236-.65a1.545,1.545,0,0,1,1.438,0l1.236.65a1.545,1.545,0,0,0,2.241-1.628l-.236-1.376a1.545,1.545,0,0,1,.444-1.367l1-.975a1.519,1.519,0,0,0,.449-1.333Z" transform="translate(-71.656 -213.712)" fill="url(#g)"/></g><path d="M51.118,217.386a1.544,1.544,0,0,1,.007-.56L41.3,213.711a1.519,1.519,0,0,0,.449,1.333l1,.975a1.545,1.545,0,0,1,.444,1.367l-.236,1.376a1.545,1.545,0,0,0,2.241,1.628l1.236-.65a1.545,1.545,0,0,1,1.438,0l1.236.65a1.545,1.545,0,0,0,2.241-1.628Z" transform="translate(-41.285 -209.25)" fill="url(#h)"/><path d="M92.855,182.932l-1.382-.2a1.542,1.542,0,0,1-.553-.193l-6.117,8.31a1.524,1.524,0,0,0,1.55.065l1.236-.65a1.545,1.545,0,0,1,1.438,0l1.236.65a1.545,1.545,0,0,0,2.241-1.628l-.236-1.376a1.545,1.545,0,0,1,.444-1.367l1-.975A1.545,1.545,0,0,0,92.855,182.932Z" transform="translate(-82.434 -179.773)" fill="url(#i)"/></g><g transform="translate(15.333 4.578)"><path d="M288.308,160.47h-5.646a.817.817,0,0,1,0-1.635h5.646a.817.817,0,0,1,0,1.635Z" transform="translate(-281.845 -158.835)" fill="url(#j)"/><path d="M288.308,222.376h-5.646a.817.817,0,0,1,0-1.635h5.646a.817.817,0,0,1,0,1.635Z" transform="translate(-281.845 -217.373)" fill="url(#j)"/><path d="M288.308,284.281h-5.646a.817.817,0,0,1,0-1.635h5.646a.817.817,0,0,1,0,1.635Z" transform="translate(-281.845 -275.911)" fill="url(#j)"/></g></g></g></svg>