<svg xmlns="http://www.w3.org/2000/svg" xmlns:xlink="http://www.w3.org/1999/xlink" width="414" height="736" viewBox="0 0 414 736"><script xmlns=""/><defs><filter id="a" x="-9" y="-5.846" width="432.362" height="671.216" filterUnits="userSpaceOnUse"><feOffset dy="3" input="SourceAlpha"/><feGaussianBlur stdDeviation="3" result="b"/><feFlood flood-opacity="0.302"/><feComposite operator="in" in2="b"/><feComposite in="SourceGraphic"/></filter><clipPath id="d"><rect width="414" height="736"/></clipPath></defs><g id="c" clip-path="url(#d)"><rect width="414" height="736" fill="#fff"/><rect width="436.362" height="752.401" transform="translate(-5.158 -0.03)" fill="#f6f6f6"/><g transform="matrix(0.921, 0.391, -0.391, 0.921, -1227.582, -737.797)" opacity="0.03"><circle cx="17.71" cy="17.71" r="17.71" transform="translate(1854.129 735.84)" fill="#185d7a"/><path d="M1588.907,798.413c-6.116-48.929,19.775-108.458,77.266-118.652s156.163-25.28,165.948,15.9-13.455,123.952-56.267,175.327-90.925,59.938-128.029,43.629S1588.907,798.413,1588.907,798.413Z" transform="translate(0 -39.24)" fill="#185d7a"/></g><g transform="matrix(1, 0, 0, 1, 0, 0)" filter="url(#a)"><rect width="414.362" height="653.216" rx="9" transform="translate(0 0.15)" fill="#fff"/></g><path d="M8.395,9.846A1.435,1.435,0,0,1,6.962,8.413V2.866H1.433A1.433,1.433,0,0,1,1.433,0H8.4A1.435,1.435,0,0,1,9.832,1.433c0,.028,0,.056,0,.084l0,.033V8.413A1.435,1.435,0,0,1,8.395,9.846Z" transform="translate(406.962 581) rotate(45)" fill="#fff"/><path d="M8.395,9.846A1.435,1.435,0,0,1,6.962,8.413V2.866H1.433A1.433,1.433,0,0,1,1.433,0H8.4A1.435,1.435,0,0,1,9.832,1.433c0,.028,0,.056,0,.084l0,.033V8.413A1.435,1.435,0,0,1,8.395,9.846Z" transform="translate(7.038 595) rotate(-135)" fill="#fff"/></g></svg>