<svg xmlns="http://www.w3.org/2000/svg" width="26.14" height="21.443" viewBox="0 0 26.14 21.443"><path d="M26.14,166v15.316H7.658l-.766-1.532-.766,1.532H0V166Z" transform="translate(0 -159.873)" fill="#ff6c6c"/><path d="M154.248,166v15.316H135.766L135,179.785V166Z" transform="translate(-128.108 -159.873)" fill="#e63950"/><g transform="translate(12.253 9.19)"><path d="M242.3,230.595a2.3,2.3,0,1,1,2.3-2.3A2.3,2.3,0,0,1,242.3,230.595Zm0-3.063a.766.766,0,1,0,.766.766A.767.767,0,0,0,242.3,227.532Z" transform="translate(-240 -226)" fill="#ff9100"/></g><g transform="translate(18.38 13.785)"><path d="M362.3,320.595a2.3,2.3,0,1,1,2.3-2.3A2.3,2.3,0,0,1,362.3,320.595Zm0-3.063a.766.766,0,1,0,.766.766A.767.767,0,0,0,362.3,317.532Z" transform="translate(-360 -316)" fill="#ff9100"/></g><g transform="translate(13.958 9.479)"><g transform="translate(0 0)"><path d="M0,0H9.807V1.532H0Z" transform="matrix(0.625, -0.781, 0.781, 0.625, 0, 7.659)" fill="#ff9100"/></g></g><g transform="translate(6.127 18.38)"><path d="M120,406h1.532v3.063H120Z" transform="translate(-120 -406)" fill="#ffb64c"/></g><g transform="translate(6.127 13.785)"><path d="M120,316h1.532v3.063H120Z" transform="translate(-120 -316)" fill="#ffb64c"/></g><g transform="translate(6.127 6.127)"><path d="M120,166h1.532v6.127H120Z" transform="translate(-120 -166)" fill="#ffb64c"/></g><g transform="translate(6.892 6.127)"><path d="M135,316h.766v3.063H135Z" transform="translate(-135 -308.342)" fill="#ff9100"/><path d="M135,406h.766v3.063H135Z" transform="translate(-135 -393.747)" fill="#ff9100"/><path d="M135,166h.766v6.127H135Z" transform="translate(-135 -166)" fill="#ff9100"/></g><path d="M10.721,46a3.06,3.06,0,0,0-2.879,2.022l-.95,2.619-.95-2.619a3.063,3.063,0,1,0-3.921,3.921l3.691,1.333L3.186,57.058l1.287.858,2.42-3.645,2.42,3.645,1.287-.858L8.072,53.275l3.691-1.333A3.063,3.063,0,0,0,10.721,46ZM2.542,50.5a1.52,1.52,0,0,1-1.011-1.44A1.531,1.531,0,0,1,4.5,48.542l1.118,3.079Zm8.7,0L8.164,51.621l1.118-3.079a1.531,1.531,0,0,1,2.971.521A1.52,1.52,0,0,1,11.242,50.5Z" transform="translate(0 -46)" fill="#ffd396"/><path d="M138.829,46a3.06,3.06,0,0,0-2.879,2.022L135,50.641v3.63l2.42,3.645,1.287-.858-2.527-3.783,3.691-1.333A3.063,3.063,0,0,0,138.829,46Zm.521,4.5-3.079,1.118,1.118-3.079a1.531,1.531,0,0,1,2.971.521A1.52,1.52,0,0,1,139.35,50.5Z" transform="translate(-128.108 -46)" fill="#ffb64c"/></svg>