<svg xmlns="http://www.w3.org/2000/svg" xmlns:xlink="http://www.w3.org/1999/xlink" viewBox="0 0 65.067 78.786"><defs><clipPath id="a"><path d="M308.949,197.132a.9.9,0,0,1-.1-.006,4.945,4.945,0,0,1-3.021-1.361.861.861,0,0,1-.186-.406,40.074,40.074,0,0,1-.621-7.285c0-1.242.031-2.543.066-4.049v-.017c.046-1.93.1-4.117.1-6.775a.863.863,0,0,1,.862-.862,7.973,7.973,0,0,1,2.429.64c1.714.675,1.976,1.09,2.088,1.425a.865.865,0,0,1-.008.568,10.58,10.58,0,0,0-.467,2.253c-.154,1.181-.238,2.371-.293,3.56a14.669,14.669,0,0,0,.016,3.206.18.18,0,0,0,.055.119.185.185,0,0,0,.1.026.477.477,0,0,0,.537-.312,22.176,22.176,0,0,0,1.318-2.721q.633-1.363,1.323-2.7a35.553,35.553,0,0,1,2.322-3.948c.9-1.27,1.555-1.839,2.2-1.9.027,0,.055,0,.083,0a.873.873,0,0,1,.146.012,3.841,3.841,0,0,1,2.547,2.065.862.862,0,0,1-.512,1.143c-.477.166-2.27,1.174-5.33,7.148a44.526,44.526,0,0,0-3.662,9.2.857.857,0,0,1-.44.595A3.311,3.311,0,0,1,308.949,197.132Z" transform="translate(-305.02 -176.371)" fill="none"/></clipPath><clipPath id="b"><path d="M366.738,226.146c-3.3,0-9.619-2.278-9.619-5.85a5.066,5.066,0,0,1,1.459-3.289.862.862,0,0,1,1.5.487,4.6,4.6,0,0,0,2.414,2.785,9.7,9.7,0,0,0,4.784,1.309c2.522,0,3.19-1.2,3.36-1.71l.084-.253-.163-.211c-.513-.667-2.441-1.541-4.372-2.378-3.6-1.574-6.141-2.922-6.141-5.943a5.514,5.514,0,0,1,3.625-5.058,9.516,9.516,0,0,1,3.606-.674,15.433,15.433,0,0,1,6.322,1.573.86.86,0,0,1,.5.639c.027.155.05.272.069.368a3.3,3.3,0,0,1,.084.74,3.448,3.448,0,0,1-1.751,3.164.854.854,0,0,1-.375.086.865.865,0,0,1-.7-.356c-.907-1.249-2.986-2.056-5.3-2.056a7.29,7.29,0,0,0-1.968.24c-.51.144-.9.309-.865.93.014.242.424.471.61.609a10.843,10.843,0,0,0,.927.609c1.032.615,2.328,1.226,3.462,1.751,3.181,1.484,5.113,2.625,5.113,5.934a6.562,6.562,0,0,1-1.807,4.652A6.63,6.63,0,0,1,366.738,226.146Z" transform="translate(-357.119 -205.362)" fill="none"/></clipPath></defs><g transform="translate(-147.265 -8.465)"><path d="M47.22,0,0,43.924,47.238,31.548,5.2,78.786,62.637,23.913,20.9,31.7Z" transform="translate(147.946 8.465)" fill="#ffe328"/><g transform="translate(147.265 17.942)"><path d="M472.281,396.284l-1.469-.385-1.15.992-.088-1.516-1.3-.787,1.415-.552.347-1.479.963,1.175,1.514-.127-.82,1.279Z" transform="translate(-432.142 -345.286)" fill="#185d7a"/><path d="M282.226,139.348l-1.469-.385-1.15.992-.088-1.516-1.3-.787,1.415-.552.347-1.479.963,1.175,1.514-.127-.82,1.279Z" transform="translate(-268.211 -128.168)" fill="#185d7a"/><path d="M540.505,226.533l-.384-.6-.712-.024.452-.551-.2-.685.664.26.59-.4-.042.712.562.438-.69.18Z" transform="translate(-477.236 -203.691)" fill="#185d7a"/><path d="M372.216,57.43l-.384-.6-.712-.024.452-.551-.2-.685.664.26.59-.4-.042.711.562.438-.69.18Z" transform="translate(-338.316 -55.43)" fill="#185d7a"/><path d="M498.792,85.205l-.633-.494-.766.242.274-.755-.466-.654.8.028.478-.646.222.772.762.255-.666.45Z" transform="translate(-444.203 -77.891)" fill="#185d7a"/><path d="M544.442,323.928l-.633-.494-.766.242.274-.755-.466-.654.8.028.478-.646.222.772.762.255-.666.45Z" transform="translate(-480.048 -283.023)" fill="#185d7a"/><path d="M201.18,125.4l-.508-.622-.8.066.435-.675-.31-.741.777.2.609-.524.045.8.686.417-.749.291Z" transform="translate(-199.872 -120.835)" fill="#185d7a"/><path d="M193.484,309.495l-1.527.527-.431,1.557-.973-1.289-1.614.071.925-1.324-.566-1.513,1.545.471,1.264-1.006.029,1.615Z" transform="translate(-188.049 -266.71)" fill="#185d7a"/></g><g transform="translate(155.572 22.456)"><g transform="translate(1.738 3.691)"><path d="M300.508,181.615a6.764,6.764,0,0,0-6.041-6.486c0-.058,0-.115,0-.174a11.959,11.959,0,0,0-20.91-7.5,6.687,6.687,0,0,0-11.822,5.68,9.8,9.8,0,0,0,2.049,19.161,7.649,7.649,0,0,0,11.688,4.979,13.141,13.141,0,0,0,17.849-5.555,3.32,3.32,0,0,0,3.536-3.854A6.763,6.763,0,0,0,300.508,181.615Z" transform="translate(-254.728 -163.413)" fill="#185d7a"/></g><g transform="translate(1.372 1.31)"><path d="M298.508,168.615a6.764,6.764,0,0,0-6.041-6.486c0-.058,0-.115,0-.174a11.959,11.959,0,0,0-20.91-7.5,6.687,6.687,0,0,0-11.822,5.68,9.8,9.8,0,0,0,2.049,19.161,7.649,7.649,0,0,0,11.688,4.979,13.141,13.141,0,0,0,17.849-5.555,3.32,3.32,0,0,0,3.536-3.854A6.763,6.763,0,0,0,298.508,168.615Z" transform="translate(-252.728 -150.413)" fill="#fff"/></g><g transform="translate(0)"><path d="M293.378,163.615a6.764,6.764,0,0,0-6.041-6.486c0-.058,0-.115,0-.174a11.959,11.959,0,0,0-20.91-7.5,6.687,6.687,0,0,0-11.822,5.68,9.8,9.8,0,0,0,2.048,19.161,7.649,7.649,0,0,0,11.688,4.979,13.141,13.141,0,0,0,17.848-5.555,3.334,3.334,0,0,0,3.578-3.446,3.32,3.32,0,0,0-.042-.407A6.763,6.763,0,0,0,293.378,163.615Z" transform="translate(-247.166 -145.018)" fill="#fff"/><path d="M362.684,149.259l-.166-.3a7.566,7.566,0,0,0-.532-.793,7.907,7.907,0,0,0-1.022-1.052,9.562,9.562,0,0,0-1.564-1.062,12.5,12.5,0,0,0-2.06-.871,14.745,14.745,0,0,0-2.436-.551c-.429-.06-.867-.1-1.31-.126a12.363,12.363,0,0,0-9.367,3.857,19.431,19.431,0,0,0-2.032,2.621,10,10,0,0,1,2.605-4.565,11.485,11.485,0,0,1,4.16-2.563,10.511,10.511,0,0,1,3.248-.592,13.651,13.651,0,0,1,5.473,1.027,10.716,10.716,0,0,1,2.117,1.144,8.315,8.315,0,0,1,1.518,1.337,6.748,6.748,0,0,1,.888,1.26,5.93,5.93,0,0,1,.384.9Z" transform="translate(-324.441 -143.257)" fill="#185d7a"/><path d="M294.653,154.6l-.182-.149a5.355,5.355,0,0,0-.518-.407c-.116-.077-.234-.171-.377-.253s-.3-.169-.465-.262l-.547-.246c-.2-.064-.4-.146-.623-.207l-.338-.082-.173-.042-.179-.026-.365-.057-.379-.025-.192-.013c-.065,0-.13,0-.2,0l-.4.008a7.841,7.841,0,0,0-.806.108,7.438,7.438,0,0,0-.811.2c-.134.044-.264.1-.4.15-.066.027-.135.046-.2.078l-.193.094a7.185,7.185,0,0,0-.753.42l-.35.257-.088.064-.022.016-.011.008.016-.013-.006.005-.045.04-.181.162a7.6,7.6,0,0,0-.633.62c-.184.234-.388.45-.551.7-.18.236-.325.5-.484.742-.073.128-.139.259-.208.387l-.1.192-.091.2-.18.391-.155.395-.077.194-.065.2-.13.388c-.072.259-.147.512-.206.76s-.12.49-.153.726c-.089.469-.142.908-.179,1.3l-.044.552c-.005.172-.01.33-.015.472-.014.287,0,.513,0,.668s0,.239,0,.239l-.072-.227-.083-.276-.052-.176-.044-.2-.1-.476c-.029-.175-.052-.365-.08-.569a10.407,10.407,0,0,1-.064-1.385,3.68,3.68,0,0,1,.016-.391l.03-.406c.025-.275.074-.557.117-.849l.094-.439.049-.224.062-.223.132-.453.165-.453a8.6,8.6,0,0,1,.913-1.786,8.728,8.728,0,0,1,.621-.834,9,9,0,0,1,.742-.745l.183-.159.046-.04.033-.028.013-.01.027-.02.108-.078c.144-.1.287-.208.433-.308a7.006,7.006,0,0,1,.929-.483,6.29,6.29,0,0,1,1.944-.509,7.113,7.113,0,0,1,.954-.038l.46.04c.075.007.151.012.225.022l.22.042c.145.029.288.055.428.086l.406.122.2.061.188.077.361.153c.23.113.442.238.643.352.19.136.371.261.535.385.154.139.3.267.427.388s.23.258.328.366a2.067,2.067,0,0,1,.239.305l.157.237Z" transform="translate(-275.351 -150.205)" fill="#185d7a"/><path d="M252.187,199.244l-.154.056c-.1.035-.24.1-.416.173a6.812,6.812,0,0,0-1.321.816c-.125.1-.254.2-.383.314l-.193.173c-.067.062-.144.126-.206.189-.251.239-.518.522-.771.816-.127.149-.25.3-.374.461s-.238.325-.353.493a10.783,10.783,0,0,0-.631,1.061,11.231,11.231,0,0,0-.515,1.125l-.1.279-.107.3-.09.279-.086.286a19.539,19.539,0,0,0-.477,2.145c-.057.323-.1.622-.14.889l-.1.7c-.024.194-.053.348-.066.453l-.026.162-.047-.157c-.028-.1-.074-.253-.115-.447a10.22,10.22,0,0,1-.246-1.632,9.929,9.929,0,0,1,.11-2.362c.02-.108.038-.217.06-.326l.078-.337.082-.315c.036-.125.07-.224.106-.338a8.8,8.8,0,0,1,.55-1.3,8.631,8.631,0,0,1,.76-1.192,7.6,7.6,0,0,1,.918-1.014,7.907,7.907,0,0,1,1.006-.795c.085-.058.164-.1.244-.152l.118-.072c.055-.036.088-.05.132-.076.167-.09.33-.176.492-.246a5.325,5.325,0,0,1,.909-.315,4.126,4.126,0,0,1,.728-.111,3.321,3.321,0,0,1,.468,0Z" transform="translate(-245.237 -188.971)" fill="#185d7a"/><path d="M437.167,290.915l.121-.056c.079-.035.188-.094.326-.169a5.561,5.561,0,0,0,1.015-.754c.095-.088.192-.181.289-.281l.144-.154c.05-.055.108-.112.154-.168.187-.212.384-.46.569-.716.092-.129.182-.264.271-.4s.17-.28.252-.425a8.745,8.745,0,0,0,.438-.9,9.086,9.086,0,0,0,.339-.948l.066-.234.066-.253.054-.232.05-.238a15.857,15.857,0,0,0,.237-1.774c.024-.266.038-.512.052-.731l.034-.572c.006-.159.018-.286.022-.372l.01-.133.049.124c.03.081.078.2.125.355a8.323,8.323,0,0,1,.313,1.307,8.085,8.085,0,0,1,.075,1.924c-.009.089-.015.179-.026.269l-.04.279-.045.261c-.021.1-.042.187-.063.282a7.167,7.167,0,0,1-.356,1.092,7.019,7.019,0,0,1-.533,1.02,6.192,6.192,0,0,1-.674.887,6.452,6.452,0,0,1-.761.715c-.065.053-.125.094-.187.14l-.091.067c-.042.033-.068.047-.1.071-.13.085-.255.166-.382.234a4.323,4.323,0,0,1-.715.319,3.362,3.362,0,0,1-.583.141,2.655,2.655,0,0,1-.38.032Z" transform="translate(-402.023 -256.104)" fill="#1e3760"/><path d="M296.676,290.48s0,.069,0,.2c0,.064-.007.144-.007.237s.008.2.009.314a7.5,7.5,0,0,0,.091.831,6.887,6.887,0,0,0,.263,1.03,6.76,6.76,0,0,0,.494,1.131,7.088,7.088,0,0,0,.763,1.12,6.718,6.718,0,0,0,.482.518l.131.122.066.061.062.051c.1.08.207.181.3.247s.182.139.285.206.2.137.309.2a7.2,7.2,0,0,0,.653.356,7.892,7.892,0,0,0,1.4.519,8.563,8.563,0,0,0,1.433.255,9,9,0,0,0,2.616-.148,10.9,10.9,0,0,0,1.842-.55c.218-.09.393-.16.509-.215l.181-.08-.142.139c-.1.087-.234.219-.426.367a7.322,7.322,0,0,1-.724.5,7.407,7.407,0,0,1-1.032.516,7.5,7.5,0,0,1-1.324.4,7.813,7.813,0,0,1-1.548.154,7.556,7.556,0,0,1-1.667-.186,7.666,7.666,0,0,1-1.647-.571,8.438,8.438,0,0,1-.768-.432c-.125-.077-.242-.166-.362-.25s-.238-.188-.355-.281c-.062-.049-.108-.093-.158-.138l-.146-.135-.086-.081-.074-.079-.147-.157a5.887,5.887,0,0,1-.524-.659,6.568,6.568,0,0,1-.736-1.394,6.111,6.111,0,0,1-.346-1.354,5.761,5.761,0,0,1-.044-1.166,5.456,5.456,0,0,1,.139-.879c.031-.12.06-.225.088-.315s.06-.162.083-.223Z" transform="translate(-286.936 -263.522)" fill="#1e3760"/><path d="M450.175,209.218l.22-.053.264-.06a3.062,3.062,0,0,1,.361-.068l.458-.065c.168-.024.348-.026.544-.041a6.033,6.033,0,0,1,.623-.006,6.251,6.251,0,0,1,.695.049,7.354,7.354,0,0,1,.754.124,3.655,3.655,0,0,1,.393.1c.132.04.269.071.4.12a7.021,7.021,0,0,1,.812.34,6.776,6.776,0,0,1,.8.459c.133.084.257.185.385.28l.192.147c.062.052.12.108.181.162.119.11.243.217.36.333l.332.365a8.424,8.424,0,0,1,1.11,1.647l.114.22.029.055.007.014.016.035.012.027.046.107.046.11.049.138a2.725,2.725,0,0,1,.085.27,4.655,4.655,0,0,1,.166,1.038,6.358,6.358,0,0,1-.209,1.952,7.535,7.535,0,0,1-1.556,2.98,6.39,6.39,0,0,1-.972.914,5.367,5.367,0,0,1-.871.529,4.112,4.112,0,0,1-.6.236l-.218.061.186-.127a6.19,6.19,0,0,0,.5-.384,6.889,6.889,0,0,0,1.382-1.668,8.4,8.4,0,0,0,.623-1.28,8.114,8.114,0,0,0,.422-1.506,7.757,7.757,0,0,0,.094-.806,6.2,6.2,0,0,0-.015-.811,4.027,4.027,0,0,0-.148-.779,1.593,1.593,0,0,0-.056-.172l-.028-.081c-.011-.03-.03-.069-.045-.1l-.047-.107-.012-.027,0-.007c.019.041,0,.008.007.016l-.007-.012-.026-.048-.1-.192A8.517,8.517,0,0,0,457,212.2a7.642,7.642,0,0,0-1.162-1.166,7.77,7.77,0,0,0-1.315-.827,8.571,8.571,0,0,0-1.331-.509c-.215-.062-.423-.123-.625-.161s-.394-.09-.578-.115-.356-.061-.516-.081l-.442-.051c-.269-.031-.488-.039-.634-.053Z" transform="translate(-412.649 -196.897)" fill="#185d7a"/></g><g transform="translate(8.875 5.561)"><g transform="translate(0 0.785)"><path d="M309.289,182.321a1.365,1.365,0,0,0,.811-1.81,4.342,4.342,0,0,0-2.926-2.369,1.369,1.369,0,0,0-.363-.014c-.821.079-1.564.692-2.566,2.113a36.038,36.038,0,0,0-2.357,4.006c-.853,1.647-1.694,3.449-2.475,5.294a33.231,33.231,0,0,1,.8-8.322,1.364,1.364,0,0,0,.013-.9c-.188-.565-.652-1.053-2.38-1.734a8.968,8.968,0,0,0-2.614-.675,1.365,1.365,0,0,0-1.365,1.365c0,2.65-.052,4.835-.1,6.763-.036,1.516-.067,2.826-.067,4.078a40.53,40.53,0,0,0,.628,7.368,1.366,1.366,0,0,0,.294.643,5.367,5.367,0,0,0,3.349,1.54,1.356,1.356,0,0,0,.161.01,3.813,3.813,0,0,0,1.79-.441,1.365,1.365,0,0,0,.7-.941,44,44,0,0,1,3.616-9.072C306.607,184.6,308.439,182.618,309.289,182.321Z" transform="translate(-293.706 -177.912)" fill="#ffe328"/><path d="M357.695,215.248c-1.122-.52-2.4-1.124-3.416-1.727a7.04,7.04,0,0,1-1.389-1.008,5.515,5.515,0,0,1,2.428-.446c2.155,0,4.075.726,4.89,1.849a1.364,1.364,0,0,0,1.7.426,3.95,3.95,0,0,0,2.034-3.616,3.8,3.8,0,0,0-.094-.836c-.018-.093-.041-.207-.067-.358a1.365,1.365,0,0,0-.789-1.012,15.911,15.911,0,0,0-6.527-1.617,10.026,10.026,0,0,0-3.8.712,6.008,6.008,0,0,0-3.936,5.523c0,3.319,2.79,4.8,6.442,6.4,1.311.569,3.7,1.6,4.175,2.224-.137.415-.691,1.365-2.883,1.365a9.187,9.187,0,0,1-4.529-1.239,4.237,4.237,0,0,1-2.169-2.4,1.365,1.365,0,0,0-2.378-.771,5.569,5.569,0,0,0-1.586,3.623c0,3.941,6.554,6.352,10.122,6.352a6.849,6.849,0,0,0,7.172-7.055C363.1,218.04,360.961,216.772,357.695,215.248Z" transform="translate(-336.265 -201.594)" fill="#ffe328"/></g><path d="M317.857,178.034a1.365,1.365,0,0,0,.811-1.81,4.342,4.342,0,0,0-2.926-2.369,1.371,1.371,0,0,0-.363-.014c-.821.079-1.564.692-2.566,2.113a36,36,0,0,0-2.357,4.006c-.853,1.647-1.694,3.449-2.475,5.294a33.229,33.229,0,0,1,.8-8.322,1.365,1.365,0,0,0,.013-.9c-.188-.565-.652-1.053-2.381-1.734a8.97,8.97,0,0,0-2.614-.675,1.365,1.365,0,0,0-1.365,1.365c0,2.65-.052,4.835-.1,6.763-.036,1.517-.067,2.826-.067,4.078a40.538,40.538,0,0,0,.628,7.368,1.361,1.361,0,0,0,.294.643,5.367,5.367,0,0,0,3.349,1.54,1.4,1.4,0,0,0,.161.009,3.813,3.813,0,0,0,1.789-.441,1.364,1.364,0,0,0,.7-.941,44.011,44.011,0,0,1,3.616-9.072C315.175,180.317,317.007,178.331,317.857,178.034Z" transform="translate(-300.705 -173.625)" fill="#fff"/><path d="M308.949,197.132a.9.9,0,0,1-.1-.006,4.945,4.945,0,0,1-3.021-1.361.861.861,0,0,1-.186-.406,40.074,40.074,0,0,1-.621-7.285c0-1.242.031-2.543.066-4.049v-.017c.046-1.93.1-4.117.1-6.775a.863.863,0,0,1,.862-.862,7.973,7.973,0,0,1,2.429.64c1.714.675,1.976,1.09,2.088,1.425a.865.865,0,0,1-.008.568,10.58,10.58,0,0,0-.467,2.253c-.154,1.181-.238,2.371-.293,3.56a14.669,14.669,0,0,0,.016,3.206.18.18,0,0,0,.055.119.185.185,0,0,0,.1.026.477.477,0,0,0,.537-.312,22.176,22.176,0,0,0,1.318-2.721q.633-1.363,1.323-2.7a35.553,35.553,0,0,1,2.322-3.948c.9-1.27,1.555-1.839,2.2-1.9.027,0,.055,0,.083,0a.873.873,0,0,1,.146.012,3.841,3.841,0,0,1,2.547,2.065.862.862,0,0,1-.512,1.143c-.477.166-2.27,1.174-5.33,7.148a44.526,44.526,0,0,0-3.662,9.2.857.857,0,0,1-.44.595A3.311,3.311,0,0,1,308.949,197.132Z" transform="translate(-302.948 -175.868)" fill="#185d7a"/><path d="M366.263,210.961c-1.122-.52-2.4-1.124-3.416-1.727a7.03,7.03,0,0,1-1.388-1.008,5.512,5.512,0,0,1,2.428-.446c2.155,0,4.075.726,4.89,1.849a1.365,1.365,0,0,0,1.7.426,3.95,3.95,0,0,0,2.034-3.616,3.8,3.8,0,0,0-.094-.836c-.018-.093-.041-.207-.067-.358a1.365,1.365,0,0,0-.789-1.012,15.91,15.91,0,0,0-6.526-1.617,10.029,10.029,0,0,0-3.8.712,6.008,6.008,0,0,0-3.936,5.523c0,3.319,2.79,4.8,6.442,6.4,1.311.569,3.7,1.6,4.175,2.224-.137.415-.691,1.365-2.883,1.365a9.187,9.187,0,0,1-4.529-1.239,4.236,4.236,0,0,1-2.169-2.4,1.365,1.365,0,0,0-2.378-.771,5.569,5.569,0,0,0-1.586,3.623c0,3.941,6.554,6.352,10.122,6.352a6.85,6.85,0,0,0,7.172-7.055C371.667,213.753,369.529,212.485,366.263,210.961Z" transform="translate(-343.264 -197.307)" fill="#fff"/><path d="M366.738,226.146c-3.3,0-9.619-2.278-9.619-5.85a5.066,5.066,0,0,1,1.459-3.289.862.862,0,0,1,1.5.487,4.6,4.6,0,0,0,2.414,2.785,9.7,9.7,0,0,0,4.784,1.309c2.522,0,3.19-1.2,3.36-1.71l.084-.253-.163-.211c-.513-.667-2.441-1.541-4.372-2.378-3.6-1.574-6.141-2.922-6.141-5.943a5.514,5.514,0,0,1,3.625-5.058,9.516,9.516,0,0,1,3.606-.674,15.433,15.433,0,0,1,6.322,1.573.86.86,0,0,1,.5.639c.027.155.05.272.069.368a3.3,3.3,0,0,1,.084.74,3.448,3.448,0,0,1-1.751,3.164.854.854,0,0,1-.375.086.865.865,0,0,1-.7-.356c-.907-1.249-2.986-2.056-5.3-2.056a7.29,7.29,0,0,0-1.968.24c-.51.144-.9.309-.865.93.014.242.424.471.61.609a10.843,10.843,0,0,0,.927.609c1.032.615,2.328,1.226,3.462,1.751,3.181,1.484,5.113,2.625,5.113,5.934a6.562,6.562,0,0,1-1.807,4.652A6.63,6.63,0,0,1,366.738,226.146Z" transform="translate(-345.507 -199.551)" fill="#185d7a"/><g transform="translate(2.072 0.503)"><g clip-path="url(#a)"><g transform="translate(-8.585 0.303)"><g transform="translate(0 13.033)"><rect width="0.771" height="22.949" transform="matrix(0.578, -0.816, 0.816, 0.578, 0, 0.629)" fill="#ff5f94"/></g><g transform="translate(0.437 12.267)"><rect width="0.728" height="22.949" transform="translate(0 0.595) rotate(-54.723)" fill="#ff5f94"/></g><g transform="translate(0.874 11.5)"><rect width="0.686" height="22.949" transform="matrix(0.578, -0.816, 0.816, 0.578, 0, 0.56)" fill="#ff5f94"/></g><g transform="translate(1.312 10.733)"><rect width="0.644" height="22.949" transform="translate(0 0.525) rotate(-54.723)" fill="#ff5f94"/></g><g transform="translate(1.749 9.967)"><rect width="0.601" height="22.949" transform="matrix(0.578, -0.816, 0.816, 0.578, 0, 0.491)" fill="#ff5f94"/></g><g transform="translate(2.186 9.2)"><rect width="0.559" height="22.949" transform="matrix(0.578, -0.816, 0.816, 0.578, 0, 0.456)" fill="#ff5f94"/></g><g transform="translate(2.623 8.433)"><rect width="0.517" height="22.949" transform="matrix(0.578, -0.816, 0.816, 0.578, 0, 0.422)" fill="#ff5f94"/></g><g transform="translate(3.06 7.667)"><rect width="0.474" height="22.949" transform="matrix(0.578, -0.816, 0.816, 0.578, 0, 0.387)" fill="#ff5f94"/></g><g transform="translate(3.498 6.9)"><rect width="0.432" height="22.949" transform="matrix(0.578, -0.816, 0.816, 0.578, 0, 0.353)" fill="#ff5f94"/></g><g transform="translate(3.935 6.133)"><rect width="0.39" height="22.949" transform="matrix(0.578, -0.816, 0.816, 0.578, 0, 0.318)" fill="#ff5f94"/></g><g transform="translate(4.372 5.367)"><rect width="0.347" height="22.949" transform="translate(0 0.284) rotate(-54.723)" fill="#ff5f94"/></g><g transform="translate(4.809 4.6)"><rect width="0.305" height="22.949" transform="matrix(0.578, -0.816, 0.816, 0.578, 0, 0.249)" fill="#ff5f94"/></g><g transform="translate(5.246 3.833)"><rect width="0.263" height="22.949" transform="translate(0 0.215) rotate(-54.723)" fill="#ff5f94"/></g><g transform="translate(5.684 3.067)"><rect width="0.221" height="22.949" transform="matrix(0.578, -0.816, 0.816, 0.578, 0, 0.18)" fill="#ff5f94"/></g><g transform="translate(6.121 2.3)"><rect width="0.178" height="22.949" transform="matrix(0.578, -0.816, 0.816, 0.578, 0, 0.146)" fill="#ff5f94"/></g><g transform="translate(6.558 1.533)"><rect width="0.136" height="22.949" transform="matrix(0.578, -0.816, 0.816, 0.578, 0, 0.111)" fill="#ff5f94"/></g><g transform="translate(6.995 0.767)"><rect width="0.094" height="22.949" transform="translate(0 0.076) rotate(-54.723)" fill="#ff5f94"/></g><g transform="translate(7.432 0)"><rect width="0.051" height="22.949" transform="matrix(0.578, -0.816, 0.816, 0.578, 0, 0.042)" fill="#ff5f94"/></g></g></g></g><g transform="translate(11.612 5.811)"><g clip-path="url(#b)"><g transform="translate(-3.723 1.285)"><g transform="translate(0 13.033)"><rect width="0.771" height="22.949" transform="translate(0 0.629) rotate(-54.723)" fill="#00cec9"/></g><g transform="translate(0.437 12.267)"><rect width="0.728" height="22.949" transform="translate(0 0.595) rotate(-54.723)" fill="#00cec9"/></g><g transform="translate(0.874 11.5)"><rect width="0.686" height="22.949" transform="matrix(0.578, -0.816, 0.816, 0.578, 0, 0.56)" fill="#00cec9"/></g><g transform="translate(1.312 10.733)"><rect width="0.644" height="22.949" transform="translate(0 0.525) rotate(-54.723)" fill="#00cec9"/></g><g transform="translate(1.749 9.967)"><rect width="0.601" height="22.949" transform="matrix(0.578, -0.816, 0.816, 0.578, 0, 0.491)" fill="#00cec9"/></g><g transform="translate(2.186 9.2)"><rect width="0.559" height="22.949" transform="translate(0 0.456) rotate(-54.723)" fill="#00cec9"/></g><g transform="translate(2.623 8.433)"><rect width="0.517" height="22.949" transform="translate(0 0.422) rotate(-54.723)" fill="#00cec9"/></g><g transform="translate(3.06 7.667)"><rect width="0.474" height="22.949" transform="translate(0 0.387) rotate(-54.723)" fill="#00cec9"/></g><g transform="translate(3.498 6.9)"><rect width="0.432" height="22.949" transform="translate(0 0.353) rotate(-54.723)" fill="#00cec9"/></g><g transform="translate(3.935 6.133)"><rect width="0.39" height="22.949" transform="matrix(0.578, -0.816, 0.816, 0.578, 0, 0.318)" fill="#00cec9"/></g><g transform="translate(4.372 5.367)"><rect width="0.347" height="22.949" transform="matrix(0.578, -0.816, 0.816, 0.578, 0, 0.284)" fill="#00cec9"/></g><g transform="translate(4.809 4.6)"><rect width="0.305" height="22.949" transform="matrix(0.578, -0.816, 0.816, 0.578, 0, 0.249)" fill="#00cec9"/></g><g transform="translate(5.246 3.833)"><rect width="0.263" height="22.949" transform="translate(0 0.215) rotate(-54.723)" fill="#00cec9"/></g><g transform="translate(5.684 3.067)"><rect width="0.221" height="22.949" transform="matrix(0.578, -0.816, 0.816, 0.578, 0, 0.18)" fill="#00cec9"/></g><g transform="translate(6.121 2.3)"><rect width="0.178" height="22.949" transform="matrix(0.578, -0.816, 0.816, 0.578, 0, 0.146)" fill="#00cec9"/></g><g transform="translate(6.558 1.533)"><rect width="0.136" height="22.949" transform="matrix(0.578, -0.816, 0.816, 0.578, 0, 0.111)" fill="#00cec9"/></g><g transform="translate(6.995 0.767)"><rect width="0.094" height="22.949" transform="matrix(0.578, -0.816, 0.816, 0.578, 0, 0.076)" fill="#00cec9"/></g><g transform="translate(7.432 0)"><rect width="0.051" height="22.949" transform="matrix(0.578, -0.816, 0.816, 0.578, 0, 0.042)" fill="#00cec9"/></g></g></g></g></g></g></g></svg>