<svg xmlns="http://www.w3.org/2000/svg" xmlns:xlink="http://www.w3.org/1999/xlink" width="48.926" height="109" viewBox="0 0 48.926 109"><defs><filter id="a" x="6.959" y="9.368" width="41.967" height="99.632" filterUnits="userSpaceOnUse"><feOffset dy="3" input="SourceAlpha"/><feGaussianBlur stdDeviation="3" result="b"/><feFlood/><feComposite operator="in" in2="b"/><feComposite in="SourceGraphic"/></filter><filter id="c" x="0" y="0" width="33.978" height="33.603" filterUnits="userSpaceOnUse"><feOffset dy="3" input="SourceAlpha"/><feGaussianBlur stdDeviation="3" result="d"/><feFlood/><feComposite operator="in" in2="d"/><feComposite in="SourceGraphic"/></filter></defs><g transform="translate(-23.844 359.349)"><g transform="matrix(1, 0, 0, 1, 23.84, -359.35)" filter="url(#a)"><path d="M60.8-308.441a70.333,70.333,0,0,0-2.96-10.713A75.02,75.02,0,0,0,53.2-329.262a61.719,61.719,0,0,0-6.2-9.222,45.723,45.723,0,0,0-7.924-7.792.674.674,0,0,0-.837.023.675.675,0,0,0-.085.953l.027.034A121.8,121.8,0,0,1,50.47-327.735a76.361,76.361,0,0,1,7.823,19.825,66.072,66.072,0,0,1,1.474,21.343,68.3,68.3,0,0,1-5.461,20.837l-.013.031a.675.675,0,0,0,.382.875.676.676,0,0,0,.876-.382,94.066,94.066,0,0,0,5.8-21.177A70.067,70.067,0,0,0,60.8-308.441Z" transform="translate(-22.04 361.78)" fill="#f7f7f7"/></g><g transform="matrix(1, 0, 0, 1, 23.84, -359.35)" filter="url(#c)"><path d="M40.816-347.928c2.383.737,4.746,1.424,7.09,2.3a.765.765,0,0,0,.112.031.679.679,0,0,0,.792-.541.679.679,0,0,0-.541-.791h-.009a34.336,34.336,0,0,1-7-2.206,28.379,28.379,0,0,1-3.266-1.64,11.709,11.709,0,0,1-2.77-2.123,1.369,1.369,0,0,0-1.011-.452,1.357,1.357,0,0,0-1.357,1.358v.12h0l-.009.624.038.467c.022.319.066.589.1.884l.248,1.69.568,3.321,1.251,6.589a.676.676,0,0,0,.706.548.675.675,0,0,0,.632-.717v-.013l-.417-6.658-.146-3.317-.022-1.066c.475.162.946.316,1.415.475Z" transform="translate(-23.84 359.35)" fill="#f7f7f7"/></g></g></svg>