<svg xmlns="http://www.w3.org/2000/svg" width="19.665" height="19.665" viewBox="0 0 19.665 19.665"><g transform="translate(0 0)"><ellipse cx="9.833" cy="9.833" rx="9.833" ry="9.833" fill="#ffd053"/><g transform="translate(1.547 1.441)"><path d="M5549.891,2320.088a9.834,9.834,0,0,1-13.429,13.677,9.833,9.833,0,1,0,13.429-13.677Z" transform="translate(-5536.462 -2320.088)" fill="#ffc448"/></g><g transform="translate(0.657 0.726)"><path d="M5535.145,2328.629a9.128,9.128,0,0,1,16.365-5.565,9.129,9.129,0,1,0-15.152,10.115A9.087,9.087,0,0,1,5535.145,2328.629Z" transform="translate(-5534.465 -2318.485)" fill="#ffd77a"/></g></g><g transform="translate(5.486 6.226)"><path d="M5546.747,2332.045c0,.675-.324,1.221-.724,1.221s-.724-.546-.724-1.221.325-1.221.724-1.221S5546.747,2331.37,5546.747,2332.045Z" transform="translate(-5545.299 -2330.824)" fill="#2c2c2c"/><g transform="translate(7.245)"><path d="M5563,2332.045c0,.675-.324,1.221-.725,1.221s-.724-.546-.724-1.221.325-1.221.724-1.221S5563,2331.37,5563,2332.045Z" transform="translate(-5561.553 -2330.824)" fill="#2c2c2c"/></g></g><path d="M5540.228,2341a6.65,6.65,0,0,0,13.214,0Z" transform="translate(-5537.002 -2330.24)" fill="#71523f"/><path d="M5544.811,2348.954a6.646,6.646,0,0,0,8.973.144l-.062-.143A10.971,10.971,0,0,0,5544.811,2348.954Z" transform="translate(-5539.542 -2334.111)" fill="#ff6669"/></svg>