<svg xmlns="http://www.w3.org/2000/svg" width="25.564" height="25.564" viewBox="0 0 25.564 25.564"><g transform="translate(0 0)"><ellipse cx="9.833" cy="9.833" rx="9.833" ry="9.833" transform="translate(0 18.257) rotate(-68.19)" fill="#ffd053"/><g transform="translate(4.508 4.379)"><path d="M5727.239,2320.063a9.834,9.834,0,0,1-13.4,13.706,9.834,9.834,0,1,0,13.4-13.706Z" transform="translate(-5713.839 -2320.063)" fill="#ffc448"/></g><g transform="translate(3.606 3.675)"><path d="M5712.5,2328.647a9.13,9.13,0,0,1,16.354-5.6,9.13,9.13,0,1,0-15.131,10.147A9.114,9.114,0,0,1,5712.5,2328.647Z" transform="translate(-5711.817 -2318.485)" fill="#ffd77a"/></g></g><g transform="translate(11.006 12.116)"><ellipse cx="1.776" cy="3.01" rx="1.776" ry="3.01" fill="#71523f"/><path d="M5732.083,2347.309a2.725,2.725,0,0,0-2.96.1c.321.785.856,1.3,1.461,1.3C5731.216,2348.705,5731.769,2348.148,5732.083,2347.309Z" transform="translate(-5728.809 -2342.685)" fill="#ff6669"/></g><g transform="translate(6.968 9.278)"><g transform="translate(0.186 1.548)"><path d="M5722.365,2334.527l-2.588,1.648.064,8.415a9.789,9.789,0,0,0,2.524,1.245Z" transform="translate(-5719.777 -2334.527)" fill="#47c4e9"/><path d="M5739.229,2334.527l2.589,1.648-.064,8.415a9.772,9.772,0,0,1-2.525,1.245Z" transform="translate(-5730.559 -2334.527)" fill="#47c4e9"/></g><path d="M5719.87,2334.542a.416.416,0,0,1-.256-.745l1.417-1.1-1.465-.863a.417.417,0,0,1,.422-.719l1.994,1.174a.416.416,0,0,1,.045.688l-1.9,1.482A.417.417,0,0,1,5719.87,2334.542Z" transform="translate(-5719.361 -2331.054)" fill="#2c2c2c"/><g transform="translate(8.799)"><path d="M5741.418,2334.542a.413.413,0,0,1-.255-.088l-1.9-1.482a.416.416,0,0,1,.045-.688l1.995-1.174a.417.417,0,1,1,.422.719l-1.466.863,1.418,1.1a.417.417,0,0,1-.257.745Z" transform="translate(-5739.1 -2331.054)" fill="#2c2c2c"/></g></g></svg>