<svg xmlns="http://www.w3.org/2000/svg" width="25.694" height="25.694" viewBox="0 0 25.694 25.694"><g transform="translate(0 0)"><g transform="translate(0 0)"><ellipse cx="9.833" cy="9.833" rx="9.833" ry="9.833" transform="translate(0 7.525) rotate(-22.5)" fill="#76b7eb"/><g transform="translate(4.561 4.454)"><path d="M5784.829,2588.14a9.834,9.834,0,0,1-13.429,13.677,9.833,9.833,0,1,0,13.429-13.677Z" transform="translate(-5771.4 -2588.14)" fill="#4aaae2"/></g><g transform="translate(3.671 3.74)"><path d="M5770.082,2596.682a9.129,9.129,0,0,1,16.366-5.565,9.129,9.129,0,1,0-15.152,10.114A9.091,9.091,0,0,1,5770.082,2596.682Z" transform="translate(-5769.403 -2586.538)" fill="#8cc9f3"/></g></g><g transform="translate(7.033 10.282)"><path d="M5777.456,2604.7a.417.417,0,0,1-.256-.746l1.418-1.1-1.466-.862a.417.417,0,1,1,.423-.718l1.995,1.173a.416.416,0,0,1,.044.688l-1.9,1.482A.416.416,0,0,1,5777.456,2604.7Z" transform="translate(-5776.946 -2601.215)" fill="#2c2c2c"/><g transform="translate(8.799)"><path d="M5799,2604.7a.411.411,0,0,1-.255-.089l-1.9-1.482a.415.415,0,0,1,.045-.688l1.994-1.173a.417.417,0,0,1,.423.718l-1.466.862,1.417,1.1a.417.417,0,0,1-.256.746Z" transform="translate(-5796.685 -2601.215)" fill="#2c2c2c"/></g></g></g><g transform="translate(5.446 7.623)"><path d="M5773.425,2596.838c.122-.022.24-.042.355-.06.254-.042.493-.081.727-.135a6.236,6.236,0,0,0,.968-.292,5.575,5.575,0,0,0,.895-.45,8.358,8.358,0,0,0,.874-.642.049.049,0,0,1,.055,0,.047.047,0,0,1,.022.049,2.1,2.1,0,0,1-.551,1.073,2.754,2.754,0,0,1-1.014.687,2.9,2.9,0,0,1-1.156.2l-.045,0a2.427,2.427,0,0,1-1.146-.336.05.05,0,0,1-.022-.05A.048.048,0,0,1,5773.425,2596.838Z" transform="translate(-5773.385 -2595.249)" fill="#3f3e40"/><g transform="translate(10.865)"><path d="M5801.657,2596.838c-.122-.022-.24-.042-.356-.06-.254-.042-.494-.081-.727-.135a6.246,6.246,0,0,1-.967-.292,5.5,5.5,0,0,1-.895-.45,8.365,8.365,0,0,1-.875-.642.048.048,0,0,0-.054,0,.047.047,0,0,0-.023.049,2.1,2.1,0,0,0,.551,1.073,2.754,2.754,0,0,0,1.014.687,2.9,2.9,0,0,0,1.156.2l.046,0a2.425,2.425,0,0,0,1.146-.336.049.049,0,0,0,.022-.05A.049.049,0,0,0,5801.657,2596.838Z" transform="translate(-5797.76 -2595.249)" fill="#3f3e40"/></g></g><g transform="translate(7.724 14.452)"><path d="M5787.007,2610.569a.4.4,0,0,1,.314.151l1.33,1.653a.4.4,0,1,1-.628.506l-.986-1.224-1.388,2.08a.4.4,0,0,1-.336.18h0a.4.4,0,0,1-.335-.18l-1.359-2.035-1.359,2.035a.4.4,0,0,1-.336.18h0a.4.4,0,0,1-.335-.18l-1.388-2.08-.985,1.224a.4.4,0,1,1-.629-.506l1.331-1.653a.4.4,0,0,1,.332-.15.405.405,0,0,1,.318.179l1.357,2.036,1.359-2.036a.4.4,0,0,1,.672,0l1.359,2.036,1.357-2.036a.405.405,0,0,1,.318-.179Z" transform="translate(-5778.496 -2610.569)" fill="#654735"/></g></svg>